<svg width="80" height="80" viewBox="0 0 80 80" fill="none" xmlns="http://www.w3.org/2000/svg">
<foreignObject x="-4.8" y="-4.8" width="89.6" height="89.6"><div xmlns="http://www.w3.org/1999/xhtml" style="backdrop-filter:blur(2.4px);clip-path:url(#bgblur_0_1_4199_clip_path);height:100%;width:100%"></div></foreignObject><circle data-figma-bg-blur-radius="4.8" cx="40" cy="40" r="40" fill="#BCBDC0"/>
<path d="M60.6976 17.9102H19.8617C19.4079 17.9102 19.1055 18.2126 19.1055 18.6663V62.5271C19.1055 62.9808 19.4079 63.2833 19.8617 63.2833H24.399H38.011H51.6229H60.6976C61.1513 63.2833 61.4538 62.9808 61.4538 62.5271V18.6663C61.4538 18.2126 61.1513 17.9102 60.6976 17.9102ZM37.2548 61.7709H25.1552V28.4973H37.2547V61.7709H37.2548ZM38.7671 61.7709V28.4973H50.8666V61.771L38.7671 61.7709ZM59.9414 61.7709H52.3792V27.741C52.3792 27.2873 52.0767 26.9848 51.623 26.9848H38.011H24.399C23.9453 26.9848 23.6428 27.2873 23.6428 27.741V61.7709H20.6179V19.4226H59.9413V61.7709H59.9414Z" fill="#202225"/>
<path d="M34.2276 25.4748H41.7898C43.0754 25.4748 44.0585 24.4918 44.0585 23.2062C44.0585 21.9206 43.0754 20.9375 41.7898 20.9375H34.2276C32.942 20.9375 31.959 21.9206 31.959 23.2062C31.959 24.4918 32.9421 25.4748 34.2276 25.4748ZM34.2276 22.45H41.7898C42.2436 22.45 42.546 22.7524 42.546 23.2062C42.546 23.6599 42.2436 23.9624 41.7898 23.9624H34.2276C33.7739 23.9624 33.4715 23.6599 33.4715 23.2062C33.4715 22.7524 33.7739 22.45 34.2276 22.45Z" fill="#202225"/>
<path d="M55.1764 43.3957L56.1594 42.4127L57.1425 43.3957C57.2938 43.547 57.445 43.6226 57.6718 43.6226C57.8987 43.6226 58.05 43.547 58.2011 43.3957C58.5036 43.0933 58.5036 42.6395 58.2011 42.337L56.6887 40.8245C56.3862 40.522 55.9325 40.522 55.6299 40.8245L54.1175 42.337C53.815 42.6394 53.815 43.0932 54.1175 43.3957C54.4201 43.6983 54.8738 43.6983 55.1764 43.3957Z" fill="#202225"/>
<path d="M55.6299 49.4465C55.7812 49.5978 55.9324 49.6734 56.1593 49.6734C56.3861 49.6734 56.5374 49.5978 56.6886 49.4465L58.2011 47.934C58.5035 47.6316 58.5035 47.1778 58.2011 46.8753C57.8986 46.5728 57.4449 46.5728 57.1423 46.8753L56.1593 47.8584L55.1762 46.8754C54.8737 46.5729 54.42 46.5729 54.1175 46.8754C53.815 47.1778 53.815 47.6316 54.1175 47.9341L55.6299 49.4465Z" fill="#202225"/>
<defs>
<clipPath id="bgblur_0_1_4199_clip_path" transform="translate(4.8 4.8)"><circle cx="40" cy="40" r="40"/>
</clipPath></defs>
</svg>
