<svg width="48" height="50" viewBox="0 0 48 50" fill="none" xmlns="http://www.w3.org/2000/svg">
<path d="M17.736 11.3185H34.0661V20.6992L23.6431 30.0021C23.451 30.1732 23.3839 30.4471 23.4758 30.6888C23.5677 30.9305 23.7981 31.0902 24.0553 31.0902H45.3176C45.5747 31.0902 45.8051 30.9305 45.897 30.6888C45.9889 30.4471 45.9218 30.1743 45.7297 30.0021L43.3437 27.8724V21.0882C43.3437 20.7448 43.0658 20.4658 42.7239 20.4658H38.7576C38.4157 20.4658 38.1378 20.7448 38.1378 21.0882V23.2261L35.3056 20.6981V11.3174H46.0189C46.3835 11.3174 46.7089 11.1276 46.8886 10.8081C47.0683 10.4896 47.0642 10.112 46.8762 9.79668L44.9571 6.57988C44.8455 6.39212 44.6431 6.27697 44.4251 6.27697H11.3237V4.15145C11.3237 3.32158 10.6513 2.64627 9.82497 2.64627H9.01827V0.622407C9.01827 0.279046 8.74042 0 8.39853 0C8.05664 0 7.77879 0.279046 7.77879 0.622407V2.64627H6.97209C6.14577 2.64627 5.47335 3.32158 5.47335 4.15145V6.27905H2.94584C2.72789 6.27905 2.52648 6.39419 2.41389 6.58195L0.49476 9.79876C0.307805 10.1131 0.30264 10.4907 0.482365 10.8102C0.66209 11.1286 0.987455 11.3195 1.35207 11.3195H5.47335V21.6701H4.97033C4.62844 21.6701 4.35058 21.9492 4.35058 22.2925C4.35058 22.6359 4.62844 22.9149 4.97033 22.9149H5.47335V25.555H4.97033C4.62844 25.555 4.35058 25.834 4.35058 26.1774C4.35058 26.5207 4.62844 26.7998 4.97033 26.7998H5.47335V29.4398H4.97033C4.62844 29.4398 4.35058 29.7189 4.35058 30.0622C4.35058 30.4056 4.62844 30.6846 4.97033 30.6846H5.47335V33.3247H4.97033C4.62844 33.3247 4.35058 33.6037 4.35058 33.9471C4.35058 34.2905 4.62844 34.5695 4.97033 34.5695H5.47335V37.2095H4.97033C4.62844 37.2095 4.35058 37.4886 4.35058 37.832C4.35058 38.1753 4.62844 38.4544 4.97033 38.4544H5.47335V41.0944H4.97033C4.62844 41.0944 4.35058 41.3734 4.35058 41.7168C4.35058 42.0602 4.62844 42.3392 4.97033 42.3392H5.47335V43.8994H1.09384C0.490629 43.8994 0 44.3921 0 44.9979V48.9015C0 49.5073 0.490629 50 1.09384 50H15.7032C16.3064 50 16.7971 49.5073 16.7971 48.9015V44.9979C16.7971 44.3921 16.3064 43.8994 15.7032 43.8994H11.3237V42.3392H11.8267C12.1686 42.3392 12.4465 42.0602 12.4465 41.7168C12.4465 41.3734 12.1686 41.0944 11.8267 41.0944H11.3237V38.4544H11.8267C12.1686 38.4544 12.4465 38.1753 12.4465 37.832C12.4465 37.4886 12.1686 37.2095 11.8267 37.2095H11.3237V34.5695H11.8267C12.1686 34.5695 12.4465 34.2905 12.4465 33.9471C12.4465 33.6037 12.1686 33.3247 11.8267 33.3247H11.3237V30.6846H11.8267C12.1686 30.6846 12.4465 30.4056 12.4465 30.0622C12.4465 29.7189 12.1686 29.4398 11.8267 29.4398H11.3237V26.7998H11.8267C12.1686 26.7998 12.4465 26.5207 12.4465 26.1774C12.4465 25.834 12.1686 25.555 11.8267 25.555H11.3237V22.9149H11.8267C12.1686 22.9149 12.4465 22.6359 12.4465 22.2925C12.4465 21.9492 12.1686 21.6701 11.8267 21.6701H11.3237V19.5799L18.7492 19.6473H18.7647C19.3173 19.6473 19.8111 19.3828 20.1199 18.9212C20.4318 18.4544 20.4866 17.89 20.2697 17.3724L17.736 11.3185ZM25.6852 29.8454L34.6859 21.8112L43.6866 29.8454H25.6852ZM39.3773 21.7106H42.1042V26.7666L39.3773 24.333V21.7106ZM6.71386 4.15145C6.71386 4.01037 6.83265 3.89108 6.97312 3.89108H9.82497C9.96544 3.89108 10.0842 4.01037 10.0842 4.15145V6.27905H6.71386V4.15145ZM3.29702 7.52386H44.075L45.5964 10.0737H1.77556L3.29702 7.52386ZM15.5576 48.7552H1.23948V45.1442H15.5576V48.7552ZM10.0842 43.8994H6.71386V42.3392H10.0842V43.8994ZM10.0842 41.0934H6.71386V38.4533H10.0842V41.0934ZM10.0842 37.2085H6.71386V34.5685H10.0842V37.2085ZM10.0842 33.3237H6.71386V30.6836H10.0842V33.3237ZM10.0842 29.4388H6.71386V26.7988H10.0842V29.4388ZM10.0842 25.5539H6.71386V22.9139H10.0842V25.5539ZM6.71386 21.6691V11.3185H10.0842V21.6691H6.71386ZM19.0901 18.2261C19.0116 18.3434 18.9052 18.4015 18.7647 18.4015C18.7637 18.4015 18.7616 18.4015 18.7606 18.4015L11.3247 18.334V11.3185H16.3932L19.1273 17.8527C19.181 17.9855 19.1696 18.1068 19.0901 18.2261ZM47.3813 48.7552H45.9363V35.0695C45.9363 34.7261 45.6584 34.4471 45.3165 34.4471H24.0553C23.7134 34.4471 23.4355 34.7261 23.4355 35.0695V48.7552H21.9905C21.6486 48.7552 21.3707 49.0342 21.3707 49.3776C21.3707 49.721 21.6486 50 21.9905 50H47.3803C47.7222 50 48 49.721 48 49.3776C48 49.0342 47.7232 48.7552 47.3813 48.7552ZM24.675 35.6919H44.6968V48.7552H38.426V41.0871C38.426 40.7438 38.1482 40.4647 37.8063 40.4647H31.5665C31.2246 40.4647 30.9468 40.7438 30.9468 41.0871V48.7552H24.676V35.6919H24.675ZM37.1865 48.7552H32.1863V41.7095H37.1865V48.7552Z" fill="#8F8183"/>
</svg>
