<svg width="1600" height="2300" viewBox="0 0 1600 2300" fill="none" xmlns="http://www.w3.org/2000/svg">
  <defs>
    <linearGradient id="pageBg" x1="0" y1="0" x2="0" y2="1">
      <stop stop-color="#F7F3F0"/>
      <stop offset="1" stop-color="#EFE8E3"/>
    </linearGradient>
    <linearGradient id="heroBar" x1="0" y1="0" x2="1" y2="0">
      <stop stop-color="#262222"/>
      <stop offset="1" stop-color="#403737"/>
    </linearGradient>
    <linearGradient id="primaryBtn" x1="0" y1="0" x2="1" y2="0">
      <stop stop-color="#D8B0A4"/>
      <stop offset="1" stop-color="#C48F86"/>
    </linearGradient>
    <linearGradient id="softPanel" x1="0" y1="0" x2="1" y2="1">
      <stop stop-color="#FFFDFC"/>
      <stop offset="1" stop-color="#F7F1ED"/>
    </linearGradient>
    <filter id="cardShadow" x="-20%" y="-20%" width="140%" height="140%">
      <feDropShadow dx="0" dy="18" stdDeviation="24" flood-color="#000000" flood-opacity="0.08"/>
    </filter>
  </defs>

  <rect width="1600" height="2300" fill="#1F1B1B"/>
  <rect x="40" y="40" width="1520" height="2220" rx="24" fill="url(#pageBg)"/>

  <rect x="40" y="40" width="1520" height="96" rx="24" fill="url(#heroBar)"/>
  <rect x="40" y="88" width="1520" height="48" fill="url(#heroBar)"/>
  <text x="88" y="102" fill="#FFFFFF" font-family="Arial, Helvetica, sans-serif" font-size="18" font-weight="700">Real Estate Admin React UI</text>
  <text x="88" y="126" fill="#E7DDD8" font-family="Arial, Helvetica, sans-serif" font-size="11">Curated premium neutral theme for your admin experience</text>
  <rect x="1325" y="72" width="180" height="42" rx="21" fill="#FFF7F3"/>
  <text x="1415" y="98" text-anchor="middle" fill="#2D2426" font-family="Arial, Helvetica, sans-serif" font-size="14" font-weight="700">Preview Theme</text>

  <text x="88" y="208" fill="#211D1E" font-family="Georgia, Times New Roman, serif" font-size="44">Real Estate Admin Panel</text>
  <text x="88" y="240" fill="#8D7D7A" font-family="Arial, Helvetica, sans-serif" font-size="16">Warm taupe, blush beige, charcoal, and stone white palette matched to your real-estate brand direction.</text>

  <rect x="88" y="286" width="1424" height="170" rx="28" fill="url(#softPanel)" filter="url(#cardShadow)"/>
  <text x="126" y="350" fill="#231F20" font-family="Arial, Helvetica, sans-serif" font-size="20" font-weight="700">Basic Info</text>
  <rect x="126" y="384" width="1348" height="42" rx="12" fill="#FFFFFF" stroke="#E4DBD5"/>
  <rect x="126" y="438" width="1348" height="42" rx="12" fill="#FFFFFF" stroke="#E4DBD5"/>
  <text x="148" y="411" fill="#9B8D88" font-family="Arial, Helvetica, sans-serif" font-size="15">Project Name</text>
  <text x="148" y="465" fill="#9B8D88" font-family="Arial, Helvetica, sans-serif" font-size="15">RERA Number</text>

  <rect x="88" y="494" width="1424" height="276" rx="28" fill="url(#softPanel)" filter="url(#cardShadow)"/>
  <text x="126" y="558" fill="#231F20" font-family="Arial, Helvetica, sans-serif" font-size="20" font-weight="700">Hero Section</text>
  <text x="126" y="612" fill="#655958" font-family="Arial, Helvetica, sans-serif" font-size="16">Logo</text>
  <rect x="126" y="632" width="642" height="54" rx="14" fill="#FCFAF8" stroke="#E4DBD5"/>
  <text x="148" y="665" fill="#9B8D88" font-family="Arial, Helvetica, sans-serif" font-size="15">Choose File</text>
  <text x="276" y="665" fill="#776A69" font-family="Arial, Helvetica, sans-serif" font-size="15">brand-logo.svg</text>
  <text x="808" y="612" fill="#655958" font-family="Arial, Helvetica, sans-serif" font-size="16">Hero Image</text>
  <rect x="808" y="632" width="666" height="54" rx="14" fill="#FCFAF8" stroke="#E4DBD5"/>
  <text x="830" y="665" fill="#9B8D88" font-family="Arial, Helvetica, sans-serif" font-size="15">Choose File</text>
  <text x="958" y="665" fill="#776A69" font-family="Arial, Helvetica, sans-serif" font-size="15">hero-banner.jpg</text>
  <rect x="126" y="710" width="1348" height="24" rx="12" fill="#EEE6E0"/>
  <rect x="126" y="710" width="510" height="24" rx="12" fill="url(#primaryBtn)"/>
  <text x="674" y="727" text-anchor="middle" fill="#8C7F7F" font-family="Arial, Helvetica, sans-serif" font-size="12">Assets synced</text>

  <rect x="88" y="808" width="1424" height="226" rx="28" fill="url(#softPanel)" filter="url(#cardShadow)"/>
  <text x="126" y="872" fill="#231F20" font-family="Arial, Helvetica, sans-serif" font-size="20" font-weight="700">Highlights</text>
  <rect x="126" y="906" width="1348" height="42" rx="12" fill="#FFFFFF" stroke="#E4DBD5"/>
  <rect x="126" y="960" width="648" height="42" rx="12" fill="#FFFFFF" stroke="#E4DBD5"/>
  <rect x="826" y="960" width="648" height="42" rx="12" fill="#FFFFFF" stroke="#E4DBD5"/>
  <text x="148" y="933" fill="#9B8D88" font-family="Arial, Helvetica, sans-serif" font-size="15">Area</text>
  <text x="148" y="987" fill="#9B8D88" font-family="Arial, Helvetica, sans-serif" font-size="15">Type</text>
  <text x="848" y="987" fill="#9B8D88" font-family="Arial, Helvetica, sans-serif" font-size="15">Completion</text>

  <rect x="88" y="1072" width="1424" height="252" rx="28" fill="url(#softPanel)" filter="url(#cardShadow)"/>
  <text x="126" y="1136" fill="#231F20" font-family="Arial, Helvetica, sans-serif" font-size="20" font-weight="700">Description</text>
  <rect x="126" y="1170" width="1348" height="116" rx="14" fill="#FFFFFF" stroke="#E4DBD5"/>
  <text x="148" y="1200" fill="#9B8D88" font-family="Arial, Helvetica, sans-serif" font-size="15">Write a rich project overview, amenities summary, lifestyle story, and positioning...</text>

  <rect x="88" y="1362" width="1424" height="188" rx="28" fill="url(#softPanel)" filter="url(#cardShadow)"/>
  <text x="126" y="1426" fill="#231F20" font-family="Arial, Helvetica, sans-serif" font-size="20" font-weight="700">Gallery</text>
  <rect x="126" y="1458" width="1002" height="52" rx="14" fill="#FFFFFF" stroke="#E4DBD5"/>
  <rect x="1148" y="1458" width="326" height="52" rx="14" fill="#F3E7E1" stroke="#E0D2CB"/>
  <text x="148" y="1490" fill="#9B8D88" font-family="Arial, Helvetica, sans-serif" font-size="15">Choose Files</text>
  <text x="1240" y="1490" text-anchor="middle" fill="#5E4B47" font-family="Arial, Helvetica, sans-serif" font-size="14" font-weight="700">Upload Media</text>

  <rect x="88" y="1588" width="1424" height="296" rx="28" fill="url(#softPanel)" filter="url(#cardShadow)"/>
  <text x="126" y="1652" fill="#231F20" font-family="Arial, Helvetica, sans-serif" font-size="20" font-weight="700">Amenities</text>
  <rect x="126" y="1686" width="1348" height="42" rx="12" fill="#FFFFFF" stroke="#E4DBD5"/>
  <text x="148" y="1713" fill="#9B8D88" font-family="Arial, Helvetica, sans-serif" font-size="15">Amenity Name</text>
  <rect x="126" y="1750" width="940" height="54" rx="14" fill="#FFFFFF" stroke="#E4DBD5"/>
  <text x="148" y="1783" fill="#9B8D88" font-family="Arial, Helvetica, sans-serif" font-size="15">Choose File</text>
  <rect x="1088" y="1750" width="198" height="54" rx="14" fill="#D8B0A4"/>
  <text x="1187" y="1784" text-anchor="middle" fill="#3B302F" font-family="Arial, Helvetica, sans-serif" font-size="15" font-weight="700">Add Amenity</text>

  <rect x="88" y="1922" width="1424" height="292" rx="28" fill="url(#softPanel)" filter="url(#cardShadow)"/>
  <text x="126" y="1986" fill="#231F20" font-family="Arial, Helvetica, sans-serif" font-size="20" font-weight="700">Location</text>
  <rect x="126" y="2020" width="1348" height="42" rx="12" fill="#FFFFFF" stroke="#E4DBD5"/>
  <rect x="126" y="2074" width="662" height="42" rx="12" fill="#FFFFFF" stroke="#E4DBD5"/>
  <rect x="812" y="2074" width="662" height="42" rx="12" fill="#FFFFFF" stroke="#E4DBD5"/>
  <text x="148" y="2047" fill="#9B8D88" font-family="Arial, Helvetica, sans-serif" font-size="15">Full Address</text>
  <text x="148" y="2101" fill="#9B8D88" font-family="Arial, Helvetica, sans-serif" font-size="15">Latitude</text>
  <text x="834" y="2101" fill="#9B8D88" font-family="Arial, Helvetica, sans-serif" font-size="15">Longitude</text>
  <rect x="126" y="2140" width="1348" height="42" rx="12" fill="#FFFFFF" stroke="#E4DBD5"/>
  <text x="148" y="2167" fill="#9B8D88" font-family="Arial, Helvetica, sans-serif" font-size="15">Nearby Connectivity (Walk / Drive)</text>

  <rect x="88" y="2228" width="1424" height="0" rx="0" fill="#000000"/>

  <rect x="88" y="2200" width="210" height="64" rx="20" fill="#1F1C1C"/>
  <text x="193" y="2239" text-anchor="middle" fill="#FFFFFF" font-family="Arial, Helvetica, sans-serif" font-size="17" font-weight="700">Save Project</text>

  <rect x="322" y="2200" width="220" height="64" rx="20" fill="url(#primaryBtn)"/>
  <text x="432" y="2239" text-anchor="middle" fill="#3B302F" font-family="Arial, Helvetica, sans-serif" font-size="17" font-weight="700">Preview Theme</text>
</svg>
