<svg width="18" height="15" viewBox="0 0 18 15" fill="none" xmlns="http://www.w3.org/2000/svg">
<path d="M3.05 8.375H5.6M0.5 4.875L2.2 5.75L3.28005 2.41456C3.50298 1.72609 3.61445 1.38186 3.82119 1.12736C4.00377 0.902617 4.23823 0.728657 4.50308 0.621428C4.803 0.5 5.15549 0.5 5.86047 0.5H12.1395C12.8445 0.5 13.197 0.5 13.4969 0.621428C13.7618 0.728657 13.9962 0.902617 14.1788 1.12736C14.3856 1.38186 14.497 1.72609 14.72 2.41456L15.8 5.75L17.5 4.875M12.4 8.375H14.95M4.58 5.75H13.42C14.8481 5.75 15.5622 5.75 16.1077 6.03611C16.5875 6.28778 16.9776 6.68935 17.2221 7.18328C17.5 7.74479 17.5 8.47986 17.5 9.95V12.3125C17.5 12.7191 17.5 12.9224 17.4673 13.0914C17.3332 13.7856 16.806 14.3283 16.1317 14.4664C15.9674 14.5 15.77 14.5 15.375 14.5H14.95C14.0111 14.5 13.25 13.7165 13.25 12.75C13.25 12.5084 13.0597 12.3125 12.825 12.3125H5.175C4.94028 12.3125 4.75 12.5084 4.75 12.75C4.75 13.7165 3.98888 14.5 3.05 14.5H2.625C2.23004 14.5 2.03256 14.5 1.86835 14.4664C1.19397 14.3283 0.666806 13.7856 0.532665 13.0914C0.5 12.9224 0.5 12.7191 0.5 12.3125V9.95C0.5 8.47986 0.5 7.74479 0.777933 7.18328C1.02241 6.68935 1.41251 6.28778 1.89232 6.03611C2.4378 5.75 3.15187 5.75 4.58 5.75Z" stroke="#8F8183" stroke-linecap="round" stroke-linejoin="round"/>
</svg>
