<svg width="258" height="42" viewBox="0 0 258 42" fill="none" xmlns="http://www.w3.org/2000/svg">
<path d="M7.94 20.485H11.17V5.88501L7.94 5.255V20.485ZM0 4.59497H19.1V1.35498H0V4.59497Z" fill="#8F8183"/>
<path d="M32.8204 14.8549H26.5504V20.4849H23.4004V1.31494H26.6004V11.6549H33.4004L32.8204 14.8549ZM37.6004 1.31494V20.4849H34.4004V1.31494H37.6004Z" fill="#8F8183"/>
<path d="M57.0305 4.55496H45.9505V11.6549H53.3405L52.7105 14.895H45.9505V17.215H57.0305V20.455H42.7305V17.215V14.895V11.6549V4.55496V2.93497V1.31494H57.0305V4.55496Z" fill="#8F8183"/>
<path d="M93.1297 10.895C93.116 13.1231 92.3211 15.2759 90.8836 16.9783C89.446 18.6808 87.4569 19.825 85.2625 20.2118C83.0681 20.5987 80.8076 20.2036 78.8746 19.0953C76.9416 17.987 75.4586 16.2357 74.6838 14.1465C73.9091 12.0574 73.8917 9.76265 74.6347 7.66198C75.3777 5.56131 76.834 3.78779 78.75 2.65032C80.666 1.51285 82.9203 1.08349 85.1202 1.437C87.3202 1.79052 89.3265 2.90449 90.7897 4.58495L88.3997 6.92498C87.8178 6.20091 87.0809 5.6166 86.2433 5.21508C85.4056 4.81357 84.4886 4.60507 83.5597 4.60497C82.4384 4.59903 81.3359 4.89245 80.3659 5.45495C79.3959 6.01745 78.5936 6.82867 78.0418 7.8048C77.4901 8.78094 77.2088 9.88661 77.2271 11.0077C77.2454 12.1289 77.5626 13.2248 78.146 14.1824C78.7293 15.14 79.5577 15.9246 80.5455 16.4551C81.5333 16.9857 82.6449 17.2429 83.7653 17.2004C84.8858 17.1578 85.9746 16.817 86.9194 16.2131C87.8642 15.6092 88.6306 14.7641 89.1396 13.765H84.7097L84.2197 10.895H93.0897H93.1297Z" fill="#8F8183"/>
<path d="M100.08 18.4849C99.5299 17.9146 99.0982 17.241 98.8098 16.503C98.5215 15.765 98.3822 14.9771 98.3999 14.1849V1.31494H101.6V14.1849C101.6 16.1849 103.03 17.265 105.76 17.265C108.49 17.265 109.98 16.1449 109.98 14.1249V1.31494H113.18V14.1249C113.18 17.0549 111.23 20.4449 105.76 20.4449C104.739 20.512 103.715 20.376 102.747 20.0447C101.779 19.7134 100.886 19.1935 100.12 18.515" fill="#8F8183"/>
<path d="M152.1 14.9649L156.1 20.4449H152.1L148.51 15.5449H145.98L145.34 12.3349H149.23C150.262 12.3349 151.251 11.9251 151.98 11.1956C152.71 10.466 153.12 9.47664 153.12 8.44495C153.12 7.41325 152.71 6.42379 151.98 5.69427C151.251 4.96476 150.262 4.55493 149.23 4.55493H144.79V20.4849H141.59V1.31494H149.23C150.861 1.32529 152.439 1.89454 153.701 2.92773C154.963 3.96093 155.833 5.39558 156.165 6.99243C156.497 8.58929 156.272 10.2518 155.527 11.7026C154.782 13.1535 153.561 14.3049 152.07 14.9649" fill="#8F8183"/>
<path d="M177.401 11.9449C177.401 19.1949 173.551 20.4449 169.831 20.4449H162.311V1.31494H169.831C173.651 1.31494 177.401 4.71495 177.401 11.9449ZM174.281 11.8849C174.281 8.67495 173.391 6.88493 172.641 5.99493C172.316 5.55325 171.893 5.19318 171.406 4.94324C170.918 4.6933 170.379 4.56035 169.831 4.55493H165.401V17.2149H169.801C170.91 17.3242 172.022 17.0373 172.941 16.4049C174.011 15.4849 174.251 13.4549 174.251 11.8849" fill="#8F8183"/>
<path d="M185.861 1.31494H182.631V20.4449H185.861V1.31494Z" fill="#8F8183"/>
<path d="M225.25 16.4849L217.73 8.68494V20.4849H214.84V1.31494L225.25 12.1549V16.4849ZM229.05 1.29492V20.4849L226.16 17.4849V1.31494L229.05 1.29492Z" fill="#8F8183"/>
<path d="M250.149 14.0549C250.149 16.7149 247.669 20.4449 242.219 20.4449C237.219 20.4449 234.719 17.3149 234.329 14.7349L237.479 14.1249C237.539 14.8849 238.389 17.265 242.219 17.265C246.049 17.265 246.949 14.7349 246.949 14.0549C246.949 13.3749 245.459 12.4549 242.219 12.4549C234.859 12.4549 234.279 8.80494 234.279 7.68494C234.279 5.04494 236.749 1.31494 242.219 1.31494C247.219 1.31494 249.709 4.44494 250.099 7.00494L246.949 7.63495C246.949 6.87495 246.039 4.5249 242.219 4.5249C238.399 4.5249 237.479 7.05494 237.479 7.68494C237.479 8.31494 238.729 9.2749 242.219 9.2749C244.218 9.16673 246.209 9.59124 247.989 10.5049C248.633 10.8506 249.173 11.3619 249.552 11.986C249.932 12.6102 250.138 13.3244 250.149 14.0549Z" fill="#8F8183"/>
<path d="M126.851 7.8447L133.161 20.4547H136.381L126.851 1.32471L117.311 20.4547H120.641L126.851 7.8447Z" fill="#8F8183"/>
<path d="M200.079 7.8447L206.389 20.4547H209.609L200.079 1.32471L190.539 20.4547H193.859L200.079 7.8447Z" fill="#8F8183"/>
<path d="M252.91 1.39468H254.54C254.919 1.37062 255.293 1.48826 255.59 1.7247C255.685 1.81731 255.76 1.92777 255.811 2.04965C255.863 2.17152 255.89 2.30241 255.89 2.43472C255.892 2.67888 255.805 2.91536 255.645 3.09957C255.484 3.28378 255.262 3.40299 255.02 3.43472L256.02 4.69473H255.26L254.36 3.53469H253.56V4.69473H252.92L252.91 1.39468ZM254.49 3.03469C254.95 3.03469 255.24 2.81471 255.24 2.48471C255.24 2.12471 254.96 1.93472 254.49 1.93472H253.55V3.0447L254.49 3.03469Z" fill="#8F8183"/>
<path d="M254.471 6.08517C253.881 6.02691 253.322 5.79853 252.861 5.42782C252.399 5.05711 252.056 4.56011 251.872 3.99746C251.688 3.43482 251.672 2.83087 251.825 2.25918C251.978 1.68749 252.295 1.17281 252.736 0.777918C253.177 0.383029 253.723 0.124968 254.308 0.0352421C254.893 -0.0544839 255.492 0.0280034 256.031 0.272608C256.57 0.517212 257.026 0.913384 257.344 1.41281C257.662 1.91223 257.827 2.49328 257.82 3.08517C257.764 3.92343 257.382 4.70638 256.756 5.26687C256.13 5.82736 255.31 6.121 254.471 6.08517ZM254.471 0.345179C253.95 0.401188 253.457 0.606693 253.051 0.936853C252.645 1.26701 252.343 1.70773 252.182 2.20571C252.021 2.7037 252.008 3.23769 252.143 3.74313C252.279 4.24857 252.559 4.70385 252.948 5.05398C253.337 5.40411 253.819 5.6341 254.336 5.71615C254.853 5.7982 255.382 5.72876 255.861 5.51632C256.339 5.30388 256.745 4.95747 257.031 4.51895C257.317 4.08042 257.469 3.56857 257.471 3.04519C257.451 2.67075 257.358 2.30378 257.197 1.9653C257.036 1.62681 256.809 1.32347 256.531 1.07266C256.252 0.821841 255.927 0.628457 255.573 0.503626C255.22 0.378795 254.845 0.324954 254.471 0.345179Z" fill="#8F8183"/>
<path d="M49.9409 34.105H48.6309V41.555H49.9409V34.105Z" fill="#8F8183"/>
<path d="M57.3594 34.105H58.5694L62.5494 39.255V34.105H63.8394V41.555H62.7394L58.6494 36.255V41.555H57.3594V34.105Z" fill="#8F8183"/>
<path d="M73.0201 35.315H70.6602V34.105H76.6902V35.315H74.3302V41.555H73.0201V35.315Z" fill="#8F8183"/>
<path d="M83.5195 34.105H89.0295V35.275H84.8195V37.215H88.5495V38.385H84.8195V40.385H89.0795V41.555H83.5195V34.105Z" fill="#8F8183"/>
<path d="M96.0801 34.0951H99.4001C100.187 34.0529 100.96 34.3223 101.55 34.8451C101.958 35.2803 102.177 35.859 102.16 36.4551C102.176 36.9795 102.008 37.4929 101.685 37.9059C101.361 38.3189 100.903 38.6053 100.39 38.7151L102.39 41.5351H100.85L99.0301 38.9352H97.4001V41.5351H96.1001L96.0801 34.0951ZM99.2901 37.7951C100.23 37.7951 100.82 37.3051 100.82 36.5451C100.82 35.7451 100.25 35.3152 99.2801 35.3152H97.4001V37.8152L99.2901 37.7951Z" fill="#8F8183"/>
<path d="M109.189 34.105H110.409L114.389 39.255V34.105H115.669V41.555H114.579L110.479 36.255V41.555H109.189V34.105Z" fill="#8F8183"/>
<path d="M125.66 34.0449H126.87L130.14 41.5549H128.76L128.01 39.7549H124.49L123.73 41.5549H122.4L125.66 34.0449ZM127.53 38.5949L126.24 35.5949L124.97 38.5949H127.53Z" fill="#8F8183"/>
<path d="M137.729 35.315H135.369V34.105H141.399V35.315H139.039V41.555H137.729V35.315Z" fill="#8F8183"/>
<path d="M149.611 34.105H148.301V41.555H149.611V34.105Z" fill="#8F8183"/>
<path d="M156.711 37.8452C156.761 36.8489 157.193 35.9101 157.916 35.2228C158.639 34.5356 159.598 34.1523 160.596 34.1523C161.594 34.1523 162.553 34.5356 163.276 35.2228C163.999 35.9101 164.43 36.8489 164.481 37.8452C164.43 38.8414 163.999 39.7802 163.276 40.4675C162.553 41.1547 161.594 41.538 160.596 41.538C159.598 41.538 158.639 41.1547 157.916 40.4675C157.193 39.7802 156.761 38.8414 156.711 37.8452ZM163.111 37.8452C163.124 37.5045 163.069 37.1646 162.949 36.8456C162.829 36.5266 162.646 36.2349 162.411 35.9878C162.176 35.7407 161.894 35.5433 161.581 35.4072C161.269 35.271 160.932 35.1989 160.591 35.1952C160.251 35.1948 159.914 35.2635 159.602 35.397C159.289 35.5306 159.007 35.7263 158.772 35.9722C158.538 36.2182 158.355 36.5092 158.236 36.8278C158.118 37.1463 158.065 37.4856 158.081 37.8252C158.068 38.1667 158.123 38.5074 158.244 38.8271C158.365 39.1468 158.549 39.4389 158.785 39.6861C159.021 39.9333 159.304 40.1306 159.618 40.2661C159.931 40.4017 160.269 40.4727 160.611 40.4752C160.95 40.4742 161.285 40.4045 161.597 40.2703C161.908 40.1361 162.189 39.9403 162.423 39.6945C162.657 39.4487 162.838 39.1581 162.956 38.8403C163.075 38.5224 163.127 38.1839 163.111 37.8452Z" fill="#8F8183"/>
<path d="M171.5 34.105H172.72L176.69 39.255V34.105H177.98V41.555H176.89L172.79 36.255V41.555H171.5V34.105Z" fill="#8F8183"/>
<path d="M187.969 34.0449H189.179L192.449 41.5549H191.069L190.319 39.7549H186.799L186.039 41.5549H184.699L187.969 34.0449ZM189.839 38.5949L188.559 35.5949L187.279 38.5949H189.839Z" fill="#8F8183"/>
<path d="M199.17 34.105H200.47V40.365H204.38V41.555H199.17V34.105Z" fill="#8F8183"/>
<path d="M39.7198 37.4951H7.25977V38.1451H39.7198V37.4951Z" fill="#8F8183"/>
<path d="M245.749 37.4951H213.289V38.1451H245.749V37.4951Z" fill="#8F8183"/>
</svg>
