<svg width="344" height="193" viewBox="0 0 344 193" fill="none" xmlns="http://www.w3.org/2000/svg">
<g opacity="0.1">
<path d="M87.1396 150.306V173.891L125.135 195.716L87.1396 217.583V241.126L166.117 195.716L87.1396 150.306Z" fill="#BCBDC0"/>
<path d="M256.034 217.542L218.039 195.716L255.992 173.849V150.306L177.057 195.716L256.034 241.085V217.542Z" fill="#BCBDC0"/>
<path d="M232.81 133.842L194.815 155.667L194.773 111.975L174.281 100.203L174.323 191.024L253.259 145.613L232.81 133.842Z" fill="#BCBDC0"/>
<path d="M148.362 111.975V155.667L110.367 133.842L89.876 145.613L168.854 191.024V100.203L148.362 111.975Z" fill="#BCBDC0"/>
<path d="M261.463 150.306V173.849L299.5 195.716L261.463 217.542L261.505 241.126L340.483 195.674L261.463 150.306Z" fill="#BCBDC0"/>
<path d="M61.1789 61.9147V105.566L23.1838 83.7401L2.6925 95.5116L81.6702 140.88V50.1013L61.1789 61.9147Z" fill="#BCBDC0"/>
<path d="M174.281 0V90.8205L253.259 45.3684L232.768 33.6388L194.773 55.4223V11.7715L174.281 0Z" fill="#BCBDC0"/>
<path d="M319.949 83.6563L281.996 105.524V61.8728L261.463 50.1013V140.88L340.44 95.4697L319.949 83.6563Z" fill="#BCBDC0"/>
<path d="M177.057 95.4697L197.548 107.283L235.543 85.4158V129.108L255.992 140.88V50.1013L177.057 95.4697Z" fill="#BCBDC0"/>
<path d="M168.812 0L148.362 11.7715V55.4223L110.325 33.6388L89.876 45.4103L168.854 90.8205L168.812 0Z" fill="#BCBDC0"/>
<path d="M6.10352e-05 123.787L37.9531 145.613L6.10352e-05 167.48V191.023L78.9357 145.613L6.10352e-05 100.244V123.787Z" fill="#BCBDC0"/>
<path d="M107.631 85.4576L145.626 107.283L166.117 95.5116L87.1396 50.1013V140.922L107.673 129.108L107.631 85.4576Z" fill="#BCBDC0"/>
<path d="M343.175 167.439L305.18 145.572L316.54 139.079L324.156 134.68L343.175 123.747V123.705V100.162L264.197 145.614L343.175 190.982V167.439Z" fill="#BCBDC0"/>
<path d="M81.6701 217.583L43.6749 195.716L81.6701 173.891V150.306L2.7345 195.758L81.7121 241.126L81.6701 217.583Z" fill="#BCBDC0"/>
</g>
</svg>
