<svg width="248" height="67" viewBox="0 0 248 67" fill="none" xmlns="http://www.w3.org/2000/svg">
<mask id="mask0_1_2757" style="mask-type:luminance" maskUnits="userSpaceOnUse" x="0" y="0" width="248" height="67">
<path d="M247.82 0H0V66.95H247.82V0Z" fill="white"/>
</mask>
<g mask="url(#mask0_1_2757)">
<path d="M89.9507 28.7598L77.7207 58.4798H84.9807L87.4007 52.1898H99.2907L101.751 58.4798H109.221L97.0407 28.7598H89.9507ZM89.4407 47.0198L93.3406 36.9098L97.3406 47.0198H89.4407Z" fill="#8F8183"/>
<path d="M126.53 28.7695L118.38 50.0795L110.14 28.7695H102.5L114.68 58.4795H121.77L134 28.7695H126.53Z" fill="#8F8183"/>
<path d="M139.47 28.7598L127.24 58.4798H134.5L136.92 52.1898H148.81L151.27 58.4798H158.74L146.56 28.7598H139.47ZM138.99 47.0198L142.9 36.9098L146.84 47.0198H138.99Z" fill="#8F8183"/>
<path d="M168.731 52.5795V28.7695H161.471V58.4795H185.681L181.781 52.5795H168.731Z" fill="#8F8183"/>
<path d="M234.04 28.7698L227.16 40.0598L220.25 28.7698H211.99L223.47 46.1698V58.4798H230.69V46.2598L242.02 28.7698H234.04Z" fill="#8F8183"/>
<path d="M59.1004 43.6597C59.1004 38.9397 62.4504 35.0497 68.2404 35.0497C71.7604 35.0497 74.8204 36.3797 77.8504 39.0497V31.8497C74.9144 29.706 71.3434 28.6108 67.7104 28.7397C58.5604 28.7397 51.9004 34.8697 51.9004 43.5997C51.9004 52.3297 58.3904 58.4597 67.5404 58.4597C69.6484 58.4748 71.7441 58.1368 73.7404 57.4597L77.1504 49.0797C74.7031 51.2013 71.5693 52.3631 68.3304 52.3497C62.5304 52.3497 59.1004 48.4197 59.1004 43.6197" fill="#8F8183"/>
<path d="M206.381 46.58C206.993 46.3137 207.582 45.9958 208.141 45.6299C208.978 45.063 209.72 44.3678 210.341 43.5699C210.937 42.7842 211.4 41.9058 211.711 40.97C212.023 40.0006 212.182 38.9884 212.181 37.97C212.196 36.7066 211.961 35.4527 211.491 34.28C211.017 33.1078 210.254 32.0754 209.271 31.28C208.148 30.412 206.863 29.7763 205.491 29.4099C203.743 28.9464 201.939 28.7277 200.131 28.76H188.041V58.48H194.881V48.11H198.961C199.275 48.0824 199.592 48.1339 199.881 48.26C200.1 48.3882 200.283 48.5707 200.411 48.7899L206.771 58.48H214.651L207.331 47.7C207.044 47.2875 206.708 46.9115 206.331 46.58M205.101 40.1599C204.884 40.6941 204.541 41.1677 204.101 41.54C203.622 41.9668 203.055 42.2842 202.441 42.47C201.633 42.7257 200.788 42.8473 199.941 42.83H194.781V34.33H200.031C201.478 34.2157 202.921 34.5888 204.131 35.39C204.553 35.7467 204.886 36.1978 205.101 36.7069C205.316 37.2159 205.409 37.7685 205.371 38.3199C205.378 38.9412 205.27 39.5584 205.051 40.14" fill="#8F8183"/>
<path d="M41.0198 53.4995H18.5898V58.4795H41.0198V53.4995Z" fill="#8F8183"/>
<path d="M41.021 51.3295L28.441 32.2595C28.441 32.2595 28.361 32.1195 28.311 32.0495C28.1704 31.8058 28.1286 31.5175 28.194 31.2439C28.2595 30.9702 28.4273 30.7321 28.6629 30.5784C28.8986 30.4247 29.1842 30.3671 29.461 30.4176C29.7378 30.468 29.9847 30.6226 30.151 30.8495L30.2911 31.0695L30.4811 31.3495L37.141 41.4395L41.4111 32.8995L31.901 18.4795L24.081 23.6395C23.771 23.8495 23.481 24.0695 23.201 24.2995C21.4668 25.7849 20.3291 27.848 19.9982 30.1072C19.6673 32.3665 20.1656 34.6692 21.401 36.5895L21.531 36.7895L31.121 51.3295H41.021Z" fill="#8F8183"/>
<path d="M28.4903 51.3297V51.2798L24.7602 45.6097L19.7602 38.0197C19.715 37.9706 19.6748 37.917 19.6402 37.8597L19.5702 37.7597C18.0099 35.3557 17.3948 32.4591 17.8435 29.6284C18.2922 26.7978 19.7729 24.2334 22.0002 22.4297L30.7203 16.6797L27.4002 11.6797L26.1302 9.73975L19.2403 14.2897L18.5902 14.7198L18.1003 15.0397C17.8803 15.1897 17.6602 15.3398 17.4502 15.4998C13.5322 18.4151 10.8236 22.67 9.84067 27.4538C8.85774 32.2375 9.6691 37.2157 12.1202 41.4397C12.3102 41.7597 12.5002 42.0697 12.7102 42.4397L12.8603 42.6497C13.0203 42.8898 13.1803 43.1197 13.3503 43.3497L18.6603 51.3997L28.4903 51.3297Z" fill="#8F8183"/>
<path d="M54.4495 21.4697V15.0997H52.0195V14.4097H57.6895V15.0997H55.2595V21.4697H54.4495Z" fill="#8F8183"/>
<path d="M72.7606 18.0997H68.9506V21.4697H68.1406V14.4097H68.9506V17.4097H72.7606V14.4097H73.5706V21.4697H72.7606V18.0997Z" fill="#8F8183"/>
<path d="M84.7012 14.4097H88.8412V15.0997H85.5112V17.4597H88.5012V18.1497H85.5112V20.7897H88.8912V21.4697H84.7012V14.4097Z" fill="#8F8183"/>
<path d="M114.569 21.5697C113.607 21.5697 112.683 21.1873 112.003 20.5065C111.322 19.8258 110.939 18.9025 110.939 17.9397C110.939 16.977 111.322 16.0537 112.003 15.373C112.683 14.6922 113.607 14.3097 114.569 14.3097C115.475 14.2802 116.363 14.5587 117.089 15.0997V16.0397C116.41 15.3934 115.507 15.0351 114.569 15.0397C113.792 15.0397 113.047 15.3484 112.498 15.8979C111.948 16.4474 111.639 17.1927 111.639 17.9698C111.639 18.7468 111.948 19.4921 112.498 20.0416C113.047 20.591 113.792 20.8997 114.569 20.8997C115.186 20.9004 115.795 20.7602 116.349 20.4897V18.7097H114.789V18.0197H117.139V20.8697C116.346 21.3581 115.431 21.6112 114.499 21.5997" fill="#8F8183"/>
<path d="M128.831 18.5497C128.831 20.0897 129.621 20.8497 130.831 20.8497C132.041 20.8497 132.831 20.0897 132.831 18.5497V14.4097H133.631V18.6097C133.678 18.997 133.64 19.3899 133.519 19.7609C133.399 20.132 133.199 20.4722 132.933 20.7579C132.667 21.0436 132.342 21.2679 131.981 21.415C131.62 21.5621 131.231 21.6285 130.841 21.6097C130.451 21.6324 130.06 21.5684 129.698 21.4225C129.335 21.2765 129.009 21.0521 128.743 20.7654C128.478 20.4786 128.279 20.1366 128.161 19.7639C128.043 19.3913 128.009 18.9971 128.061 18.6097V14.4097H128.871L128.831 18.5497Z" fill="#8F8183"/>
<path d="M148.59 19.3997H145.35L144.5 21.4697H143.65L146.65 14.4097H147.3L150.3 21.4697H149.46L148.59 19.3997ZM148.31 18.7397L146.97 15.4597L145.62 18.7397H148.31Z" fill="#8F8183"/>
<path d="M160.65 14.4097H162.8C164.3 14.4097 165.13 15.1997 165.13 16.4097C165.131 16.9265 164.931 17.4235 164.573 17.7964C164.215 18.1692 163.727 18.389 163.21 18.4097L165.75 21.4897H164.75L162.31 18.4897H161.46V21.4897H160.65V14.4097ZM161.46 15.0897V17.7597H162.7C163.76 17.7597 164.32 17.2497 164.32 16.4397C164.32 15.6297 163.78 15.0897 162.71 15.0897H161.46Z" fill="#8F8183"/>
<path d="M176.09 14.4097H178.52C178.986 14.4016 179.448 14.4874 179.88 14.6619C180.312 14.8364 180.705 15.0961 181.034 15.4255C181.363 15.755 181.623 16.1473 181.798 16.5793C181.972 17.0112 182.058 17.4739 182.05 17.9397C182.054 18.4087 181.964 18.8737 181.785 19.3071C181.606 19.7405 181.341 20.1336 181.007 20.4629C180.674 20.7921 180.277 21.0509 179.841 21.2239C179.405 21.3969 178.939 21.4805 178.47 21.4697H176.09V14.4097ZM176.89 15.0997V20.7797H178.45C179.203 20.7797 179.926 20.4805 180.458 19.9479C180.991 19.4153 181.29 18.6929 181.29 17.9397C181.29 17.1865 180.991 16.4641 180.458 15.9315C179.926 15.3989 179.203 15.0997 178.45 15.0997H176.89Z" fill="#8F8183"/>
<path d="M193.64 14.4097H192.83V21.4697H193.64V14.4097Z" fill="#8F8183"/>
<path d="M208.94 19.3997H205.7L204.849 21.4697H204.02L207.02 14.4097H207.67L210.67 21.4697H209.83L208.94 19.3997ZM208.66 18.7397L207.32 15.4597L205.969 18.7397H208.66Z" fill="#8F8183"/>
<path d="M221.78 21.4697H221.01V14.4097H221.76L225.75 19.6597L226.18 20.2397L226.17 19.6597L226.15 14.4097H226.91V21.4697H226.22L222.15 16.1397L221.75 15.5797L221.76 16.1397L221.78 21.4697Z" fill="#8F8183"/>
<path d="M237.58 20.1497C238.149 20.6086 238.85 20.8747 239.58 20.9097C240.51 20.9097 241.05 20.4197 241.05 19.7197C241.05 19.2097 240.8 18.8397 239.89 18.3797L238.74 17.7997C238.315 17.6491 237.961 17.3441 237.75 16.9453C237.539 16.5465 237.485 16.0829 237.6 15.6464C237.714 15.2099 237.989 14.8323 238.368 14.5884C238.748 14.3446 239.206 14.2522 239.65 14.3297C240.3 14.3133 240.939 14.4984 241.48 14.8597V15.7397C240.971 15.2802 240.316 15.0146 239.63 14.9897C238.86 14.9897 238.34 15.4197 238.34 15.9897C238.34 16.4297 238.56 16.7997 239.34 17.1797L240.46 17.7497C241.46 18.2497 241.91 18.7497 241.91 19.6197C241.902 19.897 241.837 20.1695 241.718 20.4201C241.599 20.6707 241.429 20.8939 241.22 21.0754C241.01 21.2569 240.765 21.3928 240.5 21.4744C240.235 21.5561 239.956 21.5817 239.68 21.5497C238.972 21.5469 238.28 21.346 237.68 20.9697L237.58 20.1497Z" fill="#8F8183"/>
</g>
</svg>
