<svg width="218" height="78" viewBox="0 0 218 78" fill="none" xmlns="http://www.w3.org/2000/svg">
<path d="M28.2341 0.839888V23.8399C28.2341 31.9699 22.9141 37.0099 14.3641 37.0099C7.02409 37.0099 1.8841 33.2999 0.684096 27.1699H9.29408C9.90408 28.8999 12.1141 29.8299 14.2941 29.8299C17.2941 29.8299 19.6741 27.9399 19.6741 24.8299V24.0599C17.7173 25.2739 15.4709 25.9411 13.1687 25.992C10.8664 26.043 8.59272 25.4758 6.58418 24.3495C4.57565 23.2232 2.90577 21.579 1.74849 19.5881C0.59121 17.5973 -0.011147 15.3326 0.00410345 13.0299C-0.0394886 11.3167 0.264621 9.61254 0.898085 8.02022C1.53155 6.42789 2.48122 4.98052 3.68971 3.76549C4.8982 2.55045 6.34046 1.59296 7.92934 0.950911C9.51821 0.308859 11.2207 -0.00445165 12.9341 0.0298903C15.9262 0.0168382 18.823 1.08182 21.0941 3.02989L22.2241 0.849898L28.2341 0.839888ZM14.3941 18.6899C15.5187 18.7177 16.626 18.4098 17.5748 17.8055C18.5236 17.2012 19.2708 16.3278 19.721 15.2969C20.1712 14.266 20.3041 13.1244 20.1026 12.0177C19.901 10.911 19.3743 9.88944 18.5896 9.08342C17.8049 8.2774 16.7978 7.72346 15.6969 7.49235C14.596 7.26125 13.4512 7.36344 12.4086 7.78587C11.3661 8.2083 10.473 8.93181 9.84346 9.86406C9.21391 10.7963 8.87643 11.895 8.8741 13.0199C8.83676 13.7616 8.95282 14.5031 9.21504 15.198C9.47726 15.8928 9.88002 16.5261 10.3981 17.0582C10.9162 17.5904 11.5384 18.0099 12.226 18.2907C12.9135 18.5714 13.6516 18.7073 14.3941 18.6899Z" fill="#8F8183"/>
<path d="M50.7233 0.689941V8.84995H47.2633C44.1033 8.84995 42.7833 10.2299 42.7833 13.5299V26.6899H33.8633V0.839935H39.8633L41.2533 3.71994C42.1249 2.70042 43.2223 1.89837 44.4584 1.37756C45.6944 0.856759 47.0349 0.631576 48.3733 0.71994L50.7233 0.689941Z" fill="#8F8183"/>
<path d="M85.0039 15.6099V0.839844H93.9239V15.2299C93.9239 17.9599 95.3839 19.5598 97.7739 19.5598C100.164 19.5598 101.594 17.9299 101.594 15.2299V0.839844H110.504V15.6099C110.504 22.8499 105.414 27.6099 97.7739 27.6099C90.1339 27.6099 85.0039 22.8899 85.0039 15.6099Z" fill="#8F8183"/>
<path d="M141.584 10.9402V26.6902H132.674V12.1702C132.674 9.17021 131.544 7.67021 129.304 7.67021C126.524 7.67021 124.924 9.61019 124.924 12.9002V26.6902H116.004V0.840189H122.264L123.484 3.5102C124.523 2.39531 125.787 1.51321 127.191 0.922007C128.596 0.330801 130.11 0.0439091 131.634 0.0802097C137.634 0.0802097 141.634 4.35019 141.634 10.9402" fill="#8F8183"/>
<path d="M50.0043 52.1201V67.6901H41.0843V53.1601C41.0843 50.1601 40.0843 48.6501 37.7143 48.6501C35.0143 48.6501 33.3343 50.5701 33.3343 53.8901V67.6901H24.4043V35.1401H33.3143V43.5301C35.2702 41.9458 37.7072 41.0747 40.2242 41.0601C46.1642 41.0601 49.9843 45.4201 49.9843 52.1201" fill="#8F8183"/>
<path d="M53.7637 13.78C53.7637 5.78 59.8337 0 68.2737 0C76.7137 0 82.7837 5.76 82.7837 13.78C82.7837 21.8 76.6837 27.57 68.2737 27.57C59.8637 27.57 53.7637 21.78 53.7637 13.78ZM68.2737 19.56C69.4245 19.5998 70.561 19.295 71.5375 18.6846C72.5139 18.0742 73.2859 17.186 73.7542 16.134C74.2225 15.082 74.3658 13.9141 74.1659 12.78C73.966 11.6459 73.4318 10.5974 72.632 9.76895C71.8322 8.94048 70.8032 8.36981 69.6769 8.1301C68.5506 7.89038 67.3783 7.99255 66.3104 8.42352C65.2426 8.8545 64.3278 9.59465 63.6834 10.549C63.039 11.5034 62.6944 12.6285 62.6937 13.78C62.6461 14.5344 62.7563 15.2904 63.0173 15.9999C63.2782 16.7093 63.6841 17.3566 64.2091 17.9005C64.7341 18.4443 65.3667 18.8727 66.0665 19.1584C66.7663 19.4442 67.5181 19.5809 68.2737 19.56Z" fill="#8F8183"/>
<path d="M53.7637 54.77C53.7637 46.77 59.8337 40.98 68.2737 40.98C76.7137 40.98 82.7837 46.75 82.7837 54.77C82.7837 62.79 76.6837 68.55 68.2737 68.55C59.8637 68.55 53.7637 62.76 53.7637 54.77ZM68.2737 60.55C69.4245 60.5898 70.561 60.285 71.5375 59.6746C72.5139 59.0642 73.2859 58.176 73.7542 57.124C74.2225 56.072 74.3658 54.904 74.1659 53.77C73.966 52.6359 73.4318 51.5874 72.632 50.7589C71.8322 49.9305 70.8032 49.3598 69.6769 49.1201C68.5506 48.8803 67.3783 48.9825 66.3104 49.4135C65.2426 49.8445 64.3278 50.5846 63.6834 51.539C63.039 52.4933 62.6944 53.6184 62.6937 54.77C62.6477 55.524 62.759 56.2794 63.0204 56.9882C63.2819 57.6969 63.6879 58.3436 64.2126 58.8871C64.7373 59.4306 65.3692 59.8591 66.0684 60.1453C66.7675 60.4316 67.5185 60.5694 68.2737 60.55Z" fill="#8F8183"/>
<path d="M95.4745 32.4902H86.5645V67.7102H95.4745V32.4902Z" fill="#8F8183"/>
<path d="M127.154 30.8701V67.6901H120.554L119.714 65.7601C117.534 67.5971 114.766 68.5906 111.914 68.5601C103.964 68.5601 98.3145 62.7901 98.3145 54.7501C98.3145 46.7101 103.964 40.9601 111.914 40.9601C114.185 40.9424 116.413 41.5664 118.344 42.7601V30.8701H127.154ZM118.894 54.7701C118.871 53.628 118.51 52.5182 117.858 51.5801C117.207 50.642 116.292 49.9174 115.23 49.497C114.168 49.0767 113.005 48.9794 111.888 49.2174C110.77 49.4554 109.748 50.018 108.949 50.8347C108.15 51.6514 107.611 52.6858 107.398 53.8082C107.184 54.9305 107.307 56.0908 107.751 57.1434C108.195 58.1961 108.94 59.0943 109.892 59.7252C110.845 60.3562 111.962 60.6918 113.104 60.6901C113.879 60.7015 114.648 60.5552 115.364 60.26C116.08 59.9649 116.729 59.527 117.271 58.9732C117.812 58.4194 118.235 57.7612 118.515 57.0387C118.794 56.3161 118.923 55.5442 118.894 54.7701Z" fill="#8F8183"/>
<path d="M141.654 41.8301H132.744V67.7101H141.654V41.8301Z" fill="#8F8183"/>
<path d="M172.844 51.9298V67.6898H163.934V53.1598C163.934 50.1464 162.807 48.6431 160.554 48.6498C157.774 48.6498 156.174 50.5898 156.174 53.8898V67.6898H147.264V41.8298H153.514L154.744 44.4998C155.779 43.3818 157.04 42.4969 158.443 41.9038C159.847 41.3107 161.36 41.023 162.884 41.0598C168.884 41.0598 172.884 45.3298 172.884 51.9298" fill="#8F8183"/>
<path d="M204.933 41.8301V64.8301C204.933 72.9601 199.613 78.0001 191.063 78.0001C183.723 78.0001 178.583 74.3001 177.393 68.1701H186.003C186.623 69.9001 188.833 70.8301 191.003 70.8301C194.003 70.8301 196.393 68.9301 196.393 65.8301V65.0601C194.679 66.1118 192.745 66.7516 190.742 66.9292C188.739 67.1068 186.722 66.8173 184.85 66.0835C182.978 65.3497 181.301 64.1916 179.952 62.7003C178.603 61.2089 177.619 59.425 177.076 57.4888C176.533 55.5526 176.447 53.5169 176.824 51.5417C177.202 49.5666 178.032 47.7059 179.25 46.1059C180.468 44.5059 182.04 43.2102 183.844 42.3208C185.647 41.4314 187.632 40.9724 189.643 40.9801C192.635 40.9688 195.531 42.0336 197.803 43.9801L198.933 41.8101L204.933 41.8301ZM191.103 59.6901C192.225 59.7139 193.329 59.4031 194.273 58.7974C195.218 58.1917 195.96 57.3184 196.407 56.2889C196.853 55.2595 196.983 54.1204 196.779 53.0169C196.576 51.9134 196.049 50.8955 195.264 50.0929C194.48 49.2903 193.475 48.7393 192.376 48.5103C191.278 48.2812 190.136 48.3845 189.096 48.8068C188.057 49.2292 187.167 49.9515 186.539 50.8817C185.912 51.812 185.575 52.908 185.573 54.0301C185.536 54.7722 185.652 55.5141 185.915 56.2091C186.178 56.9042 186.582 57.5373 187.101 58.0688C187.62 58.6004 188.244 59.0188 188.933 59.2978C189.621 59.5768 190.36 59.7103 191.103 59.6901Z" fill="#8F8183"/>
<path d="M82.7837 30.8901H53.7637V37.6601H82.7837V30.8901Z" fill="#8F8183"/>
<path d="M165.153 0V12.42C163.22 11.2328 160.992 10.6126 158.723 10.63C150.783 10.63 145.123 16.37 145.123 24.41C145.123 32.45 150.783 38.23 158.723 38.23C161.572 38.2554 164.337 37.2664 166.523 35.44V38.59H174.003V0H165.153ZM159.913 30.34C158.735 30.3678 157.575 30.0438 156.581 29.4094C155.588 28.7749 154.806 27.8588 154.336 26.778C153.865 25.6972 153.728 24.5007 153.94 23.3413C154.153 22.182 154.707 21.1123 155.53 20.2689C156.354 19.4255 157.41 18.8467 158.564 18.6063C159.718 18.3659 160.917 18.4749 162.009 18.9193C163.101 19.3637 164.035 20.1234 164.693 21.1014C165.351 22.0794 165.703 23.2313 165.703 24.41C165.733 25.1849 165.605 25.9579 165.326 26.6816C165.048 27.4054 164.625 28.0648 164.083 28.6197C163.541 29.1746 162.892 29.6133 162.175 29.9091C161.458 30.2048 160.688 30.3514 159.913 30.34Z" fill="#8F8183"/>
<path d="M141.583 30.8799H132.803V38.4499H141.583V30.8799Z" fill="#8F8183"/>
<path d="M180.284 14.3099H179.524V16.6899H177.424V9.06992H180.724C181.091 9.04638 181.458 9.09907 181.804 9.2247C182.149 9.35034 182.465 9.54619 182.73 9.79987C182.996 10.0535 183.207 10.3596 183.348 10.6986C183.49 11.0377 183.56 11.4025 183.554 11.7699C183.562 12.2037 183.455 12.6318 183.242 13.0099C183.029 13.388 182.719 13.7022 182.344 13.9199L183.864 16.6899H181.524L180.284 14.3099ZM179.524 12.5399H180.524C180.64 12.5527 180.757 12.5409 180.868 12.5053C180.979 12.4696 181.082 12.411 181.169 12.3331C181.256 12.2553 181.325 12.16 181.373 12.0535C181.42 11.9469 181.445 11.8316 181.445 11.7149C181.445 11.5982 181.42 11.4829 181.373 11.3763C181.325 11.2698 181.256 11.1745 181.169 11.0967C181.082 11.0188 180.979 10.9602 180.868 10.9246C180.757 10.8889 180.64 10.8771 180.524 10.8899H179.524V12.5399Z" fill="#8F8183"/>
<path d="M190.173 14.8198V16.6398H185.213V9.02979H190.083V10.8398H187.303V11.9598H189.803V13.6798H187.303V14.8198H190.173Z" fill="#8F8183"/>
<path d="M196.454 15.4H193.754L193.334 16.64H191.084L194.084 9.02002H196.084L199.144 16.64H196.834L196.454 15.4ZM195.094 11.4L194.264 13.76H195.944L195.094 11.4Z" fill="#8F8183"/>
<path d="M205.184 14.7198V16.6398H200.344V9.02979H202.474V14.7198H205.184Z" fill="#8F8183"/>
<path d="M182.384 24.8598V26.6798H177.424V19.0698H182.294V20.8798H179.514V21.9998H182.014V23.7298H179.514V24.8598H182.384Z" fill="#8F8183"/>
<path d="M183.654 24.2199H185.824C185.824 24.3343 185.847 24.4475 185.893 24.5522C185.94 24.6568 186.007 24.7504 186.092 24.827C186.177 24.9035 186.278 24.9611 186.387 24.9961C186.496 25.0311 186.611 25.0426 186.724 25.0299C187.164 25.0299 187.584 24.7999 187.584 24.3799C187.584 23.9599 186.984 23.7699 186.264 23.5899C185.164 23.3099 183.754 22.9799 183.754 21.2399C183.754 19.7399 184.854 18.8799 186.654 18.8799C188.454 18.8799 189.524 19.8199 189.524 21.3699H187.424C187.427 21.269 187.407 21.1689 187.367 21.0763C187.327 20.9837 187.267 20.9008 187.192 20.8334C187.117 20.766 187.029 20.7156 186.932 20.6856C186.836 20.6557 186.734 20.6469 186.634 20.6599C186.254 20.6599 185.894 20.8299 185.894 21.1799C185.894 21.5299 186.474 21.7599 187.184 21.9399C188.314 22.2299 189.774 22.5999 189.774 24.3399C189.774 26.0799 188.494 26.8699 186.774 26.8699C185.054 26.8699 183.704 25.8699 183.704 24.2199" fill="#8F8183"/>
<path d="M196.863 20.9598H194.793V26.6898H192.683V20.9598H190.613V19.0698H196.863V20.9598Z" fill="#8F8183"/>
<path d="M202.104 25.4398H199.404L199.004 26.6898H196.764L199.764 19.0698H201.764L204.824 26.6898H202.514L202.104 25.4398ZM200.744 21.4398L199.914 23.7998H201.584L200.744 21.4398Z" fill="#8F8183"/>
<path d="M210.934 20.9598H208.864V26.6898H206.754V20.9598H204.684V19.0698H210.934V20.9598Z" fill="#8F8183"/>
<path d="M217.273 24.8598V26.6798H212.303V19.0698H217.183V20.8798H214.393V21.9998H216.893V23.7298H214.393V24.8598H217.273Z" fill="#8F8183"/>
<path d="M176.854 34.1099V33.8098H179.004V33.9998C178.985 34.1224 178.993 34.2476 179.027 34.3668C179.061 34.486 179.12 34.5965 179.201 34.6906C179.282 34.7847 179.382 34.8602 179.494 34.912C179.607 34.9638 179.73 34.9906 179.854 34.9906C179.978 34.9906 180.1 34.9638 180.213 34.912C180.325 34.8602 180.425 34.7847 180.506 34.6906C180.587 34.5965 180.646 34.486 180.68 34.3668C180.715 34.2476 180.722 34.1224 180.704 33.9998V29.1099H182.824V34.1099C182.722 34.825 182.365 35.4793 181.82 35.9527C181.274 36.426 180.576 36.6866 179.854 36.6866C179.131 36.6866 178.433 36.426 177.888 35.9527C177.342 35.4793 176.985 34.825 176.884 34.1099" fill="#8F8183"/>
<path d="M188.424 36.9198C187.641 36.8845 186.886 36.6203 186.252 36.1599C185.619 35.6995 185.134 35.0632 184.859 34.3299C184.583 33.5966 184.529 32.7986 184.704 32.0349C184.878 31.2712 185.272 30.5754 185.838 30.0339C186.404 29.4923 187.116 29.1288 187.887 28.9885C188.658 28.8482 189.452 28.9373 190.173 29.2446C190.893 29.5519 191.508 30.064 191.94 30.7173C192.372 31.3707 192.603 32.1365 192.603 32.9198C192.604 33.4606 192.495 33.9959 192.283 34.4933C192.071 34.9907 191.76 35.4399 191.369 35.8138C190.978 36.1877 190.516 36.4785 190.01 36.6686C189.503 36.8587 188.964 36.9441 188.424 36.9198ZM188.424 34.9198C188.819 34.9198 189.206 34.8025 189.535 34.5827C189.864 34.363 190.12 34.0506 190.271 33.6851C190.423 33.3197 190.462 32.9176 190.385 32.5296C190.308 32.1416 190.117 31.7853 189.838 31.5056C189.558 31.2259 189.202 31.0354 188.814 30.9582C188.426 30.881 188.024 30.9206 187.658 31.072C187.293 31.2234 186.98 31.4798 186.761 31.8087C186.541 32.1376 186.424 32.5242 186.424 32.9198C186.418 33.1858 186.466 33.4502 186.564 33.6974C186.662 33.9447 186.809 34.1699 186.995 34.3599C187.181 34.5499 187.403 34.7008 187.649 34.8038C187.894 34.9068 188.157 34.9598 188.424 34.9598V34.9198Z" fill="#8F8183"/>
<path d="M197.604 33.7499V36.7299H195.464V33.7399L192.824 29.1099H195.154L196.544 31.8599L197.934 29.1099H200.264L197.604 33.7499Z" fill="#8F8183"/>
<path d="M213.193 8.58013C212.551 8.59428 211.912 8.46798 211.323 8.2101C210.83 7.97675 210.396 7.6349 210.053 7.2101C209.728 6.79624 209.484 6.32466 209.333 5.82012C209.027 4.81973 209.027 3.75049 209.333 2.75011C209.484 2.24872 209.728 1.78044 210.053 1.3701C210.393 0.942505 210.828 0.600092 211.323 0.370104C212.518 -0.122717 213.859 -0.122717 215.053 0.370104C215.549 0.600092 215.984 0.942505 216.323 1.3701C216.651 1.77852 216.896 2.2474 217.043 2.75011C217.35 3.75387 217.35 4.82637 217.043 5.83013C216.895 6.33235 216.65 6.80098 216.323 7.2101C215.987 7.63674 215.555 7.97911 215.063 8.2101C214.474 8.46798 213.836 8.59428 213.193 8.58013ZM213.193 8.07012C213.734 8.08172 214.27 7.97238 214.763 7.75011C215.184 7.54976 215.554 7.25557 215.843 6.89012C216.123 6.52358 216.337 6.11061 216.473 5.67012C216.753 4.77142 216.753 3.80882 216.473 2.91011C216.339 2.47182 216.125 2.06179 215.843 1.70012C215.554 1.33467 215.184 1.04046 214.763 0.840105C213.754 0.4272 212.623 0.4272 211.613 0.840105C211.188 1.03759 210.814 1.33217 210.523 1.70012C210.242 2.06179 210.028 2.47182 209.893 2.91011C209.613 3.80882 209.613 4.77142 209.893 5.67012C210.03 6.11061 210.243 6.52358 210.523 6.89012C210.814 7.25808 211.188 7.55262 211.613 7.75011C212.11 7.9732 212.649 8.08254 213.193 8.07012ZM211.633 6.97011V1.53011H213.233C213.576 1.51711 213.917 1.57851 214.233 1.7101C214.476 1.82162 214.673 2.01198 214.793 2.25011C214.921 2.51829 214.983 2.8132 214.973 3.11012C214.987 3.40111 214.906 3.68874 214.743 3.9301C214.578 4.14841 214.357 4.3178 214.103 4.42012L215.103 6.97011H214.103L213.233 4.6201H212.603V6.97011H211.633ZM212.633 4.10011H212.973C213.274 4.13781 213.578 4.05911 213.823 3.88011C213.986 3.65059 214.061 3.37012 214.033 3.09011C214.047 2.84691 213.984 2.6055 213.853 2.4001C213.77 2.31128 213.667 2.2433 213.552 2.20162C213.437 2.15994 213.314 2.14573 213.193 2.16011H212.633V4.10011Z" fill="#8F8183"/>
</svg>
