<svg width="223" height="80" viewBox="0 0 223 80" fill="none" xmlns="http://www.w3.org/2000/svg">
<path d="M28.978 0.864046V24.4373C28.978 32.7699 23.5178 37.9356 14.7425 37.9356C7.20915 37.9356 1.93374 34.1331 0.70212 27.8503H9.53896C10.165 29.6234 12.4333 30.5766 14.6707 30.5766C17.7497 30.5766 20.1924 28.6395 20.1924 25.452V24.6628C18.1841 25.907 15.8785 26.5909 13.5156 26.6431C11.1527 26.6953 8.81911 26.1139 6.75766 24.9596C4.6962 23.8052 2.98233 22.12 1.79456 20.0796C0.606787 18.0391 -0.0114407 15.718 0.00421156 13.3579C-0.040529 11.602 0.271593 9.85534 0.921747 8.22333C1.5719 6.59133 2.54659 5.10788 3.78693 3.86256C5.02726 2.61724 6.50751 1.63589 8.13825 0.977836C9.76899 0.319781 11.5164 -0.00133786 13.2749 0.03386C16.3458 0.0204826 19.3189 1.11201 21.6499 3.10863L22.8096 0.874305L28.978 0.864046ZM14.7734 19.1589C15.9276 19.1875 17.064 18.8719 18.0378 18.2525C19.0116 17.6331 19.7785 16.738 20.2406 15.6814C20.7027 14.6248 20.839 13.4547 20.6322 12.3204C20.4254 11.1861 19.8848 10.1391 19.0794 9.31304C18.274 8.48693 17.2404 7.91918 16.1105 7.68232C14.9806 7.44545 13.8056 7.55019 12.7356 7.98315C11.6655 8.41611 10.7489 9.15765 10.1028 10.1131C9.45668 11.0686 9.1103 12.1947 9.10791 13.3476C9.06958 14.1078 9.18871 14.8678 9.45783 15.58C9.72696 16.2921 10.1403 16.9412 10.672 17.4866C11.2038 18.032 11.8424 18.462 12.5481 18.7498C13.2538 19.0375 14.0113 19.1768 14.7734 19.1589Z" fill="#ED2B53"/>
<path d="M52.062 0.710938V9.07432H48.5109C45.2676 9.07432 43.9129 10.4887 43.9129 13.871V27.359H34.7578V0.86467H40.9159L42.3425 3.81645C43.2371 2.77153 44.3634 1.94948 45.6321 1.4157C46.9007 0.881913 48.2765 0.651117 49.6501 0.741684L52.062 0.710938Z" fill="#ED2B53"/>
<path d="M87.2422 15.9975V0.859375H96.3972V15.608C96.3972 18.4061 97.8957 20.0459 100.349 20.0459C102.802 20.0459 104.269 18.3753 104.269 15.608V0.859375H113.414V15.9975C113.414 23.418 108.19 28.2966 100.349 28.2966C92.5074 28.2966 87.2422 23.459 87.2422 15.9975Z" fill="#ED2B53"/>
<path d="M145.309 11.2119V27.3545H136.164V12.4726C136.164 9.39781 135.004 7.86043 132.705 7.86043C129.852 7.86043 128.21 9.84876 128.21 13.2208V27.3545H119.055V0.860183H125.48L126.732 3.59674C127.798 2.45406 129.095 1.54998 130.537 0.94404C131.979 0.3381 133.533 0.0440572 135.096 0.0812626C141.255 0.0812626 145.36 4.45767 145.36 11.2119" fill="#ED2B53"/>
<path d="M51.3213 53.4188V69.3769H42.1663V54.4847C42.1663 51.41 41.14 49.8623 38.7076 49.8623C35.9364 49.8623 34.2121 51.8302 34.2121 55.2329V69.3769H25.0469V36.0156H34.1916V44.6147C36.199 42.9909 38.7003 42.0981 41.2836 42.0832C47.3801 42.0832 51.3008 46.5518 51.3008 53.4188" fill="#ED2B53"/>
<path d="M55.1797 14.1234C55.1797 5.92406 61.4096 0 70.072 0C78.7344 0 84.9643 5.90356 84.9643 14.1234C84.9643 22.3433 78.7036 28.2572 70.072 28.2572C61.4404 28.2572 55.1797 22.3228 55.1797 14.1234ZM70.072 20.0475C71.2532 20.0883 72.4196 19.7759 73.4218 19.1503C74.424 18.5247 75.2162 17.6144 75.6969 16.5361C76.1775 15.4579 76.3246 14.2608 76.1195 13.0985C75.9143 11.9362 75.366 10.8616 74.5452 10.0124C73.7243 9.16331 72.6682 8.57842 71.5122 8.33273C70.3562 8.08704 69.153 8.19175 68.057 8.63347C66.961 9.07519 66.0222 9.83378 65.3608 10.8119C64.6994 11.7901 64.3457 12.9432 64.345 14.1234C64.2962 14.8967 64.4093 15.6715 64.6771 16.3987C64.9449 17.1258 65.3615 17.7892 65.9003 18.3466C66.4392 18.904 67.0884 19.3431 67.8067 19.6359C68.5249 19.9288 69.2965 20.069 70.072 20.0475Z" fill="#ED2B53"/>
<path d="M55.1797 56.1376C55.1797 47.9382 61.4096 42.0039 70.072 42.0039C78.7344 42.0039 84.9643 47.9177 84.9643 56.1376C84.9643 64.3575 78.7036 70.261 70.072 70.261C61.4404 70.261 55.1797 64.3267 55.1797 56.1376ZM70.072 62.0616C71.2532 62.1025 72.4196 61.7901 73.4218 61.1645C74.424 60.5388 75.2162 59.6285 75.6969 58.5503C76.1775 57.472 76.3246 56.275 76.1195 55.1127C75.9143 53.9503 75.366 52.8757 74.5452 52.0266C73.7243 51.1775 72.6682 50.5926 71.5122 50.3469C70.3562 50.1012 69.153 50.2059 68.057 50.6476C66.961 51.0894 66.0222 51.8479 65.3608 52.8261C64.6994 53.8042 64.3457 54.9573 64.345 56.1376C64.2978 56.9104 64.412 57.6846 64.6804 58.4111C64.9487 59.1375 65.3654 59.8003 65.9039 60.3573C66.4424 60.9144 67.091 61.3535 67.8086 61.6469C68.5261 61.9403 69.2969 62.0815 70.072 62.0616Z" fill="#ED2B53"/>
<path d="M97.9885 33.3008H88.8438V69.3986H97.9885V33.3008Z" fill="#ED2B53"/>
<path d="M130.506 31.6406V69.3783H123.732L122.87 67.4002C120.632 69.283 117.791 70.3013 114.865 70.27C106.705 70.27 100.906 64.3562 100.906 56.1158C100.906 47.8754 106.705 41.9821 114.865 41.9821C117.194 41.964 119.482 42.6035 121.464 43.827V31.6406H130.506ZM122.028 56.1363C122.004 54.9657 121.634 53.8283 120.965 52.8668C120.296 51.9053 119.358 51.1626 118.267 50.7318C117.177 50.301 115.984 50.2013 114.837 50.4452C113.69 50.6891 112.641 51.2657 111.821 52.1028C111.001 52.9398 110.447 54.0001 110.229 55.1504C110.01 56.3007 110.136 57.4899 110.592 58.5688C111.047 59.6477 111.812 60.5682 112.789 61.2149C113.767 61.8616 114.913 62.2056 116.086 62.2039C116.881 62.2155 117.67 62.0655 118.405 61.763C119.14 61.4605 119.806 61.0118 120.362 60.4442C120.918 59.8766 121.352 59.202 121.639 58.4614C121.925 57.7208 122.058 56.9297 122.028 56.1363Z" fill="#ED2B53"/>
<path d="M145.379 42.875H136.234V69.4H145.379V42.875Z" fill="#ED2B53"/>
<path d="M177.395 53.2262V69.379H168.25V54.4868C168.25 51.3984 167.093 49.8576 164.781 49.8644C161.928 49.8644 160.285 51.8528 160.285 55.235V69.379H151.141V42.8745H157.555L158.818 45.611C159.88 44.4651 161.175 43.5582 162.615 42.9503C164.055 42.3424 165.609 42.0475 167.172 42.0852C173.33 42.0852 177.436 46.4617 177.436 53.2262" fill="#ED2B53"/>
<path d="M210.336 42.8713V66.4445C210.336 74.7772 204.876 79.9428 196.101 79.9428C188.567 79.9428 183.292 76.1506 182.07 69.8678H190.907C191.544 71.6409 193.812 72.5941 196.039 72.5941C199.118 72.5941 201.571 70.6467 201.571 67.4695V66.6802C199.812 67.7582 197.827 68.4139 195.771 68.5959C193.715 68.7779 191.645 68.4812 189.724 67.7292C187.802 66.9771 186.081 65.7901 184.697 64.2616C183.313 62.7331 182.302 60.9048 181.745 58.9203C181.188 56.9359 181.1 54.8494 181.487 52.825C181.874 50.8006 182.726 48.8935 183.976 47.2536C185.226 45.6138 186.84 44.2858 188.691 43.3742C190.542 42.4626 192.579 41.9923 194.643 42.0001C197.714 41.9886 200.686 43.0798 203.018 45.0749L204.178 42.8508L210.336 42.8713ZM196.142 61.1764C197.293 61.2008 198.426 60.8823 199.395 60.2615C200.365 59.6407 201.127 58.7457 201.585 57.6905C202.043 56.6354 202.176 55.4679 201.968 54.3369C201.759 53.2059 201.217 52.1626 200.413 51.34C199.608 50.5174 198.576 49.9527 197.448 49.718C196.321 49.4832 195.149 49.5891 194.082 50.0219C193.015 50.4548 192.101 51.1951 191.457 52.1485C190.813 53.1019 190.468 54.2253 190.466 55.3753C190.427 56.136 190.547 56.8964 190.817 57.6087C191.087 58.3211 191.501 58.97 192.034 59.5148C192.567 60.0596 193.207 60.4884 193.914 60.7743C194.621 61.0603 195.379 61.1972 196.142 61.1764Z" fill="#ED2B53"/>
<path d="M84.9642 31.6641H55.1797V38.6028H84.9642V31.6641Z" fill="#ED2B53"/>
<path d="M169.503 0V12.7296C167.519 11.5128 165.232 10.8771 162.904 10.8949C154.754 10.8949 148.945 16.778 148.945 25.0184C148.945 33.2588 154.754 39.1828 162.904 39.1828C165.827 39.2088 168.665 38.1952 170.909 36.3233V39.5518H178.586V0H169.503ZM164.125 31.0962C162.916 31.1247 161.725 30.7927 160.705 30.1424C159.686 29.4921 158.883 28.5532 158.401 27.4454C157.918 26.3377 157.777 25.1114 157.995 23.9231C158.213 22.7348 158.781 21.6385 159.627 20.7741C160.472 19.9097 161.556 19.3164 162.74 19.07C163.924 18.8237 165.155 18.9353 166.276 19.3908C167.397 19.8463 168.356 20.6249 169.031 21.6273C169.706 22.6297 170.067 23.8103 170.068 25.0184C170.098 25.8126 169.967 26.6048 169.681 27.3466C169.395 28.0884 168.961 28.7643 168.405 29.333C167.849 29.9017 167.182 30.3514 166.447 30.6545C165.711 30.9576 164.921 31.1079 164.125 31.0962Z" fill="#ED2B53"/>
<path d="M145.324 31.6484H136.312V39.4071H145.324V31.6484Z" fill="#ED2B53"/>
<path d="M185.029 14.6653H184.249V17.1046H182.094V9.29466H185.481C185.857 9.27054 186.234 9.32454 186.589 9.45331C186.943 9.58207 187.267 9.7828 187.54 10.0428C187.813 10.3028 188.029 10.6165 188.174 10.964C188.32 11.3115 188.392 11.6853 188.385 12.0619C188.394 12.5065 188.284 12.9453 188.065 13.3328C187.847 13.7203 187.529 14.0424 187.143 14.2655L188.703 17.1046H186.302L185.029 14.6653ZM184.249 12.8511H185.275C185.394 12.8643 185.515 12.8521 185.629 12.8156C185.743 12.7791 185.848 12.719 185.937 12.6392C186.026 12.5594 186.098 12.4618 186.147 12.3526C186.195 12.2434 186.221 12.1252 186.221 12.0056C186.221 11.886 186.195 11.7678 186.147 11.6586C186.098 11.5494 186.026 11.4517 185.937 11.3719C185.848 11.2922 185.743 11.232 185.629 11.1955C185.515 11.159 185.394 11.1469 185.275 11.16H184.249V12.8511Z" fill="#ED2B53"/>
<path d="M195.195 15.1921V17.0575H190.094V9.25781H195.092V11.1129H192.239V12.2608H194.805V14.0237H192.239V15.1921H195.195Z" fill="#ED2B53"/>
<path d="M201.629 15.7851H198.858L198.426 17.056H196.117L199.196 9.24609H201.249L204.39 17.056H202.019L201.629 15.7851ZM200.233 11.6854L199.381 14.1043H201.105L200.233 11.6854Z" fill="#ED2B53"/>
<path d="M210.59 15.0896V17.0575H205.633V9.25781H207.809V15.0896H210.59Z" fill="#ED2B53"/>
<path d="M187.195 25.4812V27.3465H182.094V19.5469H187.092V21.402H184.239V22.5499H186.805V24.323H184.239V25.4812H187.195Z" fill="#ED2B53"/>
<path d="M188.492 24.8247H190.719C190.719 24.9419 190.743 25.058 190.79 25.1652C190.838 25.2725 190.907 25.3684 190.995 25.4469C191.082 25.5253 191.185 25.5844 191.296 25.6202C191.408 25.6561 191.526 25.6679 191.643 25.6548C192.095 25.6548 192.526 25.4191 192.526 24.9886C192.526 24.5582 191.91 24.3634 191.171 24.1789C190.042 23.892 188.595 23.5537 188.595 21.7704C188.595 20.233 189.724 19.3516 191.571 19.3516C193.419 19.3516 194.517 20.315 194.517 21.9036H192.361C192.364 21.8002 192.344 21.6976 192.303 21.6027C192.262 21.5078 192.2 21.4229 192.123 21.3538C192.046 21.2847 191.955 21.233 191.857 21.2023C191.758 21.1716 191.653 21.1626 191.551 21.1759C191.161 21.1759 190.791 21.3502 190.791 21.7089C190.791 22.0676 191.386 22.3033 192.115 22.4878C193.275 22.7851 194.773 23.1643 194.773 24.9476C194.773 26.731 193.46 27.5407 191.694 27.5407C189.929 27.5407 188.543 26.5158 188.543 24.8247" fill="#ED2B53"/>
<path d="M202.053 21.484H199.928V27.3568H197.773V21.484H195.648V19.5469H202.053V21.484Z" fill="#ED2B53"/>
<path d="M207.426 26.0756H204.655L204.244 27.3568H201.945L205.024 19.5469H207.077L210.218 27.3568H207.847L207.426 26.0756ZM206.03 21.9759L205.178 24.3947H206.892L206.03 21.9759Z" fill="#ED2B53"/>
<path d="M216.49 21.484H214.366V27.3568H212.21V21.484H210.086V19.5469H216.49V21.484Z" fill="#ED2B53"/>
<path d="M222.999 25.4812V27.3465H217.898V19.5469H222.907V21.402H220.044V22.5499H222.62V24.323H220.044V25.4812H222.999Z" fill="#ED2B53"/>
<path d="M181.516 34.9606V34.6531H183.722V34.8478C183.703 34.9734 183.711 35.1017 183.746 35.2239C183.781 35.3461 183.842 35.4593 183.925 35.5557C184.008 35.6522 184.11 35.7296 184.226 35.7827C184.342 35.8358 184.467 35.8633 184.595 35.8633C184.722 35.8633 184.848 35.8358 184.963 35.7827C185.079 35.7296 185.182 35.6522 185.265 35.5557C185.347 35.4593 185.408 35.3461 185.443 35.2239C185.478 35.1017 185.486 34.9734 185.467 34.8478V29.8359H187.643V34.9606C187.538 35.6935 187.173 36.3641 186.613 36.8493C186.053 37.3345 185.336 37.6016 184.595 37.6016C183.853 37.6016 183.137 37.3345 182.577 36.8493C182.017 36.3641 181.651 35.6935 181.546 34.9606" fill="#ED2B53"/>
<path d="M193.389 37.8437C192.586 37.8076 191.811 37.5367 191.161 37.0649C190.511 36.593 190.013 35.9408 189.731 35.1892C189.448 34.4377 189.393 33.6198 189.571 32.8371C189.75 32.0543 190.155 31.3412 190.736 30.7861C191.317 30.2311 192.048 29.8586 192.839 29.7147C193.63 29.5709 194.445 29.6622 195.185 29.9772C195.924 30.2922 196.555 30.817 196.998 31.4867C197.442 32.1563 197.679 32.9412 197.68 33.744C197.68 34.2983 197.568 34.8469 197.35 35.3567C197.133 35.8665 196.814 36.3269 196.413 36.7101C196.012 37.0933 195.537 37.3914 195.017 37.5862C194.498 37.781 193.944 37.8686 193.389 37.8437ZM193.389 35.7938C193.795 35.7938 194.192 35.6736 194.53 35.4484C194.867 35.2231 195.13 34.903 195.286 34.5284C195.441 34.1539 195.482 33.7417 195.403 33.3441C195.323 32.9464 195.128 32.5812 194.841 32.2945C194.554 32.0079 194.188 31.8126 193.79 31.7335C193.392 31.6544 192.979 31.695 192.604 31.8502C192.229 32.0053 191.908 32.2681 191.683 32.6052C191.457 32.9423 191.337 33.3386 191.337 33.744C191.331 34.0166 191.38 34.2876 191.481 34.541C191.582 34.7945 191.732 35.0253 191.923 35.22C192.114 35.4147 192.342 35.5694 192.594 35.675C192.846 35.7805 193.116 35.8349 193.389 35.8348V35.7938Z" fill="#ED2B53"/>
<path d="M202.812 34.5916V37.6459H200.616V34.5813L197.906 29.8359H200.298L201.724 32.6545L203.151 29.8359H205.542L202.812 34.5916Z" fill="#ED2B53"/>
<path d="M218.807 8.79348C218.147 8.80798 217.492 8.67853 216.888 8.41423C216.381 8.17506 215.936 7.82469 215.584 7.3893C215.25 6.96513 215 6.48179 214.845 5.96467C214.531 4.93936 214.531 3.84347 214.845 2.81815C215 2.30427 215.251 1.82432 215.584 1.40375C215.933 0.965495 216.379 0.614548 216.888 0.378828C218.114 -0.126276 219.49 -0.126276 220.716 0.378828C221.224 0.614548 221.671 0.965495 222.019 1.40375C222.356 1.82235 222.607 2.30291 222.758 2.81815C223.073 3.84693 223.073 4.94616 222.758 5.97493C222.606 6.48968 222.355 6.96999 222.019 7.3893C221.674 7.82657 221.231 8.17748 220.726 8.41423C220.122 8.67853 219.467 8.80798 218.807 8.79348ZM218.807 8.27075C219.362 8.28265 219.912 8.17059 220.418 7.94277C220.85 7.73743 221.23 7.43591 221.527 7.06135C221.814 6.68567 222.033 6.26241 222.173 5.81094C222.461 4.88984 222.461 3.90324 222.173 2.98214C222.035 2.53293 221.816 2.11267 221.527 1.74199C221.23 1.36744 220.85 1.06589 220.418 0.860543C219.382 0.437347 218.221 0.437347 217.185 0.860543C216.749 1.06296 216.365 1.36487 216.067 1.74199C215.777 2.11267 215.558 2.53293 215.42 2.98214C215.133 3.90324 215.133 4.88984 215.42 5.81094C215.56 6.26241 215.779 6.68567 216.067 7.06135C216.365 7.43848 216.749 7.74036 217.185 7.94277C217.695 8.17142 218.249 8.28349 218.807 8.27075ZM217.206 7.14333V1.56774H218.848C219.199 1.55442 219.55 1.61735 219.874 1.75222C220.123 1.86653 220.326 2.06163 220.449 2.30569C220.58 2.58055 220.644 2.88281 220.634 3.18714C220.648 3.48538 220.565 3.78018 220.398 4.02755C220.228 4.2513 220.001 4.42491 219.741 4.52979L220.767 7.14333H219.741L218.848 4.73475H218.201V7.14333H217.206ZM218.232 4.2018H218.581C218.89 4.24044 219.202 4.15978 219.454 3.97632C219.621 3.74108 219.697 3.45362 219.669 3.16662C219.683 2.91737 219.619 2.66994 219.484 2.45942C219.399 2.36839 219.293 2.29871 219.175 2.25599C219.057 2.21327 218.931 2.19871 218.807 2.21345H218.232V4.2018Z" fill="#ED2B53"/>
</svg>
