<svg width="275" height="350" viewBox="0 0 275 350" fill="none" xmlns="http://www.w3.org/2000/svg">
<g opacity="0.6">
<path d="M132.285 272.321L70.5089 236.835L132.216 201.281V163.003L3.87585 236.835L132.285 310.599V272.321Z" fill="#BCBDC0"/>
<path d="M94.5221 136.235L32.7463 171.72L32.6779 100.681L-0.638672 81.5416L-0.570245 229.206L127.77 155.374L94.5221 136.235Z" fill="#BCBDC0"/>
<path d="M32.7462 301.949L94.522 337.435L127.839 318.295L-0.570312 244.531V392.127L32.8146 372.92L32.7462 301.949Z" fill="#BCBDC0"/>
<path d="M141.11 163.003V201.281L202.955 236.835L141.11 272.321L141.179 310.667L269.588 236.767L141.11 163.003Z" fill="#BCBDC0"/>
<path d="M-0.638672 -81.3788V66.2853L127.77 -7.61487L94.4537 -26.6859L32.6779 8.7317V-62.2397L-0.638672 -81.3788Z" fill="#BCBDC0"/>
<path d="M236.203 54.6387L174.495 90.1925V19.2212L141.11 0.0820312V147.678L269.519 73.846L236.203 54.6387Z" fill="#BCBDC0"/>
<path d="M3.87585 73.846L37.1924 93.0532L98.9682 57.4994V128.539L132.216 147.678V0.0820312L3.87585 73.846Z" fill="#BCBDC0"/>
<path d="M98.8998 345.062V416.102L37.2608 380.616L3.87585 399.755L132.353 473.519L132.285 325.923L98.8998 345.062Z" fill="#BCBDC0"/>
<path d="M174.494 383.409L236.27 418.894L269.655 399.755L141.178 325.923V473.519L174.494 454.38V383.409Z" fill="#BCBDC0"/>
<path d="M273.966 190.86L212.19 155.306L230.661 144.749L243.043 137.597L273.966 119.82V119.752V81.4739L145.557 155.374L273.966 229.138V190.86Z" fill="#BCBDC0"/>
<path d="M274.035 353.78L212.191 318.294L234.835 305.285L273.966 282.741V244.462L145.626 318.294L274.035 392.126V353.78Z" fill="#BCBDC0"/>
</g>
</svg>
