<svg width="11" height="11" viewBox="0 0 11 11" fill="none" xmlns="http://www.w3.org/2000/svg">
<path d="M8.02647 2.02636H2.97374C2.45136 2.02636 2.02636 2.45136 2.02636 2.97374V8.02647C2.02636 8.54885 2.45136 8.97386 2.97374 8.97386H8.02647C8.54885 8.97386 8.97386 8.54885 8.97386 8.02647V2.97374C8.97386 2.45136 8.54885 2.02636 8.02647 2.02636ZM5.50011 7.71068C4.28133 7.71068 3.28954 6.71888 3.28954 5.50011C3.28954 4.28133 4.28133 3.28954 5.50011 3.28954C6.71888 3.28954 7.71068 4.28133 7.71068 5.50011C7.71068 6.71888 6.71888 7.71068 5.50011 7.71068ZM7.71068 3.92113C7.36248 3.92113 7.07909 3.63774 7.07909 3.28954C7.07909 2.94134 7.36248 2.65795 7.71068 2.65795C8.05888 2.65795 8.34227 2.94134 8.34227 3.28954C8.34227 3.63774 8.05888 3.92113 7.71068 3.92113Z" fill="white"/>
<path d="M5.50011 4.05271C4.70208 4.05271 4.05271 4.70208 4.05271 5.50011C4.05271 6.29814 4.70208 6.94751 5.50011 6.94751C6.29814 6.94751 6.94751 6.29814 6.94751 5.50011C6.94751 4.70208 6.29814 4.05271 5.50011 4.05271Z" fill="white"/>
<path d="M9.36737 0H1.63284C0.744415 0 0 0.744415 0 1.63284V9.36737C0 10.2558 0.744415 11.0002 1.63284 11.0002H9.36737C10.2558 11.0002 11.0002 10.2558 11.0002 9.36737V1.63284C11.0002 0.744415 10.2558 0 9.36737 0ZM9.68964 8.07828C9.68964 8.96671 8.96671 9.68964 8.07828 9.68964H2.92193C2.0335 9.68964 1.31057 8.96671 1.31057 8.07828V2.92193C1.31057 2.0335 2.0335 1.31057 2.92193 1.31057H8.07828C8.96671 1.31057 9.68964 2.0335 9.68964 2.92193V8.07828Z" fill="white"/>
</svg>
