<svg width="11" height="11" viewBox="0 0 11 11" fill="none" xmlns="http://www.w3.org/2000/svg">
<path d="M9.45473 0H1.49285C1.09692 0 0.717211 0.157282 0.437246 0.437246C0.157282 0.717211 0 1.09692 0 1.49285L0 9.45473C0 9.85066 0.157282 10.2304 0.437246 10.5103C0.717211 10.7903 1.09692 10.9476 1.49285 10.9476H9.45473C9.85066 10.9476 10.2304 10.7903 10.5103 10.5103C10.7903 10.2304 10.9476 9.85066 10.9476 9.45473V1.49285C10.9476 1.09692 10.7903 0.717211 10.5103 0.437246C10.2304 0.157282 9.85066 0 9.45473 0ZM3.73213 8.66352C3.73221 8.69388 3.7263 8.72395 3.71474 8.75202C3.70318 8.78009 3.6862 8.80561 3.66476 8.8271C3.64332 8.8486 3.61786 8.86565 3.58982 8.87729C3.56178 8.88892 3.53172 8.89491 3.50136 8.89491H2.51794C2.48753 8.89499 2.45741 8.88907 2.4293 8.87747C2.40119 8.86587 2.37565 8.84883 2.35414 8.82732C2.33264 8.80582 2.3156 8.78028 2.304 8.75217C2.2924 8.72406 2.28647 8.69393 2.28655 8.66352V4.54076C2.28655 4.47939 2.31093 4.42054 2.35433 4.37714C2.39772 4.33375 2.45658 4.30937 2.51794 4.30937H3.50136C3.56262 4.30953 3.62132 4.33398 3.66458 4.37736C3.70784 4.42074 3.73213 4.4795 3.73213 4.54076V8.66352ZM3.00934 3.91874C2.82481 3.91874 2.64441 3.86402 2.49098 3.76149C2.33754 3.65897 2.21795 3.51325 2.14733 3.34276C2.07671 3.17227 2.05824 2.98467 2.09424 2.80368C2.13024 2.62269 2.2191 2.45644 2.34959 2.32595C2.48008 2.19546 2.64633 2.1066 2.82732 2.0706C3.00831 2.0346 3.19591 2.05308 3.3664 2.1237C3.53689 2.19431 3.68261 2.3139 3.78513 2.46734C3.88765 2.62078 3.94237 2.80117 3.94237 2.98571C3.94237 3.23316 3.84407 3.47048 3.6691 3.64546C3.49412 3.82044 3.2568 3.91874 3.00934 3.91874ZM8.87252 8.67969C8.8726 8.70765 8.86716 8.73535 8.85649 8.7612C8.84583 8.78705 8.83017 8.81053 8.8104 8.8303C8.79063 8.85007 8.76714 8.86574 8.74129 8.8764C8.71545 8.88706 8.68775 8.89251 8.65979 8.89243H7.60235C7.57439 8.89251 7.54669 8.88706 7.52085 8.8764C7.495 8.86574 7.47151 8.85007 7.45174 8.8303C7.43197 8.81053 7.41631 8.78705 7.40565 8.7612C7.39498 8.73535 7.38954 8.70765 7.38962 8.67969V6.74832C7.38962 6.4597 7.47422 5.48437 6.63511 5.48437C5.98509 5.48437 5.8526 6.1518 5.82648 6.45161V8.68218C5.82648 8.73807 5.8045 8.79171 5.76528 8.83152C5.72605 8.87132 5.67274 8.8941 5.61686 8.89491H4.5955C4.56759 8.89491 4.53996 8.88941 4.51418 8.87871C4.48841 8.86801 4.465 8.85233 4.44529 8.83257C4.42559 8.81281 4.40998 8.78935 4.39935 8.76354C4.38873 8.73774 4.38331 8.71009 4.38339 8.68218V4.52272C4.38331 4.49481 4.38873 4.46717 4.39935 4.44136C4.40998 4.41555 4.42559 4.3921 4.44529 4.37233C4.465 4.35257 4.48841 4.33689 4.51418 4.32619C4.53996 4.3155 4.56759 4.30999 4.5955 4.30999H5.61686C5.67328 4.30999 5.72739 4.3324 5.76728 4.3723C5.80718 4.41219 5.82959 4.4663 5.82959 4.52272V4.88225C6.07093 4.51961 6.4286 4.24095 7.19182 4.24095C8.88247 4.24095 8.87128 5.81964 8.87128 6.68674L8.87252 8.67969Z" fill="white"/>
</svg>
