<svg width="14" height="19" viewBox="0 0 14 19" fill="none" xmlns="http://www.w3.org/2000/svg">
<path d="M8.82437 18.1499C8.44065 18.1495 8.07279 18.008 7.80147 17.7566C7.53016 17.5051 7.37755 17.1643 7.37711 16.8087V13.3839C7.37709 13.3598 7.37172 13.3359 7.36133 13.3138C7.35094 13.2916 7.33576 13.2717 7.31672 13.2553L6.2152 12.3052L5.5307 13.6522C5.50673 13.6993 5.47777 13.7441 5.44422 13.7858L2.87315 16.9733C2.76644 17.131 2.62573 17.2665 2.45985 17.3714C2.29397 17.4763 2.10649 17.5484 1.90917 17.583C1.62549 17.634 1.33189 17.6069 1.06471 17.5048C0.79754 17.4028 0.568531 17.2304 0.406042 17.009C0.243553 16.7875 0.15472 16.5268 0.150545 16.2591C0.146369 15.9913 0.227034 15.7283 0.38255 15.5026L2.75569 12.3629C2.76784 12.3469 2.77693 12.329 2.78256 12.3102L4.3389 7.21366C4.348 7.18489 4.34887 7.15442 4.34141 7.12524C4.33395 7.09607 4.31843 7.06919 4.29637 7.04726C4.28576 7.03667 4.27388 7.02723 4.26096 7.01913L3.13778 9.35292C3.07129 9.49555 2.97507 9.62462 2.85466 9.73273C2.73424 9.84084 2.59198 9.92587 2.43604 9.98295C2.2801 10.04 2.11353 10.068 1.94589 10.0654C1.77824 10.0627 1.61281 10.0294 1.45908 9.96739C1.30535 9.90537 1.16633 9.81586 1.05 9.70398C0.93366 9.59209 0.842293 9.46004 0.78113 9.31538C0.719966 9.17071 0.690208 9.01629 0.693561 8.86096C0.696914 8.70562 0.733311 8.55243 0.800668 8.41015L2.28539 5.34686C2.40691 5.126 2.59718 4.94403 2.83157 4.8245C2.84488 4.81797 2.85861 4.8122 2.87268 4.80721L5.94283 3.73524C6.1481 3.66291 6.37591 3.6687 6.57659 3.75135L8.47691 4.53153C8.64855 4.60216 8.78966 4.72409 8.87766 4.87782L9.41625 5.82059C9.43439 5.85191 9.46218 5.87751 9.49608 5.89413L12.4369 7.32792C12.5916 7.40267 12.7288 7.50494 12.8408 7.62889C12.9528 7.75283 13.0373 7.89601 13.0895 8.05025C13.1418 8.20448 13.1606 8.36674 13.1451 8.52775C13.1296 8.68875 13.08 8.84535 12.9991 8.98857C12.9183 9.13179 12.8077 9.25884 12.6738 9.36244C12.5399 9.46604 12.3853 9.54416 12.2187 9.59234C12.0522 9.64052 11.8771 9.65781 11.7033 9.64322C11.5296 9.62863 11.3607 9.58245 11.2062 9.50732C11.2046 9.50644 9.38764 8.61024 8.44277 8.14237C8.41793 8.13014 8.39046 8.12318 8.36236 8.12201C8.33426 8.12085 8.30623 8.1255 8.28031 8.13563C8.25439 8.14576 8.23123 8.16111 8.21252 8.18057C8.19381 8.20003 8.18001 8.22311 8.17213 8.24813L7.80773 9.40126C7.79965 9.42705 7.79805 9.45421 7.80303 9.48067C7.80802 9.50712 7.81947 9.53217 7.8365 9.5539L10.0821 12.4039C10.2057 12.5602 10.2721 12.7489 10.2718 12.9427V16.8087C10.2713 17.1643 10.1187 17.5052 9.84735 17.7566C9.576 18.0081 9.20811 18.1495 8.82437 18.1499ZM6.11119 11.5057C6.19301 11.5056 6.27182 11.5343 6.33172 11.5859L7.75795 12.8161C7.84195 12.8888 7.90896 12.9767 7.95484 13.0744C8.00071 13.172 8.02446 13.2774 8.02464 13.3839V16.8087C8.02464 16.906 8.04532 17.0024 8.08552 17.0923C8.12571 17.1822 8.18463 17.2639 8.2589 17.3327C8.33317 17.4016 8.42134 17.4562 8.51838 17.4934C8.61542 17.5307 8.71943 17.5498 8.82446 17.5498C8.9295 17.5498 9.0335 17.5307 9.13054 17.4934C9.22758 17.4562 9.31575 17.4016 9.39002 17.3327C9.46429 17.2639 9.52321 17.1822 9.56341 17.0923C9.6036 17.0024 9.62429 16.906 9.62429 16.8087V12.9427C9.62432 12.8761 9.60145 12.8112 9.559 12.7575L7.31358 9.90781C7.2383 9.81165 7.18771 9.70082 7.16569 9.58379C7.14366 9.46676 7.15077 9.34661 7.18648 9.23251L7.55086 8.07938C7.58577 7.96875 7.64686 7.86672 7.7297 7.78072C7.81254 7.69473 7.91503 7.62694 8.02971 7.58228C8.1444 7.53763 8.26838 7.51724 8.39265 7.5226C8.51691 7.52797 8.63832 7.55894 8.74803 7.61327C9.69242 8.08114 11.5088 8.97675 11.5088 8.97675C11.5911 9.01652 11.6814 9.04024 11.774 9.04643C11.8667 9.05262 11.9597 9.04115 12.0473 9.01274C12.135 8.98432 12.2154 8.93956 12.2837 8.88122C12.3519 8.82288 12.4065 8.75219 12.4442 8.67353C12.5139 8.52707 12.521 8.36152 12.464 8.21041C12.4069 8.0593 12.2901 7.93392 12.137 7.85966L12.1357 7.85906L9.19397 6.42469C9.04487 6.35212 8.92292 6.23948 8.84413 6.10155L8.30538 5.15848C8.28561 5.12371 8.25375 5.09615 8.21496 5.08026L6.31463 4.30009C6.2693 4.28153 6.2179 4.28027 6.17156 4.29658L3.12418 5.36034C3.015 5.41963 2.92594 5.5061 2.86714 5.60994L1.39253 8.6536C1.35988 8.72371 1.34246 8.79909 1.34128 8.87544C1.34009 8.95179 1.35516 9.02761 1.38561 9.09856C1.41607 9.16951 1.46132 9.2342 1.51878 9.28893C1.57624 9.34366 1.64478 9.38736 1.72048 9.41753C1.79618 9.4477 1.87755 9.46374 1.95995 9.46475C2.04235 9.46575 2.12415 9.4517 2.20068 9.42339C2.27721 9.39508 2.34696 9.35306 2.40596 9.29975C2.46495 9.24644 2.51203 9.18288 2.54449 9.11269L3.76458 6.57646C3.7859 6.53222 3.81846 6.49342 3.85948 6.46337C3.90049 6.43332 3.94875 6.41292 4.00012 6.4039C4.14031 6.37922 4.28497 6.38814 4.42038 6.42983C4.55579 6.47152 4.67746 6.54458 4.77383 6.64209C4.87021 6.73959 4.93809 6.8583 4.97103 6.98695C5.00397 7.1156 5.00089 7.24991 4.96206 7.37714L3.40573 12.4736C3.38029 12.557 3.33989 12.6359 3.28622 12.7068L0.920496 15.8363C0.812184 15.9999 0.77372 16.1951 0.812644 16.3836C0.851568 16.5721 0.965073 16.7403 1.13091 16.8553C1.2236 16.9194 1.32975 16.9649 1.44254 16.9889C1.55533 17.0128 1.67227 17.0146 1.78585 16.9941C1.89943 16.9737 2.00714 16.9314 2.10207 16.8701C2.197 16.8089 2.27705 16.7298 2.33708 16.6382L4.92523 13.4272C4.93281 13.4178 4.93932 13.4077 4.94466 13.3971L5.81823 11.6779C5.8399 11.6352 5.87218 11.5978 5.91243 11.5688C5.95268 11.5398 5.99976 11.5201 6.04982 11.5112C6.07003 11.5075 6.09059 11.5056 6.11119 11.5057ZM8.26982 3.79911C7.88038 3.79911 7.49967 3.6921 7.17586 3.49161C6.85205 3.29112 6.59966 3.00615 6.45063 2.67275C6.30159 2.33935 6.2626 1.97248 6.33858 1.61854C6.41455 1.2646 6.60209 0.939492 6.87747 0.684317C7.15285 0.429142 7.50371 0.255365 7.88567 0.184962C8.26764 0.11456 8.66356 0.150693 9.02336 0.288793C9.38316 0.426892 9.69069 0.660756 9.90705 0.96081C10.1234 1.26086 10.2389 1.61363 10.2389 1.9745C10.2383 2.45825 10.0306 2.92202 9.6615 3.26408C9.29235 3.60613 8.79187 3.79855 8.26982 3.79911ZM8.26981 0.749886C8.00843 0.749886 7.75292 0.821707 7.53559 0.956268C7.31825 1.09083 7.14887 1.28209 7.04884 1.50585C6.94881 1.72962 6.92264 1.97585 6.97363 2.21339C7.02463 2.45094 7.15049 2.66915 7.33532 2.84041C7.52014 3.01167 7.75563 3.12831 8.01198 3.17556C8.26834 3.22281 8.53407 3.19856 8.77555 3.10587C9.01704 3.01318 9.22344 2.85622 9.36866 2.65484C9.51387 2.45345 9.59138 2.21669 9.59138 1.97449C9.591 1.64981 9.45164 1.33854 9.20388 1.10896C8.95612 0.879375 8.6202 0.750241 8.26981 0.749886Z" fill="#8F8183" stroke="#8F8183" stroke-width="0.3"/>
</svg>
