<svg width="223" height="60" viewBox="0 0 223 60" fill="none" xmlns="http://www.w3.org/2000/svg">
<path d="M73.5742 42.1527L71.3834 39.2615C71.9077 39.2212 72.3975 38.9854 72.7549 38.6012C73.1122 38.217 73.3107 37.7127 73.3108 37.1891C73.3108 35.9098 72.3021 35.0783 70.7409 35.0783H67.6699V42.1527H68.4794V39.4022H70.516L72.5848 42.1527H73.5742ZM72.5013 37.2211C72.5013 38.1422 71.7367 38.6859 70.6702 38.6859H68.4794V35.8459H70.6767C71.8267 35.8459 72.5013 36.3704 72.5013 37.2467M81.2645 35.1039H76.0926V42.1783H81.303V41.4491H76.915V38.9737H80.7698V38.2445H76.915V35.8331H81.2645V35.1039ZM87.3936 35.0591H86.6419L83.391 42.1783H84.2198L85.0871 40.2849H88.9419L89.7771 42.1527H90.6445L87.3936 35.0591ZM88.6271 39.5877H85.3763L87.0145 35.961L88.6271 39.5877ZM93.1244 42.1783H97.9364V41.4107H93.9275V35.0783H93.118L93.1244 42.1783ZM109.623 35.0783H104.483V42.1527H109.687V41.4235H105.273V38.9481H109.167V38.2189H105.273V35.8075H109.623V35.0783ZM112.989 36.8501C112.989 36.2105 113.58 35.6987 114.506 35.6987C115.266 35.7027 115.999 35.9824 116.568 36.4855L117.037 35.8459C116.337 35.2608 115.445 34.9534 114.531 34.9823C113.176 34.9823 112.186 35.7883 112.186 36.9013C112.186 38.0142 112.944 38.5963 114.583 38.9481C116.08 39.2615 116.439 39.6389 116.439 40.3041C116.439 40.9694 115.797 41.513 114.846 41.513C114.393 41.5179 113.943 41.4321 113.524 41.2607C113.104 41.0893 112.724 40.8358 112.405 40.5152L111.904 41.1037C112.688 41.842 113.728 42.25 114.808 42.2422C116.227 42.2422 117.243 41.4555 117.243 40.2338C117.243 39.1464 116.51 38.5707 114.923 38.2253C113.336 37.8799 112.996 37.5153 112.996 36.8437M122.504 35.8459H124.92V35.0783H119.292V35.8459H121.708V42.1783H122.524L122.504 35.8459ZM129.95 35.0591H129.192L125.948 42.1527H126.77L127.618 40.2849H131.473L132.308 42.1527H133.176L129.95 35.0591ZM131.184 39.5877H127.933L129.565 35.9866L131.184 39.5877ZM137.454 35.8459H139.851V35.0783H134.249V35.8459H136.645V42.1783H137.454V35.8459ZM147.586 35.1039H142.446V42.1783H147.657V41.4491H143.256V38.9737H147.111V38.2445H143.256V35.8331H147.605L147.586 35.1039ZM157.692 35.0591H156.934L153.683 42.1783H154.512L155.36 40.3105H159.215L160.05 42.1783H160.917L157.692 35.0591ZM158.926 39.5877H155.675L157.3 35.9866L158.926 39.5877ZM169.681 38.6283C169.681 36.6326 168.132 35.1039 165.89 35.1039H163.416V42.1783H165.89C166.377 42.2089 166.865 42.1398 167.324 41.9751C167.783 41.8105 168.203 41.5538 168.558 41.2211C168.913 40.8883 169.196 40.4866 169.389 40.0406C169.582 39.5946 169.681 39.1139 169.681 38.6283ZM168.845 38.6283C168.852 39.0092 168.778 39.3872 168.63 39.7383C168.481 40.0894 168.261 40.4059 167.983 40.6676C167.705 40.9294 167.376 41.1306 167.015 41.2585C166.655 41.3865 166.272 41.4383 165.89 41.4107H164.22V35.8459H165.89C166.273 35.82 166.658 35.8739 167.019 36.0041C167.381 36.1343 167.711 36.3379 167.989 36.602C168.267 36.8662 168.486 37.185 168.634 37.5382C168.781 37.8915 168.853 38.2714 168.845 38.6539M174.814 41.2124L172.276 35.1231H171.383L174.448 42.2422H175.161L178.245 35.0783H177.384L174.814 41.2124ZM180.776 42.1975H181.579V35.0847H180.776V42.1975ZM185.357 36.8949C185.357 36.2552 185.948 35.7435 186.879 35.7435C187.635 35.7437 188.366 36.0164 188.935 36.5111L189.404 35.8714C188.704 35.2875 187.812 34.9802 186.899 35.0079C185.543 35.0079 184.554 35.8139 184.554 36.9268C184.554 38.0398 185.312 38.6219 186.95 38.9737C188.447 39.2871 188.8 39.6645 188.8 40.3297C188.8 40.9949 188.158 41.5386 187.213 41.5386C186.759 41.5429 186.309 41.4569 185.888 41.2855C185.468 41.1142 185.086 40.861 184.766 40.5408L184.271 41.1293C185.059 41.8645 186.102 42.2679 187.181 42.255C188.601 42.255 189.616 41.4683 189.616 40.2466C189.616 39.1592 188.884 38.5835 187.297 38.2381C185.71 37.8927 185.37 37.5281 185.37 36.8565M199.298 38.6091C199.288 37.8959 199.066 37.2015 198.661 36.6132C198.256 36.0249 197.686 35.5688 197.021 35.3022C196.357 35.0357 195.628 34.9705 194.926 35.1149C194.224 35.2593 193.581 35.6068 193.077 36.1138C192.573 36.6208 192.231 37.2648 192.094 37.9648C191.956 38.6648 192.029 39.3897 192.304 40.0484C192.578 40.7072 193.043 41.2705 193.638 41.6677C194.233 42.0648 194.933 42.278 195.649 42.2806C196.134 42.2913 196.617 42.2034 197.067 42.0221C197.517 41.8409 197.926 41.5702 198.267 41.2266C198.609 40.883 198.876 40.4736 199.053 40.0236C199.231 39.5736 199.314 39.0923 199.298 38.6091ZM198.463 38.6091C198.479 38.9841 198.42 39.3584 198.287 39.7097C198.154 40.061 197.952 40.382 197.691 40.6533C197.431 40.9246 197.118 41.1406 196.771 41.2884C196.425 41.4361 196.052 41.5125 195.675 41.513C195.295 41.5108 194.919 41.4325 194.571 41.2828C194.222 41.1331 193.907 40.9152 193.644 40.6419C193.382 40.3686 193.177 40.0455 193.042 39.6919C192.908 39.3383 192.846 38.9614 192.861 38.5835C192.844 38.2086 192.904 37.8342 193.037 37.4829C193.169 37.1316 193.372 36.8106 193.633 36.5393C193.893 36.268 194.206 36.052 194.552 35.9042C194.899 35.7565 195.272 35.6801 195.649 35.6796C196.029 35.6818 196.404 35.7601 196.753 35.9098C197.102 36.0595 197.417 36.2774 197.679 36.5507C197.942 36.824 198.147 37.1471 198.281 37.5007C198.416 37.8543 198.478 38.2312 198.463 38.6091ZM207.971 42.1335L205.781 39.2423C206.305 39.2021 206.795 38.9663 207.152 38.582C207.509 38.1978 207.708 37.6935 207.708 37.1699C207.708 35.8906 206.699 35.0591 205.138 35.0591H202.067V42.1335H202.877V39.3831H204.913L206.982 42.1335H207.971ZM206.899 37.2019C206.899 38.123 206.134 38.6667 205.067 38.6667H202.877V35.8459H205.074C206.224 35.8459 206.899 36.3704 206.899 37.2467M213.323 39.3703L216.285 35.1039H215.347L212.925 38.6411L210.522 35.1039H209.545L212.507 39.3767V42.1783H213.323V39.3703Z" fill="#231F20"/>
<path d="M68.4536 28.714H70.4259V19.887L68.4536 19.5096V28.714ZM63.6094 19.0811H75.2701V17.1174H63.6094V19.0811Z" fill="#59595C"/>
<path d="M83.6407 25.324H79.818V28.714H77.8906V17.1174H79.818V23.3795H84.0262L83.6407 25.324ZM86.5639 17.1174V28.714H84.6365V17.1174H86.5639Z" fill="#59595C"/>
<path d="M98.4309 19.0811H91.6593V23.3795H96.1758L95.7904 25.3431H91.6593V26.7503H98.4309V28.714H89.6934V26.7503V25.3431V23.3795V19.0811V18.1024V17.1174H98.4309V19.0811Z" fill="#59595C"/>
<path d="M120.467 22.9264C120.456 24.2726 119.972 25.5726 119.099 26.6004C118.225 27.6281 117.018 28.3186 115.686 28.5517C114.354 28.7849 112.982 28.546 111.809 27.8765C110.636 27.2071 109.736 26.1494 109.265 24.8875C108.793 23.6256 108.782 22.2392 109.231 20.9694C109.68 19.6997 110.562 18.6268 111.723 17.9374C112.885 17.2479 114.252 16.9856 115.588 17.1959C116.924 17.4062 118.143 18.076 119.034 19.0886L117.608 20.5086C117.086 19.8744 116.372 19.4249 115.573 19.2271C114.774 19.0293 113.932 19.0938 113.172 19.4108C112.413 19.7279 111.777 20.2807 111.358 20.9868C110.94 21.693 110.762 22.5148 110.85 23.3299C110.939 24.1451 111.289 24.9099 111.85 25.5106C112.41 26.1114 113.15 26.5158 113.96 26.6639C114.77 26.8119 115.607 26.6955 116.345 26.3321C117.083 25.9687 117.684 25.3777 118.057 24.6471H115.346L115.051 22.9136H120.467V22.9264Z" fill="#59595C"/>
<path d="M124.708 27.5435C124.368 27.1958 124.1 26.7845 123.92 26.3333C123.741 25.8821 123.652 25.3999 123.661 24.9146V17.1174H125.588V24.9146C125.588 26.1363 126.462 26.7823 128.158 26.7823C129.854 26.7823 130.728 26.1043 130.728 24.8634V17.1174H132.655V24.8826C132.655 26.6544 131.467 28.7204 128.158 28.7204C126.898 28.8006 125.657 28.3797 124.708 27.5499" fill="#59595C"/>
<path d="M156.471 25.3879L158.919 28.714H156.484L154.299 25.7397H152.751L152.359 23.8208H154.736C155.343 23.7893 155.914 23.5273 156.332 23.0887C156.75 22.6501 156.984 22.0685 156.984 21.4637C156.984 20.859 156.75 20.2774 156.332 19.8388C155.914 19.4002 155.343 19.1381 154.736 19.1067H152.025V28.7396H150.098V17.1174H154.762C155.757 17.1196 156.72 17.462 157.491 18.0874C158.262 18.7128 158.794 19.5831 158.998 20.5524C159.201 21.5217 159.063 22.5312 158.608 23.4115C158.153 24.2919 157.407 24.9897 156.497 25.3879" fill="#59595C"/>
<path d="M171.922 23.5586C171.922 27.9529 169.571 28.714 167.296 28.714H162.709V17.1174H167.296C169.635 17.1174 171.922 19.177 171.922 23.5586ZM169.995 23.5586C169.995 21.6077 169.455 20.5523 168.992 19.983C168.792 19.7152 168.533 19.4973 168.234 19.3464C167.935 19.1954 167.606 19.1156 167.27 19.1131H164.591V26.7887H167.27C167.951 26.8596 168.635 26.6849 169.198 26.2962C169.84 25.7461 170.001 24.5116 170.001 23.565" fill="#59595C"/>
<path d="M177.088 17.1174H175.115V28.714H177.088V17.1174Z" fill="#59595C"/>
<path d="M201.129 26.3218L196.542 21.5949V28.714H194.775V17.1174L201.129 23.6865V26.3218ZM203.449 17.1174V28.714L201.688 26.8911V17.1174H203.449Z" fill="#59595C"/>
<path d="M216.336 24.8378C216.336 26.4497 214.819 28.714 211.491 28.714C208.421 28.714 206.917 26.7951 206.679 25.2472L208.607 24.8826C208.645 25.3431 209.166 26.8015 211.504 26.8015C213.843 26.8015 214.395 25.2663 214.395 24.8826C214.395 24.4988 213.483 23.9167 211.504 23.9167C207.007 23.9167 206.66 21.7036 206.66 21.0255C206.66 19.4264 208.164 17.1877 211.504 17.1877C214.562 17.1877 216.079 19.1066 216.316 20.6418L214.389 21.0191C214.357 20.5586 213.83 19.1322 211.498 19.1322C209.166 19.1322 208.6 20.6673 208.6 21.0511C208.6 21.4349 209.365 22.0106 211.498 22.0106C212.717 21.9445 213.933 22.2029 215.019 22.759C215.413 22.9652 215.745 23.2738 215.978 23.6522C216.21 24.0305 216.336 24.4644 216.342 24.9081" fill="#59595C"/>
<path d="M141.058 21.0704L144.912 28.714H146.872L141.058 17.1174L135.23 28.714H137.261L141.058 21.0704Z" fill="#59595C"/>
<path d="M185.767 21.0704L189.615 28.714H191.581L185.767 17.1174L179.939 28.714H181.97L185.767 21.0704Z" fill="#59595C"/>
<path d="M218.541 15.6269H220.023C220.373 15.609 220.716 15.7354 220.979 15.9793C221.071 16.077 221.143 16.1935 221.191 16.3217C221.239 16.4498 221.261 16.5869 221.256 16.7245C221.26 16.9644 221.181 17.1977 221.036 17.3823C220.891 17.5669 220.687 17.6908 220.463 17.7315L221.352 19.0608H220.673L219.851 17.8423H219.172V19.0608H218.589L218.541 15.6269ZM219.975 17.3589C220.396 17.3589 220.664 17.1273 220.664 16.7749C220.664 16.4023 220.405 16.1908 219.975 16.1908H219.172V17.369L219.975 17.3589Z" fill="#59595C"/>
<path d="M219.946 20.3113C219.359 20.3113 218.785 20.1373 218.297 19.8113C217.809 19.4852 217.429 19.0218 217.204 18.4797C216.98 17.9375 216.921 17.3409 217.036 16.7654C217.15 16.1898 217.433 15.6611 217.848 15.2462C218.263 14.8312 218.791 14.5487 219.367 14.4342C219.942 14.3197 220.539 14.3785 221.081 14.603C221.623 14.8276 222.087 15.2079 222.413 15.6958C222.739 16.1837 222.913 16.7574 222.913 17.3442C222.913 18.1311 222.6 18.8858 222.044 19.4423C221.487 19.9987 220.732 20.3113 219.946 20.3113ZM219.946 14.7306C219.425 14.7288 218.915 14.8816 218.481 15.1697C218.047 15.4578 217.708 15.8682 217.507 16.3491C217.306 16.8299 217.253 17.3594 217.353 17.8706C217.454 18.3818 217.704 18.8517 218.072 19.2208C218.439 19.5898 218.908 19.8415 219.419 19.9438C219.93 20.0461 220.46 19.9945 220.941 19.7956C221.423 19.5966 221.835 19.2592 222.124 18.8262C222.414 18.3931 222.568 17.8838 222.568 17.3628C222.569 16.6663 222.292 15.9982 221.801 15.5049C221.309 15.0115 220.642 14.7331 219.946 14.7306Z" fill="#59595C"/>
<path d="M13.2793 22.9063V26.5006L19.0697 29.8268L13.2793 33.1593V36.7472L25.3153 29.8268L13.2793 22.9063Z" fill="#BCBDC0"/>
<path d="M13.6973 37.4692L16.8265 39.2632L22.6105 35.9307L22.6169 42.583L25.7397 44.3833V30.5488L13.6973 37.4692Z" fill="#BCBDC0"/>
<path d="M39.0184 33.1529L33.2281 29.8268L39.012 26.4942V22.9063L26.9824 29.8268L39.0184 36.7408V33.1529Z" fill="#BCBDC0"/>
<path d="M35.4801 20.398L29.6898 23.7241L29.6834 17.0654L26.5605 15.2715L26.567 29.1123L38.5966 22.1919L35.4801 20.398Z" fill="#BCBDC0"/>
<path d="M29.6892 35.9287L35.4796 39.2549L38.6024 37.4609L26.5664 30.5469V44.3813L29.6956 42.581L29.6892 35.9287Z" fill="#BCBDC0"/>
<path d="M22.6105 17.0654V23.7241L16.8201 20.398L13.6973 22.1919L25.7333 29.1123V15.2715L22.6105 17.0654Z" fill="#BCBDC0"/>
<path d="M22.1925 43.3037L16.4085 46.6362V39.9776L13.2793 38.1836L13.2857 52.0181L25.3217 45.0977L22.1925 43.3037Z" fill="#8F8083"/>
<path d="M39.8457 22.9063V26.4942L45.6425 29.8268L39.8457 33.1529L39.8521 36.7472L51.8881 29.8204L39.8457 22.9063Z" fill="#8F8083"/>
<path d="M9.32335 9.43705V16.0893L3.53298 12.7632L0.410156 14.5571L12.4462 21.4712V7.63672L9.32335 9.43705Z" fill="#8F8083"/>
<path d="M0.416016 45.104L3.53884 46.898L9.32921 43.5718V50.2241L12.452 52.0181V38.1836L0.416016 45.104Z" fill="#8F8083"/>
<path d="M26.5605 0V13.8408L38.5966 6.91404L35.4737 5.12647L29.6834 8.44623V1.79395L26.5605 0Z" fill="#8F8083"/>
<path d="M48.7589 12.7504L42.9749 16.083V9.43067L39.8457 7.63672V21.4712L51.8817 14.5508L48.7589 12.7504Z" fill="#8F8083"/>
<path d="M26.9824 14.5508L30.1052 16.3511L35.8956 13.0186V19.6772L39.012 21.4712V7.63672L26.9824 14.5508Z" fill="#8F8083"/>
<path d="M35.8892 39.9717V46.6304L30.1117 43.3042L26.9824 45.0982L39.0248 52.0122L39.0184 38.1777L35.8892 39.9717Z" fill="#8F8083"/>
<path d="M25.7269 0L22.6105 1.79395V8.44623L16.8137 5.12647L13.6973 6.92042L25.7333 13.8408L25.7269 0Z" fill="#8F8083"/>
<path d="M42.9763 43.566L48.7667 46.8921L51.8959 45.0982L39.8535 38.1777V52.0122L42.9763 50.2182V43.566Z" fill="#8F8083"/>
<path d="M0 30.5469V34.1348L5.78395 37.4673L0 40.7934V44.3813L12.036 37.4673L0 30.5469Z" fill="#8F8083"/>
<path d="M13.7032 52.7395L16.8261 54.5334L22.6164 51.2009V57.8596L25.7393 59.6535V45.8127L13.7032 52.7395Z" fill="#8F8083"/>
<path d="M0 18.8652L5.78396 22.1913L0 25.5238V29.1117L12.0296 22.1913L0 15.2773V18.8652Z" fill="#8F8083"/>
<path d="M16.4021 13.0249L22.1925 16.3511L25.3153 14.5571L13.2793 7.63672V21.4776L16.4085 19.6772L16.4021 13.0249Z" fill="#8F8083"/>
<path d="M29.6956 51.2009L35.486 54.5271L38.6088 52.7331L26.5664 45.8127V59.6535L29.6956 57.8596V51.2009Z" fill="#8F8083"/>
<path d="M52.2997 25.5166L46.5093 22.1841L48.2407 21.1945L49.4013 20.5242L52.2997 18.8579V18.8516V15.2637L40.2637 22.1905L52.2997 29.1045V25.5166Z" fill="#8F8083"/>
<path d="M52.3056 40.7876L46.5088 37.4614L48.6313 36.2421L52.2991 34.1289V30.541L40.2695 37.4614L52.3056 44.3819V40.7876Z" fill="#8F8083"/>
<path d="M12.4456 33.1593L6.65525 29.8268L12.4456 26.5006V22.9063L0.416016 29.8331L12.452 36.7472L12.4456 33.1593Z" fill="#8F8083"/>
</svg>
