<svg width="223" height="60" viewBox="0 0 223 60" fill="none" xmlns="http://www.w3.org/2000/svg">
<path d="M73.5734 42.1522L71.3825 39.261C71.9069 39.2208 72.3967 38.985 72.754 38.6007C73.1114 38.2165 73.3099 37.7122 73.3099 37.1886C73.3099 35.9093 72.3013 35.0778 70.7401 35.0778H67.6691V42.1522H68.4786V39.4018H70.5152L72.584 42.1522H73.5734ZM72.5004 37.2206C72.5004 38.1417 71.7359 38.6854 70.6694 38.6854H68.4786V35.8454H70.6758C71.8258 35.8454 72.5004 36.3699 72.5004 37.2462M81.2637 35.1034H76.0918V42.1778H81.3022V41.4486H76.9142V38.9732H80.769V38.244H76.9142V35.8326H81.2637V35.1034ZM87.3928 35.0586H86.6411L83.3902 42.1778H84.219L85.0863 40.2845H88.9411L89.7763 42.1522H90.6436L87.3928 35.0586ZM88.6263 39.5873H85.3754L87.0137 35.9605L88.6263 39.5873ZM93.1236 42.1778H97.9356V41.4102H93.9266V35.0778H93.1171L93.1236 42.1778ZM109.622 35.0778H104.482V42.1522H109.686V41.423H105.273V38.9476H109.166V38.2184H105.273V35.807H109.622V35.0778ZM112.989 36.8496C112.989 36.21 113.58 35.6983 114.505 35.6983C115.265 35.7022 115.999 35.9819 116.567 36.485L117.036 35.8454C116.336 35.2604 115.444 34.9529 114.53 34.9819C113.175 34.9819 112.185 35.7878 112.185 36.9008C112.185 38.0137 112.944 38.5958 114.582 38.9476C116.079 39.261 116.439 39.6384 116.439 40.3036C116.439 40.9689 115.796 41.5126 114.845 41.5126C114.392 41.5174 113.942 41.4316 113.523 41.2602C113.104 41.0888 112.723 40.8353 112.404 40.5147L111.903 41.1032C112.687 41.8415 113.727 42.2495 114.807 42.2417C116.227 42.2417 117.242 41.455 117.242 40.2333C117.242 39.1459 116.509 38.5702 114.922 38.2248C113.336 37.8794 112.995 37.5148 112.995 36.8432M122.503 35.8454H124.919V35.0778H119.291V35.8454H121.707V42.1778H122.523L122.503 35.8454ZM129.95 35.0586H129.192L125.947 42.1522H126.769L127.618 40.2845H131.472L132.308 42.1522H133.175L129.95 35.0586ZM131.183 39.5873H127.932L129.564 35.9861L131.183 39.5873ZM137.454 35.8454H139.85V35.0778H134.248V35.8454H136.644V42.1778H137.454V35.8454ZM147.585 35.1034H142.446V42.1778H147.656V41.4486H143.255V38.9732H147.11V38.244H143.255V35.8326H147.605L147.585 35.1034ZM157.691 35.0586H156.933L153.682 42.1778H154.511L155.359 40.31H159.214L160.049 42.1778H160.916L157.691 35.0586ZM158.925 39.5873H155.674L157.299 35.9861L158.925 39.5873ZM169.68 38.6278C169.68 36.6321 168.131 35.1034 165.889 35.1034H163.416V42.1778H165.889C166.376 42.2084 166.864 42.1393 167.323 41.9746C167.782 41.81 168.202 41.5534 168.557 41.2206C168.912 40.8879 169.195 40.4861 169.388 40.0401C169.582 39.5941 169.681 39.1134 169.68 38.6278ZM168.844 38.6278C168.851 39.0087 168.777 39.3867 168.629 39.7378C168.481 40.0889 168.26 40.4054 167.982 40.6671C167.704 40.9289 167.375 41.1301 167.014 41.258C166.654 41.386 166.271 41.4378 165.889 41.4102H164.219V35.8454H165.889C166.273 35.8195 166.657 35.8734 167.018 36.0036C167.38 36.1338 167.71 36.3374 167.988 36.6016C168.266 36.8657 168.485 37.1845 168.633 37.5377C168.78 37.891 168.852 38.2709 168.844 38.6534M174.813 41.2119L172.275 35.1226H171.382L174.447 42.2417H175.16L178.244 35.0778H177.383L174.813 41.2119ZM180.775 42.197H181.578V35.0842H180.775V42.197ZM185.356 36.8944C185.356 36.2547 185.947 35.743 186.878 35.743C187.634 35.7432 188.365 36.0159 188.934 36.5106L189.403 35.871C188.703 35.287 187.811 34.9797 186.898 35.0074C185.542 35.0074 184.553 35.8134 184.553 36.9264C184.553 38.0393 185.311 38.6214 186.949 38.9732C188.446 39.2866 188.799 39.664 188.799 40.3292C188.799 40.9945 188.157 41.5381 187.213 41.5381C186.758 41.5424 186.308 41.4564 185.888 41.285C185.467 41.1137 185.086 40.8605 184.765 40.5403L184.27 41.1288C185.058 41.864 186.101 42.2674 187.18 42.2545C188.6 42.2545 189.615 41.4678 189.615 40.2461C189.615 39.1587 188.883 38.583 187.296 38.2376C185.709 37.8922 185.369 37.5276 185.369 36.856M199.297 38.6086C199.287 37.8954 199.066 37.201 198.661 36.6127C198.255 36.0244 197.685 35.5683 197.02 35.3018C196.356 35.0352 195.627 34.97 194.925 35.1144C194.224 35.2588 193.581 35.6063 193.077 36.1133C192.573 36.6203 192.23 37.2643 192.093 37.9643C191.955 38.6643 192.028 39.3892 192.303 40.048C192.578 40.7067 193.042 41.27 193.637 41.6672C194.232 42.0643 194.932 42.2775 195.648 42.2801C196.134 42.2908 196.616 42.2029 197.066 42.0216C197.516 41.8404 197.925 41.5697 198.266 41.2261C198.608 40.8825 198.875 40.4732 199.053 40.0231C199.23 39.5731 199.313 39.0918 199.297 38.6086ZM198.462 38.6086C198.479 38.9836 198.419 39.358 198.286 39.7093C198.153 40.0606 197.951 40.3815 197.69 40.6528C197.43 40.9241 197.117 41.1401 196.77 41.2879C196.424 41.4356 196.051 41.5121 195.674 41.5126C195.294 41.5103 194.919 41.432 194.57 41.2823C194.221 41.1327 193.906 40.9147 193.643 40.6414C193.381 40.3681 193.176 40.0451 193.042 39.6914C192.907 39.3378 192.845 38.9609 192.86 38.583C192.843 38.2081 192.903 37.8337 193.036 37.4824C193.169 37.1311 193.371 36.8101 193.632 36.5388C193.892 36.2675 194.205 36.0515 194.552 35.9037C194.898 35.756 195.271 35.6796 195.648 35.6791C196.028 35.6814 196.403 35.7597 196.752 35.9093C197.101 36.059 197.416 36.2769 197.679 36.5502C197.941 36.8235 198.146 37.1466 198.28 37.5002C198.415 37.8538 198.477 38.2307 198.462 38.6086ZM207.971 42.133L205.78 39.2418C206.304 39.2016 206.794 38.9658 207.151 38.5816C207.509 38.1973 207.707 37.693 207.707 37.1694C207.707 35.8901 206.699 35.0586 205.137 35.0586H202.066V42.133H202.876V39.3826H204.912L206.981 42.133H207.971ZM206.898 37.2014C206.898 38.1225 206.133 38.6662 205.067 38.6662H202.876V35.8454H205.073C206.223 35.8454 206.898 36.3699 206.898 37.2462M213.322 39.3698L216.284 35.1034H215.346L212.924 38.6406L210.521 35.1034H209.545L212.506 39.3762V42.1778H213.322V39.3698Z" fill="white"/>
<path d="M68.4535 28.7148H70.4259V19.8878L68.4535 19.5104V28.7148ZM63.6093 19.0819H75.2701V17.1182H63.6093V19.0819Z" fill="white"/>
<path d="M83.6417 25.3247H79.819V28.7148H77.8916V17.1182H79.819V23.3802H84.0271L83.6417 25.3247ZM86.5649 17.1182V28.7148H84.6375V17.1182H86.5649Z" fill="white"/>
<path d="M98.431 19.0819H91.6594V23.3802H96.1759L95.7904 25.3439H91.6594V26.7511H98.431V28.7148H89.6934V26.7511V25.3439V23.3802V19.0819V18.1032V17.1182H98.431V19.0819Z" fill="white"/>
<path d="M120.467 22.9262C120.457 24.2724 119.973 25.5724 119.1 26.6002C118.226 27.6279 117.019 28.3184 115.687 28.5515C114.355 28.7847 112.983 28.5457 111.81 27.8763C110.637 27.2068 109.737 26.1492 109.265 24.8873C108.794 23.6254 108.782 22.239 109.232 20.9692C109.681 19.6994 110.563 18.6266 111.724 17.9371C112.886 17.2477 114.253 16.9854 115.589 17.1957C116.924 17.406 118.144 18.0757 119.035 19.0884L117.608 20.5084C117.087 19.8742 116.373 19.4247 115.574 19.2269C114.775 19.0291 113.933 19.0935 113.173 19.4106C112.414 19.7277 111.777 20.2805 111.359 20.9866C110.941 21.6928 110.762 22.5146 110.851 23.3297C110.94 24.1448 111.29 24.9097 111.851 25.5104C112.411 26.1111 113.151 26.5156 113.961 26.6636C114.771 26.8117 115.608 26.6953 116.346 26.3319C117.084 25.9685 117.685 25.3775 118.058 24.6468H115.347L115.051 22.9134H120.467V22.9262Z" fill="white"/>
<path d="M124.708 27.5443C124.368 27.1965 124.1 26.7852 123.92 26.334C123.741 25.8828 123.652 25.4007 123.661 24.9154V17.1182H125.588V24.9154C125.588 26.1371 126.462 26.7831 128.158 26.7831C129.854 26.7831 130.728 26.1051 130.728 24.8642V17.1182H132.655V24.8834C132.655 26.6552 131.467 28.7212 128.158 28.7212C126.898 28.8014 125.657 28.3804 124.708 27.5507" fill="white"/>
<path d="M156.471 25.3887L158.919 28.7148H156.484L154.299 25.7405H152.751L152.359 23.8216H154.736C155.343 23.7901 155.914 23.528 156.332 23.0895C156.75 22.6509 156.984 22.0692 156.984 21.4645C156.984 20.8598 156.75 20.2781 156.332 19.8396C155.914 19.401 155.343 19.1389 154.736 19.1074H152.025V28.7404H150.098V17.1182H154.762C155.757 17.1203 156.72 17.4628 157.491 18.0882C158.262 18.7136 158.794 19.5839 158.998 20.5532C159.201 21.5225 159.063 22.5319 158.608 23.4123C158.153 24.2926 157.407 24.9904 156.497 25.3887" fill="white"/>
<path d="M171.923 23.5593C171.923 27.9536 169.571 28.7148 167.297 28.7148H162.71V17.1182H167.297C169.636 17.1182 171.923 19.1778 171.923 23.5593ZM169.996 23.5593C169.996 21.6084 169.456 20.553 168.993 19.9837C168.793 19.716 168.534 19.4981 168.235 19.3471C167.936 19.1962 167.607 19.1163 167.271 19.1138H164.592V26.7895H167.271C167.952 26.8604 168.636 26.6856 169.199 26.297C169.841 25.7469 170.002 24.5124 170.002 23.5657" fill="white"/>
<path d="M177.088 17.1182H175.115V28.7148H177.088V17.1182Z" fill="white"/>
<path d="M201.129 26.3226L196.542 21.5956V28.7148H194.775V17.1182L201.129 23.6872V26.3226ZM203.449 17.1182V28.7148L201.688 26.8918V17.1182H203.449Z" fill="white"/>
<path d="M216.336 24.8385C216.336 26.4504 214.819 28.7148 211.491 28.7148C208.421 28.7148 206.917 26.7958 206.679 25.2479L208.607 24.8833C208.645 25.3439 209.166 26.8022 211.504 26.8022C213.843 26.8022 214.395 25.2671 214.395 24.8833C214.395 24.4995 213.483 23.9175 211.504 23.9175C207.007 23.9175 206.66 21.7043 206.66 21.0263C206.66 19.4272 208.164 17.1885 211.504 17.1885C214.562 17.1885 216.079 19.1074 216.316 20.6425L214.389 21.0199C214.357 20.5594 213.83 19.133 211.498 19.133C209.166 19.133 208.6 20.6681 208.6 21.0519C208.6 21.4357 209.365 22.0113 211.498 22.0113C212.717 21.9453 213.933 22.2036 215.019 22.7597C215.413 22.966 215.745 23.2746 215.978 23.6529C216.21 24.0312 216.336 24.4652 216.342 24.9089" fill="white"/>
<path d="M141.058 21.0711L144.913 28.7148H146.873L141.058 17.1182L135.231 28.7148H137.261L141.058 21.0711Z" fill="white"/>
<path d="M185.768 21.0711L189.616 28.7148H191.582L185.768 17.1182L179.94 28.7148H181.971L185.768 21.0711Z" fill="white"/>
<path d="M218.54 15.6281H220.022C220.372 15.6102 220.715 15.7367 220.978 15.9806C221.07 16.0782 221.142 16.1948 221.19 16.3229C221.238 16.4511 221.26 16.5882 221.255 16.7258C221.259 16.9657 221.181 17.1989 221.035 17.3835C220.89 17.5682 220.686 17.692 220.462 17.7328L221.351 19.062H220.672L219.85 17.8435H219.171V19.062H218.588L218.54 15.6281ZM219.974 17.3602C220.395 17.3602 220.663 17.1286 220.663 16.7761C220.663 16.4035 220.404 16.1921 219.974 16.1921H219.171V17.3702L219.974 17.3602Z" fill="white"/>
<path d="M219.946 20.3113C219.359 20.3113 218.785 20.1373 218.297 19.8113C217.809 19.4853 217.429 19.0219 217.204 18.4797C216.98 17.9375 216.921 17.341 217.036 16.7654C217.15 16.1899 217.433 15.6612 217.848 15.2462C218.263 14.8313 218.791 14.5487 219.367 14.4342C219.942 14.3197 220.539 14.3785 221.081 14.6031C221.623 14.8276 222.087 15.2079 222.413 15.6958C222.739 16.1838 222.913 16.7574 222.913 17.3443C222.913 18.1312 222.6 18.8859 222.044 19.4423C221.487 19.9987 220.732 20.3113 219.946 20.3113ZM219.946 14.7306C219.425 14.7288 218.915 14.8816 218.481 15.1697C218.047 15.4578 217.708 15.8683 217.507 16.3491C217.306 16.8299 217.253 17.3594 217.353 17.8707C217.454 18.3819 217.704 18.8518 218.072 19.2208C218.439 19.5899 218.908 19.8415 219.419 19.9438C219.93 20.0461 220.46 19.9945 220.941 19.7956C221.423 19.5966 221.835 19.2593 222.124 18.8262C222.414 18.3931 222.568 17.8839 222.568 17.3629C222.569 16.6664 222.292 15.9983 221.801 15.5049C221.309 15.0115 220.642 14.7331 219.946 14.7306Z" fill="white"/>
<path d="M13.2801 22.9062V26.5005L19.0704 29.8267L13.2801 33.1592V36.7471L25.3161 29.8267L13.2801 22.9062Z" fill="#BCBDC0"/>
<path d="M13.6973 37.4688L16.8265 39.2627L22.6105 35.9302L22.6169 42.5825L25.7397 44.3828V30.5483L13.6973 37.4688Z" fill="#BCBDC0"/>
<path d="M39.0192 33.1528L33.2288 29.8267L39.0128 26.4941V22.9062L26.9832 29.8267L39.0192 36.7407V33.1528Z" fill="#BCBDC0"/>
<path d="M35.4792 20.3975L29.6888 23.7236L29.6824 17.0649L26.5596 15.271L26.566 29.1118L38.5956 22.1914L35.4792 20.3975Z" fill="#BCBDC0"/>
<path d="M29.6892 35.9299L35.4796 39.2561L38.6024 37.4621L26.5664 30.5481V44.3826L29.6956 42.5822L29.6892 35.9299Z" fill="#BCBDC0"/>
<path d="M22.6105 17.0649V23.7236L16.8201 20.3975L13.6973 22.1914L25.7333 29.1118V15.271L22.6105 17.0649Z" fill="#BCBDC0"/>
<path d="M22.1933 43.3037L16.4093 46.6362V39.9775L13.2801 38.1836L13.2865 52.0181L25.3225 45.0976L22.1933 43.3037Z" fill="white"/>
<path d="M39.8465 22.9062V26.4941L45.6432 29.8267L39.8465 33.1528L39.8529 36.7471L51.8889 29.8203L39.8465 22.9062Z" fill="white"/>
<path d="M9.32335 9.43583V16.0881L3.53298 12.762L0.410156 14.5559L12.4462 21.47V7.6355L9.32335 9.43583Z" fill="white"/>
<path d="M0.416779 45.104L3.5396 46.898L9.32997 43.5718V50.2241L12.4528 52.0181V38.1836L0.416779 45.104Z" fill="white"/>
<path d="M26.5596 0V13.8408L38.5956 6.91404L35.4728 5.12647L29.6824 8.44623V1.79395L26.5596 0Z" fill="white"/>
<path d="M48.7597 12.7492L42.9757 16.0817V9.42945L39.8465 7.6355V21.47L51.8825 14.5495L48.7597 12.7492Z" fill="white"/>
<path d="M26.9832 14.5495L30.106 16.3499L35.8964 13.0173V19.676L39.0128 21.47V7.6355L26.9832 14.5495Z" fill="white"/>
<path d="M35.8899 39.9712V46.6299L30.1124 43.3037L26.9832 45.0977L39.0256 52.0117L39.0192 38.1772L35.8899 39.9712Z" fill="white"/>
<path d="M25.7269 0L22.6105 1.79395V8.44623L16.8137 5.12647L13.6973 6.92042L25.7333 13.8408L25.7269 0Z" fill="white"/>
<path d="M42.9754 43.5655L48.7657 46.8916L51.895 45.0977L39.8525 38.1772V52.0117L42.9754 50.2178V43.5655Z" fill="white"/>
<path d="M0 30.5481V34.136L5.78395 37.4685L0 40.7947V44.3826L12.036 37.4685L0 30.5481Z" fill="white"/>
<path d="M13.7032 52.7395L16.826 54.5335L22.6164 51.201V57.8596L25.7392 59.6536V45.8127L13.7032 52.7395Z" fill="white"/>
<path d="M0 18.8652L5.78396 22.1914L0 25.5239V29.1118L12.0296 22.1914L0 15.2773V18.8652Z" fill="white"/>
<path d="M16.4029 13.0237L22.1933 16.3499L25.3161 14.5559L13.2801 7.6355V21.4763L16.4093 19.676L16.4029 13.0237Z" fill="white"/>
<path d="M29.6956 51.201L35.486 54.5271L38.6088 52.7332L26.5664 45.8127V59.6536L29.6956 57.8596V51.201Z" fill="white"/>
<path d="M52.2997 25.5176L46.5093 22.1851L48.2407 21.1955L49.4013 20.5252L52.2997 18.8589V18.8525V15.2646L40.2637 22.1915L52.2997 29.1055V25.5176Z" fill="white"/>
<path d="M52.3056 40.7883L46.5089 37.4622L48.6314 36.2428L52.2992 34.1296V30.5417L40.2696 37.4622L52.3056 44.3826V40.7883Z" fill="white"/>
<path d="M12.4464 33.1592L6.65601 29.8267L12.4464 26.5005V22.9062L0.416779 29.8331L12.4528 36.7471L12.4464 33.1592Z" fill="white"/>
</svg>
