<svg width="11" height="11" viewBox="0 0 11 11" fill="none" xmlns="http://www.w3.org/2000/svg">
<path d="M5.83908 5.28694L8.30269 8.81078H7.29162L5.28127 5.93532V5.93514L4.98612 5.51303L2.6377 2.15381H3.64876L5.54394 4.86483L5.83908 5.28694Z" fill="white"/>
<path d="M9.76474 0H1.18297C0.529685 0 6.10352e-05 0.529624 6.10352e-05 1.18291V9.76468C6.10352e-05 10.418 0.529685 10.9476 1.18297 10.9476H9.76474C10.418 10.9476 10.9476 10.418 10.9476 9.76468V1.18291C10.9476 0.529624 10.418 0 9.76474 0ZM6.98278 9.28377L4.94842 6.32301L2.40139 9.28377H1.74311L4.65613 5.89778L1.74311 1.6582H3.96492L5.89132 4.46183L8.30318 1.6582H8.96147L6.18371 4.88716H6.18353L9.2046 9.28377H6.98278Z" fill="white"/>
</svg>
