<svg xmlns="http://www.w3.org/2000/svg" xmlns:xlink="http://www.w3.org/1999/xlink" viewBox="0 0 47.91 44.72"><defs><style>.cls-1{fill:none;}.cls-2,.cls-9{fill:#5a5a5d;}.cls-2,.cls-5,.cls-8{fill-rule:evenodd;}.cls-3{clip-path:url(#clip-path);}.cls-4{fill:url(#linear-gradient);}.cls-5{fill:#daa827;}.cls-6{clip-path:url(#clip-path-2);}.cls-7{fill:url(#linear-gradient-2);}.cls-8{fill:#fdc110;}</style><clipPath id="clip-path" transform="translate(0 9.46)"><path class="cls-1" d="M17.34,15.78l7.46,1.91v-5a2.16,2.16,0,1,1,4.29,0v6.14l9.31,2.38L27.5,0Z"/></clipPath><linearGradient id="linear-gradient" x1="128.96" y1="-734.13" x2="129.96" y2="-734.13" gradientTransform="matrix(-6, 0, 0, 6, 802.41, 4414.57)" gradientUnits="userSpaceOnUse"><stop offset="0" stop-color="#fdc110"/><stop offset="0.4" stop-color="#dba41e"/><stop offset="0.77" stop-color="#c18f28"/><stop offset="1" stop-color="#b8872c"/></linearGradient><clipPath id="clip-path-2" transform="translate(0 9.46)"><path class="cls-1" d="M10.79,16.84l6,1.53v-4a1.83,1.83,0,0,1,1.72-1.91,1.82,1.82,0,0,1,1.71,1.91v4.91l7.45,1.91L18.91,4.22Z"/></clipPath><linearGradient id="linear-gradient-2" x1="141.39" y1="-731.13" x2="142.39" y2="-731.13" gradientTransform="matrix(-5.77, 0, 0, 5.77, 835, 4230.6)" gradientUnits="userSpaceOnUse"><stop offset="0" stop-color="#fdc110"/><stop offset="0.01" stop-color="#fcc011"/><stop offset="0.27" stop-color="#dea71c"/><stop offset="0.52" stop-color="#c99525"/><stop offset="0.77" stop-color="#bc8b2a"/><stop offset="1" stop-color="#b8872c"/></linearGradient></defs><g id="Layer_2" data-name="Layer 2"><g id="Layer_1-2" data-name="Layer 1"><path class="cls-2" d="M35.38,30.56V28.82h1v-2.9h-1V24.2h1.46a1.49,1.49,0,0,1,1.17.42,1.9,1.9,0,0,1,.38,1.3v2.93A1.85,1.85,0,0,1,38,30.13a1.47,1.47,0,0,1-1.16.43Zm3.73,0V24.2l4.31,2.65V24.2h1.89v6.36L41,27.33v3.23ZM35.38,24.2v1.72h-1v2.9h1v1.74H33.91a1.48,1.48,0,0,1-1.16-.43,1.85,1.85,0,0,1-.39-1.28V25.92a1.92,1.92,0,0,1,.38-1.3,1.52,1.52,0,0,1,1.17-.42Zm-25.86,4V26.74h1v-.82h-1V24.2H11a1.71,1.71,0,0,1,1.14.31,1.24,1.24,0,0,1,.36,1v.81a1.18,1.18,0,0,1-.17.68,1.19,1.19,0,0,1-.58.37,1.22,1.22,0,0,1,.59.37,1.17,1.17,0,0,1,.16.69v2.15H10.55V28.19Zm3.71,2.37V24.2h5.31v1.72H15.23v.73h3.3v1.44h-3.3v.73h3.29v1.74Zm6,0V28.82h4.12v-1h-2.2a3,3,0,0,1-1.51-.26,1,1,0,0,1-.37-.9V25.45a1.06,1.06,0,0,1,.44-1,2.63,2.63,0,0,1,1.44-.29h3.74v1.72H21.18v.36h2.64a1.62,1.62,0,0,1,1.08.3,1.17,1.17,0,0,1,.34.93v1.91a1,1,0,0,1-.37.84,1.57,1.57,0,0,1-1,.3Zm8.49,0a1.54,1.54,0,0,1-1.74-1.74v-2.9a1.77,1.77,0,0,1,.44-1.28,1.65,1.65,0,0,1,1.24-.44h4.11v1.72H28v2.9h3.78v1.74ZM2.94,27h1V25.92h-1V24.2H4.61a1.36,1.36,0,0,1,1,.31,1.36,1.36,0,0,1,.31,1v1.75a1.31,1.31,0,0,1-.31.94,1.35,1.35,0,0,1-1,.3H2.94ZM9.52,24.2v1.72h-1v.82h1v1.45h-1v2.37h-2V24.2ZM2,27h1v1.46H2v2.07H0V24.2H2.94v1.72H2Z" transform="translate(0 9.46)"/><g class="cls-3"><rect class="cls-4" x="13.33" y="-3.97" width="29.07" height="29.11" transform="translate(-1.38 25.84) rotate(-32)"/></g><path class="cls-5" d="M26.94,10.27h0a1.5,1.5,0,0,1,.37,0,2.32,2.32,0,0,0-1.77,2.34v5.23l-.74-.19v-5a2.27,2.27,0,0,1,2.14-2.38" transform="translate(0 9.46)"/><polygon class="cls-5" points="28.41 9.46 39.44 30.63 38.4 30.63 27.5 9.46 28.41 9.46"/><path class="cls-5" d="M18.47,12.43h0a1.36,1.36,0,0,1,.29,0,1.87,1.87,0,0,0-1.42,1.88v4.18l-.59-.15v-4a1.83,1.83,0,0,1,1.72-1.91" transform="translate(0 9.46)"/><polygon class="cls-5" points="19.64 13.68 28.47 30.62 27.63 30.62 18.91 13.68 19.64 13.68"/><path class="cls-2" d="M33.59,0a1.63,1.63,0,0,1,.78.21A1.43,1.43,0,0,1,35,.79a1.58,1.58,0,0,1,0,1.59,1.46,1.46,0,0,1-.59.59,1.61,1.61,0,0,1-.79.21h0V2.92h0a1.31,1.31,0,0,0,.66-.18,1.22,1.22,0,0,0,.49-.49,1.3,1.3,0,0,0,.17-.66,1.41,1.41,0,0,0-.17-.66,1.18,1.18,0,0,0-.5-.49,1.3,1.3,0,0,0-.65-.18h0V0Zm0,1.84a1.73,1.73,0,0,1,.25.36l.15.27h.34l-.21-.33a1.94,1.94,0,0,0-.26-.34.28.28,0,0,0-.14-.09.55.55,0,0,0,.36-.16.49.49,0,0,0,.13-.33A.49.49,0,0,0,34.13,1a.4.4,0,0,0-.22-.16,1.12,1.12,0,0,0-.32-.05V1l.17,0a.2.2,0,0,1,.11.09.24.24,0,0,1,.05.14.23.23,0,0,1-.09.19.46.46,0,0,1-.24.07Zm0,1.34a1.65,1.65,0,0,1-.8-.21,1.52,1.52,0,0,1-.59-.59A1.58,1.58,0,0,1,32,1.59a1.69,1.69,0,0,1,.22-.8A1.43,1.43,0,0,1,32.8.21,1.64,1.64,0,0,1,33.59,0V.26a1.31,1.31,0,0,0-.66.18,1.16,1.16,0,0,0-.49.49,1.31,1.31,0,0,0-.18.66,1.41,1.41,0,0,0,.17.66,1.24,1.24,0,0,0,.5.49,1.31,1.31,0,0,0,.66.18Zm0-2.42h-.7V2.47h.27V1.75h.17a.36.36,0,0,1,.22.05l0,0V1.51h-.43V1h.43Z" transform="translate(0 9.46)"/><g class="cls-6"><rect class="cls-7" x="7.58" y="1.04" width="23.26" height="23.29" transform="translate(-3.81 21.57) rotate(-32)"/></g><path class="cls-8" d="M12,8.48l6.54,12.7-5.59-1.43V16.07a1.37,1.37,0,0,0-1.28-1.43,1.37,1.37,0,0,0-1.29,1.43v3L5.87,17.94Z" transform="translate(0 9.46)"/><path class="cls-5" d="M11.63,14.64h0l.22,0a1.4,1.4,0,0,0-1.06,1.41V19.2l-.45-.11v-3a1.37,1.37,0,0,1,1.29-1.43" transform="translate(0 9.46)"/><polygon class="cls-5" points="12.51 17.93 19.13 30.64 18.5 30.64 11.96 17.93 12.51 17.93"/><path class="cls-9" d="M36.87,35.06H37v.2h-.08Zm0-1h.58v1.24h.24V34h.65v-.19H36.87Zm0,0H36.8v-.19h.07Zm0,1h-1V33.83h-.24v1.43h1.24Zm-5.86.2v-.2h.34c.06,0,.1,0,.12,0a.21.21,0,0,0,0-.13v-.12a.21.21,0,0,0,0-.13.15.15,0,0,0-.12,0H31v-.19h.34s.09,0,.11,0a.15.15,0,0,0,0-.1v-.14a.13.13,0,0,0,0-.1.16.16,0,0,0-.11,0H31v-.19h.42a.33.33,0,0,1,.23.06.29.29,0,0,1,.08.22v.16a.21.21,0,0,1-.06.17.3.3,0,0,1-.18.07.26.26,0,0,1,.18.09.29.29,0,0,1,.06.19V35a.26.26,0,0,1-.09.21.6.6,0,0,1-.3.07Zm1.63-1.43v1.23h1V33.83h.23v1.09a.38.38,0,0,1-.07.27.38.38,0,0,1-.26.07h-.84a.38.38,0,0,1-.27-.08s-.07-.13-.07-.26V33.83Zm2,0h.23v1.43h-.23Zm-3.65,0V34h-.49v.39H31v.19h-.49v.46H31v.2h-.73V33.83ZM14.24,34.91v-.19h.38L14.24,34v-.16h.13l.8,1.43H14.9l-.18-.35Zm1.58-.83a.28.28,0,0,0,0,.09v1.09h-.2V33.83h.19l.69.93.65-.93h.22v1.43h-.22v-1a.44.44,0,0,1,0-.09v-.12l-.05.1,0,.06-.55.79h-.06l-.57-.77h0a.7.7,0,0,1-.09-.17M19.34,34h-1v.4h.9a.37.37,0,0,1,.26.07.44.44,0,0,1,.07.27v.16a.38.38,0,0,1-.07.27.4.4,0,0,1-.26.07H18.4a.38.38,0,0,1-.27-.08c-.05,0-.07-.13-.07-.26v0l.22-.05v.23h1.06v-.43h-.89a.44.44,0,0,1-.27-.07.45.45,0,0,1-.06-.27v-.12a.45.45,0,0,1,.06-.27.38.38,0,0,1,.27-.07h.76a.37.37,0,0,1,.26.07.31.31,0,0,1,.07.24v0l-.2.06Zm2.21,1.24L21,33.83h.24L21.66,35l.42-1.13h.14L22.63,35,23,33.83h.21l-.51,1.43h-.18l-.4-1.08-.4,1.08Zm2.14,0V33.83h1.38V34H23.93v.4h.69v.19h-.69v.45h1.15v.2Zm1.95,0V33.83h.24v1.23H27v.2Zm1.81,0V33.83h.23v1.23h1.08v.2ZM14.24,33.83V34h0l-.38.73h.38v.19h-.48l-.19.35h-.23l.78-1.43Zm-4,.93v-.25h.33a.17.17,0,0,0,.12,0,.16.16,0,0,0,0-.11v-.21a.16.16,0,0,0,0-.11s-.06,0-.12,0h-.33v-.18h.42a.35.35,0,0,1,.23.06.29.29,0,0,1,.07.22v.31a.25.25,0,0,1-.07.21.3.3,0,0,1-.23.07H10.5l.65.56H10.8Zm1.38.5V33.83H13V34H11.91v.4h.69v.19h-.69v.45h1.14v.2Zm-3.53-.2a.76.76,0,0,0,.43-.12.55.55,0,0,0,.14-.41.5.5,0,0,0-.14-.39A.76.76,0,0,0,8.14,34v-.19a1.26,1.26,0,0,1,.3,0,.48.48,0,0,1,.22.08.67.67,0,0,1,.22.25.77.77,0,0,1,.08.34.8.8,0,0,1-.08.36.7.7,0,0,1-.22.26.93.93,0,0,1-.22.08,2.16,2.16,0,0,1-.3,0Zm2.15-1.23V34H9.8v.5h.49v.25l-.07-.06H9.8v.56H9.56V33.83ZM8.08,34H7.57v1h.57v.2H7.33V33.83h.81V34H8.08" transform="translate(0 9.46)"/></g></g></svg>