<svg xmlns="http://www.w3.org/2000/svg" viewBox="0 0 63.42 33.47"><defs><style>.cls-1{fill:#e65b26;}.cls-2{fill:#645b58;}</style></defs><g id="Layer_2" data-name="Layer 2"><g id="Layer_1-2" data-name="Layer 1"><path class="cls-1" d="M20.7,25.94c0-1.11,0-1.3,0-1.53s-.07-.35-.31-.4l-.24,0a0,0,0,0,1-.05,0c0-.05,0-.06.11-.06l.8,0,.83,0a2.14,2.14,0,0,1,1.29.31,1.23,1.23,0,0,1,.49,1,2.18,2.18,0,0,1-.86,1.63c.58.74,1.06,1.37,1.47,1.81a1.41,1.41,0,0,0,.86.5,1.28,1.28,0,0,0,.28,0s.06,0,.06,0,0,0-.17,0h-.5a1.41,1.41,0,0,1-.75-.13,3.68,3.68,0,0,1-1-1c-.29-.38-.62-.86-.76-1a.12.12,0,0,0-.1,0l-.86,0s-.05,0-.05.06v.17c0,.68,0,1.23,0,1.53s.06.36.28.39l.31,0c.05,0,.06,0,.06,0s0,0-.11,0l-.87,0-.66,0c-.08,0-.12,0-.12,0s0,0,.06,0l.21,0c.14,0,.18-.19.21-.39s0-.85,0-1.53Zm.57.61a.08.08,0,0,0,.05.08,1.77,1.77,0,0,0,.74.12.84.84,0,0,0,.52-.14A1.28,1.28,0,0,0,23,25.53c0-.89-.47-1.42-1.23-1.42a2.05,2.05,0,0,0-.47.05.08.08,0,0,0-.05.08Z"/><path class="cls-1" d="M26,25.94c0-1.1,0-1.3,0-1.53s-.07-.35-.31-.4l-.24,0s-.05,0-.05,0,0-.06.11-.06h2.41a1.77,1.77,0,0,0,.31,0s.06,0,.1,0,0,0,0,.07,0,.13-.05.33,0,.38,0,.46,0,.08-.05.08,0,0,0-.09a.85.85,0,0,0,0-.25c-.05-.12-.12-.2-.51-.24-.12,0-.89,0-1,0s0,0,0,.07v1.94c0,.05,0,.07,0,.07h1.12c.17,0,.27,0,.33-.1s.08-.09.11-.09,0,0,0,.06,0,.16-.05.39,0,.4,0,.45,0,.14-.05.14-.05,0-.05-.07a.66.66,0,0,0,0-.23c0-.1-.09-.22-.37-.25s-.89,0-1,0,0,0,0,0v.62c0,.24,0,1.06,0,1.21,0,.48.12.57.81.57a2.22,2.22,0,0,0,.68-.07c.18-.08.27-.22.32-.51,0-.08,0-.11.06-.11s0,.06,0,.11a5.34,5.34,0,0,1-.09.68c-.05.19-.1.19-.38.19l-1.19,0-.55,0H26l-.41,0q-.12,0-.12-.06s0,0,.06,0l.21,0c.14,0,.18-.18.21-.39s0-.85,0-1.53Z"/><path class="cls-1" d="M31.34,24.07c.09-.24.11-.28.16-.28s.07,0,.15.26,1.22,3.18,1.65,4.25c.25.63.46.74.6.78a.83.83,0,0,0,.28.05s.08,0,.08,0-.07.06-.15.06-.62,0-1.1,0c-.14,0-.21,0-.21-.05s0,0,.05-.05.08-.08,0-.19l-.66-1.73a.06.06,0,0,0-.06-.05H30.65a.07.07,0,0,0-.07.06l-.43,1.25a1.59,1.59,0,0,0-.09.47c0,.14.14.21.27.21h.07c.05,0,.07,0,.07,0s0,.06-.11.06l-.55,0c-.08,0-.46,0-.8,0-.09,0-.13,0-.13-.06s0,0,.06,0l.21,0c.32,0,.46-.31.59-.66Zm.74,2.82s0,0,0-.05l-.67-1.91c0-.1-.07-.1-.1,0l-.62,1.91s0,.05,0,.05Z"/><path class="cls-1" d="M35.86,27.19c0,1,0,1.49.15,1.62s.3.16.85.16c.37,0,.68,0,.85-.21a.89.89,0,0,0,.19-.42c0-.06,0-.1.06-.1s0,0,0,.11a5.36,5.36,0,0,1-.1.71c0,.16-.07.19-.45.19l-1.17,0-.72,0h-.29l-.4,0c-.08,0-.11,0-.11-.06s0,0,.05,0l.22,0c.14,0,.17-.18.2-.39a15.11,15.11,0,0,0,0-1.53V25.94c0-1.1,0-1.3,0-1.53s-.07-.35-.3-.4l-.24,0s-.06,0-.06,0,0-.06.11-.06l.8,0,.76,0c.08,0,.12,0,.12.06s0,0-.06,0l-.23,0c-.21,0-.26.16-.28.4s0,.43,0,1.53Z"/><path class="cls-1" d="M40.52,27.18a15.11,15.11,0,0,0,0,1.53c0,.2.06.36.27.39l.32,0s.06,0,.06,0,0,0-.12,0l-.86,0-.7,0c-.07,0-.11,0-.11,0s0,0,.06,0l.21,0c.14,0,.18-.19.2-.39a15.11,15.11,0,0,0,0-1.53v-3l-1,0c-.43,0-.6.05-.72.22l-.12.22c0,.06,0,.07-.07.07s0,0,0-.06.14-.68.15-.73,0-.14.07-.14a1.53,1.53,0,0,0,.32.09l.55,0h2.65a3,3,0,0,0,.5,0l.2,0s0,0,0,.09c0,.21,0,.69,0,.77s0,.09,0,.09-.05,0-.05-.12V24.6c0-.22-.19-.38-.87-.39l-.89,0Z"/><path class="cls-1" d="M44.83,27.4a1.5,1.5,0,0,0-.16-.74c-.05-.12-1-1.67-1.24-2A2.29,2.29,0,0,0,43,24.1a.68.68,0,0,0-.31-.11s-.07,0-.07,0,0-.05.1-.05l.7,0,.59,0c.08,0,.09,0,.09.05s0,0-.11.06a.15.15,0,0,0-.09.13.75.75,0,0,0,.09.28c.12.2,1.17,2,1.3,2.23.14-.3,1-1.85,1.17-2.08a.63.63,0,0,0,.12-.36c0-.1,0-.18-.11-.2s-.11,0-.11-.07,0,0,.12,0l.46,0,.69,0c.05,0,.09,0,.09,0s0,.06-.09.06a.71.71,0,0,0-.33.1,1.23,1.23,0,0,0-.37.36,23.77,23.77,0,0,0-1.35,2.24,1.77,1.77,0,0,0-.1.71V28c0,.12,0,.41,0,.71s.07.36.29.39l.31,0c.05,0,.06,0,.06,0s0,0-.11,0l-.87,0-.69,0c-.08,0-.12,0-.12,0s0,0,.06,0l.21,0c.14,0,.21-.19.22-.39s0-.59,0-.71Z"/><path class="cls-2" d="M20.85,17.79c0-1.1,0-1.3,0-1.52s-.07-.35-.3-.4a1,1,0,0,0-.24,0s-.06,0-.06,0,0-.05.12-.05l.79,0,.77,0c1.16,0,1.42.7,1.42,1.06a1.77,1.77,0,0,1-.67,1.26,1.67,1.67,0,0,1,1.22,1.49,1.61,1.61,0,0,1-1.8,1.54l-.51,0-.43,0h-.69c-.08,0-.11,0-.11-.06s0,0,.06,0l.21,0c.14,0,.17-.18.2-.38a15.34,15.34,0,0,0,0-1.54Zm.56.16c0,.05,0,.06.05.08s.17,0,.43,0,.5,0,.64-.18a1.08,1.08,0,0,0,.26-.71c0-.59-.26-1.22-.95-1.22a1.48,1.48,0,0,0-.34,0c-.07,0-.09,0-.09.08Zm0,.75c0,.54,0,1.41,0,1.52,0,.35,0,.44.24.55a1.69,1.69,0,0,0,.62.11,1,1,0,0,0,1-1,1.72,1.72,0,0,0-.69-1.41,1.18,1.18,0,0,0-.58-.2,5.15,5.15,0,0,0-.56,0,0,0,0,0,0,0,.05Z"/><path class="cls-2" d="M29.43,19c0,.68,0,1.24,0,1.54s.07.36.28.38a2,2,0,0,0,.32,0s.05,0,.05,0,0,.06-.11.06l-.87,0-.69,0c-.08,0-.11,0-.11-.06s0,0,.05,0a.83.83,0,0,0,.22,0c.14,0,.17-.18.2-.38s0-.86,0-1.54v-.74a0,0,0,0,0,0,0h-3a0,0,0,0,0,0,0V19c0,.68,0,1.24,0,1.54s.07.36.28.38a2,2,0,0,0,.32,0s.05,0,.05,0,0,.06-.11.06l-.87,0-.69,0c-.08,0-.11,0-.11-.06s0,0,.05,0a.71.71,0,0,0,.21,0c.15,0,.18-.18.21-.38a15.34,15.34,0,0,0,0-1.54V17.79c0-1.1,0-1.3,0-1.52s-.07-.35-.3-.4a1,1,0,0,0-.24,0s-.06,0-.06,0,0-.05.11-.05l.8,0,.69,0c.08,0,.12,0,.12.05s0,0-.06,0l-.18,0c-.19,0-.24.15-.26.4s0,.42,0,1.52v.15s0,0,0,0h3s0,0,0,0v-.15c0-1.1,0-1.3,0-1.52s-.07-.35-.3-.4a1,1,0,0,0-.24,0s-.06,0-.06,0,0-.05.11-.05l.8,0,.69,0c.08,0,.12,0,.12.05s0,0-.06,0l-.18,0c-.19,0-.24.15-.26.4s0,.42,0,1.52Z"/><path class="cls-2" d="M32.39,19a15.34,15.34,0,0,0,0,1.54c0,.2.06.36.27.38A2.11,2.11,0,0,0,33,21s.06,0,.06,0,0,.06-.12.06l-.87,0-.69,0c-.07,0-.11,0-.11-.06s0,0,.06,0a.76.76,0,0,0,.21,0c.14,0,.17-.18.2-.38a15.34,15.34,0,0,0,0-1.54V17.79c0-1.1,0-1.3,0-1.52s-.08-.36-.24-.4l-.21,0s-.06,0-.06,0,0-.05.11-.05l.71,0,.7,0c.07,0,.11,0,.11.05s0,0-.06,0l-.17,0c-.2,0-.25.15-.26.4s0,.42,0,1.52Z"/><path class="cls-2" d="M40.15,20.17c0,.26.08.65.38.75A1.64,1.64,0,0,0,41,21s.06,0,.06,0-.07.06-.15.06-.92,0-1.18,0-.2,0-.2-.07,0,0,0,0,0-.13,0-.26L39.26,17h0l-1.73,3.67c-.14.31-.17.38-.23.38s-.08-.07-.22-.33-.79-1.56-.82-1.63-.86-1.83-.94-2h0L35,20.37v.36a.22.22,0,0,0,.18.22l.27,0a0,0,0,0,1,.05,0c0,.05,0,.06-.12.06l-.66,0-.59,0c-.07,0-.12,0-.12-.06s0,0,.07,0a.9.9,0,0,0,.21,0c.23,0,.25-.32.28-.58l.51-4.61c0-.07,0-.12.08-.12s.07,0,.1.1l2.16,4.44,2.08-4.43c0-.06.06-.11.11-.11s.07,0,.08.19Z"/><path class="cls-2" d="M43.33,19.49a4.91,4.91,0,0,1-.22,2.08,2.6,2.6,0,0,1-1,1.08,2.29,2.29,0,0,1-.27.17l-.05,0s0,0,0,0,0-.07.1-.11a1.57,1.57,0,0,0,.25-.2c.46-.46.67-.84.67-2.66v-2c0-1.1,0-1.3,0-1.52s-.07-.36-.3-.4a1,1,0,0,0-.24,0s-.06,0-.06,0,0-.06.11-.06c.32,0,.76,0,.8,0l.69,0c.08,0,.11,0,.11.06s0,0,0,0l-.18,0c-.19,0-.24.15-.26.4s0,.42,0,1.52Z"/><path class="cls-2" d="M46.86,19.25a1.53,1.53,0,0,0-.16-.74c-.05-.11-1-1.66-1.24-2A2.08,2.08,0,0,0,45,16a.72.72,0,0,0-.31-.12s-.07,0-.07,0,0-.06.1-.06l.69,0s.32,0,.6,0c.08,0,.09,0,.09.06s0,0-.11.06a.15.15,0,0,0-.09.13.71.71,0,0,0,.09.27c.12.21,1.17,2,1.3,2.23.14-.3,1-1.84,1.17-2.07a.63.63,0,0,0,.12-.37c0-.09,0-.17-.11-.19s-.11,0-.11-.07,0,0,.12,0,.41,0,.46,0l.69,0s.09,0,.09,0,0,.05-.09.05a.71.71,0,0,0-.33.1,1.37,1.37,0,0,0-.37.36,23.91,23.91,0,0,0-1.35,2.25,1.75,1.75,0,0,0-.1.7v.61c0,.11,0,.41,0,.71s.07.36.29.38a1.89,1.89,0,0,0,.31,0c.05,0,.06,0,.06,0s0,.06-.11.06l-.87,0-.69,0c-.08,0-.12,0-.12-.06s0,0,.06,0a.76.76,0,0,0,.21,0c.14,0,.21-.18.22-.38s0-.6,0-.71Z"/><path class="cls-2" d="M51.39,15.92c.09-.23.11-.27.16-.27s.07,0,.15.25,1.22,3.18,1.65,4.26c.25.62.45.74.6.78a.78.78,0,0,0,.28,0c.05,0,.08,0,.08,0s-.07.06-.15.06h-1.1c-.14,0-.22,0-.22-.05s0,0,0-.05.09-.08,0-.19L52.28,19a.05.05,0,0,0-.06,0H50.7a.07.07,0,0,0-.07.06L50.2,20.3a1.59,1.59,0,0,0-.09.48c0,.14.14.2.27.2h.07s.07,0,.07,0-.05.06-.11.06l-.55,0-.8,0c-.09,0-.13,0-.13-.06s0,0,.06,0h.21c.32,0,.46-.31.59-.67Zm.74,2.83s0,0,0-.05l-.67-1.91c0-.11-.07-.11-.1,0l-.62,1.91s0,.05,0,.05Z"/><path class="cls-2" d="M55.65,20.12c0,.58.08.76.27.82a1.85,1.85,0,0,0,.35,0s.06,0,.06.05,0,0-.13,0c-.4,0-.68,0-.74,0l-.68,0c-.07,0-.12,0-.12,0a.06.06,0,0,1,.06-.05,1.23,1.23,0,0,0,.29,0c.18-.05.21-.25.21-.9V16c0-.28,0-.35.08-.35s.17.15.24.22,1.16,1.26,2.25,2.42c.7.75,1.46,1.61,1.69,1.85l-.08-3.59c0-.46,0-.61-.27-.67a1.85,1.85,0,0,0-.35,0s0,0,0,0,0-.05.14-.05l.73,0,.6,0c.08,0,.13,0,.13.05s0,0-.08,0a.48.48,0,0,0-.17,0c-.23.05-.26.2-.26.62v4.14c0,.47,0,.5-.07.5s-.14-.08-.51-.45c-.08-.07-1.1-1.11-1.84-1.91l-1.85-2Z"/><path class="cls-2" d="M62.73,19a15.34,15.34,0,0,0,0,1.54c0,.2.06.36.27.38a2.11,2.11,0,0,0,.32,0s.06,0,.06,0,0,.06-.12.06l-.87,0-.69,0c-.08,0-.11,0-.11-.06s0,0,.06,0l.21,0c.14,0,.17-.18.2-.38a15.34,15.34,0,0,0,0-1.54V17.79c0-1.1,0-1.3,0-1.52s-.08-.36-.24-.4a1,1,0,0,0-.22,0s0,0,0,0,0-.05.11-.05l.71,0,.7,0c.07,0,.11,0,.11.05s0,0-.06,0l-.17,0c-.2,0-.25.15-.27.4s0,.42,0,1.52Z"/><polygon class="cls-1" points="27.65 3.4 16.01 3.4 19.41 0 31.05 0 27.65 3.4"/><polygon class="cls-2" points="11.64 6.8 0 6.8 3.4 3.4 15.04 3.4 11.64 6.8"/><polygon class="cls-2" points="12.61 6.8 12.61 18.44 16.01 15.04 16.01 3.4 12.61 6.8"/><polygon class="cls-2" points="16.01 21.84 16.01 33.47 12.61 30.07 12.61 18.44 16.01 21.84"/></g></g></svg>