<svg width="219" height="47" viewBox="0 0 219 47" fill="none" xmlns="http://www.w3.org/2000/svg">
<mask id="mask0_1_4292" style="mask-type:luminance" maskUnits="userSpaceOnUse" x="14" y="0" width="59" height="20">
<path d="M30.267 13.0859C29.7391 13.5844 28.3019 15.0802 26.5422 16.7519C27.8913 17.1332 29.2698 17.4558 30.6483 17.7784C31.9094 16.048 33.5812 13.8483 33.9624 13.3791C34.3437 12.9098 35.0182 12.2059 35.0182 11.9126C35.0182 11.6193 34.5784 11.3847 34.0505 11.3847C32.6318 11.5019 31.2962 12.1025 30.267 13.0859ZM47.8642 5.69497C47.851 5.4733 47.8854 5.25134 47.9652 5.04409C48.0449 4.83685 48.168 4.64909 48.3264 4.49346C48.4848 4.33784 48.6749 4.21813 48.8835 4.14207C49.0921 4.06601 49.3144 4.03541 49.5358 4.05257C54.1991 4.05257 56.5454 10.681 56.5454 11.1209C56.5454 11.5608 56.5457 11.4435 56.0764 11.4435C54.3753 11.4435 47.8642 8.89186 47.8642 5.57772M44.022 4.46321C44.022 6.78018 45.4007 9.97694 51.2077 11.9126C51.3544 11.9126 51.5009 11.9126 51.5009 12.0886C50.3012 14.0971 48.4632 15.6459 46.2804 16.4879C46.2171 16.5021 46.1513 16.5012 46.0885 16.485C46.0256 16.4689 45.9674 16.4381 45.9188 16.3952C45.8701 16.3523 45.8327 16.2984 45.8088 16.238C45.785 16.1777 45.7758 16.1127 45.782 16.0481C45.9885 15.3209 46.1164 14.5736 46.1633 13.8191C46.1633 12.6166 45.8113 10.8862 43.5823 10.8862C41.3534 10.8862 38.9191 11.9126 32.6428 17.9543C34.207 18.2672 35.7613 18.5312 37.306 18.7463C38.886 16.756 40.8899 15.1429 43.1717 14.0244C43.6116 14.0244 43.8168 14.2297 43.8168 14.435C43.8168 15.2562 42.7023 15.8427 41.9691 16.3707C41.2359 16.8986 40.796 17.2211 40.9133 17.749C41.0306 18.2769 41.3534 18.1011 41.4121 18.5997C41.3962 18.8056 41.336 19.0057 41.2359 19.1863L44.1688 19.3914C44.5442 19.117 44.9946 18.9637 45.4594 18.9516C45.8114 18.9516 45.9284 19.0982 45.9284 19.3329C47.6002 19.3329 49.3306 19.3329 51.0609 19.3329C51.7885 18.1418 52.7106 17.0811 53.7887 16.1947C54.7858 15.6081 55.3431 14.9922 55.3138 14.6695C55.2845 14.3469 54.6099 13.8776 54.5219 13.5257C54.4339 13.1737 54.7563 12.9392 55.4309 13.1152C56.1054 13.2912 57.1616 13.4084 57.1909 14.1416C56.9083 15.8453 56.322 17.4844 55.4603 18.9809C56.3401 18.9809 57.2494 18.7757 58.1293 18.629C58.8529 17.188 59.3098 15.628 59.4783 14.0244C59.4783 13.8191 59.4783 13.555 59.9183 13.555C60.3582 13.555 61.3848 13.555 61.8541 13.731C62.1993 13.768 62.5159 13.9398 62.7355 14.2088C62.9551 14.4778 63.0601 14.8225 63.0273 15.1683C62.8891 16.1511 62.5601 17.0974 62.0592 17.9543C65.3346 17.2813 68.559 16.3797 71.7085 15.2561C71.8551 13.2325 72.8523 12.3232 72.8523 11.7073C72.8523 11.0914 72.6763 11.0622 72.1191 11.0622C70.8873 11.0622 68.4823 13.995 68.0717 13.995C67.6611 13.995 67.3091 12.6752 66.8985 12.1473C66.4879 11.6194 65.5201 11.1501 63.2618 11.1501C62.118 11.1501 61.4727 11.1501 60.3289 11.1501C59.1851 11.1501 58.892 11.1502 58.6573 10.5636C58.4227 9.97706 55.079 1.17841 47.3949 1.17841C45.6645 1.17841 43.8756 1.94096 43.8756 4.11128M20.5884 7.6014C18.5079 9.0671 16.5465 10.695 14.7227 12.4699C16.1891 13.0271 17.6558 13.6138 19.3862 14.171C20.2609 12.9703 21.2425 11.8512 22.319 10.8275C25.8503 7.31331 30.4751 5.1095 35.4289 4.58046C36.5308 4.59719 37.6295 4.70523 38.7137 4.90321C38.772 4.92191 38.8354 4.91701 38.8902 4.88961C38.945 4.86221 38.9868 4.81433 39.0069 4.75643L41.5585 0.210517C41.1075 0.0493127 40.629 -0.0204993 40.1508 0.00519423C32.9596 0.633273 26.0993 3.31022 20.3833 7.71865" fill="white"/>
</mask>
<g mask="url(#mask0_1_4292)">
<path d="M72.7386 0.355469H14.873V19.6538H72.7386V0.355469Z" fill="url(#paint0_radial_1_4292)"/>
</g>
<mask id="mask1_1_4292" style="mask-type:luminance" maskUnits="userSpaceOnUse" x="0" y="13" width="88" height="33">
<path d="M57.8947 24.8164L56.8095 26.4881C56.8095 26.4881 56.4869 26.8694 56.8095 26.8694H61.3259C61.4433 26.8577 61.5561 26.8165 61.6535 26.7498C61.7509 26.6832 61.8298 26.5933 61.8833 26.4881L62.9685 24.8164C61.2967 24.8164 59.5663 24.8164 57.7479 24.8164M44.99 23.5259C44.99 25.0217 45.4591 27.1333 48.9199 27.1333C49.8997 27.0733 50.8579 26.8194 51.7389 26.3865C52.62 25.9535 53.4063 25.3501 54.0524 24.6111C51.0134 24.3766 47.9886 23.985 44.99 23.4378V23.5259ZM70.2419 24.2004C70.2419 25.4322 70.5351 27.4267 72.6467 27.4267C76.8114 27.4267 81.9733 22.1475 82.2373 22.1182C82.5012 22.0889 82.4134 22.118 82.4134 22.3233C82.4134 22.5286 81.8561 24.5817 75.7558 31.9726C69.6554 39.3634 66.7226 42.267 66.7226 43.7041C66.7065 44.2544 66.9057 44.7892 67.2783 45.1947C67.6508 45.6001 68.167 45.844 68.7168 45.8744C69.3327 45.8744 72.0017 45.8744 78.3367 35.4627C82.824 28.1012 84.9648 23.7311 87.3698 19.9477C81.8707 22.079 76.1097 23.4601 70.2419 24.0538M4.95625 41.475C4.95625 39.3634 12.3179 33.8203 13.1978 33.8203C13.4031 33.8203 13.4616 33.8202 13.4616 34.0842C13.4616 35.7852 8.12365 42.5015 5.95333 42.5015C5.81623 42.5161 5.67771 42.4993 5.54805 42.4524C5.41839 42.4056 5.30114 42.3299 5.20507 42.231C5.109 42.1321 5.03658 42.0127 4.99348 41.8818C4.95039 41.7508 4.93769 41.6117 4.95625 41.475ZM8.94491 23.3499C8.94491 26.4588 11.8778 26.8401 13.3442 26.8401C15.6331 26.7094 17.8655 26.0787 19.8845 24.9923C20.6763 24.9923 19.4447 26.8694 18.2422 27.632C8.35847 33.4977 0.234375 38.7475 0.234375 43.4987C0.234375 45.6691 2.22855 45.7863 3.72432 45.7863C5.22008 45.7863 12.523 44.8478 23.9612 27.3092C24.5737 26.5242 25.3428 25.8751 26.2196 25.403C27.476 24.3906 28.8437 23.5247 30.2963 22.822C30.8242 22.822 30.795 23.0566 30.7656 23.2912C30.5691 23.9608 30.4413 24.6488 30.3844 25.3443C30.4649 25.9329 30.7685 26.4682 31.2325 26.8393C31.6965 27.2105 32.2852 27.3892 32.8772 27.3386C34.4638 27.1646 35.9962 26.6597 37.3753 25.8564C38.7545 25.0532 39.9497 23.9695 40.8839 22.6754L38.5668 22.1767C37.9963 22.7462 37.2897 23.1603 36.514 23.3793C35.7221 23.3793 35.4875 22.9686 35.4582 22.558C35.4367 22.1782 35.4965 21.7982 35.6339 21.4435C34.0697 21.0329 32.3397 20.5343 30.4431 19.9477C30.0428 20.2667 29.5468 20.4424 29.035 20.4464C29.035 20.4464 28.859 20.4463 29.035 19.9477L29.2698 19.6251C27.9207 19.1852 26.3368 18.716 25.017 18.1881C22.0841 20.8276 18.8287 23.4672 17.0103 23.4672C16.2771 23.4672 15.6319 22.9979 15.6319 21.8248C16.1659 19.6153 17.1659 17.5454 18.5648 15.7537C17.069 15.1378 15.6317 14.4926 13.96 13.7594C11.1717 16.2549 9.34571 19.6482 8.79848 23.3499" fill="white"/>
</mask>
<g mask="url(#mask1_1_4292)">
<path d="M87.5165 13.7008H0.234375V46.0211H87.5165V13.7008Z" fill="url(#paint1_radial_1_4292)"/>
</g>
<mask id="mask2_1_4292" style="mask-type:luminance" maskUnits="userSpaceOnUse" x="14" y="6" width="82" height="20">
<path d="M38.571 22.1204L40.8881 22.6189C41.8321 21.5271 42.8943 20.5435 44.0554 19.6861L41.1226 19.4807C40.4796 20.5184 39.6668 21.4404 38.7178 22.2083M55.4937 19.2754C54.4085 21.2404 52.854 23.0588 51.0063 23.0588C50.8852 23.0756 50.7619 23.0663 50.6447 23.0312C50.5276 22.9961 50.4194 22.9361 50.3275 22.8554C50.2357 22.7747 50.1626 22.6751 50.1127 22.5634C50.0628 22.4518 50.0374 22.3306 50.0386 22.2083C50.15 21.2682 50.5149 20.376 51.0944 19.6274C49.364 19.6274 47.6336 19.6274 45.9619 19.6274C45.6217 20.8751 45.396 22.1513 45.2874 23.44C48.286 23.9872 51.3108 24.3788 54.3498 24.6133C55.955 22.8968 57.2457 20.9113 58.1627 18.7475C57.2829 18.8942 56.3736 19.0115 55.4937 19.0995M32.0308 18.7182C31.6047 19.1243 31.1322 19.4786 30.623 19.774C32.5783 20.3605 34.3087 20.8592 35.8143 21.2698C36.2207 20.3922 36.7436 19.5735 37.3688 18.8356C35.8241 18.6205 34.2695 18.3565 32.7053 18.0437L32.0308 18.7182ZM25.2854 18.0143C26.7518 18.5422 28.2181 19.0115 29.5379 19.4514C29.8018 19.0701 30.2709 18.3956 30.8282 17.6624C29.4497 17.3398 28.0716 17.0172 26.7224 16.636L25.2854 18.0143ZM14.2871 13.5857C15.8709 14.3189 17.3958 14.9641 18.8916 15.58L19.7128 14.5242C18.0704 13.9669 16.5161 13.3803 15.0497 12.8231L14.2871 13.5857ZM77.197 18.0143C77.9823 16.4021 79.3271 15.1305 80.9805 14.4363C81.0191 14.4322 81.0579 14.4358 81.0951 14.4469C81.1322 14.458 81.1668 14.4764 81.1968 14.5009C81.2268 14.5255 81.2516 14.5557 81.2698 14.5899C81.288 14.6241 81.2994 14.6616 81.3031 14.7002C81.3031 15.7853 78.3701 18.3662 77.5489 18.3662C77.4556 18.3662 77.3661 18.3291 77.3001 18.2631C77.2341 18.1971 77.197 18.1077 77.197 18.0143ZM86.4356 15.7266C83.5027 18.8061 80.1591 22.9709 77.0502 22.9709C76.8531 22.9889 76.6545 22.9634 76.4684 22.896C76.2823 22.8287 76.1132 22.7213 75.9733 22.5813C75.8334 22.4414 75.7259 22.2723 75.6586 22.0862C75.5913 21.9001 75.5658 21.7015 75.5838 21.5044C75.5838 20.9765 75.9945 20.478 76.757 20.2433C79.6899 19.3928 84.2653 15.58 84.2653 13.0284C84.2857 12.8557 84.27 12.6808 84.2195 12.5145C84.169 12.3481 84.0847 12.194 83.9717 12.0618C83.8588 11.9296 83.7197 11.8221 83.5632 11.7462C83.4068 11.6703 83.2365 11.6276 83.0627 11.6207C81.8016 11.6207 78.2822 12.2073 73.8829 17.4864C73.5686 17.9837 73.0751 18.3407 72.5045 18.4835C72.0646 18.4835 71.5951 17.721 71.5951 16.1666V15.6974C68.4457 16.821 65.2217 17.7225 61.9462 18.3956C60.8611 20.5073 59.0133 23.1469 57.8989 25.0239C59.7172 25.0239 61.4474 25.0239 63.1191 25.0239L66.052 20.6831C66.1011 20.5917 66.1728 20.5142 66.26 20.4578C66.3471 20.4014 66.4471 20.368 66.5507 20.3606C67.2546 20.3606 66.5506 22.1789 69.0435 22.1789C69.6129 22.1125 70.1736 21.9847 70.7155 21.7976C70.8915 21.7976 70.9206 21.7978 70.9206 22.091C70.7307 22.7039 70.5933 23.3319 70.51 23.9681C70.4944 24.1144 70.4944 24.2617 70.51 24.4079C76.3777 23.8143 82.1391 22.4333 87.6382 20.302C88.611 18.7422 89.7302 17.2788 90.9813 15.9319C92.8584 14.0842 93.3571 12.9991 93.3571 12.6765C93.3651 12.5368 93.3446 12.397 93.2966 12.2656C93.2486 12.1343 93.174 12.0141 93.0779 11.9125C92.9818 11.8108 92.8659 11.73 92.7374 11.6747C92.6089 11.6195 92.4706 11.5911 92.3307 11.5913C89.9933 12.3581 87.9465 13.8215 86.465 15.7853M91.7733 9.56764C91.7733 10.3595 92.9759 10.8875 93.3571 10.8875C94.029 10.7029 94.6328 10.3276 95.096 9.80715C95.5592 9.28669 95.862 8.64332 95.9674 7.95459C95.9928 7.61821 95.8884 7.28485 95.6757 7.02304C95.4629 6.76122 95.158 6.5909 94.8236 6.54688C94.1252 6.81572 93.4979 7.24101 92.9895 7.79009C92.481 8.33917 92.1051 8.99731 91.8907 9.71424" fill="white"/>
</mask>
<g mask="url(#mask2_1_4292)">
<path d="M95.9344 6.19922H14.1367V24.8524H95.9344V6.19922Z" fill="url(#paint2_radial_1_4292)"/>
</g>
<path d="M31.7361 18.6566C31.2735 19.0954 30.7617 19.4793 30.2109 19.8005L30.7684 19.9764C31.2285 19.6977 31.6519 19.3628 32.0293 18.9794L32.8212 18.2168H32.2932L31.7361 18.774" fill="#59B7E7"/>
<mask id="mask3_1_4292" style="mask-type:luminance" maskUnits="userSpaceOnUse" x="62" y="19" width="10" height="6">
<path d="M65.7531 20.3578L64.7854 21.8536L62.8496 24.7865H63.407L65.1667 22.0589L66.1344 20.5631C66.172 20.5093 66.2201 20.4636 66.2755 20.4283C66.3308 20.3931 66.3923 20.3691 66.457 20.3578C66.457 20.3578 66.4572 20.3577 66.6331 20.6804C66.8091 21.003 67.0435 22.1468 68.9498 22.1468C69.4222 22.1243 69.888 22.0253 70.3286 21.8536H70.5924C70.6077 21.99 70.6077 22.1278 70.5924 22.2642C70.4465 22.7422 70.3483 23.2334 70.2992 23.7307V24.1998H70.7392V23.8773C70.7724 23.4159 70.8711 22.9616 71.0324 22.5281C71.0654 22.3438 71.0654 22.1551 71.0324 21.9708C71.0324 21.5016 70.7391 21.4429 70.6218 21.4429C70.4756 21.4267 70.328 21.4267 70.1818 21.4429C69.7846 21.5849 69.3703 21.6737 68.9498 21.707C67.3661 21.707 67.1904 21.0617 67.0438 20.5631C66.8971 20.0645 66.8676 19.918 66.457 19.918C66.3147 19.922 66.1758 19.9617 66.0528 20.0334C65.9298 20.1052 65.8267 20.2065 65.7531 20.3284" fill="white"/>
</mask>
<g mask="url(#mask3_1_4292)">
<path d="M66.4694 16.2538L60.6074 23.127L67.7483 29.2172L73.6102 22.344L66.4694 16.2538Z" fill="url(#paint3_linear_1_4292)"/>
</g>
<mask id="mask4_1_4292" style="mask-type:luminance" maskUnits="userSpaceOnUse" x="49" y="19" width="7" height="5">
<path d="M55.1978 19.2441C54.7445 20.0283 54.2139 20.7652 53.6139 21.4438C53.2852 21.8323 52.8827 22.1516 52.4296 22.3832C51.9765 22.6148 51.482 22.7541 50.9746 22.793C50.8828 22.8056 50.7891 22.7984 50.7004 22.7717C50.6116 22.745 50.5297 22.6994 50.4601 22.6381C50.3906 22.5769 50.335 22.5015 50.2972 22.4169C50.2595 22.3323 50.2405 22.2403 50.2414 22.1477C50.3562 21.1943 50.7317 20.2913 51.3265 19.5375H50.7691C50.2388 20.305 49.9064 21.1916 49.8014 22.1185C49.7962 22.27 49.8236 22.4209 49.882 22.5608C49.9403 22.7008 50.0284 22.8264 50.1397 22.9294C50.251 23.0323 50.383 23.1101 50.5271 23.1574C50.6712 23.2047 50.8239 23.2206 50.9746 23.2036C51.5398 23.1684 52.0916 23.0175 52.5961 22.7602C53.1006 22.5029 53.5471 22.1447 53.9075 21.7078C54.6146 20.9406 55.2163 20.0826 55.6965 19.1562H55.1684" fill="white"/>
</mask>
<g mask="url(#mask4_1_4292)">
<path d="M51.037 16.3079L47.7227 21.9121L53.9076 25.5699L57.2219 19.9657L51.037 16.3079Z" fill="url(#paint4_linear_1_4292)"/>
</g>
<path d="M35.459 21.327H35.8696C36.2695 20.4302 36.8033 19.5994 37.4531 18.8633H36.9254C36.3256 19.5917 35.8319 20.4014 35.459 21.2683" fill="#177CC1"/>
<path d="M24.873 18.0092L25.342 18.1558L26.8085 16.748H26.3101L24.873 18.1264" fill="#59B7E7"/>
<path d="M40.7388 19.3635C40.5101 19.7661 40.2347 20.1402 39.9179 20.478C39.4172 21.0332 38.8781 21.5525 38.3047 22.0323H38.8328C39.331 21.5929 39.8011 21.1228 40.2405 20.6246C40.6371 20.2329 40.9642 19.7766 41.2082 19.2754H40.7388" fill="#59B7E7"/>
<path d="M41.2036 21.9752C41.0035 22.1671 40.8174 22.373 40.6465 22.5912H41.1448L41.5261 22.1806C42.3608 21.1454 43.35 20.2453 44.459 19.5117H43.6671C42.7664 20.2277 41.941 21.0335 41.2036 21.9167" fill="#3A84C6"/>
<path d="M18.5059 15.6104L18.9165 15.7863C19.1805 15.4344 19.4445 15.0531 19.7378 14.7012H19.2978C19.0152 15.0388 18.7509 15.3912 18.5059 15.757" fill="#0C6FAD"/>
<mask id="mask5_1_4292" style="mask-type:luminance" maskUnits="userSpaceOnUse" x="75" y="12" width="10" height="10">
<path d="M84.0249 12.8766C84.0249 15.3695 79.479 19.0943 76.6928 19.8862C75.8422 20.1501 75.3438 20.6781 75.3438 21.3526H75.7838C75.7838 20.8834 76.165 20.502 76.8395 20.326C79.7724 19.4755 84.4649 15.6335 84.4649 12.8766H84.0249Z" fill="white"/>
</mask>
<g mask="url(#mask5_1_4292)">
<path d="M84.465 12.8473H75.3438V21.3233H84.465V12.8473Z" fill="url(#paint5_linear_1_4292)"/>
</g>
<mask id="mask6_1_4292" style="mask-type:luminance" maskUnits="userSpaceOnUse" x="71" y="15" width="5" height="4">
<path d="M73.7019 17.131C73.4308 17.5756 73.0009 17.9006 72.4993 18.0402C72.2647 18.0402 71.8248 17.4243 71.8248 15.9578V15.4006L71.3848 15.5765C71.3691 15.7031 71.3691 15.8312 71.3848 15.9578C71.3848 17.6882 71.9714 18.4801 72.5286 18.4801C73.0859 18.4801 73.7602 17.8349 74.0828 17.4243C74.4054 17.0137 75.1975 16.1925 75.7254 15.6646L75.5202 15.2246C74.963 15.7819 74.3468 16.4272 73.7309 17.131" fill="white"/>
</mask>
<g mask="url(#mask6_1_4292)">
<path d="M75.5856 14.9243L70.9766 15.4062L71.364 19.1108L75.973 18.6289L75.5856 14.9243Z" fill="url(#paint6_linear_1_4292)"/>
</g>
<mask id="mask7_1_4292" style="mask-type:luminance" maskUnits="userSpaceOnUse" x="75" y="11" width="10" height="5">
<path d="M75.4941 15.2289L75.6993 15.6689C77.5354 13.4258 80.179 11.9934 83.0608 11.6802C83.97 11.6802 84.0285 12.6773 84.0285 12.8826H84.4685C84.4931 12.6807 84.4752 12.4757 84.4163 12.281C84.3573 12.0863 84.2587 11.906 84.1263 11.7515C83.9939 11.597 83.8307 11.4718 83.6472 11.3838C83.4638 11.2958 83.2642 11.2469 83.0608 11.2402C80.114 11.5291 77.3977 12.9609 75.4941 15.2289Z" fill="white"/>
</mask>
<g mask="url(#mask7_1_4292)">
<path d="M75.6986 10.492L75.2109 15.6895L84.5259 16.5634L85.0135 11.366L75.6986 10.492Z" fill="url(#paint7_linear_1_4292)"/>
</g>
<mask id="mask8_1_4292" style="mask-type:luminance" maskUnits="userSpaceOnUse" x="76" y="14" width="6" height="5">
<path d="M77.428 18.012C78.208 16.5282 79.4555 15.3427 80.977 14.6391C80.977 15.5776 78.2492 18.0707 77.428 18.0707M76.959 18.0707C76.9665 18.2211 77.0317 18.3629 77.1409 18.4667C77.2501 18.5704 77.3948 18.6281 77.5454 18.6279C78.6012 18.6279 81.5341 15.9883 81.5341 14.7565C81.5195 14.6191 81.4545 14.4919 81.3515 14.3998C81.2485 14.3076 81.1152 14.2571 80.977 14.2578C79.9505 14.2578 76.959 17.1908 76.959 18.0707Z" fill="white"/>
</mask>
<g mask="url(#mask8_1_4292)">
<path d="M79.9093 12.228L74.918 16.0332L78.6875 20.9779L83.6789 17.1727L79.9093 12.228Z" fill="url(#paint8_linear_1_4292)"/>
</g>
<mask id="mask9_1_4292" style="mask-type:luminance" maskUnits="userSpaceOnUse" x="91" y="6" width="6" height="6">
<path d="M91.9749 9.36292C92.2194 8.68926 92.6088 8.07745 93.1156 7.57069C93.6223 7.06394 94.2341 6.67458 94.9078 6.43005C95.465 6.43005 95.8168 7.0167 95.8168 7.60327C95.7583 8.27327 95.5012 8.91049 95.0778 9.43309C94.6545 9.9557 94.0846 10.3398 93.4414 10.5361C93.1187 10.5361 92.092 10.0669 92.092 9.451M91.6523 9.451C91.6523 10.3895 92.9134 11.0053 93.4414 11.0053C94.2123 10.8227 94.9076 10.4062 95.4326 9.81295C95.9577 9.21967 96.2867 8.47856 96.3742 7.69117C96.4069 7.29886 96.2834 6.9096 96.0309 6.60763C95.7783 6.30566 95.4168 6.11536 95.0249 6.07812C94.2485 6.33264 93.5462 6.7729 92.9788 7.36072C92.4114 7.94853 91.9963 8.66617 91.7694 9.451" fill="white"/>
</mask>
<g mask="url(#mask9_1_4292)">
<path d="M92.2512 4.4053L89.832 10.2285L95.4927 12.5802L97.9119 6.75699L92.2512 4.4053Z" fill="url(#paint9_linear_1_4292)"/>
</g>
<path d="M57.6621 24.8159H58.1608C59.6295 22.6616 60.9807 20.4292 62.2082 18.1289H61.6508C60.5363 20.2699 58.7179 22.939 57.6621 24.6987" fill="#68BDEA"/>
<path d="M13.9023 13.618L14.342 13.8234L15.1046 13.0314L14.6356 12.8555L13.9023 13.618Z" fill="#59B7E7"/>
<path d="M30.4117 17.7188L29.1211 19.4785H29.5905L30.9101 17.6895H30.4117" fill="#0B72B2"/>
<path d="M45.4598 20.0982C45.1785 21.1748 44.9919 22.2739 44.9023 23.383H45.3423C45.42 22.2821 45.6065 21.1915 45.8994 20.1274C45.8994 19.8341 45.8994 19.6583 45.8994 19.5703H45.4598C45.4598 19.5703 45.4598 19.8635 45.4598 20.0395" fill="#59B7E7"/>
<path d="M57.7481 18.9221C57.3182 19.8766 56.8182 20.7981 56.2523 21.679C55.5792 22.739 54.7926 23.7224 53.9062 24.6118H54.4633C56.0573 22.8866 57.3467 20.9032 58.2762 18.7461H57.7481" fill="#3A84C6"/>
<mask id="mask10_1_4292" style="mask-type:luminance" maskUnits="userSpaceOnUse" x="75" y="11" width="18" height="13">
<path d="M86.2507 15.4011L85.3711 16.3984C82.7315 19.3313 79.7397 22.5867 77.0415 22.5867C76.8729 22.6102 76.7012 22.5949 76.5395 22.5418C76.3778 22.4886 76.2306 22.3992 76.1088 22.2802C75.9871 22.1613 75.8944 22.016 75.8375 21.8556C75.7805 21.6952 75.761 21.524 75.7805 21.3549H75.3405C75.3246 21.5615 75.3502 21.7692 75.4157 21.9657C75.4812 22.1623 75.5852 22.3438 75.7218 22.4995C75.8584 22.6553 76.0249 22.782 76.2112 22.8726C76.3976 22.9631 76.6001 23.0156 76.807 23.0267C77.7299 23.03 78.6384 22.7977 79.4466 22.352C81.8152 20.7964 83.9319 18.8875 85.723 16.6916L86.5733 15.7237C88.0177 13.8366 89.9717 12.4019 92.2045 11.5884V11.1484C89.8713 11.9539 87.8298 13.4341 86.3388 15.4011" fill="white"/>
</mask>
<g mask="url(#mask10_1_4292)">
<path d="M87.0227 3.51844L69.875 15.0195L80.6081 31.0222L97.7558 19.5211L87.0227 3.51844Z" fill="url(#paint10_linear_1_4292)"/>
</g>
<mask id="mask11_1_4292" style="mask-type:luminance" maskUnits="userSpaceOnUse" x="87" y="11" width="7" height="10">
<path d="M92.2125 11.5925C92.3243 11.5918 92.4349 11.6148 92.5372 11.66C92.6395 11.7051 92.7313 11.7714 92.8061 11.8545C92.8809 11.9377 92.9373 12.0357 92.9715 12.1422C93.0057 12.2487 93.0168 12.3612 93.0044 12.4723C93.0044 12.6776 92.8284 13.4695 90.7167 15.4052C89.3804 16.8545 88.1826 18.4256 87.1387 20.0979L87.8719 19.7751C88.8001 18.3386 89.8499 16.9845 91.0099 15.7277C92.623 14.1733 93.4444 13.0003 93.4444 12.3257C93.4565 12.1567 93.4336 11.9871 93.3771 11.8273C93.3206 11.6676 93.2317 11.521 93.1161 11.3972C93.0005 11.2733 92.8606 11.1747 92.7051 11.1074C92.5496 11.04 92.3819 11.0054 92.2125 11.0059V11.5925Z" fill="white"/>
</mask>
<g mask="url(#mask11_1_4292)">
<path d="M91.4439 7.95844L82.9043 13.7598L89.1175 22.9057L97.6571 17.1044L91.4439 7.95844Z" fill="url(#paint11_linear_1_4292)"/>
</g>
<mask id="mask12_1_4292" style="mask-type:luminance" maskUnits="userSpaceOnUse" x="35" y="21" width="4" height="3">
<path d="M35.2274 22.5303C35.2419 22.6836 35.2873 22.8324 35.3606 22.9678C35.434 23.1032 35.5337 23.2225 35.6542 23.3183C35.7747 23.4142 35.9136 23.4848 36.062 23.5258C36.2104 23.5668 36.3655 23.5774 36.5181 23.5569C37.4023 23.319 38.2041 22.8419 38.8352 22.1784H38.3071C37.8007 22.671 37.1889 23.042 36.5181 23.2636C35.9902 23.2636 35.7261 23.0583 35.6674 22.6184C35.6606 22.2654 35.7309 21.915 35.8729 21.5918H35.4623C35.2887 21.968 35.208 22.3805 35.2274 22.7944" fill="white"/>
</mask>
<g mask="url(#mask12_1_4292)">
<path d="M38.832 21.3281H35.1953V23.5571H38.832V21.3281Z" fill="url(#paint12_linear_1_4292)"/>
</g>
<mask id="mask13_1_4292" style="mask-type:luminance" maskUnits="userSpaceOnUse" x="28" y="19" width="3" height="2">
<path d="M28.9463 19.7716C28.7117 20.0649 28.6822 20.2703 28.7408 20.4169C28.7663 20.469 28.8035 20.5145 28.8493 20.5501C28.895 20.5857 28.948 20.6103 29.0047 20.6223C29.6359 20.5991 30.243 20.3727 30.7353 19.9769L30.1779 19.801C29.8827 19.989 29.5543 20.1184 29.2102 20.1823C29.2102 20.1823 29.2102 20.1823 29.2102 20.0063L29.5034 19.625H29.034L28.8582 19.9184" fill="white"/>
</mask>
<g mask="url(#mask13_1_4292)">
<path d="M30.7346 19.4785H28.6816V20.6809H30.7346V19.4785Z" fill="url(#paint13_linear_1_4292)"/>
</g>
<mask id="mask14_1_4292" style="mask-type:luminance" maskUnits="userSpaceOnUse" x="4" y="33" width="10" height="10">
<path d="M5.33784 41.476C5.33784 39.511 12.494 34.0559 13.3445 34.0266C12.4419 36.3438 11.0169 38.4214 9.18007 40.0977C8.38699 41.1193 7.28681 41.8594 6.0417 42.2092C5.51378 42.2092 5.27912 41.9745 5.27912 41.4173M8.71071 36.6367C7.24427 37.8392 4.83912 40.0975 4.83912 41.4173C4.81547 41.582 4.83012 41.75 4.88172 41.9081C4.93333 42.0663 5.02076 42.2106 5.13699 42.3297C5.25322 42.4488 5.39503 42.5394 5.55193 42.5948C5.70883 42.6502 5.87647 42.6689 6.0417 42.6492C7.0682 42.6492 8.47614 41.4467 9.50264 40.4202C11.4266 38.6672 12.896 36.4731 13.7845 34.0266C13.835 33.9045 13.835 33.7674 13.7845 33.6453C13.6624 33.5948 13.5253 33.5948 13.4032 33.6453C11.7119 34.413 10.1643 35.4644 8.82778 36.7541" fill="white"/>
</mask>
<g mask="url(#mask14_1_4292)">
<path d="M16.3476 29.9595L5.95312 36.9727L12.999 47.4157L23.3934 40.4026L16.3476 29.9595Z" fill="url(#paint14_linear_1_4292)"/>
</g>
<mask id="mask15_1_4292" style="mask-type:luminance" maskUnits="userSpaceOnUse" x="15" y="15" width="11" height="9">
<path d="M15.4817 21.7645C15.4482 21.9966 15.4648 22.2331 15.5304 22.4582C15.5959 22.6833 15.7091 22.8917 15.8619 23.0695C16.0147 23.2473 16.2037 23.3905 16.4165 23.4891C16.6292 23.5877 16.8604 23.6397 17.0949 23.6414C18.9426 23.6414 22.0809 21.2072 25.3071 18.2157L24.8671 18.0691C21.9342 20.65 18.8253 23.2016 17.0949 23.2016C16.3617 23.2016 15.9217 22.6444 15.9217 21.7645C16.481 19.6267 17.4798 17.6289 18.8545 15.8988L18.4439 15.7227C17.0329 17.5397 16.0323 19.641 15.511 21.8818" fill="white"/>
</mask>
<g mask="url(#mask15_1_4292)">
<path d="M18.8344 11.2667L11.8574 21.2754L22.2513 28.5209L29.2282 18.5122L18.8344 11.2667Z" fill="url(#paint15_linear_1_4292)"/>
</g>
<mask id="mask16_1_4292" style="mask-type:luminance" maskUnits="userSpaceOnUse" x="0" y="27" width="19" height="17">
<path d="M0 43.4432H0.439644C0.439644 38.9265 7.85976 34.0874 18.3594 27.7524L18.1249 27.3711C7.50794 33.7941 0 38.6919 0 43.4432Z" fill="white"/>
</mask>
<g mask="url(#mask16_1_4292)">
<path d="M13.4416 19.6434L-7.11328 32.0723L4.921 51.9746L25.4759 39.5457L13.4416 19.6434Z" fill="url(#paint16_linear_1_4292)"/>
</g>
<mask id="mask17_1_4292" style="mask-type:luminance" maskUnits="userSpaceOnUse" x="8" y="13" width="7" height="15">
<path d="M8.74023 23.3173C8.74023 25.6636 10.4118 27.0128 13.3447 27.0128V26.5434C11.7903 26.5434 9.18024 26.1329 9.18024 23.3173C9.7005 19.6316 11.533 16.2575 14.3418 13.8149L13.9021 13.6096C11.0816 16.1285 9.25136 19.5704 8.74023 23.3173Z" fill="white"/>
</mask>
<g mask="url(#mask17_1_4292)">
<path d="M12.1903 10.6674L2.21289 18.4766L10.8354 29.4931L20.8128 21.6838L12.1903 10.6674Z" fill="url(#paint17_linear_1_4292)"/>
</g>
<path d="M18.3627 27.7526C19.3306 27.1367 20.5332 25.641 20.3573 25.0251C20.3202 24.9328 20.2547 24.8546 20.1704 24.8019C20.086 24.7491 19.9871 24.7245 19.8879 24.7317C19.4799 24.7961 19.0901 24.9461 18.744 25.1717C17.0963 26.0941 15.2359 26.5692 13.3477 26.55V26.99C15.3181 27.0119 17.2599 26.5164 18.9789 25.553C19.2626 25.3839 19.5684 25.2555 19.8879 25.1717C19.555 26.0771 18.9241 26.8424 18.0989 27.342L18.3627 27.7526Z" fill="#B11F5E"/>
<mask id="mask18_1_4292" style="mask-type:luminance" maskUnits="userSpaceOnUse" x="30" y="22" width="12" height="6">
<path d="M32.8761 27.079C32.3397 27.1229 31.8064 26.963 31.3825 26.6315C30.9585 26.2999 30.6751 25.8209 30.5884 25.2898H30.1777C30.2517 25.936 30.5755 26.5277 31.0796 26.9386C31.5837 27.3496 32.2283 27.5472 32.8761 27.4895C34.5153 27.3138 36.0988 26.7949 37.5239 25.9661C38.9489 25.1373 40.1834 24.0175 41.1466 22.6797H40.6483C39.7336 23.9271 38.5709 24.9721 37.2335 25.7493C35.8961 26.5265 34.4128 27.0191 32.8761 27.1962" fill="white"/>
</mask>
<g mask="url(#mask18_1_4292)">
<path d="M31.7597 18.5298L28.3203 26.6602L39.3948 31.3451L42.8343 23.2147L31.7597 18.5298Z" fill="url(#paint18_linear_1_4292)"/>
</g>
<mask id="mask19_1_4292" style="mask-type:luminance" maskUnits="userSpaceOnUse" x="0" y="22" width="31" height="24">
<path d="M26.2784 25.0229L26.0729 25.1696L25.5745 25.5215C24.8677 25.9223 24.2571 26.4728 23.7855 27.1345C12.494 44.7317 5.10289 45.5237 3.72444 45.5237C1.75942 45.5237 0.439644 45.1717 0.439644 43.4413H0C0 45.9635 2.52197 45.9637 3.72444 45.9637C6.1343 45.7391 8.42203 44.7994 10.294 43.2653C15.8446 38.8524 20.5457 33.4659 24.1668 27.3692C24.6046 26.7621 25.1638 26.2527 25.809 25.8734L26.3371 25.5215H26.5422C27.6765 24.5502 28.9399 23.7409 30.2964 23.1165C30.4724 23.1165 30.5309 23.1165 30.5309 23.1165L30.8535 22.8233C30.781 22.7522 30.6929 22.6992 30.5961 22.6686C30.4992 22.6381 30.3966 22.6307 30.2964 22.6473C28.8258 23.2453 27.4673 24.0882 26.2784 25.1402" fill="white"/>
</mask>
<g mask="url(#mask19_1_4292)">
<path d="M7.11393 9.57109L-9.83594 40.582L23.7745 58.9527L40.7243 27.9418L7.11393 9.57109Z" fill="url(#paint19_linear_1_4292)"/>
</g>
<mask id="mask20_1_4292" style="mask-type:luminance" maskUnits="userSpaceOnUse" x="70" y="24" width="3" height="4">
<path d="M70.1843 24.2325C70.1061 25.2035 70.3997 26.1679 71.0056 26.9307C71.236 27.1693 71.515 27.3556 71.8236 27.4771C72.1323 27.5985 72.4634 27.6523 72.7946 27.6348V27.1948C72.5246 27.2112 72.2541 27.17 72.0012 27.0739C71.7484 26.9779 71.5191 26.8291 71.3282 26.6375C70.8 25.9301 70.5496 25.0535 70.6243 24.1738H70.1843" fill="white"/>
</mask>
<g mask="url(#mask20_1_4292)">
<path d="M71.5899 22.9107L68.457 25.8301L71.4162 29.0056L74.549 26.0862L71.5899 22.9107Z" fill="url(#paint20_linear_1_4292)"/>
</g>
<mask id="mask21_1_4292" style="mask-type:luminance" maskUnits="userSpaceOnUse" x="30" y="22" width="1" height="4">
<path d="M30.7095 22.8557L30.5334 23.0023C30.5461 23.0603 30.5461 23.1203 30.5334 23.1783C30.5483 23.3246 30.5483 23.4718 30.5334 23.6181C30.3684 24.1101 30.2795 24.6244 30.2695 25.1433H30.6802C30.6947 24.6632 30.7836 24.1883 30.944 23.7355C30.9541 23.5401 30.9541 23.3443 30.944 23.1489C30.9788 23.0704 30.9967 22.9854 30.9967 22.8996C30.9967 22.8137 30.9788 22.7289 30.944 22.6504L30.7095 22.8557Z" fill="white"/>
</mask>
<g mask="url(#mask21_1_4292)">
<path d="M30.167 22.6276L29.9434 25.2578L30.9954 25.3473L31.219 22.7171L30.167 22.6276Z" fill="url(#paint21_linear_1_4292)"/>
</g>
<mask id="mask22_1_4292" style="mask-type:luminance" maskUnits="userSpaceOnUse" x="66" y="26" width="15" height="20">
<path d="M75.7285 31.8227C74.1154 33.7877 72.7955 35.4007 71.5343 36.8378C68.1909 40.7972 66.666 42.7036 66.666 43.8474C66.6636 44.3826 66.8273 44.9053 67.135 45.3432L67.4286 44.9913C67.2056 44.6524 67.0929 44.2528 67.106 43.8474C67.106 42.7622 68.6895 40.9146 71.8863 37.1312C73.0888 35.6941 74.4674 34.1983 76.0804 32.1159C78.2508 29.4763 79.7171 27.5407 80.7142 26.0742H80.2452C79.2774 27.5113 77.8402 29.3884 75.7285 31.94" fill="white"/>
</mask>
<g mask="url(#mask22_1_4292)">
<path d="M72.3318 19.2738L57.2656 37.793L75.1932 52.3779L90.2594 33.8588L72.3318 19.2738Z" fill="url(#paint22_linear_1_4292)"/>
</g>
<mask id="mask23_1_4292" style="mask-type:luminance" maskUnits="userSpaceOnUse" x="67" y="19" width="21" height="28">
<path d="M87.1371 20.2405C86.0226 22.0003 85.3189 23.3494 83.9404 25.7543C82.562 28.1593 80.5968 31.6201 78.2798 35.4915C72.7367 44.4661 70.0092 45.7857 68.8654 45.7857C68.5825 45.767 68.3071 45.6864 68.0588 45.5496C67.8105 45.4128 67.5953 45.2231 67.4283 44.994L67.1348 45.3459C67.3435 45.6101 67.6053 45.8276 67.9034 45.9842C68.2015 46.1409 68.5294 46.2331 68.8654 46.2551C71.0357 46.2551 74.4084 42.5889 78.6611 35.726C80.9781 31.9426 82.7673 28.7751 84.3217 25.9888C85.8761 23.2026 86.6385 21.7657 87.8703 19.918L87.1371 20.2405Z" fill="white"/>
</mask>
<g mask="url(#mask23_1_4292)">
<path d="M69.0992 13.2355L58.7598 43.1445L85.3978 52.3532L95.7372 22.4441L69.0992 13.2355Z" fill="url(#paint23_linear_1_4292)"/>
</g>
<mask id="mask24_1_4292" style="mask-type:luminance" maskUnits="userSpaceOnUse" x="72" y="21" width="11" height="7">
<path d="M82.356 21.8831C82.356 21.8831 82.1507 21.8831 81.6521 22.411C80.127 23.7308 76.109 27.1916 72.8535 27.1916V27.6316C76.3436 27.6316 80.4496 24.0827 82.0041 22.7336L82.3853 22.411C81.8461 23.6782 81.1464 24.871 80.3031 25.9598H80.7721C82.8251 23.027 82.8547 22.2057 82.8547 22.2057C82.8633 22.1393 82.8539 22.0718 82.8282 22.01C82.8025 21.9482 82.7611 21.8944 82.7079 21.8537C82.6767 21.8357 82.6412 21.8262 82.6052 21.8262C82.5691 21.8262 82.534 21.8357 82.5028 21.8537" fill="white"/>
</mask>
<g mask="url(#mask24_1_4292)">
<path d="M82.796 21.8555H72.7949V27.604H82.796V21.8555Z" fill="url(#paint24_linear_1_4292)"/>
</g>
<mask id="mask25_1_4292" style="mask-type:luminance" maskUnits="userSpaceOnUse" x="57" y="13" width="7" height="6">
<path d="M59.1235 14.2578C58.9502 15.8829 58.4833 17.4631 57.7451 18.9212H58.2732C58.9731 17.4854 59.41 15.9358 59.5635 14.3459C59.5635 14.1699 59.5634 14.1112 59.798 14.1112H61.4699H61.7044C61.9975 14.148 62.265 14.2969 62.4509 14.5265C62.6368 14.7561 62.7269 15.0488 62.7019 15.3431C62.5556 16.383 62.1958 17.3815 61.6457 18.276H62.2031C62.6867 17.4348 63.005 16.5089 63.1415 15.5483C63.1595 15.1438 63.0249 14.7474 62.7641 14.4377C62.5034 14.128 62.1354 13.9278 61.7338 13.8767H61.5286H59.798C59.7071 13.8676 59.6155 13.8786 59.5295 13.9093C59.4435 13.94 59.3653 13.9894 59.3007 14.0539C59.2361 14.1185 59.1871 14.1965 59.1564 14.2825C59.1258 14.3685 59.1143 14.4604 59.1235 14.5512" fill="white"/>
</mask>
<g mask="url(#mask25_1_4292)">
<path d="M60.2477 11.0617L55.1855 16.6857L60.8097 21.748L65.8718 16.1239L60.2477 11.0617Z" fill="url(#paint25_linear_1_4292)"/>
</g>
<mask id="mask26_1_4292" style="mask-type:luminance" maskUnits="userSpaceOnUse" x="47" y="3" width="10" height="9">
<path d="M47.9836 5.66473C47.9744 5.47621 48.0058 5.28802 48.0756 5.11267C48.1454 4.93731 48.2519 4.77897 48.3882 4.64832C48.5244 4.51767 48.6869 4.41772 48.865 4.35528C49.0431 4.29284 49.2327 4.26937 49.4207 4.28636C53.8493 4.28636 56.1661 10.6801 56.1954 11.12C56.2247 11.5599 56.1955 11.12 55.9609 11.12C54.3772 11.12 47.9836 8.62699 47.9836 5.54748M47.5436 5.54748C47.5436 9.00826 54.2012 11.5598 55.9609 11.5598C56.5475 11.5598 56.6354 11.2079 56.6354 11.0026C56.6354 10.7973 54.3186 3.72911 49.4207 3.72911C49.1738 3.70774 48.9252 3.73955 48.6917 3.82255C48.4583 3.90556 48.2453 4.03788 48.0674 4.21029C47.8894 4.38269 47.7507 4.59125 47.6603 4.82196C47.5699 5.05267 47.5301 5.30007 47.5436 5.54748Z" fill="white"/>
</mask>
<g mask="url(#mask26_1_4292)">
<path d="M55.5923 1.28901L45.0449 4.97852L48.4731 14.7787L59.0204 11.0892L55.5923 1.28901Z" fill="url(#paint26_linear_1_4292)"/>
</g>
<mask id="mask27_1_4292" style="mask-type:luminance" maskUnits="userSpaceOnUse" x="43" y="18" width="4" height="2">
<path d="M43.6719 19.5673H44.4638C44.7347 19.4212 45.0362 19.3408 45.3438 19.3326C45.6078 19.3326 45.6077 19.3326 45.6077 19.5085H46.0477C46.0477 19.5085 46.0477 18.8926 45.3438 18.8926C44.7329 18.928 44.1482 19.1537 43.6719 19.5379" fill="white"/>
</mask>
<g mask="url(#mask27_1_4292)">
<path d="M44.4584 18.1156L43.541 19.6855L45.6175 20.8989L46.5349 19.329L44.4584 18.1156Z" fill="url(#paint27_linear_1_4292)"/>
</g>
<mask id="mask28_1_4292" style="mask-type:luminance" maskUnits="userSpaceOnUse" x="26" y="10" width="10" height="7">
<path d="M30.0916 12.9417L29.3001 13.7335L26.3672 16.6663L26.8655 16.8131L29.7984 13.8803L30.6197 13.0883C31.612 12.1417 32.8919 11.5534 34.2564 11.4166C34.667 11.4166 34.9897 11.6218 34.9897 11.7391H35.4297C35.4297 11.2699 34.843 10.9766 34.2564 10.9766C32.7713 11.1043 31.3745 11.7356 30.2971 12.7657" fill="white"/>
</mask>
<g mask="url(#mask28_1_4292)">
<path d="M26.9826 9.14446L25.0898 16.5918L34.8398 19.0698L36.7325 11.6224L26.9826 9.14446Z" fill="url(#paint28_linear_1_4292)"/>
</g>
<mask id="mask29_1_4292" style="mask-type:luminance" maskUnits="userSpaceOnUse" x="30" y="11" width="6" height="7">
<path d="M34.6688 11.9141C34.6688 12.09 34.3167 12.4713 33.8475 13.0286L33.6717 13.2339C33.2318 13.7325 31.56 15.9909 30.2988 17.7213H30.7682C32.0293 16.0495 33.701 13.9085 33.9943 13.4392L34.1701 13.2339C34.8153 12.5007 35.1088 12.1781 35.1088 11.8262L34.6688 11.9141Z" fill="white"/>
</mask>
<g mask="url(#mask29_1_4292)">
<path d="M35.1162 11.59L29.7227 12.1836L30.422 18.5389L35.8156 17.9453L35.1162 11.59Z" fill="url(#paint29_linear_1_4292)"/>
</g>
<mask id="mask30_1_4292" style="mask-type:luminance" maskUnits="userSpaceOnUse" x="19" y="7" width="9" height="8">
<path d="M22.4349 11.1216C21.2954 12.1764 20.2459 13.3241 19.2969 14.553H19.7369C20.6362 13.409 21.6163 12.3307 22.6697 11.3267C24.2475 9.86845 25.9897 8.59884 27.861 7.5434L27.6848 7.16211C25.7704 8.21803 23.9886 9.4979 22.3765 10.9748" fill="white"/>
</mask>
<g mask="url(#mask30_1_4292)">
<path d="M27.9195 7.27539H19.2969V14.6661H27.9195V7.27539Z" fill="url(#paint30_linear_1_4292)"/>
</g>
<mask id="mask31_1_4292" style="mask-type:luminance" maskUnits="userSpaceOnUse" x="32" y="10" width="15" height="9">
<path d="M32.2617 18.0126H32.7894C38.6552 12.1469 41.2655 11.0911 43.4651 11.0911C43.8542 11.055 44.2456 11.1261 44.5972 11.2967C44.9487 11.4673 45.2472 11.7308 45.4596 12.0588C45.7299 12.5734 45.8613 13.1496 45.8409 13.7305C45.8342 14.3191 45.7349 14.9031 45.5473 15.461C45.5284 15.6267 45.5284 15.7939 45.5473 15.9595C45.5449 16.0594 45.5648 16.1586 45.6053 16.2499C45.6459 16.3412 45.7064 16.4223 45.7822 16.4874L46.0754 16.1355C46.0624 16.108 46.0557 16.0781 46.0557 16.0476C46.0557 16.0172 46.0624 15.987 46.0754 15.9595C46.0552 15.8431 46.0552 15.7241 46.0754 15.6076C46.2632 14.9994 46.3619 14.3671 46.3686 13.7305C46.3782 13.1569 46.2684 12.5876 46.0461 12.0588C45.819 11.6017 45.4601 11.2233 45.0157 10.9724C44.5713 10.7214 44.0619 10.6095 43.5532 10.6511C41.2069 10.6511 38.5964 11.8536 32.3494 17.8953" fill="white"/>
</mask>
<g mask="url(#mask31_1_4292)">
<path d="M46.2808 10.8555H32.2617V18.217H46.2808V10.8555Z" fill="url(#paint31_linear_1_4292)"/>
</g>
<mask id="mask32_1_4292" style="mask-type:luminance" maskUnits="userSpaceOnUse" x="45" y="12" width="7" height="5">
<path d="M51.1228 12.1445C50.7415 12.7898 48.3366 15.8985 46.1077 16.2798L45.8145 16.6319C45.8829 16.6896 45.9624 16.7323 46.0482 16.7576C46.1341 16.7828 46.2241 16.79 46.3128 16.7785C48.6227 15.9416 50.5505 14.2951 51.7385 12.1445H51.1228Z" fill="white"/>
</mask>
<g mask="url(#mask32_1_4292)">
<path d="M48.8965 9.43283L43.4375 14.5879L48.5522 20.0042L54.0112 14.8491L48.8965 9.43283Z" fill="url(#paint32_linear_1_4292)"/>
</g>
<mask id="mask33_1_4292" style="mask-type:luminance" maskUnits="userSpaceOnUse" x="61" y="11" width="12" height="5">
<path d="M68.9493 13.1729C68.6417 13.4754 68.3081 13.7503 67.9522 13.9941C67.9522 13.9941 67.6005 13.437 67.4539 13.1437C67.3243 12.8219 67.1568 12.5167 66.9551 12.2345C66.3392 11.384 65.5179 11.1785 63.1423 11.1785C62.6442 11.1462 62.1445 11.1462 61.6465 11.1785V11.6185H63.1129C65.3419 11.6185 66.0459 11.7945 66.5739 12.4984C66.7448 12.7583 66.8921 13.0333 67.0139 13.3196C67.3365 13.9649 67.5709 14.4633 67.9229 14.4633C68.2748 14.4633 68.4216 14.2288 69.2135 13.4956C70.0054 12.7624 71.2957 11.5305 71.9702 11.5305C72.6448 11.5305 72.4983 11.5305 72.4983 11.9411C72.4484 12.225 72.3385 12.4951 72.1757 12.733C71.6719 13.6311 71.3902 14.6368 71.3545 15.6659L71.7945 15.4899C71.8717 14.62 72.1423 13.7783 72.5864 13.0262C72.7841 12.728 72.905 12.3855 72.9383 12.0292C72.9469 11.8195 72.8848 11.6129 72.7622 11.4426C72.6571 11.344 72.5319 11.2692 72.3952 11.2236C72.2585 11.1781 72.1135 11.1627 71.9702 11.1785C71.1197 11.1785 69.8879 12.3224 69.0374 13.2609" fill="white"/>
</mask>
<g mask="url(#mask33_1_4292)">
<path d="M62.2935 7.8323L60.2227 14.9883L71.858 18.3555L73.9289 11.1995L62.2935 7.8323Z" fill="url(#paint33_linear_1_4292)"/>
</g>
<mask id="mask34_1_4292" style="mask-type:luminance" maskUnits="userSpaceOnUse" x="58" y="10" width="4" height="2">
<path d="M58.4785 11.0314C58.7718 11.706 59.2411 11.7059 60.3556 11.7059H61.6752V11.2661H60.385C59.2118 11.2661 59.0945 11.2661 58.9185 10.8555L58.4785 11.0314Z" fill="white"/>
</mask>
<g mask="url(#mask34_1_4292)">
<path d="M61.6753 10.8262H58.5078V11.6768H61.6753V10.8262Z" fill="url(#paint34_linear_1_4292)"/>
</g>
<mask id="mask35_1_4292" style="mask-type:luminance" maskUnits="userSpaceOnUse" x="36" y="13" width="8" height="6">
<path d="M42.8776 14.0276C40.8901 14.9162 39.1413 16.2629 37.7745 17.9575L37.5396 18.2216L36.9238 18.9254H37.4515L37.8622 18.4562L38.3315 17.9575C39.5943 16.4704 41.1525 15.262 42.907 14.4089C43.1416 14.4089 43.3173 14.4089 43.3466 14.5848C43.3466 15.1128 42.6429 15.5526 42.027 15.9632L41.5576 16.2858C40.7951 16.843 40.4138 17.107 40.4138 17.6056C40.3995 17.6733 40.3995 17.7432 40.4138 17.8109C40.4483 17.9837 40.5418 18.1392 40.678 18.2509C40.7724 18.3457 40.8515 18.4544 40.9125 18.5735H41.3525C41.2986 18.3294 41.1766 18.1056 41.0006 17.9282C41.0006 17.9282 40.8538 17.9282 40.8538 17.7522C40.8538 17.5762 40.854 17.2831 41.7925 16.6379L42.2321 16.3445C42.9654 15.8459 43.8159 15.2886 43.7573 14.4968C43.7573 14.2035 43.4935 13.9102 42.8776 13.9102" fill="white"/>
</mask>
<g mask="url(#mask35_1_4292)">
<path d="M41.7265 10.9019L34.6504 15.6211L39.0767 22.258L46.1528 17.5388L41.7265 10.9019Z" fill="url(#paint35_linear_1_4292)"/>
</g>
<mask id="mask36_1_4292" style="mask-type:luminance" maskUnits="userSpaceOnUse" x="40" y="18" width="2" height="2">
<path d="M40.918 18.7169C40.8903 18.897 40.8201 19.0679 40.7129 19.2154H41.1819C41.2797 19.0234 41.3396 18.8143 41.358 18.5996L40.918 18.7169Z" fill="white"/>
</mask>
<g mask="url(#mask36_1_4292)">
<path d="M41.1775 18.3465L40.4297 18.8633L40.9466 19.6112L41.6944 19.0944L41.1775 18.3465Z" fill="url(#paint36_linear_1_4292)"/>
</g>
<mask id="mask37_1_4292" style="mask-type:luminance" maskUnits="userSpaceOnUse" x="43" y="1" width="16" height="12">
<path d="M43.9364 3.34899C43.756 3.78586 43.6659 4.25474 43.6722 4.72735C43.6722 6.66305 44.6401 10.2413 51.0337 12.3823H51.5324C51.5256 12.2834 51.4833 12.1903 51.4132 12.1202C51.3431 12.0501 51.25 12.0078 51.1511 12.001C44.9921 9.94798 44.0828 6.57509 44.0828 4.75671C44.0713 4.33399 44.1516 3.91384 44.3177 3.52496C44.6097 3.0113 45.0383 2.58869 45.5561 2.30394C46.0738 2.01919 46.6604 1.88348 47.2506 1.91191C54.0255 1.91191 57.457 8.95084 58.3075 11.1212L58.7178 10.9452C57.8086 8.71622 54.2894 1.47191 47.2506 1.47191C46.5476 1.39428 45.8376 1.53576 45.2181 1.87701C44.5986 2.21825 44.0997 2.74267 43.7896 3.37835" fill="white"/>
</mask>
<g mask="url(#mask37_1_4292)">
<path d="M51.7641 -6.10099L38.2695 6.69141L50.9611 20.0795L64.4556 7.28713L51.7641 -6.10099Z" fill="url(#paint37_linear_1_4292)"/>
</g>
<mask id="mask38_1_4292" style="mask-type:luminance" maskUnits="userSpaceOnUse" x="27" y="0" width="15" height="8">
<path d="M41.1511 0.652832H41.5617L39.0982 5.05214H38.8927C37.8364 4.87108 36.7676 4.77291 35.696 4.75874C32.8865 4.92588 30.1595 5.77127 27.748 7.22243L27.9238 7.60372C30.2875 6.19784 32.9514 5.37354 35.696 5.19874C36.7468 5.21679 37.7954 5.30487 38.8344 5.4626C38.9396 5.49441 39.0518 5.49441 39.1569 5.4626C39.2038 5.44495 39.2461 5.41763 39.2815 5.38223C39.3169 5.34682 39.3444 5.30431 39.3621 5.25746C39.3621 5.08149 41.855 0.88734 41.943 0.711368C41.9637 0.670431 41.9745 0.625279 41.9745 0.579439C41.9745 0.533598 41.9637 0.488447 41.943 0.44751C41.9254 0.400655 41.8979 0.358144 41.8625 0.322741C41.8271 0.287338 41.7847 0.259836 41.7379 0.242188H41.034L41.1511 0.652832Z" fill="white"/>
</mask>
<g mask="url(#mask38_1_4292)">
<path d="M39.9703 -4.58837L25.0566 1.55859L29.7842 13.0285L44.6978 6.88153L39.9703 -4.58837Z" fill="url(#paint38_linear_1_4292)"/>
</g>
<path d="M20.7644 8.24937C26.4353 3.84925 33.2614 1.19008 40.4144 0.594625C40.6677 0.563333 40.9238 0.563333 41.177 0.594625V0.154623C40.9237 0.125542 40.6678 0.125542 40.4144 0.154623C33.1673 0.755464 26.2501 3.44504 20.5005 7.89744C18.4179 9.3927 16.4565 11.05 14.6348 12.854L15.1038 13.03C16.8635 11.2918 18.7562 9.69341 20.7644 8.24937Z" fill="#9FC04F"/>
<path d="M104.119 10.918H102.125V32.1813H104.119V10.918Z" fill="#231F20"/>
<path d="M119.188 15.3735H112.766V25.8439H114.965V21.8552H119.218C119.658 21.8931 120.101 21.8369 120.517 21.6902C120.934 21.5435 121.314 21.3097 121.633 21.0044C121.952 20.6992 122.203 20.3296 122.368 19.92C122.533 19.5104 122.609 19.0704 122.591 18.6292C122.647 18.1751 122.597 17.714 122.444 17.2828C122.291 16.8517 122.039 16.4623 121.708 16.146C121.378 15.8296 120.977 15.595 120.54 15.4609C120.102 15.3268 119.64 15.2968 119.188 15.3735ZM118.485 20.2128H114.965V17.0159H118.631C119.511 17.0159 120.391 17.3387 120.391 18.6292C120.391 19.9196 119.716 20.2128 118.485 20.2128Z" fill="#231F20"/>
<path d="M132.595 20.7715C133.126 20.6076 133.585 20.2693 133.899 19.8115C134.213 19.3537 134.363 18.8032 134.325 18.2493C134.325 16.6362 133.446 15.3164 130.777 15.3164H124.148V25.7868H126.348V21.6513H130.102C131.715 21.6513 131.921 22.7071 131.921 24.2029C131.879 24.7444 131.969 25.2881 132.184 25.7868H134.56C134.21 25.0989 134.057 24.3272 134.12 23.5578C134.12 22.062 133.827 20.9768 132.595 20.6249M130.161 19.921H126.348V16.9882H130.161C131.305 16.9882 132.038 17.428 132.038 18.5131C132.038 19.5983 131.363 20.0383 130.161 20.0383" fill="#231F20"/>
<path d="M141.659 15.0781C137.23 15.0781 135.529 17.6297 135.529 20.5919C135.529 23.5541 137.23 26.1057 141.659 26.1057C146.088 26.1057 147.818 23.5248 147.818 20.5919C147.818 17.6591 146.088 15.0781 141.659 15.0781ZM141.659 24.4633C140.885 24.4691 140.127 24.2446 139.481 23.8182C138.835 23.3918 138.33 22.7829 138.031 22.0689C137.733 21.355 137.653 20.5683 137.803 19.809C137.952 19.0496 138.324 18.3517 138.871 17.8044C139.419 17.2571 140.117 16.8851 140.876 16.7356C141.635 16.586 142.422 16.6656 143.136 16.9645C143.85 17.2634 144.459 17.7678 144.885 18.4138C145.312 19.0597 145.536 19.818 145.53 20.5919C145.575 21.1116 145.506 21.6346 145.327 22.1246C145.148 22.6146 144.864 23.0597 144.495 23.4285C144.127 23.7973 143.682 24.081 143.192 24.2598C142.702 24.4386 142.179 24.508 141.659 24.4633Z" fill="#231F20"/>
<path d="M155.822 15.3735H149.369V25.8439H151.569V21.8552H155.851C156.291 21.8931 156.734 21.8369 157.15 21.6902C157.567 21.5435 157.947 21.3097 158.266 21.0044C158.585 20.6992 158.836 20.3296 159.001 19.92C159.166 19.5104 159.242 19.0704 159.224 18.6292C159.28 18.1751 159.23 17.714 159.077 17.2828C158.924 16.8517 158.672 16.4623 158.341 16.146C158.01 15.8296 157.61 15.595 157.173 15.4609C156.735 15.3268 156.273 15.2968 155.822 15.3735ZM155.117 20.2128H151.569V17.0159H155.264C156.115 17.0159 157.024 17.3387 157.024 18.6292C157.024 19.9196 156.349 20.2128 155.117 20.2128Z" fill="#231F20"/>
<path d="M162.979 21.2996H169.607V19.6572H162.979V17.0175H169.871V15.3751H160.809V25.8455H169.988V24.2031H162.979V21.2996Z" fill="#231F20"/>
<path d="M180.076 20.7715C180.606 20.6076 181.066 20.2693 181.38 19.8115C181.694 19.3537 181.844 18.8032 181.806 18.2493C181.806 16.6362 180.955 15.3164 178.257 15.3164H171.658V25.7868H173.858V21.6513H177.583C179.196 21.6513 179.401 22.7071 179.401 24.2029C179.359 24.7444 179.45 25.2881 179.665 25.7868H182.041C181.69 25.0989 181.538 24.3272 181.601 23.5578C181.601 22.062 181.307 20.9768 180.076 20.6249M177.641 19.921H173.858V16.9882H177.641C178.785 16.9882 179.518 17.428 179.518 18.5131C179.518 19.5983 178.844 20.0383 177.641 20.0383" fill="#231F20"/>
<path d="M182.543 17.0174H186.473V25.8454H188.643V17.0174H192.573V15.375H182.543V17.0174Z" fill="#231F20"/>
<path d="M195.856 15.3751H193.656V25.8455H195.856V15.3751Z" fill="#231F20"/>
<path d="M200.196 21.2995H206.795V19.6571H200.196V17.0174H207.059V15.375H197.996V25.8454H207.205V24.203H200.196V21.2995Z" fill="#231F20"/>
<path d="M210.639 18.1576C210.639 17.1898 211.607 16.7205 213.074 16.7205C214.54 16.7205 215.625 17.6004 215.713 18.4216H218.089C217.796 15.4888 214.599 15.0781 212.986 15.0781C210.434 15.0781 208.352 15.9873 208.352 18.3336C208.352 22.6156 216.065 20.3573 216.065 22.9675C216.065 24.1114 214.804 24.4927 213.484 24.4927C211.695 24.4927 210.551 23.8475 210.551 22.469H208.146C208.146 24.6687 209.701 26.1351 213.455 26.1351C215.684 26.1351 218.5 25.4311 218.5 22.7329C218.5 18.2749 210.698 20.6212 210.698 18.1576" fill="#231F20"/>
<defs>
<radialGradient id="paint0_radial_1_4292" cx="0" cy="0" r="1" gradientUnits="userSpaceOnUse" gradientTransform="translate(55.7866 24.9916) scale(42.8199 42.82)">
<stop stop-color="#93B254"/>
<stop offset="0.04" stop-color="#93B254"/>
<stop offset="0.21" stop-color="#87AD4F"/>
<stop offset="0.58" stop-color="#73A646"/>
<stop offset="0.83" stop-color="#6CA343"/>
<stop offset="1" stop-color="#6CA343"/>
</radialGradient>
<radialGradient id="paint1_radial_1_4292" cx="0" cy="0" r="1" gradientUnits="userSpaceOnUse" gradientTransform="translate(45.7818 41.5045) scale(33.2881 33.2881)">
<stop stop-color="#C5437F"/>
<stop offset="1" stop-color="#B5286D"/>
</radialGradient>
<radialGradient id="paint2_radial_1_4292" cx="0" cy="0" r="1" gradientUnits="userSpaceOnUse" gradientTransform="translate(55.0209 31.0408) scale(30.2965 30.2968)">
<stop stop-color="#53A8D9"/>
<stop offset="0.06" stop-color="#53A8D9"/>
<stop offset="0.35" stop-color="#479FD1"/>
<stop offset="0.86" stop-color="#2686BB"/>
<stop offset="1" stop-color="#1C7EB4"/>
</radialGradient>
<linearGradient id="paint3_linear_1_4292" x1="58.8363" y1="28.0057" x2="63.8572" y2="32.2879" gradientUnits="userSpaceOnUse">
<stop stop-color="#3B84C5"/>
<stop offset="0.43" stop-color="#449BD5"/>
<stop offset="1" stop-color="#59B7E7"/>
</linearGradient>
<linearGradient id="paint4_linear_1_4292" x1="55.0551" y1="10.2051" x2="60.2302" y2="13.2656" gradientUnits="userSpaceOnUse">
<stop stop-color="#1C7EB4"/>
<stop offset="0.29" stop-color="#4294C5"/>
<stop offset="0.58" stop-color="#61A5D3"/>
<stop offset="0.83" stop-color="#74B0DC"/>
<stop offset="1" stop-color="#7BB4DF"/>
</linearGradient>
<linearGradient id="paint5_linear_1_4292" x1="75.3438" y1="24.8135" x2="84.465" y2="24.8135" gradientUnits="userSpaceOnUse">
<stop stop-color="#116FAD"/>
<stop offset="0.86" stop-color="#086CA9"/>
<stop offset="1" stop-color="#066BA8"/>
</linearGradient>
<linearGradient id="paint6_linear_1_4292" x1="73.9841" y1="22.1703" x2="70.9503" y2="22.4875" gradientUnits="userSpaceOnUse">
<stop stop-color="#57B6E7"/>
<stop offset="0.6" stop-color="#3796D3"/>
<stop offset="1" stop-color="#177CC1"/>
</linearGradient>
<linearGradient id="paint7_linear_1_4292" x1="80.8902" y1="1.31082" x2="84.4819" y2="1.6478" gradientUnits="userSpaceOnUse">
<stop stop-color="#57B6E7"/>
<stop offset="0.6" stop-color="#368DC3"/>
<stop offset="0.78" stop-color="#227FB8"/>
<stop offset="1" stop-color="#066BA8"/>
</linearGradient>
<linearGradient id="paint8_linear_1_4292" x1="92.2052" y1="9.34508" x2="89.8937" y2="6.31297" gradientUnits="userSpaceOnUse">
<stop stop-color="#4699C4"/>
<stop offset="0.28" stop-color="#3E92BE"/>
<stop offset="0.71" stop-color="#297FAE"/>
<stop offset="1" stop-color="#166EA0"/>
</linearGradient>
<linearGradient id="paint9_linear_1_4292" x1="93.6725" y1="4.80648" x2="95.731" y2="5.66164" gradientUnits="userSpaceOnUse">
<stop stop-color="#57B6E7"/>
<stop offset="0.6" stop-color="#338ABE"/>
<stop offset="0.77" stop-color="#237CB2"/>
<stop offset="1" stop-color="#08649D"/>
</linearGradient>
<linearGradient id="paint10_linear_1_4292" x1="89.747" y1="23.5868" x2="94.9595" y2="20.0907" gradientUnits="userSpaceOnUse">
<stop stop-color="#116FAD"/>
<stop offset="0.4" stop-color="#318FC7"/>
<stop offset="1" stop-color="#57B6E7"/>
</linearGradient>
<linearGradient id="paint11_linear_1_4292" x1="83.2846" y1="13.6077" x2="85.6579" y2="17.1012" gradientUnits="userSpaceOnUse">
<stop stop-color="#57B6E7"/>
<stop offset="0.43" stop-color="#338ABE"/>
<stop offset="0.67" stop-color="#237CB2"/>
<stop offset="1" stop-color="#08649D"/>
</linearGradient>
<linearGradient id="paint12_linear_1_4292" x1="34.4621" y1="8.36468" x2="38.2455" y2="8.36468" gradientUnits="userSpaceOnUse">
<stop stop-color="#B11F5E"/>
<stop offset="0.43" stop-color="#C34773"/>
<stop offset="1" stop-color="#DC6890"/>
</linearGradient>
<linearGradient id="paint13_linear_1_4292" x1="26.9806" y1="16.523" x2="30.5587" y2="16.523" gradientUnits="userSpaceOnUse">
<stop stop-color="#A21E58"/>
<stop offset="0.52" stop-color="#BF3E71"/>
<stop offset="1" stop-color="#D65785"/>
</linearGradient>
<linearGradient id="paint14_linear_1_4292" x1="16.3106" y1="32.2516" x2="20.1702" y2="37.9722" gradientUnits="userSpaceOnUse">
<stop stop-color="#B11F5E"/>
<stop offset="0.43" stop-color="#C34773"/>
<stop offset="1" stop-color="#DC6890"/>
</linearGradient>
<linearGradient id="paint15_linear_1_4292" x1="16.7281" y1="16.4935" x2="23.8739" y2="21.4748" gradientUnits="userSpaceOnUse">
<stop stop-color="#A21E58"/>
<stop offset="0.43" stop-color="#BD4270"/>
<stop offset="0.89" stop-color="#D56089"/>
<stop offset="1" stop-color="#DC6890"/>
</linearGradient>
<linearGradient id="paint16_linear_1_4292" x1="10.2335" y1="30.0389" x2="15.9809" y2="26.5636" gradientUnits="userSpaceOnUse">
<stop stop-color="#DC6890"/>
<stop offset="0.43" stop-color="#C44974"/>
<stop offset="1" stop-color="#B11F5E"/>
</linearGradient>
<linearGradient id="paint17_linear_1_4292" x1="0.995158" y1="29.6718" x2="2.47743" y2="31.5656" gradientUnits="userSpaceOnUse">
<stop stop-color="#DC6890"/>
<stop offset="0.43" stop-color="#C44974"/>
<stop offset="1" stop-color="#B11F5E"/>
</linearGradient>
<linearGradient id="paint18_linear_1_4292" x1="27.6963" y1="37.3191" x2="24.455" y2="35.9479" gradientUnits="userSpaceOnUse">
<stop stop-color="#A21E58"/>
<stop offset="0.43" stop-color="#BF4F75"/>
<stop offset="1" stop-color="#DB799B"/>
</linearGradient>
<linearGradient id="paint19_linear_1_4292" x1="-2.64737" y1="27.43" x2="4.01809" y2="31.0732" gradientUnits="userSpaceOnUse">
<stop stop-color="#DC6890"/>
<stop offset="0.1" stop-color="#D55F88"/>
<stop offset="0.43" stop-color="#C04571"/>
<stop offset="1" stop-color="#A21F58"/>
</linearGradient>
<linearGradient id="paint20_linear_1_4292" x1="73.4143" y1="24.6181" x2="72.9944" y2="24.1675" gradientUnits="userSpaceOnUse">
<stop stop-color="#C13F73"/>
<stop offset="0.7" stop-color="#CA497C"/>
<stop offset="1" stop-color="#D65586"/>
</linearGradient>
<linearGradient id="paint21_linear_1_4292" x1="30.2253" y1="25.8705" x2="30.3868" y2="23.9709" gradientUnits="userSpaceOnUse">
<stop stop-color="#DB799B"/>
<stop offset="0.43" stop-color="#C04F76"/>
<stop offset="1" stop-color="#A21F58"/>
</linearGradient>
<linearGradient id="paint22_linear_1_4292" x1="79.0172" y1="41.3107" x2="86.2726" y2="32.3924" gradientUnits="userSpaceOnUse">
<stop stop-color="#DB799B"/>
<stop offset="0.43" stop-color="#C04F76"/>
<stop offset="1" stop-color="#A21F58"/>
</linearGradient>
<linearGradient id="paint23_linear_1_4292" x1="70.2878" y1="16.1705" x2="77.9937" y2="18.8344" gradientUnits="userSpaceOnUse">
<stop stop-color="#DB799B"/>
<stop offset="0.26" stop-color="#C04F76"/>
<stop offset="1" stop-color="#A21F58"/>
</linearGradient>
<linearGradient id="paint24_linear_1_4292" x1="72.7949" y1="15.0805" x2="82.796" y2="15.0805" gradientUnits="userSpaceOnUse">
<stop stop-color="#C13F73"/>
<stop offset="0.43" stop-color="#B13266"/>
<stop offset="1" stop-color="#A21F58"/>
</linearGradient>
<linearGradient id="paint25_linear_1_4292" x1="56.4963" y1="20.0957" x2="58.7634" y2="22.1363" gradientUnits="userSpaceOnUse">
<stop stop-color="#68AF45"/>
<stop offset="1" stop-color="#9FC050"/>
</linearGradient>
<linearGradient id="paint26_linear_1_4292" x1="52.84" y1="14.2056" x2="57.7123" y2="12.5013" gradientUnits="userSpaceOnUse">
<stop stop-color="#68AF45"/>
<stop offset="1" stop-color="#9FC050"/>
</linearGradient>
<linearGradient id="paint27_linear_1_4292" x1="42.8364" y1="21.0076" x2="44.7103" y2="22.1026" gradientUnits="userSpaceOnUse">
<stop stop-color="#68AF45"/>
<stop offset="0.55" stop-color="#87BA45"/>
<stop offset="1" stop-color="#9FC050"/>
</linearGradient>
<linearGradient id="paint28_linear_1_4292" x1="32.411" y1="7.78911" x2="35.7936" y2="8.64882" gradientUnits="userSpaceOnUse">
<stop stop-color="#9FC050"/>
<stop offset="0.39" stop-color="#87BA45"/>
<stop offset="1" stop-color="#68AF45"/>
</linearGradient>
<linearGradient id="paint29_linear_1_4292" x1="30.1143" y1="21.6413" x2="35.8285" y2="21.0125" gradientUnits="userSpaceOnUse">
<stop stop-color="#5B9A42"/>
<stop offset="0.09" stop-color="#5B9A42"/>
<stop offset="0.78" stop-color="#67AE45"/>
<stop offset="0.82" stop-color="#68AF45"/>
<stop offset="0.89" stop-color="#68AF45"/>
<stop offset="1" stop-color="#68AF45"/>
</linearGradient>
<linearGradient id="paint30_linear_1_4292" x1="19.2969" y1="25.5469" x2="27.9195" y2="25.5469" gradientUnits="userSpaceOnUse">
<stop stop-color="#5B9A42"/>
<stop offset="0.03" stop-color="#5B9A42"/>
<stop offset="0.35" stop-color="#62A043"/>
<stop offset="0.83" stop-color="#68A543"/>
<stop offset="1" stop-color="#68A543"/>
</linearGradient>
<linearGradient id="paint31_linear_1_4292" x1="32.2617" y1="15.9587" x2="46.2808" y2="15.9587" gradientUnits="userSpaceOnUse">
<stop stop-color="#9FC050"/>
<stop offset="0.8" stop-color="#7FAF47"/>
<stop offset="1" stop-color="#62A043"/>
</linearGradient>
<linearGradient id="paint32_linear_1_4292" x1="43.3071" y1="12.1858" x2="46.2925" y2="9.36658" gradientUnits="userSpaceOnUse">
<stop stop-color="#62A043"/>
<stop offset="0.01" stop-color="#62A043"/>
<stop offset="0.16" stop-color="#78A641"/>
<stop offset="0.5" stop-color="#8DB04D"/>
<stop offset="0.85" stop-color="#7BAC44"/>
<stop offset="1" stop-color="#68A543"/>
</linearGradient>
<linearGradient id="paint33_linear_1_4292" x1="74.7604" y1="8.22046" x2="65.3226" y2="5.48922" gradientUnits="userSpaceOnUse">
<stop stop-color="#62A043"/>
<stop offset="0.15" stop-color="#7FAE46"/>
<stop offset="0.29" stop-color="#9FC050"/>
<stop offset="0.66" stop-color="#66A343"/>
<stop offset="0.77" stop-color="#73A945"/>
<stop offset="0.84" stop-color="#7FAF47"/>
<stop offset="1" stop-color="#9FC050"/>
</linearGradient>
<linearGradient id="paint34_linear_1_4292" x1="58.3025" y1="18.1887" x2="61.47" y2="18.1887" gradientUnits="userSpaceOnUse">
<stop stop-color="#68AF45"/>
<stop offset="0.59" stop-color="#87BA45"/>
<stop offset="1" stop-color="#9FC050"/>
</linearGradient>
<linearGradient id="paint35_linear_1_4292" x1="34.3741" y1="17.1097" x2="36.4082" y2="20.1598" gradientUnits="userSpaceOnUse">
<stop stop-color="#62A043"/>
<stop offset="0.21" stop-color="#7FAE46"/>
<stop offset="0.49" stop-color="#9FC050"/>
<stop offset="1" stop-color="#9FC050"/>
</linearGradient>
<linearGradient id="paint36_linear_1_4292" x1="29.8493" y1="26.2471" x2="30.1995" y2="26.7538" gradientUnits="userSpaceOnUse">
<stop stop-color="#68AF45"/>
<stop offset="1" stop-color="#9FC050"/>
</linearGradient>
<linearGradient id="paint37_linear_1_4292" x1="53.2023" y1="0.6989" x2="50.0546" y2="-2.62152" gradientUnits="userSpaceOnUse">
<stop stop-color="#68AF45"/>
<stop offset="0.25" stop-color="#7CB64B"/>
<stop offset="0.42" stop-color="#8CBB50"/>
<stop offset="0.7" stop-color="#9EC360"/>
<stop offset="0.81" stop-color="#A6C667"/>
<stop offset="1" stop-color="#A6C667"/>
</linearGradient>
<linearGradient id="paint38_linear_1_4292" x1="31.4888" y1="1.5404" x2="30.55" y2="-0.73731" gradientUnits="userSpaceOnUse">
<stop stop-color="#68A543"/>
<stop offset="0.87" stop-color="#80AF46"/>
<stop offset="1" stop-color="#9FC050"/>
</linearGradient>
</defs>
</svg>
