<svg width="97" height="63" viewBox="0 0 97 63" fill="none" xmlns="http://www.w3.org/2000/svg">
<path d="M87.1644 38.486V45.6779C87.1568 45.7956 87.1876 45.9125 87.2522 46.0112C87.3555 46.104 87.4834 46.1649 87.6205 46.1866V46.4146H84.5684V46.2217C84.7055 46.2 84.8334 46.1391 84.9367 46.0463C85.0013 45.9477 85.0321 45.8307 85.0245 45.713V38.521H82.0074C81.9 38.4806 81.7814 38.4806 81.674 38.521C81.5807 38.6171 81.5195 38.7396 81.4986 38.8718H81.253V36.416H81.4986C81.5243 36.5467 81.5849 36.6679 81.674 36.7669C81.7715 36.834 81.8895 36.865 82.0074 36.8545H90.1815C90.2997 36.8682 90.4188 36.8369 90.5149 36.7669C90.6039 36.6653 90.6698 36.5456 90.7078 36.416H90.9359V38.8718H90.7078C90.674 38.7406 90.6077 38.6199 90.5149 38.521C90.4075 38.4806 90.2889 38.4806 90.1815 38.521L87.1644 38.486ZM71.6931 39.9068V45.6779C71.6868 45.7377 71.6929 45.7982 71.711 45.8555C71.7291 45.9129 71.7587 45.9658 71.7982 46.0112C71.9015 46.104 72.0296 46.1649 72.1667 46.1866V46.4146H69.2899V46.2217C69.427 46.2 69.5549 46.1391 69.6582 46.0463C69.6931 45.938 69.6931 45.8214 69.6582 45.713V37.679C69.688 37.57 69.688 37.4548 69.6582 37.3458C69.5506 37.2597 69.4246 37.1997 69.2899 37.1704V36.9423H72.6052V37.1704C72.3947 37.1704 72.307 37.3282 72.307 37.4861C72.309 37.5582 72.3275 37.6287 72.3609 37.6925C72.3944 37.7564 72.4418 37.8117 72.4999 37.8544L77.885 43.3099V37.679C77.8904 37.559 77.8532 37.4409 77.7799 37.3458C77.6722 37.2597 77.5462 37.1997 77.4116 37.1704V36.9423H80.2882V37.1704C80.1535 37.1997 80.0275 37.2597 79.9199 37.3458C79.89 37.4548 79.89 37.57 79.9199 37.679V45.713C79.885 45.8214 79.885 45.938 79.9199 46.0463C80.0231 46.1391 80.151 46.2 80.2882 46.2217V46.4497H77.2184V46.2217C77.4114 46.2217 77.5167 46.0814 77.5167 45.9235C77.5167 45.7656 77.394 45.6779 77.166 45.4323L71.6931 39.9068ZM60.7648 42.2398V44.8534H67.027C67.0868 44.8596 67.1472 44.8535 67.2045 44.8354C67.2618 44.8173 67.3148 44.7876 67.3602 44.7482C67.4529 44.6493 67.5195 44.5287 67.5533 44.3974H67.7814V46.8531H67.5533C67.5205 46.7266 67.4536 46.6113 67.3602 46.5199C67.3148 46.4804 67.2618 46.4507 67.2045 46.4326C67.1472 46.4145 67.0868 46.4084 67.027 46.4146H58.2563V46.2217C58.387 46.196 58.5081 46.1354 58.6071 46.0463C58.6465 46.0009 58.6763 45.9479 58.6944 45.8905C58.7125 45.8332 58.7187 45.7728 58.7124 45.713V37.679C58.7178 37.559 58.6804 37.4409 58.6071 37.3458C58.5039 37.263 58.3844 37.2032 58.2563 37.1704V36.9423H67.027C67.0828 36.9496 67.1396 36.9455 67.1938 36.9305C67.248 36.9154 67.2987 36.8895 67.3428 36.8545C67.4383 36.7577 67.5051 36.6363 67.5358 36.5038H67.7638V38.9595H67.5358C67.5089 38.8256 67.4416 38.7031 67.3428 38.6087C67.2401 38.5764 67.1298 38.5764 67.027 38.6087H60.9226V40.854H64.887C64.9898 40.8864 65.0999 40.8864 65.2026 40.854C65.2981 40.7571 65.3649 40.6357 65.3956 40.5032H65.6236V42.7134H65.3956C65.3687 42.5795 65.3014 42.457 65.2026 42.3626C65.1599 42.3245 65.11 42.2955 65.0557 42.2774C65.0014 42.2594 64.944 42.2525 64.887 42.2573L60.7648 42.2398ZM55.3619 43.1519L56.7127 45.1341L56.5373 45.2569C56.4497 45.1618 56.3319 45.0998 56.2039 45.0815C55.9465 45.1497 55.7033 45.2625 55.4849 45.4147C54.8311 45.7997 54.1369 46.1115 53.4149 46.3445C52.7616 46.5103 52.0889 46.587 51.4151 46.5725C50.0733 46.6255 48.7484 46.2574 47.6261 45.52C47.0594 45.1153 46.5918 44.5876 46.2581 43.9763C45.8699 43.2669 45.6704 42.4696 45.6791 41.661C45.6585 40.5702 46.0254 39.5074 46.7142 38.6614C47.3004 38.0009 48.0312 37.4848 48.8497 37.1532C49.6681 36.8215 50.5521 36.6833 51.4327 36.7493C52.1007 36.7346 52.7676 36.8114 53.4149 36.9774C54.1386 37.2134 54.8331 37.5313 55.4849 37.9247C55.7065 38.067 55.9491 38.1736 56.2039 38.2404C56.3319 38.222 56.4497 38.16 56.5373 38.0649L56.7127 38.1877L55.3619 40.1699L55.169 40.0471C55.169 40.0471 55.169 39.9068 55.169 39.8542C55.1588 39.7137 55.0963 39.5822 54.9936 39.4858C54.7968 39.3126 54.5787 39.1652 54.3446 39.0472C53.5275 38.5986 52.6105 38.3634 51.6783 38.3632C50.7223 38.3101 49.7781 38.5958 49.012 39.17C48.6445 39.4728 48.3486 39.8533 48.1454 40.2839C47.9423 40.7146 47.8371 41.1848 47.8371 41.661C47.8371 42.1371 47.9423 42.6074 48.1454 43.038C48.3486 43.4687 48.6445 43.849 49.012 44.1518C49.7781 44.7261 50.7223 45.0118 51.6783 44.9588C52.6105 44.9585 53.5275 44.7232 54.3446 44.2746C54.5787 44.1566 54.7968 44.0092 54.9936 43.8361C55.0963 43.7396 55.1588 43.6081 55.169 43.4677C55.169 43.4677 55.169 43.3449 55.169 43.2747L55.3619 43.1519ZM44.4513 37.7142L43.2935 39.9418L43.083 39.8366C43.08 39.8016 43.08 39.7664 43.083 39.7314C43.083 39.5735 42.9427 39.3981 42.662 39.2227C41.7803 38.6358 40.7389 38.3356 39.6801 38.3632C39.2293 38.3528 38.7796 38.4119 38.3469 38.5386C38.085 38.6145 37.8486 38.76 37.6628 38.9595C37.5815 39.0365 37.5163 39.1289 37.4711 39.2313C37.4259 39.3337 37.4016 39.4441 37.3996 39.556C37.3996 39.9244 37.6277 40.1524 38.0662 40.2927C38.5525 40.3932 39.0446 40.4634 39.5396 40.5032L40.6623 40.6084C41.2071 40.6566 41.747 40.7505 42.2762 40.8891C42.6615 41.005 43.0278 41.1763 43.3637 41.3978C43.6964 41.6291 43.9624 41.9437 44.1354 42.31C44.3247 42.6725 44.4212 43.0763 44.4162 43.4852C44.4077 44.1302 44.1716 44.7515 43.7496 45.2394C43.2543 45.775 42.6045 46.1428 41.8903 46.2918C41.2322 46.4649 40.5535 46.5476 39.873 46.5374C38.5471 46.5321 37.2396 46.2262 36.0489 45.6428C35.9003 45.5618 35.7407 45.5027 35.5752 45.4674C35.4634 45.4811 35.359 45.5303 35.2772 45.6078L35.0667 45.5025L36.1191 43.1695L36.3296 43.2747C36.335 43.3888 36.3661 43.5003 36.4208 43.6005C36.4755 43.7008 36.5524 43.7874 36.6455 43.8536C37.0714 44.1842 37.5611 44.423 38.0837 44.5552C38.6521 44.7319 39.2428 44.8265 39.8379 44.836C40.3983 44.8521 40.9554 44.7443 41.4693 44.5202C41.7026 44.4196 41.9074 44.2629 42.0657 44.0641C42.1997 43.894 42.2737 43.6842 42.2762 43.4677C42.2754 43.3143 42.2255 43.1652 42.134 43.0421C42.0425 42.919 41.914 42.8284 41.7674 42.7835C41.2861 42.6505 40.7924 42.5683 40.294 42.538L39.1889 42.4152C38.6648 42.3755 38.1435 42.3052 37.6277 42.2048C37.3128 42.1338 37.0068 42.0279 36.7155 41.889C36.2873 41.6849 35.9323 41.3542 35.6982 40.9417C35.4671 40.549 35.3515 40.0991 35.3647 39.6437C35.3562 39.2724 35.4271 38.9036 35.5722 38.5618C35.7174 38.22 35.9338 37.9131 36.2069 37.6615C37.1527 36.9053 38.3497 36.5356 39.5572 36.6266C40.1466 36.6193 40.735 36.6781 41.3113 36.802C42.0005 36.9773 42.675 37.206 43.3286 37.4861C43.4904 37.5612 43.6615 37.6142 43.8374 37.6439C43.9631 37.6303 44.0804 37.5748 44.1705 37.4861L44.4513 37.7142ZM26.9099 42.2398V44.8534H33.1721C33.2921 44.8588 33.4103 44.8215 33.5055 44.7482C33.5987 44.6521 33.66 44.5297 33.6809 44.3974H33.9089V46.8531H33.6809C33.6599 46.726 33.5984 46.6091 33.5055 46.5199C33.4103 46.4465 33.2921 46.4092 33.1721 46.4146H24.4014V46.2217C24.5386 46.2 24.6666 46.1391 24.7699 46.0463C24.8048 45.938 24.8048 45.8214 24.7699 45.713V37.679C24.7998 37.57 24.7998 37.4548 24.7699 37.3458C24.6623 37.2597 24.5361 37.1997 24.4014 37.1704V36.9423H33.1721C33.2904 36.9578 33.4101 36.9263 33.5055 36.8545C33.5945 36.753 33.6603 36.6334 33.6984 36.5038H33.9265V38.9595H33.4704C33.4365 38.8282 33.3702 38.7076 33.2774 38.6087C33.1691 38.5738 33.0524 38.5738 32.944 38.6087H26.8572V40.854H30.804C30.9127 40.8867 31.0287 40.8867 31.1374 40.854C31.2265 40.7551 31.2871 40.6338 31.3128 40.5032H31.5584V42.7134H31.3128C31.2919 42.5812 31.2307 42.4586 31.1374 42.3626C31.0438 42.2863 30.9245 42.2486 30.804 42.2573L26.9099 42.2398ZM15.0695 40.9768H18.3673C18.7059 41.0026 19.046 41.0026 19.3846 40.9768C19.5814 40.9558 19.7723 40.8961 19.946 40.8014C20.1259 40.7031 20.273 40.5546 20.3696 40.3738C20.4662 40.1931 20.508 39.9881 20.4897 39.784C20.5092 39.5774 20.4683 39.3694 20.3717 39.1857C20.2752 39.0019 20.1273 38.8502 19.946 38.749C19.7713 38.6567 19.5809 38.5973 19.3846 38.5737C19.0459 38.5499 18.706 38.5499 18.3673 38.5737H15.0695V40.9768ZM15.0695 42.538V45.6955C15.0647 45.7525 15.0715 45.8099 15.0896 45.8642C15.1077 45.9185 15.1365 45.9685 15.1746 46.0112C15.2738 46.11 15.4039 46.1718 15.5431 46.1866V46.4146H12.4207V46.2217C12.553 46.2008 12.6754 46.1396 12.7715 46.0463C12.8096 46.0036 12.8386 45.9535 12.8567 45.8992C12.8748 45.8449 12.8817 45.7875 12.8768 45.7305V37.679C12.8822 37.559 12.8448 37.4409 12.7715 37.3458C12.6707 37.2593 12.5503 37.1991 12.4207 37.1704V36.9423H18.5251C19.113 36.9319 19.7005 36.9788 20.2792 37.0826C20.6831 37.1473 21.0704 37.2904 21.4195 37.5037C21.7933 37.7381 22.0869 38.0807 22.2614 38.486C22.436 38.8903 22.5256 39.3261 22.5246 39.7665C22.5246 41.3277 21.6475 42.2398 19.8758 42.5029L21.7702 45.1166C21.9887 45.4361 22.2353 45.7355 22.507 46.0112C22.6698 46.1343 22.8647 46.2074 23.0682 46.2217V46.4497H19.56V46.2217C19.8055 46.2217 19.9285 46.0989 19.9285 45.9761C19.8597 45.7512 19.7462 45.5424 19.5951 45.3622L17.6831 42.538H15.0695ZM9.66683 43.1519L11.0349 45.1341L10.842 45.2569C10.7544 45.1618 10.6368 45.0998 10.5088 45.0815C10.2527 45.1532 10.0098 45.2657 9.78953 45.4147C9.13579 45.7997 8.44155 46.1115 7.71955 46.3445C7.06651 46.5114 6.39388 46.5881 5.72002 46.5725C4.38341 46.6277 3.06347 46.2593 1.94859 45.52C1.38185 45.1153 0.914035 44.5876 0.580311 43.9763C0.192123 43.2669 -0.00713141 42.4696 0.00152354 41.661C-0.0268048 40.569 0.340726 39.5036 1.0364 38.6614C1.6174 37.9991 2.34491 37.4815 3.16098 37.1496C3.97705 36.8177 4.85907 36.6806 5.73737 36.7493C6.40545 36.7335 7.07251 36.8103 7.71955 36.9774C8.44459 37.21 9.13952 37.528 9.78953 37.9247C10.0128 38.0639 10.2551 38.1703 10.5088 38.2404C10.6368 38.222 10.7544 38.16 10.842 38.0649L11.0349 38.1877L9.66683 40.1699L9.47369 40.0471C9.48158 39.983 9.48158 39.9182 9.47369 39.8542C9.47255 39.7838 9.45642 39.7145 9.42615 39.651C9.39589 39.5874 9.35224 39.531 9.29832 39.4858C9.10515 39.3161 8.89332 39.1689 8.66685 39.0472C7.84426 38.5965 6.92096 38.3612 5.98297 38.3632C5.02732 38.3131 4.0844 38.5985 3.31687 39.17C2.9494 39.4728 2.65344 39.8533 2.45029 40.2839C2.24714 40.7146 2.14173 41.1848 2.14173 41.661C2.14173 42.1371 2.24714 42.6074 2.45029 43.038C2.65344 43.4687 2.9494 43.849 3.31687 44.1518C4.0844 44.7234 5.02732 45.0088 5.98297 44.9588C6.92096 44.9607 7.84426 44.7254 8.66685 44.2746C8.89332 44.1529 9.10515 44.0058 9.29832 43.8361C9.35224 43.7908 9.39589 43.7345 9.42615 43.671C9.45642 43.6074 9.47255 43.5381 9.47369 43.4677C9.48158 43.4036 9.48158 43.3388 9.47369 43.2747L9.66683 43.1519Z" fill="white"/>
<path d="M86.2537 57.7634C86.2549 57.4406 86.1503 57.1263 85.9556 56.8688C85.8678 56.7705 85.7593 56.6927 85.638 56.6412C85.5167 56.5896 85.3856 56.5656 85.2539 56.5706C85.1206 56.5665 84.9881 56.5927 84.8665 56.6474C84.745 56.7021 84.6375 56.7839 84.5522 56.8864C84.3516 57.133 84.2513 57.4462 84.2715 57.7634H86.2537ZM86.2537 59.1316L87.5868 59.3421C87.4427 59.7967 87.1608 60.1952 86.78 60.4823C86.3674 60.7474 85.8844 60.8818 85.3941 60.8682C85.0252 60.8922 84.6561 60.8247 84.3194 60.6717C83.9828 60.5187 83.6892 60.2849 83.4646 59.9911C83.1175 59.474 82.9453 58.8592 82.9734 58.237C82.9271 57.5174 83.1595 56.8076 83.6225 56.2548C83.8406 56.0222 84.1043 55.8369 84.397 55.7102C84.6896 55.5834 85.0052 55.518 85.3241 55.518C85.643 55.518 85.9584 55.5834 86.2511 55.7102C86.5437 55.8369 86.8074 56.0222 87.0256 56.2548C87.5152 56.9153 87.7404 57.7349 87.6571 58.5528H84.3242C84.3173 58.8931 84.436 59.224 84.6575 59.4824C84.75 59.5913 84.8659 59.6777 84.9965 59.7354C85.1271 59.7931 85.269 59.8206 85.4117 59.8157C85.6028 59.8245 85.7904 59.762 85.938 59.6404C86.0981 59.497 86.2085 59.3066 86.2537 59.0966M80.8686 60.7104H79.553V55.6058H80.7808V56.3426C80.9198 56.079 81.1109 55.8463 81.3422 55.6584C81.5169 55.5534 81.7172 55.4988 81.921 55.5005C82.2239 55.5068 82.52 55.5914 82.7805 55.7461L82.3771 56.9214C82.1963 56.795 81.9835 56.722 81.7632 56.7109C81.5913 56.7037 81.4227 56.7599 81.2895 56.8688C81.1282 57.0183 81.0177 57.2146 80.9737 57.4301C80.8779 58.0096 80.8427 58.5975 80.8686 59.1843V60.7104ZM76.992 60.7104V59.9385C76.8179 60.2181 76.5686 60.443 76.2727 60.5876C75.9877 60.7445 75.6683 60.8289 75.343 60.8332C75.0246 60.835 74.7109 60.7566 74.4308 60.6051C74.1782 60.4583 73.9763 60.2381 73.852 59.9737C73.7172 59.6093 73.6575 59.2214 73.6766 58.8334V55.6058H74.9922V57.9564C74.9716 58.3968 75.0009 58.8382 75.0798 59.272C75.0955 59.3507 75.1269 59.4254 75.1721 59.4918C75.2173 59.5581 75.2754 59.6145 75.343 59.6578C75.4877 59.7554 75.6597 59.8046 75.8342 59.7982C76.0483 59.7982 76.257 59.7307 76.4305 59.6052C76.6096 59.5006 76.7415 59.3309 76.7988 59.1316C76.8958 58.6824 76.9313 58.2222 76.9042 57.7634V55.6058H78.2374V60.7104H76.992ZM72.782 55.6058V56.746H71.8698V58.7983C71.8499 59.0376 71.8499 59.2782 71.8698 59.5176C71.8876 59.5892 71.9313 59.6517 71.9925 59.6929C72.06 59.7202 72.1355 59.7202 72.203 59.6929C72.3903 59.6737 72.5737 59.6264 72.7469 59.5526L72.852 60.6051C72.521 60.752 72.1617 60.8239 71.7996 60.8156C71.5833 60.814 71.3693 60.7723 71.1681 60.6928C71.0025 60.6263 70.8574 60.5174 70.7472 60.3771C70.6413 60.2198 70.5752 60.0393 70.5542 59.8508C70.529 59.5298 70.529 59.2071 70.5542 58.886V56.746H69.9403V55.6584H70.5542V54.6586L71.8698 53.8692V55.6233L72.782 55.6058ZM67.8879 60.7104V59.9385C67.7061 60.2115 67.4588 60.4346 67.1686 60.5876C66.8833 60.7426 66.5639 60.8238 66.2391 60.8238C65.9144 60.8238 65.5947 60.7426 65.3094 60.5876C65.0568 60.4407 64.8547 60.2205 64.7304 59.9561C64.6043 59.5896 64.5449 59.2034 64.555 58.8159V55.5883H65.8882V57.9388C65.8425 58.3761 65.8425 58.8171 65.8882 59.2544C65.9339 59.4071 66.0259 59.542 66.1513 59.6404C66.297 59.7358 66.4684 59.7847 66.6425 59.7806C66.8618 59.7786 67.0755 59.7115 67.2564 59.5877C67.4256 59.4721 67.5544 59.3065 67.6247 59.114C67.6732 58.6592 67.6732 58.2007 67.6247 57.7459V55.5883H68.9579V60.6928L67.8879 60.7104ZM60.8714 55.6058H61.6082V55.2375C61.5936 54.9099 61.6411 54.5826 61.7484 54.2727C61.8477 54.0466 62.0209 53.861 62.2396 53.7464C62.5242 53.6111 62.8368 53.545 63.1518 53.5535C63.5275 53.5489 63.9012 53.6083 64.2569 53.7289L64.0814 54.6761C63.8812 54.6212 63.675 54.5918 63.4674 54.5884C63.3941 54.5823 63.3205 54.5916 63.251 54.6157C63.1815 54.6399 63.1177 54.6784 63.064 54.7287C62.961 54.8836 62.9175 55.0705 62.9413 55.255V55.6058H63.9235V56.746H62.9413V60.7805H61.6082V56.746H60.8714V55.6058ZM56.3809 57.7283C56.3906 57.4042 56.2849 57.0871 56.0826 56.8337C55.9975 56.7367 55.8921 56.6597 55.7738 56.6082C55.6556 56.5567 55.5274 56.5318 55.3985 56.5355C55.2626 56.5312 55.1276 56.5573 55.0032 56.612C54.8787 56.6666 54.768 56.7484 54.6792 56.8512C54.4786 57.0979 54.3785 57.411 54.3987 57.7283H56.3809ZM56.3809 59.0966L57.7138 59.3071C57.5697 59.7617 57.2878 60.1601 56.907 60.4472C56.4998 60.7099 56.0231 60.8444 55.5387 60.8332C55.1669 60.8601 54.7943 60.794 54.4544 60.6409C54.1144 60.4878 53.8179 60.2524 53.5917 59.9561C53.2532 59.435 53.0818 58.823 53.1004 58.202C53.0541 57.4824 53.2867 56.7726 53.7497 56.2198C53.9566 55.9883 54.2109 55.8042 54.4955 55.6801C54.7801 55.5559 55.0881 55.4947 55.3985 55.5005C55.7288 55.4858 56.0583 55.5461 56.362 55.6767C56.6658 55.8074 56.936 56.0049 57.1526 56.2548C57.627 56.922 57.8449 57.7379 57.7665 58.5528H54.4512C54.4306 58.8921 54.5441 59.2258 54.767 59.4824C54.8595 59.5913 54.9753 59.6777 55.106 59.7354C55.2366 59.7931 55.3784 59.8206 55.5212 59.8157C55.7122 59.8245 55.8999 59.762 56.0475 59.6404C56.2075 59.497 56.3181 59.3066 56.3633 59.0966M48.8907 53.6763V56.2548C49.0722 56.0227 49.3036 55.8344 49.5678 55.7038C49.8319 55.5733 50.1221 55.5037 50.4168 55.5005C50.7073 55.4924 50.9956 55.5525 51.2587 55.676C51.4776 55.7681 51.666 55.9201 51.8024 56.1145C51.9266 56.2951 52.0159 56.4974 52.0656 56.7109C52.0923 57.0495 52.0923 57.3897 52.0656 57.7283V60.7104H50.7324V58.0089C50.7741 57.6711 50.7741 57.3295 50.7324 56.9916C50.68 56.8515 50.5811 56.7337 50.4519 56.6583C50.311 56.5682 50.1451 56.5252 49.9782 56.5355C49.7741 56.5309 49.5728 56.5856 49.3992 56.6933C49.2215 56.8116 49.0863 56.9838 49.0134 57.1845C48.9166 57.4965 48.8752 57.823 48.8907 58.1493V60.7104H47.5751V53.6938L48.8907 53.6763ZM46.6453 55.6058V56.746H45.7507V58.7983C45.7357 59.0378 45.7357 59.2781 45.7507 59.5176C45.7685 59.5892 45.8122 59.6517 45.8734 59.6929C45.9468 59.7213 46.0281 59.7213 46.1015 59.6929C46.2831 59.6738 46.4607 59.6265 46.6278 59.5526L46.7505 60.6051C46.4185 60.7488 46.0598 60.8206 45.698 60.8156C45.4761 60.8137 45.2563 60.7721 45.049 60.6928C44.8834 60.6263 44.7383 60.5174 44.628 60.3771C44.5298 60.216 44.4643 60.0372 44.4351 59.8508C44.4351 59.693 44.4351 59.3771 44.4351 58.886V56.746H43.8212V55.6584H44.4351V54.6586L45.7683 53.8692V55.6233L46.6453 55.6058ZM36.8398 58.0616C36.8077 58.4754 36.9124 58.8883 37.1378 59.2368C37.2257 59.3588 37.342 59.4576 37.4764 59.5248C37.6108 59.5921 37.7595 59.6257 37.9098 59.6228C38.0673 59.6243 38.2232 59.5903 38.3659 59.5236C38.5086 59.4568 38.6344 59.3588 38.7342 59.2368C38.9522 58.89 39.0678 58.4888 39.0678 58.0792C39.0678 57.6695 38.9522 57.2682 38.7342 56.9214C38.6408 56.7967 38.5186 56.6965 38.3781 56.6293C38.2376 56.5621 38.083 56.5299 37.9273 56.5355C37.7765 56.5334 37.627 56.5654 37.4903 56.6292C37.3536 56.693 37.2331 56.7869 37.1378 56.9039C36.9172 57.248 36.8129 57.6537 36.8398 58.0616ZM35.6469 61.0436L37.173 61.2366C37.173 61.3055 37.1869 61.3737 37.2141 61.437C37.2412 61.5003 37.2809 61.5575 37.3308 61.605C37.5124 61.707 37.7193 61.7556 37.9273 61.7452C38.1997 61.7625 38.4718 61.7081 38.7166 61.5874C38.8351 61.5046 38.9267 61.3886 38.9798 61.2541C39.0064 61.0445 39.0064 60.8323 38.9798 60.6227V59.8859C38.8218 60.1387 38.6019 60.3471 38.341 60.4913C38.0802 60.6356 37.7869 60.711 37.4888 60.7104C37.1712 60.7169 36.8572 60.6412 36.5775 60.4906C36.2978 60.3399 36.0618 60.1196 35.8925 59.8508C35.5571 59.3292 35.3916 58.7163 35.4188 58.0967C35.3725 57.3883 35.5913 56.688 36.0327 56.1321C36.2216 55.9192 36.4542 55.7495 36.7145 55.6345C36.9748 55.5194 37.2567 55.4618 37.5413 55.4655C37.8453 55.4589 38.1459 55.5314 38.4134 55.6759C38.681 55.8204 38.9063 56.032 39.0674 56.2899V55.5708H40.3129V60.2543C40.3314 60.71 40.2782 61.1658 40.1551 61.605C40.0824 61.8693 39.9434 62.1108 39.7515 62.3066C39.5523 62.4939 39.3121 62.6322 39.05 62.7101C38.6844 62.8101 38.3063 62.8573 37.9273 62.8504C37.3114 62.8881 36.6989 62.7349 36.1732 62.4118C36.0063 62.2766 35.8723 62.1054 35.7811 61.911C35.69 61.7165 35.644 61.504 35.6469 61.2893V61.1138M34.4366 60.7805H33.1035V58.1493C33.1204 57.7903 33.0908 57.4307 33.0157 57.0793C32.9701 56.9218 32.8707 56.7852 32.7349 56.6933C32.5995 56.6057 32.44 56.5629 32.2789 56.5706C32.058 56.5613 31.8408 56.6296 31.6649 56.7636C31.4898 56.8882 31.3605 57.0669 31.2966 57.2722C31.2084 57.6514 31.1729 58.0411 31.1913 58.43V60.7455H29.8581V55.6409H31.0862V56.3951C31.2806 56.1138 31.5439 55.8871 31.851 55.7366C32.1581 55.5861 32.4988 55.517 32.8403 55.5356C33.1116 55.5322 33.3805 55.586 33.6296 55.6936C33.8409 55.7681 34.0278 55.899 34.17 56.0721C34.3123 56.2453 34.4046 56.4541 34.4366 56.6759C34.5011 56.9696 34.5304 57.2698 34.5242 57.5704L34.4366 60.7805ZM27.192 55.676H28.5076V60.7805H27.192V55.676ZM27.192 53.7464H28.5076V54.9919H27.192V53.7464ZM22.5611 58.1493C22.5234 58.5961 22.6411 59.0423 22.8943 59.4123C22.9875 59.5358 23.108 59.636 23.2465 59.705C23.385 59.774 23.5378 59.8098 23.6925 59.8098C23.8473 59.8098 23.9999 59.774 24.1384 59.705C24.2768 59.636 24.3974 59.5358 24.4906 59.4123C24.7178 59.045 24.8223 58.615 24.7889 58.1844C24.8225 57.7624 24.711 57.3417 24.473 56.9916C24.3814 56.8694 24.2621 56.7706 24.1249 56.7035C23.9876 56.6364 23.8365 56.6029 23.6838 56.6056C23.5306 56.6046 23.3788 56.6371 23.2394 56.7007C23.1001 56.7643 22.9763 56.8576 22.8767 56.974C22.6426 57.3061 22.5311 57.7091 22.5611 58.1143M21.2455 55.6409H22.4909V56.3951C22.6506 56.1379 22.8742 55.9264 23.1399 55.7812C23.4157 55.6175 23.7313 55.5325 24.0521 55.5356C24.3348 55.5328 24.6145 55.5946 24.8698 55.7161C25.1251 55.8377 25.3494 56.016 25.5255 56.2373C25.9616 56.7825 26.1803 57.4699 26.1394 58.1668C26.1818 58.8801 25.9637 59.5846 25.5255 60.149C25.3467 60.373 25.12 60.5539 24.8619 60.6783C24.6038 60.8028 24.321 60.8677 24.0345 60.8682C23.7731 60.8666 23.5153 60.8067 23.2801 60.6928C23.012 60.5456 22.7741 60.3492 22.5786 60.1139V62.6925H21.2455V55.6409ZM18.6843 58.2896C18.4222 58.3839 18.1522 58.4544 17.8775 58.5001C17.625 58.5384 17.3814 58.6216 17.1582 58.7457C17.0779 58.7961 17.0117 58.8658 16.9657 58.9486C16.9197 59.0314 16.8956 59.1245 16.8953 59.2193C16.8946 59.3112 16.9128 59.4024 16.949 59.4869C16.9852 59.5715 17.0387 59.6476 17.1057 59.7105C17.2508 59.8385 17.4385 59.9073 17.6319 59.9034C17.879 59.906 18.1199 59.8257 18.316 59.6754C18.4669 59.5606 18.5776 59.4009 18.6318 59.2193C18.6592 59.0038 18.6592 58.7857 18.6318 58.5703L18.6843 58.2896ZM16.9302 57.2021L15.7199 56.9916C15.8179 56.5527 16.0661 56.1618 16.4216 55.8865C16.8674 55.6267 17.38 55.5046 17.895 55.5356C18.3436 55.5092 18.7926 55.581 19.2106 55.7461C19.4701 55.854 19.6861 56.0454 19.8245 56.2899C19.9724 56.6753 20.0323 57.0888 19.9999 57.5003V59.079C19.9647 59.4055 19.9647 59.7348 19.9999 60.0613C20.0479 60.3002 20.1306 60.5307 20.2455 60.7455H18.9299C18.9299 60.7455 18.93 60.5174 18.7896 60.342C18.785 60.2894 18.785 60.2367 18.7896 60.1841C18.581 60.4018 18.3303 60.5748 18.0528 60.6928C17.7927 60.8063 17.5123 60.8659 17.2284 60.8682C16.784 60.8807 16.3515 60.7239 16.0182 60.4296C15.8719 60.2929 15.7556 60.1271 15.6771 59.9428C15.5985 59.7586 15.5594 59.5599 15.5621 59.3596C15.5569 59.0875 15.6299 58.8196 15.7726 58.5878C15.9098 58.3658 16.1034 58.1842 16.3338 58.0616C16.6747 57.9088 17.0346 57.8026 17.4038 57.7459C17.8416 57.6819 18.2709 57.5701 18.6843 57.4126V57.2898C18.6939 57.1879 18.6818 57.0851 18.6485 56.9883C18.6153 56.8915 18.5616 56.8029 18.4914 56.7284C18.2806 56.6015 18.0347 56.5462 17.7899 56.5706C17.5924 56.5539 17.3948 56.6032 17.2284 56.7109C17.075 56.8381 16.9648 57.0097 16.9128 57.2021M11.3346 53.6938V56.2723C11.5179 56.0379 11.7522 55.8482 12.0196 55.7175C12.287 55.5869 12.5806 55.5187 12.8782 55.5181C13.1632 55.5087 13.4461 55.5689 13.7026 55.6936C13.9215 55.7857 14.1101 55.9377 14.2465 56.1321C14.3707 56.3127 14.4598 56.5149 14.5094 56.7284C14.5361 57.067 14.5361 57.4073 14.5094 57.7459V60.7279H13.1765V58.0265C13.2182 57.6886 13.2182 57.347 13.1765 57.0092C13.1253 56.8736 13.0334 56.7571 12.9133 56.6759C12.7649 56.5885 12.5943 56.5458 12.4221 56.5531C12.2183 56.5513 12.018 56.6059 11.8433 56.7109C11.6656 56.8292 11.5301 57.0014 11.4573 57.2021C11.3691 57.5159 11.3279 57.841 11.3346 58.1668V60.7279H10.019V53.7114L11.3346 53.6938ZM3.23047 58.4475L4.59875 58.3072C4.63755 58.6936 4.81133 59.0538 5.08974 59.3245C5.37672 59.5563 5.7388 59.6748 6.10728 59.6578C6.46578 59.6837 6.82128 59.5777 7.10704 59.3596C7.2167 59.2827 7.30608 59.1802 7.36721 59.061C7.42834 58.9418 7.4595 58.8095 7.458 58.6755C7.45677 58.5239 7.40751 58.3766 7.31753 58.2545C7.17235 58.1184 6.99867 58.0165 6.80898 57.9564L5.6863 57.6406C5.12015 57.5359 4.58583 57.3018 4.1251 56.9565C3.9145 56.7859 3.74628 56.5689 3.63367 56.3223C3.52106 56.0758 3.46714 55.8065 3.47607 55.5356C3.47801 55.1807 3.58135 54.8338 3.77414 54.5358C3.98533 54.2113 4.29168 53.9602 4.65121 53.8166C5.08087 53.6466 5.53992 53.5631 6.00193 53.571C6.70547 53.5181 7.40412 53.7239 7.96655 54.1499C8.18488 54.3466 8.35886 54.5876 8.47682 54.8567C8.59477 55.1259 8.65403 55.4171 8.65069 55.711H7.26507C7.22821 55.4173 7.09188 55.1449 6.87899 54.9392C6.61726 54.7583 6.30179 54.6718 5.98437 54.6937C5.64824 54.6745 5.31536 54.767 5.03728 54.9567C4.96764 55.0028 4.91024 55.0653 4.87047 55.1388C4.8307 55.2122 4.80977 55.2942 4.80923 55.3777C4.80918 55.4619 4.82804 55.5452 4.86448 55.6211C4.90092 55.697 4.95399 55.7636 5.01972 55.8163C5.41821 56.0422 5.85061 56.2022 6.30021 56.2899C6.82296 56.3935 7.33002 56.5645 7.80874 56.7987C8.12769 56.9541 8.39561 57.1975 8.58067 57.5003C8.76995 57.8438 8.86651 58.2307 8.86118 58.6229C8.85621 59.0263 8.74106 59.4205 8.52799 59.7631C8.30968 60.1141 7.98343 60.3849 7.59825 60.5349C7.11841 60.7239 6.6052 60.8134 6.08972 60.798C5.36535 60.8427 4.64911 60.6247 4.07242 60.1841C3.58081 59.7264 3.28014 59.0999 3.23047 58.43" fill="white"/>
<path fill-rule="evenodd" clip-rule="evenodd" d="M44.9609 0L61.2744 25.1368L44.9609 31.2412V0Z" fill="white"/>
<path opacity="0.7" fill-rule="evenodd" clip-rule="evenodd" d="M44.958 0L28.6445 25.1368L44.958 31.2412V0Z" fill="white"/>
<path fill-rule="evenodd" clip-rule="evenodd" d="M2.54297 50.8349L23.8206 51.0805L45.1158 51.3261L66.411 51.0805L87.7063 50.8349L66.411 50.5893L45.1158 50.3438L23.8206 50.5893L2.54297 50.8349Z" fill="white"/>
<path d="M93.5126 34.0657H94.0038C94.1746 34.0837 94.3467 34.0469 94.4951 33.9604C94.5365 33.9269 94.5692 33.8839 94.5906 33.8351C94.6119 33.7862 94.6212 33.7329 94.6178 33.6797C94.6187 33.6074 94.5973 33.5367 94.5565 33.477C94.5157 33.4174 94.4574 33.3717 94.3897 33.3464H93.9863H93.5126V34.0657ZM93.0917 35.5041V32.9606H93.9687C94.1835 32.9239 94.403 32.9239 94.6178 32.9606C94.7521 33.005 94.8689 33.091 94.9511 33.2062C95.0181 33.3175 95.0543 33.4445 95.0563 33.5745C95.0603 33.6653 95.0452 33.756 95.012 33.8406C94.9787 33.9252 94.9281 34.0019 94.8634 34.0657C94.7218 34.2036 94.5344 34.2847 94.337 34.2937C94.4159 34.3258 94.4875 34.3736 94.5475 34.4341C94.6934 34.5899 94.8229 34.7603 94.9336 34.9427L95.2317 35.4338H94.7407L94.5126 35.0304C94.4071 34.8047 94.2581 34.6021 94.0741 34.4341C93.9808 34.372 93.8701 34.3412 93.7582 34.3463H93.5126V35.4338L93.0917 35.5041ZM94.1441 32.2239C93.7996 32.2262 93.4615 32.3168 93.1619 32.4869C92.8499 32.6476 92.5932 32.8981 92.4251 33.2062C92.2528 33.5112 92.1621 33.8557 92.1619 34.206C92.1616 34.5454 92.2525 34.8786 92.4251 35.1708C92.5954 35.4816 92.8511 35.7371 93.1619 35.9075C93.4606 36.0799 93.7992 36.1707 94.1441 36.1707C94.4886 36.1683 94.8269 36.0777 95.1265 35.9075C95.4286 35.7316 95.6772 35.477 95.8458 35.1708C96.0183 34.8786 96.109 34.5454 96.1087 34.206C96.1086 33.8557 96.0181 33.5112 95.8458 33.2062C95.6777 32.8981 95.4209 32.6476 95.109 32.4869C94.8158 32.3167 94.4831 32.2261 94.1441 32.2239ZM94.1441 31.8379C94.548 31.8452 94.9447 31.9473 95.3019 32.1361C95.6714 32.3395 95.9755 32.6436 96.179 33.0131C96.3855 33.3768 96.4944 33.7878 96.4948 34.206C96.4896 34.6158 96.3873 35.0186 96.1965 35.3813C95.9928 35.7461 95.6883 36.0445 95.3194 36.2408C94.961 36.4444 94.5564 36.5531 94.1441 36.5565C93.7312 36.5579 93.3256 36.4489 92.969 36.2408C92.5964 36.0496 92.2906 35.7499 92.0919 35.3813C91.8858 35.0207 91.7773 34.6126 91.7773 34.1973C91.7773 33.7819 91.8858 33.3737 92.0919 33.0131C92.2953 32.6436 92.5995 32.3395 92.969 32.1361C93.3317 31.9453 93.7343 31.8431 94.1441 31.8379Z" fill="white"/>
</svg>
