<svg width="136" height="35" viewBox="0 0 136 35" fill="none" xmlns="http://www.w3.org/2000/svg">
<mask id="mask0_1_6100" style="mask-type:luminance" maskUnits="userSpaceOnUse" x="0" y="0" width="35" height="35">
<path d="M23.0316 6.22713C23.4832 6.64433 23.8418 7.1522 24.0836 7.71746C24.3254 8.28272 24.4451 8.89263 24.435 9.50736C24.4418 8.8931 24.3205 8.28417 24.0789 7.71939C23.8373 7.15461 23.4806 6.64638 23.0316 6.22713ZM17.2255 9.7354C15.7638 7.91006 13.6988 6.66607 11.4019 6.22713C13.1081 5.03869 15.1374 4.40158 17.2167 4.40158C19.2961 4.40158 21.3254 5.03869 23.0316 6.22713C20.7376 6.66114 18.6767 7.90649 17.2255 9.7354L20.0672 12.5947C21.1582 11.2625 22.7245 10.407 24.435 10.2091C24.3434 11.0624 24.0839 11.8891 23.6714 12.6417C23.259 13.3943 22.7018 14.058 22.0318 14.5944L24.8209 17.3835C26.6619 15.9355 27.9097 13.8641 28.3291 11.5597C29.5287 13.2648 30.1726 15.2987 30.1726 17.3835C30.1726 19.4682 29.5287 21.5021 28.3291 23.2072C27.9051 20.9045 26.6582 18.8347 24.8209 17.3835L22.0318 20.1725C23.3775 21.2622 24.2406 22.8373 24.435 24.5579C22.7222 24.3672 21.1533 23.5102 20.0672 22.1722L17.2606 24.9789C18.7107 26.809 20.7722 28.0546 23.0667 28.4871C21.3605 29.6756 19.3312 30.3127 17.2519 30.3127C15.1725 30.3127 13.143 29.6756 11.4368 28.4871C13.7349 28.0511 15.8009 26.8066 17.2606 24.9789L14.4365 22.1722C13.9012 22.8377 13.2398 23.391 12.4903 23.8003C11.7408 24.2097 10.9179 24.4672 10.0687 24.5579C10.2631 22.8373 11.1262 21.2622 12.4719 20.1725L9.68265 17.3835C7.84162 18.8314 6.5938 20.9028 6.17438 23.2072C4.9551 21.5101 4.29926 19.4731 4.29926 17.3835C4.29926 15.2938 4.9551 13.2568 6.17438 11.5597C6.58914 13.8659 7.83789 15.9388 9.68265 17.3835L12.4719 14.5944C11.8019 14.058 11.2447 13.3943 10.8323 12.6417C10.4199 11.8891 10.1603 11.0624 10.0687 10.2091C11.7815 10.3997 13.3504 11.2566 14.4365 12.5947L17.2255 9.7354ZM17.2255 0.0350342C11.507 0.0350342 7.75318 2.77151 6.47266 6.52536C2.68373 7.84096 0 11.5597 0 17.3133C0 23.0669 2.68373 26.8032 6.47266 28.1012C7.75318 31.8726 11.507 34.5565 17.2255 34.5915C22.9966 34.5915 26.7154 31.8726 27.9959 28.1012C31.7849 26.8032 34.4686 23.0669 34.4686 17.3133C34.4686 11.5597 31.7849 7.84096 27.9959 6.52536C26.7154 2.77151 22.9966 0.0701169 17.2255 0.0350342Z" fill="white"/>
</mask>
<g mask="url(#mask0_1_6100)">
<path d="M26.4677 -14.6327L-14.6406 7.88281L7.88331 49.0066L48.9916 26.4911L26.4677 -14.6327Z" fill="white"/>
</g>
<mask id="mask1_1_6100" style="mask-type:luminance" maskUnits="userSpaceOnUse" x="40" y="0" width="96" height="19">
<path d="M61.8501 2.59648H63.92C64.9156 2.59648 65.8704 2.99199 66.5744 3.69598C67.2783 4.39996 67.6739 5.35478 67.6739 6.35036C67.6739 7.34594 67.2783 8.30076 66.5744 9.00474C65.8704 9.70873 64.9156 10.1042 63.92 10.1042H61.7976L61.8501 2.59648ZM59.5522 0.263506V18.1382H61.8501V12.4372H63.92L67.4283 18.1382H70.2349L66.2705 12.0162C66.9972 11.718 67.6412 11.2486 68.1476 10.648C69.2916 9.50332 69.9342 7.95116 69.9342 6.3328C69.9342 4.71445 69.2916 3.16233 68.1476 2.01764C67.1692 1.04077 65.8897 0.422706 64.5164 0.263506H59.5522ZM83.4085 0.263506L78.7424 8.35005L74.059 0.263506H71.4102L77.5848 10.9637V18.1382H79.9002V10.9637L86.0748 0.263506H83.4085ZM99.5115 0.263506V2.56142H103.686V18.1382H106.019V2.56142H110.159V0.316128L99.5115 0.263506ZM117.614 5.29787L119.123 9.50778H116.088L117.614 5.29787ZM116.983 0.263506L110.475 18.1382H113.036L115.299 11.8057H120.052L122.35 18.1382H124.806L118.298 0.316128L116.983 0.263506ZM126.981 0.263506V18.1382H135.752V15.8051H129.349V0.316128L126.981 0.263506ZM43.5721 2.7544C41.8625 4.46773 40.9023 6.78924 40.9023 9.20961C40.9023 11.63 41.8625 13.9515 43.5721 15.6648C44.4118 16.5288 45.4188 17.2125 46.5318 17.6739C47.6447 18.1354 48.84 18.365 50.0448 18.3486C52.5774 18.2719 54.9835 17.2228 56.7632 15.4192L55.0091 13.8756C53.6806 15.1828 51.9077 15.9408 50.0448 15.9981C49.1521 16.0149 48.2655 15.8493 47.439 15.5115C46.6126 15.1737 45.8637 14.6708 45.2384 14.0335C44.5928 13.4081 44.081 12.658 43.7342 11.8288C43.3874 10.9995 43.2129 10.1084 43.2211 9.20961C43.208 8.31271 43.3804 7.42275 43.7275 6.59564C44.0747 5.76854 44.5891 5.0221 45.2384 4.40324C45.8614 3.76044 46.6089 3.25156 47.4354 2.90772C48.2618 2.56387 49.1497 2.39232 50.0448 2.40355C51.9077 2.46087 53.6806 3.21882 55.0091 4.52604L56.7632 2.94733C54.9758 1.15964 52.5717 0.124012 50.0448 0.0530182C48.838 0.0337325 47.6404 0.263665 46.5266 0.728485C45.4129 1.19331 44.4071 1.88303 43.5721 2.7544ZM89.8462 1.29844C89.4488 1.67149 89.133 2.12284 88.9186 2.624C88.7043 3.12516 88.5959 3.66526 88.6006 4.21031C88.5915 4.75643 88.6925 5.29879 88.8974 5.80508C89.1023 6.31138 89.4071 6.77122 89.7935 7.15725C90.6724 7.96458 91.7215 8.56407 92.8633 8.91138C93.7029 9.23905 94.4669 9.73448 95.1086 10.3673C95.4208 10.6656 95.6676 11.0254 95.8337 11.4239C95.9997 11.8225 96.0813 12.2511 96.0733 12.6828C96.0816 13.1171 96.0003 13.5485 95.8343 13.9499C95.6683 14.3514 95.4213 14.7142 95.1086 15.0158C94.8135 15.326 94.4564 15.5707 94.0605 15.7339C93.6646 15.8971 93.2386 15.9752 92.8106 15.963C92.3803 15.9723 91.9528 15.8929 91.5545 15.73C91.1562 15.567 90.7957 15.3239 90.4952 15.0158C89.8434 14.2307 89.4784 13.247 89.4604 12.2267L87.215 13.0161C87.3543 14.3738 87.9332 15.6488 88.8638 16.6471C89.378 17.1695 89.9911 17.5844 90.6672 17.8676C91.3433 18.1508 92.0688 18.2967 92.8018 18.2967C93.5348 18.2967 94.2606 18.1508 94.9367 17.8676C95.6128 17.5844 96.2257 17.1695 96.7398 16.6471C97.2628 16.1314 97.678 15.517 97.9614 14.8394C98.2449 14.1619 98.391 13.4348 98.391 12.7003C98.391 11.9659 98.2449 11.2388 97.9614 10.5612C97.678 9.88369 97.2628 9.26921 96.7398 8.75352C95.7589 7.76919 94.5557 7.0352 93.2316 6.61347C92.5867 6.35066 91.9929 5.9766 91.4774 5.50836C91.2954 5.33528 91.1526 5.12512 91.0588 4.8921C90.965 4.65907 90.9224 4.40864 90.9338 4.15769C90.9274 3.91257 90.9724 3.66884 91.0661 3.44224C91.1598 3.21563 91.2999 3.01119 91.4774 2.84209C91.8292 2.49181 92.3054 2.29515 92.8018 2.29515C93.2982 2.29515 93.7744 2.49181 94.1262 2.84209C94.4422 3.24464 94.6803 3.70272 94.8279 4.19275L96.9154 3.36831C96.7157 2.56373 96.3176 1.822 95.7576 1.21075C95.3707 0.824379 94.911 0.518465 94.4052 0.310721C93.8994 0.102978 93.3574 -0.00248236 92.8106 0.000396303C92.2573 -0.00737576 91.7086 0.0992439 91.1984 0.313558C90.6883 0.527873 90.2279 0.845245 89.8462 1.24582" fill="white"/>
</mask>
<g mask="url(#mask1_1_6100)">
<path d="M55.5064 -32.0298L38.0273 14.9139L127.562 48.2513L145.041 1.3075L55.5064 -32.0298Z" fill="white"/>
</g>
<mask id="mask2_1_6100" style="mask-type:luminance" maskUnits="userSpaceOnUse" x="40" y="22" width="96" height="13">
<path d="M135.964 22.8037H40.6094V34.609H135.964V22.8037Z" fill="white"/>
</mask>
<g mask="url(#mask2_1_6100)">
<path d="M51.9222 -8.20225L36.6914 33.127L124.469 65.4749L139.699 24.1457L51.9222 -8.20225Z" fill="white"/>
</g>
<path d="M46.9776 29.6817V31.4007H45.6094V26.4365H49.4509V27.6293H46.9776V28.6292H49.1176V29.6817H46.9776Z" fill="#59595C"/>
<path d="M55.2915 28.8913C55.3374 29.4469 55.2146 30.0034 54.9393 30.4881C54.6639 30.9729 54.249 31.3633 53.7483 31.6085C53.2476 31.8536 52.6846 31.9421 52.1329 31.8623C51.5812 31.7825 51.0662 31.5382 50.6554 31.1612C50.2447 30.7843 49.9571 30.2923 49.8304 29.7494C49.7036 29.2065 49.7436 28.638 49.9449 28.1182C50.1463 27.5983 50.4999 27.1513 50.9593 26.8354C51.4186 26.5196 51.9626 26.3496 52.52 26.3478C52.871 26.3239 53.2232 26.3717 53.5551 26.4882C53.8871 26.6046 54.1921 26.7873 54.4513 27.0252C54.7105 27.2631 54.9186 27.5511 55.063 27.8719C55.2075 28.1927 55.2852 28.5395 55.2915 28.8913ZM51.222 28.8913C51.222 29.148 51.2982 29.3989 51.4408 29.6124C51.5835 29.8259 51.7861 29.9923 52.0233 30.0905C52.2605 30.1887 52.5216 30.2145 52.7734 30.1644C53.0252 30.1143 53.2565 29.9907 53.438 29.8091C53.6196 29.6276 53.7432 29.3963 53.7933 29.1445C53.8433 28.8927 53.8176 28.6317 53.7194 28.3945C53.6211 28.1573 53.4547 27.9546 53.2412 27.812C53.0278 27.6693 52.7768 27.5932 52.52 27.5932C52.3476 27.5857 52.1756 27.6142 52.0147 27.6768C51.8538 27.7394 51.7076 27.8348 51.5856 27.9568C51.4635 28.0789 51.3681 28.225 51.3055 28.3858C51.2429 28.5467 51.2145 28.7188 51.222 28.8913Z" fill="#59595C"/>
<path d="M55.957 26.4365H58.0446C59.5005 26.4365 60.1494 27.1382 60.1494 28.1907C60.1656 28.467 60.1055 28.7425 59.9756 28.9869C59.8456 29.2313 59.651 29.4352 59.4128 29.5764L60.4828 31.4358H58.9567L58.0094 29.822H57.3253V31.4358H55.957V26.4365ZM57.9743 28.8046C58.5532 28.8046 58.7987 28.6116 58.7987 28.1731C58.7987 27.7346 58.6234 27.5767 58.0094 27.5767H57.3253V28.8046H57.9743Z" fill="#59595C"/>
<path d="M60.4141 26.4365H61.9577L62.6594 28.4011C62.6594 28.6116 62.905 29.4887 62.905 29.4887C62.905 29.4887 63.0978 28.6818 63.1855 28.4713L63.9223 26.6295H64.9572L65.6589 28.5064C65.6589 28.7169 65.9396 29.5238 65.9396 29.5238C65.9396 29.5238 66.1326 28.6467 66.2028 28.4362L66.9043 26.4716H68.4479L66.6938 31.4358H65.3957L64.6767 29.4711C64.6767 29.2431 64.4487 28.5765 64.4487 28.5765C64.4487 28.5765 64.2908 29.2606 64.2206 29.4711L63.4838 31.4358H62.1682L60.4141 26.4365Z" fill="#59595C"/>
<path d="M71.7618 26.4365L73.7966 31.4007H72.2705L71.8671 30.4184H69.9901L69.6218 31.4007H68.0781L70.113 26.4365H71.7618ZM70.3235 29.4185H71.5513L71.3057 28.8046C71.1829 28.5064 70.9549 27.7346 70.9549 27.7346C70.9549 27.7346 70.7094 28.5064 70.6042 28.8046L70.3235 29.4185Z" fill="#59595C"/>
<path d="M74.3242 26.4365H76.4115C77.8675 26.4365 78.5164 27.1382 78.5164 28.1907C78.5329 28.4691 78.471 28.7465 78.3376 28.9914C78.2043 29.2364 78.005 29.4391 77.7623 29.5764L78.8498 31.4358H77.3237L76.3589 29.822H75.6923V31.4358H74.3242V26.4365ZM76.3413 28.8046C76.9202 28.8046 77.1659 28.6116 77.1659 28.1731C77.1659 27.7346 76.9904 27.5767 76.3764 27.5767H75.6923V28.8046H76.3413Z" fill="#59595C"/>
<path d="M81.0569 26.4365C83.2496 26.4365 84.074 27.524 84.074 28.9098C84.074 30.5762 83.0742 31.4007 81.3377 31.4007H79.3555V26.4365H81.0569ZM80.7235 30.1903H81.3726C82.2672 30.1903 82.6882 29.8044 82.6882 28.9098C82.6882 28.0152 82.3199 27.6468 81.2674 27.6468H80.7235V30.1903Z" fill="#59595C"/>
<path d="M85.3577 30.2422C85.4521 30.2419 85.5455 30.2612 85.6322 30.2988C85.7188 30.3365 85.7968 30.3916 85.8611 30.4608C85.9253 30.53 85.9745 30.6118 86.0056 30.701C86.0367 30.7901 86.0491 30.8848 86.0418 30.979C86.0324 31.3283 85.9188 31.6669 85.7157 31.9514C85.5125 32.2358 85.229 32.453 84.9016 32.5752L84.5859 32.1718C84.8386 31.9796 85.0378 31.726 85.1647 31.435L84.8315 31.3297C84.7264 31.2082 84.67 31.0519 84.6735 30.8912C84.6732 30.8037 84.6912 30.717 84.7262 30.6368C84.7612 30.5565 84.8124 30.4844 84.8767 30.425C84.9411 30.3656 85.017 30.3203 85.0998 30.2918C85.1826 30.2634 85.2704 30.2525 85.3577 30.2597" fill="#59595C"/>
<path d="M89.934 27.6293H88.25V26.4365H93.0037V27.6293H91.3197V31.4007H89.934V27.6293Z" fill="#59595C"/>
<path d="M98.7932 28.8917C98.7932 29.6221 98.503 30.3226 97.9865 30.839C97.4701 31.3555 96.7697 31.6457 96.0393 31.6457C95.3089 31.6457 94.6083 31.3555 94.0918 30.839C93.5753 30.3226 93.2852 29.6221 93.2852 28.8917C93.2852 28.1613 93.5753 27.4608 94.0918 26.9443C94.6083 26.4278 95.3089 26.1377 96.0393 26.1377C96.7697 26.1377 97.4701 26.4278 97.9865 26.9443C98.503 27.4608 98.7932 28.1613 98.7932 28.8917ZM94.741 28.8917C94.741 29.1484 94.8172 29.3994 94.9599 29.6128C95.1025 29.8263 95.3053 29.9927 95.5425 30.0909C95.7797 30.1892 96.0406 30.2149 96.2924 30.1648C96.5442 30.1147 96.7755 29.9911 96.957 29.8096C97.1386 29.628 97.2622 29.3967 97.3123 29.1449C97.3623 28.8931 97.3366 28.6321 97.2384 28.3949C97.1401 28.1577 96.9737 27.955 96.7602 27.8124C96.5468 27.6698 96.296 27.5936 96.0393 27.5936C95.8668 27.5862 95.6946 27.6146 95.5337 27.6772C95.3729 27.7398 95.2269 27.8352 95.1048 27.9572C94.9828 28.0793 94.8873 28.2254 94.8247 28.3863C94.7621 28.5471 94.7336 28.7193 94.741 28.8917Z" fill="#59595C"/>
<path d="M100.6 28.979C100.58 29.1456 100.596 29.3144 100.646 29.4745C100.696 29.6346 100.779 29.7824 100.89 29.9082C101.001 30.034 101.137 30.135 101.29 30.2046C101.442 30.2742 101.608 30.3109 101.775 30.3122C102.116 30.3254 102.451 30.22 102.723 30.014V29.6632H101.898V28.6808H104.091V31.3997H103.196L102.968 30.9261C102.812 31.1201 102.61 31.2726 102.38 31.3705C102.151 31.4683 101.901 31.5085 101.653 31.4874C101.324 31.498 100.998 31.4396 100.693 31.3161C100.389 31.1926 100.114 31.0067 99.8857 30.7704C99.6576 30.534 99.4816 30.2525 99.369 29.944C99.2564 29.6354 99.2097 29.3067 99.232 28.979C99.2238 28.6207 99.2905 28.2647 99.4277 27.9335C99.5648 27.6024 99.7694 27.3035 100.029 27.0559C100.288 26.8084 100.596 26.6175 100.933 26.4956C101.27 26.3737 101.628 26.3233 101.986 26.3478C102.688 26.3133 103.382 26.5038 103.968 26.8916L103.635 27.9967C103.178 27.7094 102.649 27.5573 102.109 27.5582C101.915 27.5402 101.72 27.5642 101.537 27.6285C101.353 27.6928 101.186 27.7959 101.046 27.9308C100.906 28.0657 100.797 28.2291 100.726 28.41C100.655 28.5909 100.624 28.785 100.635 28.979" fill="#59595C"/>
<path d="M106.372 29.3835V30.2079H108.968V31.4007H105.004V26.4365H108.845V27.6118H106.372V28.3661H108.512V29.3835H106.372Z" fill="#59595C"/>
<path d="M110.914 27.6293H109.23V26.4365H113.984V27.6293H112.283V31.4007H110.914V27.6293Z" fill="#59595C"/>
<path d="M115.915 26.4365V28.2433H117.827V26.4365H119.213V31.4007H117.827V29.4536H115.915V31.4007H114.547V26.4365H115.915Z" fill="#59595C"/>
<path d="M121.546 29.3835V30.2079H124.142V31.4007H120.16V26.4365H124.019V27.6118H121.546V28.3661H123.686V29.3835H121.546Z" fill="#59595C"/>
<path d="M124.809 26.4365H126.896C128.352 26.4365 129.001 27.1382 129.001 28.1907C129.017 28.467 128.957 28.7425 128.827 28.9869C128.697 29.2313 128.503 29.4352 128.264 29.5764L129.334 31.4358H127.808L126.861 29.822H126.177V31.4358H124.809V26.4365ZM126.826 28.8046C127.405 28.8046 127.65 28.6116 127.65 28.1731C127.65 27.7346 127.475 27.5767 126.861 27.5767H126.177V28.8046H126.826Z" fill="#59595C"/>
<path d="M130.419 30.2413C130.536 30.2548 130.647 30.302 130.738 30.3771C130.83 30.4523 130.897 30.5522 130.933 30.6649C130.969 30.7776 130.972 30.8982 130.941 31.0124C130.91 31.1265 130.846 31.2292 130.758 31.3082C130.67 31.3872 130.561 31.4391 130.445 31.4576C130.328 31.4762 130.208 31.4606 130.1 31.4127C129.992 31.3649 129.9 31.2868 129.835 31.1879C129.77 31.089 129.735 30.9735 129.734 30.8553C129.734 30.7684 129.752 30.6824 129.787 30.6029C129.822 30.5235 129.874 30.4524 129.938 30.3943C130.003 30.3363 130.079 30.2926 130.162 30.2663C130.245 30.2399 130.332 30.2314 130.419 30.2413Z" fill="white"/>
</svg>
