<svg width="128" height="45" viewBox="0 0 128 45" fill="none" xmlns="http://www.w3.org/2000/svg">
<path d="M36.5726 21.751L19.1891 27.1888L1.78806 21.751L0.367188 23.5227L16.4702 28.5921L19.1891 29.4516L21.908 28.5921L37.9934 23.5227L36.5726 21.751Z" fill="white"/>
<path d="M35.5544 20.4708L34.116 18.6641L19.1883 23.3301L4.24309 18.6641L2.80469 20.4708L19.1883 25.5929L35.5544 20.4708Z" fill="white"/>
<path d="M33.0493 17.3312L31.5934 15.5244L19.1916 19.4011L6.77234 15.5244L5.31641 17.3312L19.1916 21.6639L33.0493 17.3312Z" fill="white"/>
<path d="M28.0644 11.0861L26.6084 9.2793L19.1884 11.6123L11.7509 9.2793L10.3125 11.0861L19.1884 13.8751L28.0644 11.0861Z" fill="white"/>
<path d="M25.5923 8.01672L24.1539 6.20996L19.1897 7.7536L14.2255 6.20996L12.7695 8.01672L19.1897 10.0164L25.5923 8.01672Z" fill="white"/>
<path d="M23.0832 4.8761L21.6273 3.06934L19.189 3.82361L16.7333 3.06934L15.2773 4.8761L19.189 6.08645L23.0832 4.8761Z" fill="white"/>
<path d="M20.6268 1.78922L19.1884 0L17.75 1.78922L19.1884 2.24529L20.6268 1.78922Z" fill="white"/>
<path d="M19.1909 17.8218L30.5928 14.2609L29.1369 12.4541L19.1909 15.5589L9.22744 12.4541L7.78906 14.2609L19.1909 17.8218Z" fill="white"/>
<path fill-rule="evenodd" clip-rule="evenodd" d="M127.244 23.9967C127.253 24.2478 127.165 24.4926 126.999 24.6808C126.927 24.7697 126.836 24.8411 126.733 24.8897C126.629 24.9383 126.516 24.9629 126.402 24.9615C126.228 24.961 126.059 24.9044 125.92 24.8001C125.781 24.6958 125.68 24.5494 125.63 24.3826L122.438 15.6119C122.421 15.5684 122.393 15.5304 122.356 15.5024C122.318 15.4745 122.274 15.4577 122.227 15.4541H121.491C121.385 15.4541 121.35 15.4541 121.35 15.647V24.0318C121.359 24.2828 121.271 24.5276 121.105 24.7159C121.035 24.8068 120.944 24.8797 120.841 24.9286C120.737 24.9774 120.623 25.0007 120.508 24.9966C120.394 24.9967 120.282 24.9716 120.179 24.9231C120.075 24.8746 119.984 24.8038 119.912 24.7159C119.752 24.525 119.67 24.2805 119.684 24.0318V4.9117C119.673 4.65796 119.754 4.40877 119.912 4.21006C119.988 4.12713 120.08 4.06088 120.182 4.01558C120.285 3.97027 120.396 3.94689 120.508 3.94692C120.621 3.94339 120.733 3.9652 120.836 4.01073C120.94 4.05627 121.031 4.12439 121.105 4.21006C121.268 4.40708 121.355 4.65598 121.35 4.9117V13.2965C121.35 13.4193 121.35 13.4894 121.491 13.4894H122.227C122.227 13.4894 122.385 13.4894 122.438 13.314L125.63 4.54332C125.68 4.37657 125.781 4.23016 125.92 4.12585C126.059 4.02155 126.228 3.96495 126.402 3.96448C126.515 3.96334 126.626 3.98621 126.729 4.03158C126.832 4.07696 126.924 4.14379 126.999 4.22759C127.162 4.42461 127.249 4.67352 127.244 4.92923C127.271 5.05651 127.271 5.18787 127.244 5.31515L123.946 14.3139C123.938 14.3662 123.938 14.4195 123.946 14.4717C123.937 14.5357 123.937 14.6007 123.946 14.6647L127.244 23.6634C127.272 23.7905 127.272 23.9222 127.244 24.0493M113.615 18.4361L112.211 10.332C112.211 10.2443 112.211 10.2092 112.106 10.2092C112.001 10.2092 112.106 10.2092 112.106 10.332L110.615 18.4361C110.615 18.5589 110.615 18.6291 110.738 18.6291H113.58C113.685 18.6291 113.737 18.6291 113.702 18.4361M116.316 23.8564C116.357 24.1145 116.314 24.3791 116.193 24.6106C116.143 24.7108 116.071 24.7988 115.983 24.8685C115.895 24.9382 115.793 24.9879 115.684 25.0141C115.578 25.0431 115.467 25.0455 115.36 25.021C115.253 24.9965 115.153 24.946 115.071 24.8738C114.884 24.7177 114.759 24.4998 114.72 24.2598L114.106 20.7515C114.106 20.6112 114 20.5586 113.913 20.5586H110.404C110.299 20.5586 110.247 20.5586 110.229 20.7515L109.598 24.2598C109.554 24.4978 109.423 24.7106 109.229 24.8562C109.146 24.9284 109.047 24.979 108.94 25.0035C108.833 25.028 108.721 25.0256 108.615 24.9966C108.505 24.9673 108.403 24.9145 108.315 24.8418C108.227 24.7691 108.156 24.6783 108.107 24.5756C107.987 24.3499 107.943 24.0912 107.984 23.8388L111.492 4.71875C111.597 4.19251 111.86 3.94692 112.316 3.94692C112.772 3.94692 113.036 4.19251 113.123 4.71875L116.316 23.8564ZM102.809 21.4532V7.54291C102.824 7.13376 102.687 6.73359 102.423 6.42026C102.312 6.27371 102.169 6.15472 102.005 6.07257C101.841 5.99042 101.66 5.94731 101.476 5.94664H98.7394C98.6342 5.94664 98.5991 5.94664 98.5991 6.13959V22.8741C98.5991 23.0144 98.5991 23.067 98.7394 23.067H101.476C101.658 23.0659 101.837 23.0243 102.001 22.9455C102.165 22.8666 102.309 22.7523 102.423 22.6109C102.682 22.2883 102.819 21.8844 102.809 21.4708M104.563 21.4708C104.578 22.3928 104.26 23.2894 103.669 23.9967C103.416 24.3187 103.094 24.5791 102.726 24.7584C102.359 24.9376 101.955 25.0311 101.546 25.0316H97.8274C97.7135 25.0318 97.6008 25.0067 97.4977 24.9582C97.3946 24.9096 97.3034 24.8389 97.2309 24.751C97.0709 24.5601 96.9894 24.3156 97.0028 24.0669V4.94679C96.9917 4.69305 97.0727 4.44383 97.2309 4.24512C97.3065 4.1622 97.3986 4.09597 97.5013 4.05067C97.604 4.00536 97.7152 3.98198 97.8274 3.98201H101.546C101.957 3.982 102.363 4.077 102.731 4.25958C103.099 4.44215 103.42 4.70736 103.669 5.03451C104.263 5.73321 104.582 6.62553 104.563 7.54291V21.4708ZM93.5472 24.0669C93.5472 24.6282 93.3191 24.9439 92.8455 25.0316C92.3719 25.1194 92.0912 24.9089 91.9333 24.4002L87.6358 11.0512C87.6358 10.9635 87.6359 10.9459 87.4955 10.9635C87.3552 10.981 87.4955 10.9635 87.4955 11.1038V23.9441C87.5042 24.1951 87.4163 24.44 87.2499 24.6282C87.1783 24.7171 87.0873 24.7885 86.984 24.8371C86.8807 24.8857 86.7676 24.9103 86.6534 24.9088C86.5417 24.9102 86.4314 24.8856 86.3309 24.8368C86.2304 24.7881 86.1427 24.7167 86.0746 24.6282C85.989 24.5371 85.9231 24.4293 85.8808 24.3116C85.8386 24.194 85.8208 24.0689 85.829 23.9441V4.82399C85.829 4.26267 86.057 3.94692 86.5131 3.85921C86.9692 3.7715 87.2674 3.982 87.4253 4.4907L91.5124 17.7169C91.5317 17.7342 91.5567 17.7437 91.5826 17.7437C91.6085 17.7437 91.6335 17.7342 91.6528 17.7169C91.6637 17.6951 91.6691 17.6711 91.6691 17.6467C91.6691 17.6224 91.6637 17.5984 91.6528 17.5766V4.73628C91.6417 4.48254 91.7227 4.23334 91.8809 4.03463C91.9565 3.95171 92.0486 3.88549 92.1513 3.84018C92.254 3.79487 92.365 3.77149 92.4772 3.77153C92.5896 3.77038 92.7009 3.79325 92.8038 3.83863C92.9066 3.884 92.9986 3.95084 93.0736 4.03463C93.2367 4.23165 93.3238 4.48056 93.3192 4.73628L93.5472 24.0669ZM79.9176 18.4536L78.5144 10.3495C78.5144 10.2618 78.5143 10.2267 78.409 10.2267C78.3038 10.2267 78.3212 10.2267 78.3212 10.3495L76.8303 18.4536C76.8303 18.5764 76.8304 18.6466 76.9532 18.6466H79.7949C79.9001 18.6466 79.9526 18.6466 79.9176 18.4536ZM82.5312 23.8739C82.5813 24.1319 82.5378 24.3994 82.4085 24.6282C82.3609 24.7271 82.2923 24.8145 82.2074 24.8842C82.1226 24.9539 82.0236 25.0042 81.9173 25.0316C81.8088 25.0638 81.694 25.0678 81.5835 25.0432C81.473 25.0187 81.3705 24.9664 81.2858 24.8913C81.0992 24.7378 80.9795 24.5175 80.9524 24.2774L80.321 20.7691C80.321 20.6287 80.2158 20.5761 80.128 20.5761H76.6198C76.497 20.5761 76.4444 20.5761 76.4268 20.7691L75.7954 24.2774C75.7517 24.5153 75.6203 24.7282 75.4271 24.8738C75.3442 24.946 75.2447 24.9965 75.1376 25.021C75.0305 25.0455 74.9189 25.0431 74.813 25.0141C74.7028 24.9848 74.6004 24.932 74.5125 24.8594C74.4247 24.7867 74.3538 24.6959 74.3044 24.5931C74.1845 24.3674 74.1412 24.1088 74.1815 23.8564L77.6898 4.73628C77.795 4.21004 78.0583 3.96448 78.5144 3.96448C78.9705 3.96448 79.2335 4.21004 79.3212 4.73628L82.5312 23.8739ZM70.7083 24.0669C70.717 24.3179 70.6291 24.5627 70.4627 24.751C70.3911 24.8398 70.3001 24.9113 70.1968 24.9599C70.0935 25.0085 69.9806 25.0331 69.8664 25.0316C69.7524 25.0318 69.6398 25.0067 69.5366 24.9582C69.4335 24.9096 69.3426 24.8389 69.27 24.751C69.1037 24.5627 69.0158 24.3179 69.0244 24.0669V15.7172C69.0244 15.5769 69.0243 15.5067 68.9015 15.5067H64.832C64.7268 15.5067 64.6918 15.5067 64.6918 15.7172V24.0669C64.7004 24.3179 64.6125 24.5627 64.4462 24.751C64.3745 24.8398 64.2835 24.9113 64.1802 24.9599C64.0769 25.0085 63.9638 25.0331 63.8496 25.0316C63.7356 25.0318 63.6232 25.0067 63.5201 24.9582C63.417 24.9096 63.3258 24.8389 63.2533 24.751C63.0933 24.5601 63.0118 24.3156 63.0252 24.0669V4.94679C63.0141 4.69305 63.0951 4.44383 63.2533 4.24512C63.3289 4.1622 63.421 4.09597 63.5237 4.05067C63.6264 4.00536 63.7374 3.98198 63.8496 3.98201C63.962 3.98087 64.0735 4.00376 64.1764 4.04914C64.2792 4.09452 64.3712 4.16132 64.4462 4.24512C64.6093 4.44214 64.6964 4.69107 64.6918 4.94679V13.3491C64.6918 13.4894 64.6917 13.5596 64.832 13.5596H68.7788C68.7788 13.5596 68.9015 13.5596 68.9015 13.3491V4.94679C68.8969 4.69107 68.9841 4.44214 69.1471 4.24512C69.2228 4.1622 69.3149 4.09597 69.4176 4.05067C69.5203 4.00536 69.6315 3.98198 69.7437 3.98201C69.8561 3.98087 69.9674 4.00376 70.0702 4.04914C70.1731 4.09452 70.2651 4.16132 70.34 4.24512C70.5031 4.44214 70.5903 4.69107 70.5856 4.94679L70.7083 24.0669ZM59.5696 21.4006C59.5831 22.3194 59.2725 23.2137 58.6926 23.9265C58.4349 24.247 58.1092 24.5061 57.739 24.6851C57.3689 24.8641 56.9637 24.9585 56.5526 24.9615H55.0265C54.6147 24.9623 54.2079 24.8696 53.8372 24.6903C53.4665 24.511 53.1413 24.2498 52.8863 23.9265C52.2995 23.2175 51.9881 22.3207 52.0092 21.4006V7.54291C51.9843 6.62754 52.2964 5.73492 52.8863 5.03451C53.1377 4.706 53.4619 4.44006 53.8331 4.25749C54.2044 4.07491 54.6128 3.98064 55.0265 3.98201H56.5526C56.9656 3.98457 57.3725 4.08059 57.7431 4.26287C58.1137 4.44514 58.4384 4.70895 58.6926 5.03451C59.274 5.73968 59.585 6.62906 59.5696 7.54291V10.3144C59.5743 10.5702 59.4871 10.8191 59.324 11.0161C59.2532 11.1072 59.163 11.1813 59.0598 11.2329C58.9566 11.2845 58.8431 11.3123 58.7277 11.3143C58.6125 11.3111 58.4994 11.2828 58.3964 11.2313C58.2934 11.1797 58.203 11.1063 58.1313 11.0161C57.9731 10.8174 57.8921 10.5682 57.9033 10.3144V7.54291C57.9041 7.13305 57.7612 6.73585 57.4997 6.42026C57.3889 6.27371 57.246 6.15472 57.0817 6.07257C56.9174 5.99042 56.7363 5.94731 56.5526 5.94664H55.0265C54.84 5.94595 54.6559 5.98833 54.4886 6.07048C54.3212 6.15264 54.1751 6.27235 54.0616 6.42026C53.7981 6.73359 53.6605 7.13376 53.6758 7.54291V21.4708C53.6659 21.8844 53.8025 22.2883 54.0616 22.6109C54.1786 22.7537 54.3258 22.8687 54.4927 22.9475C54.6595 23.0264 54.8419 23.0672 55.0265 23.067H56.5526C56.7344 23.0659 56.9136 23.0243 57.0774 22.9455C57.2412 22.8666 57.3854 22.7523 57.4997 22.6109C57.765 22.2907 57.9082 21.8866 57.9033 21.4708V18.6992C57.8921 18.4455 57.9731 18.1963 58.1313 17.9976C58.203 17.9074 58.2934 17.8339 58.3964 17.7824C58.4994 17.7309 58.6125 17.7025 58.7277 17.6993C58.8431 17.7013 58.9566 17.7291 59.0598 17.7807C59.163 17.8323 59.2532 17.9064 59.324 17.9976C59.4871 18.1946 59.5743 18.4435 59.5696 18.6992V21.4006Z" fill="white"/>
<path d="M127.245 34.2927H0V34.7137H127.245V34.2927Z" fill="white"/>
<path d="M2.98269 40.5905C3.11818 40.7144 3.22471 40.8667 3.29446 41.0365C3.36421 41.2063 3.39541 41.3895 3.38611 41.5728C3.39329 41.7585 3.361 41.9437 3.29146 42.116C3.22192 42.2883 3.11674 42.444 2.98269 42.5727C2.67026 42.8362 2.26781 42.9682 1.86002 42.9411H1.01806V44.0462H0.28125V40.2572H1.86002C2.26136 40.2364 2.6577 40.3541 2.98269 40.5905ZM2.45636 42.1166C2.52861 42.0493 2.58634 41.9679 2.62574 41.8773C2.66513 41.7868 2.68548 41.6891 2.68548 41.5904C2.68548 41.4917 2.66513 41.394 2.62574 41.3034C2.58634 41.2129 2.52861 41.1314 2.45636 41.0641C2.27414 40.931 2.04971 40.8686 1.8249 40.8887H1.01806V42.292H1.8249C2.04971 42.3122 2.27414 42.2498 2.45636 42.1166Z" fill="white"/>
<path d="M7.59456 44.0461L6.92798 42.9234H5.92822V44.0285H5.19141V40.2396H6.80529C7.21255 40.2147 7.61557 40.3326 7.94531 40.5729C8.08385 40.6943 8.19243 40.8462 8.26243 41.0167C8.33243 41.1871 8.36212 41.3714 8.34894 41.5552C8.36005 41.8201 8.29275 42.0825 8.15579 42.3095C8.02505 42.5241 7.82812 42.6903 7.59456 42.7831L8.43652 44.0285L7.59456 44.0461ZM5.92822 42.2919H6.80529C7.0298 42.3089 7.25317 42.2469 7.43675 42.1165C7.56992 41.9737 7.64381 41.7856 7.64381 41.5903C7.64381 41.395 7.56992 41.2069 7.43675 41.064C7.25317 40.9337 7.0298 40.8716 6.80529 40.8886H5.92822V42.2919Z" fill="white"/>
<path d="M13.1576 40.4676C13.4671 40.6236 13.7233 40.8677 13.8942 41.1692C14.0666 41.4679 14.1576 41.8067 14.1576 42.1516C14.1576 42.4964 14.0666 42.8352 13.8942 43.1339C13.7183 43.4359 13.4638 43.6845 13.1576 43.8531C12.8393 44.0222 12.4828 44.1067 12.1225 44.0986C11.7618 44.1109 11.4044 44.026 11.0876 43.8531C10.7814 43.6845 10.5267 43.4359 10.3508 43.1339C10.1674 42.8391 10.0703 42.4988 10.0703 42.1516C10.0703 41.8043 10.1674 41.4641 10.3508 41.1692C10.5217 40.8677 10.7781 40.6236 11.0876 40.4676C11.4027 40.2885 11.7602 40.1976 12.1225 40.2045C12.4844 40.2018 12.841 40.2924 13.1576 40.4676ZM11.4035 41.0289C11.2088 41.1451 11.046 41.3079 10.9298 41.5025C10.8084 41.6968 10.7474 41.9226 10.7545 42.1516C10.7505 42.3801 10.8112 42.6052 10.9298 42.8006C11.0408 42.9993 11.2048 43.1633 11.4035 43.2742C11.5996 43.3911 11.8242 43.4518 12.0525 43.4496C12.2814 43.4566 12.5073 43.3956 12.7015 43.2742C12.9002 43.1633 13.0642 42.9993 13.1752 42.8006C13.286 42.6019 13.3462 42.379 13.3505 42.1516C13.3485 41.9238 13.2881 41.7003 13.1752 41.5025C13.059 41.3079 12.8962 41.1451 12.7015 41.0289C12.5037 40.9159 12.2803 40.8556 12.0525 40.8535C11.8253 40.8599 11.6029 40.92 11.4035 41.0289Z" fill="white"/>
<path d="M16.0312 40.2568H16.8557L18.1362 42.6951L19.3992 40.2568H20.2412V44.0458H19.5571V41.3269L18.3642 43.6599H17.8906L16.6978 41.3269V44.0458H16.0312V40.2568Z" fill="white"/>
<path d="M23.1196 40.2567H22.3828V44.0456H23.1196V40.2567Z" fill="white"/>
<path d="M27.0833 40.959C26.9088 40.8953 26.7254 40.8598 26.5397 40.8538C26.3921 40.8468 26.2457 40.8834 26.1187 40.959C26.0722 40.9858 26.0333 41.024 26.0056 41.0701C25.978 41.1161 25.9624 41.1685 25.9607 41.2221C25.9589 41.2709 25.9674 41.3195 25.9855 41.3648C26.0036 41.4101 26.0311 41.4511 26.066 41.4853C26.1458 41.5633 26.2416 41.6232 26.3467 41.6606L26.7853 41.8185C27.004 41.8695 27.2159 41.946 27.4167 42.0466C27.598 42.1187 27.7524 42.245 27.8591 42.4083C27.9659 42.5715 28.0197 42.7638 28.0131 42.9587C28.022 43.1769 27.9605 43.3921 27.8377 43.5727C27.7022 43.7484 27.5197 43.8822 27.3114 43.9586C27.0709 44.0519 26.8152 44.0995 26.5572 44.0989C26.2578 44.099 25.9607 44.0456 25.6802 43.941C25.4034 43.8354 25.1479 43.6809 24.9258 43.485L25.2416 42.871C25.4326 43.047 25.6521 43.1894 25.8906 43.292C26.1003 43.3879 26.3268 43.4416 26.5572 43.4499C26.729 43.4534 26.8983 43.411 27.0482 43.3271C27.0991 43.2908 27.1412 43.2436 27.1716 43.189C27.2019 43.1344 27.2198 43.0737 27.2238 43.0113C27.2228 42.9083 27.1854 42.809 27.1185 42.7307C27.0406 42.654 26.9437 42.5995 26.8377 42.5728L26.3992 42.4149L25.7502 42.2044C25.5876 42.1248 25.444 42.0111 25.3292 41.8712C25.209 41.7026 25.1475 41.4992 25.1538 41.2923C25.1582 41.0869 25.2189 40.8867 25.3292 40.7134C25.4677 40.5483 25.6416 40.4164 25.838 40.3275C26.0796 40.2401 26.3353 40.1985 26.5921 40.2047C26.8414 40.2052 27.0895 40.2406 27.3289 40.31C27.5587 40.3772 27.7773 40.4777 27.978 40.6082L27.6797 41.2397C27.4934 41.1215 27.2931 41.0272 27.0833 40.959Z" fill="white"/>
<path d="M29.9258 40.2568H32.75V40.8883H30.6625V41.818H32.5395V42.4495H30.6625V43.4143H32.8026V44.0458H29.9258V40.2568Z" fill="white"/>
<path d="M36.5716 40.959C36.3971 40.8953 36.2134 40.8598 36.0277 40.8538C35.8801 40.8468 35.7337 40.8834 35.6068 40.959C35.5602 40.9858 35.5213 41.024 35.4937 41.0701C35.4661 41.1161 35.4507 41.1685 35.4489 41.2221C35.4472 41.2709 35.4557 41.3195 35.4738 41.3648C35.4919 41.4101 35.5194 41.4511 35.5543 41.4853C35.6368 41.5597 35.7317 41.6191 35.8348 41.6606L36.2733 41.8185C36.4921 41.8695 36.704 41.946 36.9048 42.0466C37.0788 42.1152 37.2306 42.2305 37.3433 42.3799C37.4612 42.5496 37.5228 42.7521 37.5189 42.9587C37.5227 43.1789 37.4548 43.3943 37.3258 43.5727C37.194 43.7521 37.0104 43.8868 36.7997 43.9586C36.5592 44.0519 36.3033 44.0995 36.0453 44.0989C35.7459 44.099 35.4488 44.0456 35.1682 43.941C34.8935 43.8313 34.6388 43.6773 34.4141 43.485L34.7297 42.871C34.9207 43.047 35.1401 43.1894 35.3787 43.292C35.5884 43.3879 35.8149 43.4416 36.0453 43.4499C36.217 43.4534 36.3866 43.411 36.5365 43.3271C36.5904 43.2939 36.6349 43.2475 36.6656 43.1922C36.6963 43.1369 36.7122 43.0746 36.7119 43.0113C36.7108 42.9083 36.6737 42.809 36.6067 42.7307C36.5289 42.654 36.4319 42.5995 36.326 42.5728L35.8875 42.4149L35.2385 42.2044C35.0759 42.1248 34.9323 42.0111 34.8175 41.8712C34.6973 41.7026 34.6357 41.4992 34.6421 41.2923C34.6445 41.0839 34.712 40.8816 34.835 40.7134C34.9633 40.5452 35.1324 40.4123 35.3262 40.3275C35.5679 40.2401 35.8235 40.1985 36.0804 40.2047C36.3297 40.2052 36.5778 40.2406 36.8172 40.31C37.0483 40.3735 37.2675 40.4743 37.4662 40.6082L37.1855 41.2397C36.9914 41.1246 36.7857 41.0305 36.5716 40.959Z" fill="white"/>
<path d="M41.9766 40.2568H42.8185L44.0815 42.6951L45.3445 40.2568H46.1865V44.0458H45.5199V41.3269L44.3271 43.6599H43.8534L42.6431 41.3269V44.0458H41.9766V40.2568Z" fill="white"/>
<path d="M51.1846 44.0458L50.8338 43.2564H49.0446L48.7114 44.0458H47.957L49.7112 40.2568H50.4655L52.2197 44.0458H51.1846ZM49.22 42.6249H50.5707L49.9041 41.0287L49.22 42.6249Z" fill="white"/>
<path d="M56.2718 40.5028C56.5664 40.6573 56.8147 40.8873 56.9911 41.1693C57.1544 41.4708 57.2389 41.8087 57.2367 42.1516C57.2725 42.5095 57.1974 42.8697 57.0217 43.1834C56.846 43.4972 56.5781 43.7493 56.2543 43.9058C55.9331 44.0653 55.5778 44.1436 55.2194 44.1338H53.6406V40.3449H55.2369C55.5969 40.3406 55.9522 40.4249 56.2718 40.5905M55.886 43.3445C56.0749 43.2345 56.2321 43.0773 56.3421 42.8884C56.4356 42.6911 56.4835 42.4752 56.4823 42.2569C56.4863 42.025 56.4321 41.7958 56.3245 41.5903C56.2185 41.4028 56.0599 41.2504 55.8684 41.1518C55.6747 41.0464 55.4574 40.9921 55.2369 40.9939H54.3072V43.5023H55.1843C55.4052 43.5084 55.6236 43.4538 55.8157 43.3445" fill="white"/>
<path d="M59.0977 40.2568H61.9043V40.8883H59.8344V41.818H61.6938V42.4495H59.8344V43.4143H61.9745V44.0458H59.0977V40.2568Z" fill="white"/>
<path d="M64.3431 43.4317C64.3793 43.4685 64.4074 43.5125 64.4255 43.5609C64.4436 43.6092 64.4515 43.6608 64.4484 43.7124C64.4507 43.816 64.4129 43.9165 64.3431 43.993C64.2716 44.0596 64.1776 44.0967 64.0799 44.0967C63.9822 44.0967 63.8884 44.0596 63.8169 43.993C63.75 43.9148 63.7126 43.8154 63.7116 43.7124C63.7085 43.6608 63.7164 43.6092 63.7345 43.5609C63.7526 43.5125 63.7807 43.4685 63.8169 43.4317C63.8884 43.3652 63.9822 43.3281 64.0799 43.3281C64.1776 43.3281 64.2716 43.3652 64.3431 43.4317Z" fill="white"/>
<path d="M69.0764 40.5905C69.2097 40.7153 69.3135 40.8682 69.3803 41.0381C69.447 41.208 69.475 41.3907 69.4623 41.5728C69.4729 41.7574 69.4438 41.942 69.3773 42.1145C69.3107 42.2869 69.2082 42.4431 69.0764 42.5727C68.7631 42.8346 68.3613 42.9664 67.9538 42.9411H67.1118V44.0462H66.375V40.2572H67.9538C68.3551 40.2364 68.7515 40.3541 69.0764 40.5905ZM68.5501 42.1166C68.6224 42.0493 68.6799 41.9679 68.7193 41.8773C68.7587 41.7868 68.779 41.6891 68.779 41.5904C68.779 41.4917 68.7587 41.394 68.7193 41.3034C68.6799 41.2129 68.6224 41.1314 68.5501 41.0641C68.3665 40.9338 68.1432 40.8717 67.9186 40.8887H67.1118V42.292H67.9186C68.1432 42.309 68.3665 42.247 68.5501 42.1166Z" fill="white"/>
<path d="M73.6922 44.0462L73.0256 42.9235H72.0257V44.0286H71.2891V40.2397H72.8852C73.2983 40.2106 73.7085 40.3287 74.043 40.573C74.1785 40.6968 74.285 40.8491 74.3547 41.019C74.4245 41.1888 74.4557 41.3719 74.4464 41.5553C74.4492 41.8193 74.3827 42.0794 74.2534 42.3096C74.1227 42.5242 73.9258 42.6904 73.6922 42.7832L74.5342 44.0286L73.6922 44.0462ZM71.9381 42.292H72.7976C73.0276 42.3088 73.2564 42.2469 73.4466 42.1166C73.5838 41.9758 73.6605 41.787 73.6605 41.5904C73.6605 41.3938 73.5838 41.205 73.4466 41.0641C73.2564 40.9338 73.0276 40.8719 72.7976 40.8887H71.9381V42.292Z" fill="white"/>
<path d="M79.2514 40.467C79.5609 40.623 79.8173 40.8671 79.9882 41.1687C80.1606 41.4673 80.2513 41.8061 80.2513 42.151C80.2513 42.4959 80.1606 42.8346 79.9882 43.1333C79.8123 43.4353 79.5575 43.6839 79.2514 43.8525C78.9276 44.0238 78.5651 44.1084 78.1989 44.0981C77.8386 44.1062 77.4823 44.0216 77.164 43.8525C76.8579 43.6839 76.6031 43.4353 76.4272 43.1333C76.2548 42.8346 76.1641 42.4959 76.1641 42.151C76.1641 41.8061 76.2548 41.4673 76.4272 41.1687C76.5981 40.8671 76.8545 40.623 77.164 40.467C77.485 40.2951 77.8435 40.2051 78.2077 40.2051C78.5719 40.2051 78.9303 40.2951 79.2514 40.467ZM77.4972 41.0283C77.2948 41.1343 77.1296 41.2996 77.0236 41.502C76.9022 41.6962 76.8412 41.9221 76.8482 42.151C76.8442 42.3796 76.905 42.6046 77.0236 42.8C77.1345 42.9988 77.2985 43.1627 77.4972 43.2736C77.6927 43.3922 77.9177 43.4531 78.1462 43.4491C78.3746 43.4512 78.5991 43.3905 78.7953 43.2736C78.9925 43.1666 79.1518 43.0012 79.2514 42.8C79.3699 42.6046 79.4307 42.3796 79.4267 42.151C79.4337 41.9221 79.3727 41.6962 79.2514 41.502C79.1467 41.3045 78.9887 41.1404 78.7953 41.0283C78.5958 40.9194 78.3734 40.8593 78.1462 40.8529C77.9188 40.8573 77.6959 40.9175 77.4972 41.0283Z" fill="white"/>
<path d="M82.1094 40.2568H82.9514L84.2144 42.6951L85.4773 40.2568H86.3193V44.0458H85.6528V41.3269L84.46 43.6599H83.9863L82.776 41.3269V44.0458H82.1094V40.2568Z" fill="white"/>
<path d="M89.2133 40.2568H88.4766V44.0458H89.2133V40.2568Z" fill="white"/>
<path d="M93.181 40.9593C93.0064 40.8957 92.8228 40.8602 92.6371 40.8541C92.4895 40.8472 92.3431 40.8838 92.2161 40.9593C92.1696 40.9862 92.1307 41.0244 92.1031 41.0704C92.0754 41.1165 92.0601 41.1688 92.0583 41.2225C92.0566 41.2712 92.065 41.3198 92.0832 41.3651C92.1013 41.4104 92.1286 41.4515 92.1635 41.4856C92.2367 41.5633 92.3267 41.6233 92.4266 41.661L92.8827 41.8189C93.1006 41.8727 93.3122 41.9491 93.5142 42.0469C93.6954 42.119 93.85 42.2454 93.9568 42.4086C94.0635 42.5719 94.1171 42.7641 94.1105 42.9591C94.1229 43.1804 94.0544 43.3986 93.9176 43.573C93.789 43.7482 93.6124 43.8822 93.409 43.9589C93.1629 44.054 92.9009 44.1017 92.6371 44.0992C92.3378 44.0979 92.041 44.0445 91.76 43.9414C91.4908 43.8314 91.2419 43.6773 91.0234 43.4853L91.3215 42.8713C91.5216 43.0439 91.7463 43.1858 91.9881 43.2924C92.1964 43.3921 92.4237 43.4459 92.6547 43.4502C92.8264 43.4537 92.996 43.4113 93.1459 43.3274C93.1967 43.2911 93.2389 43.2439 93.2692 43.1893C93.2996 43.1347 93.3173 43.074 93.3212 43.0117C93.3202 42.9087 93.2831 42.8093 93.2161 42.731C93.1329 42.6618 93.0377 42.6084 92.9354 42.5731L92.4793 42.4153L91.8478 42.2048C91.6852 42.1251 91.5417 42.0115 91.4269 41.8715C91.2987 41.7069 91.2362 41.5007 91.2515 41.2926C91.2476 41.086 91.309 40.8835 91.4269 40.7138C91.5654 40.5486 91.7391 40.4168 91.9354 40.3279C92.1766 40.2388 92.4328 40.1971 92.6898 40.2051C92.9391 40.2055 93.1871 40.2409 93.4266 40.3103C93.6563 40.3775 93.875 40.478 94.0756 40.6085L93.7773 41.24C93.5892 41.1252 93.3893 41.0311 93.181 40.9593Z" fill="white"/>
<path d="M96.0195 40.2568H98.8262V40.8883H96.7562V41.818H98.6156V42.4495H96.7562V43.4143H98.8963V44.0458H96.0195V40.2568Z" fill="white"/>
<path d="M102.669 40.9593C102.495 40.8957 102.311 40.8602 102.126 40.8541C101.978 40.8472 101.832 40.8838 101.705 40.9593C101.658 40.9862 101.619 41.0244 101.592 41.0704C101.564 41.1165 101.549 41.1688 101.547 41.2225C101.545 41.2712 101.554 41.3198 101.572 41.3651C101.59 41.4104 101.617 41.4515 101.652 41.4856C101.725 41.5633 101.815 41.6233 101.915 41.661L102.371 41.8189C102.589 41.8727 102.801 41.9491 103.003 42.0469C103.184 42.119 103.339 42.2454 103.445 42.4086C103.552 42.5719 103.606 42.7641 103.599 42.9591C103.611 43.1804 103.543 43.3986 103.406 43.573C103.277 43.7482 103.101 43.8822 102.897 43.9589C102.651 44.054 102.389 44.1017 102.126 44.0992C101.826 44.0979 101.53 44.0445 101.249 43.9414C100.979 43.8314 100.73 43.6773 100.512 43.4853L100.81 42.8713C101.01 43.0439 101.235 43.1858 101.477 43.2924C101.685 43.3921 101.912 43.4459 102.143 43.4502C102.315 43.4537 102.484 43.4113 102.634 43.3274C102.685 43.2911 102.727 43.2439 102.757 43.1893C102.788 43.1347 102.806 43.074 102.81 43.0117C102.809 42.9087 102.771 42.8093 102.704 42.731C102.621 42.6618 102.526 42.6084 102.424 42.5731L101.968 42.4153L101.336 42.2048C101.174 42.1251 101.03 42.0115 100.915 41.8715C100.787 41.7069 100.725 41.5007 100.74 41.2926C100.736 41.086 100.797 40.8835 100.915 40.7138C101.054 40.5486 101.228 40.4168 101.424 40.3279C101.665 40.2388 101.921 40.1971 102.178 40.2051C102.428 40.2055 102.675 40.2409 102.915 40.3103C103.145 40.3775 103.363 40.478 103.564 40.6085L103.266 41.24C103.078 41.1252 102.878 41.0311 102.669 40.9593Z" fill="white"/>
<path d="M111.491 44.0458H110.614L109.403 42.4144L108.807 43.081V44.0458H108.07V40.2568H108.807V42.1513L110.526 40.2568H111.403L109.93 41.8531L111.491 44.0458Z" fill="white"/>
<path d="M113.266 40.2568H116.072V40.8883H114.002V41.818H115.862V42.4495H114.002V43.4143H116.142V44.0458H113.266V40.2568Z" fill="white"/>
<path d="M120.791 40.5905C120.927 40.7144 121.033 40.8667 121.103 41.0365C121.173 41.2063 121.204 41.3895 121.195 41.5728C121.202 41.7585 121.17 41.9437 121.1 42.116C121.031 42.2883 120.925 42.444 120.791 42.5727C120.479 42.8362 120.076 42.9682 119.669 42.9411H118.827V44.0462H118.09V40.2572H119.669C120.07 40.2364 120.466 40.3541 120.791 40.5905ZM120.265 42.1166C120.337 42.0493 120.395 41.9679 120.434 41.8773C120.474 41.7868 120.494 41.6891 120.494 41.5904C120.494 41.4917 120.474 41.394 120.434 41.3034C120.395 41.2129 120.337 41.1314 120.265 41.0641C120.083 40.931 119.858 40.8686 119.633 40.8887H118.827V42.292H119.633C119.858 42.3122 120.083 42.2498 120.265 42.1166Z" fill="white"/>
<path d="M122.578 40.2568H125.718V40.8883H124.508V44.0458H123.771V40.8883H122.578V40.2568Z" fill="white"/>
<path d="M127.861 43.4331C127.897 43.4699 127.925 43.5139 127.943 43.5622C127.961 43.6106 127.969 43.6622 127.966 43.7137C127.968 43.8173 127.93 43.9178 127.861 43.9944C127.824 44.0306 127.78 44.0587 127.731 44.0769C127.683 44.095 127.631 44.1027 127.58 44.0996C127.531 44.1014 127.483 44.0929 127.437 44.0748C127.392 44.0567 127.351 44.0293 127.317 43.9944C127.25 43.9161 127.213 43.8167 127.212 43.7137C127.209 43.6622 127.216 43.6106 127.234 43.5622C127.252 43.5139 127.281 43.4699 127.317 43.4331C127.351 43.3982 127.392 43.3708 127.437 43.3527C127.483 43.3346 127.531 43.3261 127.58 43.3278C127.631 43.3247 127.683 43.3325 127.731 43.3506C127.78 43.3688 127.824 43.3969 127.861 43.4331Z" fill="white"/>
<path d="M45.2218 0.0351562H44.8008V28.8205H45.2218V0.0351562Z" fill="white"/>
</svg>
