<svg width="120" height="32" viewBox="0 0 120 32" fill="none" xmlns="http://www.w3.org/2000/svg">
<path d="M30.7495 4.77125C30.7495 5.71492 30.4697 6.63737 29.9454 7.422C29.4211 8.20662 28.676 8.81817 27.8041 9.17929C26.9323 9.54042 25.973 9.6349 25.0474 9.4508C24.1219 9.26671 23.2717 8.81232 22.6045 8.14505C21.9372 7.47778 21.4828 6.6276 21.2987 5.70207C21.1146 4.77654 21.2091 3.81722 21.5702 2.94538C21.9313 2.07355 22.5427 1.32838 23.3274 0.804104C24.112 0.279832 25.0346 0 25.9783 0C27.2437 0 28.4573 0.50267 29.3521 1.39745C30.2468 2.29224 30.7495 3.50584 30.7495 4.77125Z" fill="white"/>
<path d="M5.15727 17.7522C5.15727 18.8748 5.75366 19.5063 7.33238 19.5063H12.8404C17.4011 19.5063 19.5587 21.1026 19.5587 25.523C19.5587 29.9434 17.0677 31.8554 12.2263 31.8554H0.754373V27.4877H11.6475C13.7875 27.4877 14.4189 26.9965 14.4189 25.7335C14.4189 24.4705 13.8227 23.8741 11.9107 23.8741H7.01654C2.35054 23.8741 0 22.12 0 17.7873C0 13.209 2.47344 11.332 7.34994 11.332H18.664V15.6823H7.9814C5.96415 15.6823 5.22729 16.3489 5.22729 17.8399" fill="white"/>
<path d="M28.5751 11.2266H23.3828V31.8026H28.5751V11.2266Z" fill="white"/>
<path d="M38.3625 27.5235H42.7479C46.0807 27.5235 47.1508 26.278 47.1508 21.5243C47.1508 16.7706 46.0807 15.5252 42.7479 15.5252H38.3625V27.5235ZM52.5361 21.8752C52.6692 23.3821 52.4518 24.8994 51.901 26.3084C51.3502 27.7173 50.4808 28.9797 49.361 29.9968C47.5144 31.3614 45.2247 31.987 42.9408 31.751H33.3633V11.2451H42.8181C49.4487 11.2451 52.5361 14.7534 52.5361 21.8752Z" fill="white"/>
<path d="M61.0969 27.5235H65.4649C68.8153 27.5235 69.8851 26.278 69.8851 21.5243C69.8851 16.7706 68.8153 15.5252 65.4649 15.5252H61.0969V27.5235ZM75.2705 21.8752C75.4036 23.3821 75.1862 24.8994 74.6354 26.3084C74.0846 27.7173 73.2152 28.9797 72.0954 29.9968C70.2427 31.3626 67.9473 31.9881 65.6578 31.751H56.0977V11.2451H65.57C72.1831 11.2451 75.2705 14.7534 75.2705 21.8752Z" fill="white"/>
<path d="M90.198 19.2254V11.2266H95.1973V31.8026H90.198V23.5581H83.4446V31.8026H78.4453V11.2266H83.4446V19.2254H90.198Z" fill="white"/>
<path d="M110.441 22.6985L108.09 16.7169L105.81 22.6985H110.441ZM119.492 31.7674H113.932L112.178 27.0663H104.196L102.442 31.7674H97.1797L105.95 11.1914H110.914L119.492 31.7674Z" fill="white"/>
</svg>
