<?xml version="1.0" encoding="UTF-8"?>
<svg xmlns="http://www.w3.org/2000/svg" xmlns:xlink="http://www.w3.org/1999/xlink" width="100px" height="133px" viewBox="0 0 100 133" version="1.1">
  <title>Group</title>
  <defs>
    <linearGradient x1="-70.247745%" y1="49.9991597%" x2="961.351774%" y2="49.9991597%" id="linearGradient-1">
      <stop stop-color="#B8860B" offset="0%"></stop>
      <stop stop-color="#ECBD00" offset="49.46%"></stop>
      <stop stop-color="#CC9900" offset="100%"></stop>
    </linearGradient>
    <linearGradient x1="-174.489421%" y1="49.9996849%" x2="777.955709%" y2="49.9996849%" id="linearGradient-2">
      <stop stop-color="#B8860B" offset="0%"></stop>
      <stop stop-color="#ECBD00" offset="49.46%"></stop>
      <stop stop-color="#CC9900" offset="100%"></stop>
    </linearGradient>
    <linearGradient x1="-239.010093%" y1="50.0007352%" x2="571.818277%" y2="50.0007352%" id="linearGradient-3">
      <stop stop-color="#B8860B" offset="0%"></stop>
      <stop stop-color="#ECBD00" offset="49.46%"></stop>
      <stop stop-color="#CC9900" offset="100%"></stop>
    </linearGradient>
    <linearGradient x1="-353.636173%" y1="49.9996849%" x2="456.639552%" y2="49.9996849%" id="linearGradient-4">
      <stop stop-color="#B8860B" offset="0%"></stop>
      <stop stop-color="#ECBD00" offset="49.46%"></stop>
      <stop stop-color="#CC9900" offset="100%"></stop>
    </linearGradient>
    <linearGradient x1="-644.668821%" y1="49.9991597%" x2="459.015254%" y2="49.9991597%" id="linearGradient-5">
      <stop stop-color="#B8860B" offset="0%"></stop>
      <stop stop-color="#ECBD00" offset="49.46%"></stop>
      <stop stop-color="#CC9900" offset="100%"></stop>
    </linearGradient>
    <linearGradient x1="-738.157847%" y1="49.9991601%" x2="328.707038%" y2="49.9991601%" id="linearGradient-6">
      <stop stop-color="#B8860B" offset="0%"></stop>
      <stop stop-color="#ECBD00" offset="49.46%"></stop>
      <stop stop-color="#CC9900" offset="100%"></stop>
    </linearGradient>
    <linearGradient x1="-650.044563%" y1="49.9996849%" x2="161.328996%" y2="49.9996849%" id="linearGradient-7">
      <stop stop-color="#B8860B" offset="0%"></stop>
      <stop stop-color="#ECBD00" offset="49.46%"></stop>
      <stop stop-color="#CC9900" offset="100%"></stop>
    </linearGradient>
    <linearGradient x1="35.995846%" y1="93.6183161%" x2="96.4341405%" y2="-32.4753066%" id="linearGradient-8">
      <stop stop-color="#B8860B" offset="0%"></stop>
      <stop stop-color="#ECBD00" offset="49.46%"></stop>
      <stop stop-color="#CC9900" offset="100%"></stop>
    </linearGradient>
    <linearGradient x1="35.8625097%" y1="74.3282643%" x2="62.284497%" y2="28.8517719%" id="linearGradient-9">
      <stop stop-color="#B8860B" offset="0%"></stop>
      <stop stop-color="#ECBD00" offset="49.46%"></stop>
      <stop stop-color="#CC9900" offset="100%"></stop>
    </linearGradient>
    <linearGradient x1="34.5458595%" y1="106.495712%" x2="54.1996964%" y2="34.6703151%" id="linearGradient-10">
      <stop stop-color="#B8860B" offset="0%"></stop>
      <stop stop-color="#ECBD00" offset="49.46%"></stop>
      <stop stop-color="#CC9900" offset="100%"></stop>
    </linearGradient>
    <linearGradient x1="-2.38727867e-05%" y1="49.9999056%" x2="99.9999045%" y2="49.9999056%" id="linearGradient-11">
      <stop stop-color="#B8860B" offset="0%"></stop>
      <stop stop-color="#ECBD00" offset="49.46%"></stop>
      <stop stop-color="#CC9900" offset="100%"></stop>
    </linearGradient>
    <linearGradient x1="-589.016226%" y1="49.9991603%" x2="1544.91196%" y2="49.9991603%" id="linearGradient-12">
      <stop stop-color="#B8860B" offset="0%"></stop>
      <stop stop-color="#ECBD00" offset="49.46%"></stop>
      <stop stop-color="#CC9900" offset="100%"></stop>
    </linearGradient>
    <linearGradient x1="-886.71934%" y1="49.9991603%" x2="1543.35841%" y2="49.9991603%" id="linearGradient-13">
      <stop stop-color="#B8860B" offset="0%"></stop>
      <stop stop-color="#ECBD00" offset="49.46%"></stop>
      <stop stop-color="#CC9900" offset="100%"></stop>
    </linearGradient>
    <linearGradient x1="-845.907958%" y1="49.9991603%" x2="1078.64355%" y2="49.9991603%" id="linearGradient-14">
      <stop stop-color="#B8860B" offset="0%"></stop>
      <stop stop-color="#ECBD00" offset="49.46%"></stop>
      <stop stop-color="#CC9900" offset="100%"></stop>
    </linearGradient>
    <linearGradient x1="-1423.40756%" y1="49.9991603%" x2="1249.98857%" y2="49.9991603%" id="linearGradient-15">
      <stop stop-color="#B8860B" offset="0%"></stop>
      <stop stop-color="#ECBD00" offset="49.46%"></stop>
      <stop stop-color="#CC9900" offset="100%"></stop>
    </linearGradient>
    <linearGradient x1="-1253.59468%" y1="49.9991603%" x2="853.151216%" y2="49.9991603%" id="linearGradient-16">
      <stop stop-color="#B8860B" offset="0%"></stop>
      <stop stop-color="#ECBD00" offset="49.46%"></stop>
      <stop stop-color="#CC9900" offset="100%"></stop>
    </linearGradient>
    <linearGradient x1="-1384.5069%" y1="49.9991603%" x2="665.431758%" y2="49.9991603%" id="linearGradient-17">
      <stop stop-color="#B8860B" offset="0%"></stop>
      <stop stop-color="#ECBD00" offset="49.46%"></stop>
      <stop stop-color="#CC9900" offset="100%"></stop>
    </linearGradient>
    <linearGradient x1="-74.3130528%" y1="50.0163854%" x2="611.878228%" y2="50.0163854%" id="linearGradient-18">
      <stop stop-color="#B8860B" offset="0%"></stop>
      <stop stop-color="#ECBD00" offset="49.46%"></stop>
      <stop stop-color="#CC9900" offset="100%"></stop>
    </linearGradient>
    <linearGradient x1="-510.02631%" y1="50.024566%" x2="176.165025%" y2="50.024566%" id="linearGradient-19">
      <stop stop-color="#B8860B" offset="0%"></stop>
      <stop stop-color="#ECBD00" offset="49.46%"></stop>
      <stop stop-color="#CC9900" offset="100%"></stop>
    </linearGradient>
  </defs>
  <g id="Page-1" stroke="none" stroke-width="1" fill="none" fill-rule="evenodd">
    <g id="Group" fill-rule="nonzero">
      <g transform="translate(0, 105.1518)">
        <path d="M0,14.389542 L0,0.000151136363 L6.27948804,0.000151136363 C9.63948006,0.000151136363 11.3202324,1.38168864 11.3202324,4.1446125 C11.3202324,7.0091 9.64235417,8.44187273 6.28886674,8.44187273 L2.88046857,8.44187273 L2.88046857,14.3896932 L0,14.3896932 L0,14.389542 Z M2.88046857,5.75527273 L6.91300356,5.75527273 C8.07127201,5.73653182 8.66666768,5.20876364 8.69888802,4.17257273 C8.66666768,3.22661023 8.0806507,2.73345227 6.94159344,2.69581932 L2.88046857,2.69581932 L2.88046857,5.75527273 L2.88046857,5.75527273 Z" id="Shape" fill="url(#linearGradient-1)"></path>
        <path d="M22.112384,8.11587159 L25.7029103,14.389542 L22.3997955,14.389542 L18.9531262,8.44172159 L16.3227057,8.44172159 L16.3227057,14.389542 L13.4417833,14.389542 L13.4417833,0.000151136363 L19.7214226,0.000151136363 C23.0817171,0.000151136363 24.7624695,1.38168864 24.7624695,4.1446125 C24.7626208,6.22258636 23.878906,7.54638977 22.112384,8.11587159 Z M16.3228569,5.75527273 L20.3550894,5.75527273 C21.5136604,5.73653182 22.1082997,5.20876364 22.1408226,4.17257273 C22.1082997,3.22661023 21.5231903,2.73345227 20.3836793,2.69581932 L16.3228569,2.69581932 L16.3228569,5.75527273 Z" id="Shape" fill="url(#linearGradient-2)"></path>
        <path d="M28.5354265,12.3222989 C27.1594816,10.9437841 26.4712067,9.23488523 26.4712067,7.19439318 C26.4712067,5.14815795 27.1596329,3.43789886 28.5354265,2.06210455 C29.9116739,0.687065909 31.6240415,0 33.6725294,0 C35.7210172,0 37.4333848,0.687065909 38.8096322,2.06210455 C40.1855771,3.43789886 40.8737008,5.14815795 40.8737008,7.19439318 C40.8737008,9.24138409 40.1855771,10.9516432 38.8096322,12.3266818 C37.4333848,13.7024761 35.7210172,14.3893909 33.6725294,14.3893909 C31.6240415,14.3893909 29.9116739,13.7003602 28.5354265,12.3222989 Z M33.6822106,11.7030932 C34.9555949,11.7030932 35.992848,11.2719011 36.7926084,10.4089125 C37.5932764,9.54516818 37.9933835,8.47361136 37.9933835,7.19454432 C37.9933835,5.91547727 37.5931251,4.84467614 36.7926084,3.98093182 C35.9929993,3.11779205 34.9493929,2.68599545 33.6631507,2.68599545 C32.38901,2.68599545 31.3520595,3.11779205 30.5521478,3.98093182 C29.7513285,4.84467614 29.351524,5.91547727 29.351524,7.19454432 C29.351524,8.47361136 29.7513285,9.54516818 30.5521478,10.4089125 C31.3520595,11.2719011 32.3956658,11.7030932 33.6822106,11.7030932 Z" id="Shape" fill="url(#linearGradient-3)"></path>
        <polygon id="Path" fill="url(#linearGradient-4)" points="43.0147654 14.389542 43.0147654 0.000151136363 43.9750224 0.000151136363 50.2162394 7.09857273 56.4665324 0.000151136363 57.427092 0.000151136363 57.427092 14.389542 54.5461696 14.389542 54.5364884 6.04364091 50.2162394 10.8398023 45.8956878 6.04364091 45.8956878 14.389542"></polygon>
        <polygon id="Path" fill="url(#linearGradient-5)" points="60.259457 14.389542 60.259457 0.00952159091 70.8402854 0.000151136363 70.8402854 2.68599545 63.1399255 2.68599545 63.1399255 5.75542386 68.9102414 5.75542386 68.9102414 8.43265341 63.1399255 8.43265341 63.1399255 11.7032443 70.820923 11.7032443 70.820923 14.3896932 60.259457 14.3896932"></polygon>
        <path d="M81.536381,0.479555682 C82.2724571,0.7996625 82.9601269,1.27921818 83.6006008,1.91867614 L81.6803893,3.83735227 C81.0402179,3.07018409 80.1439478,2.68584432 78.9921839,2.68584432 C77.839815,2.68584432 77.1032851,2.95773864 76.7839558,3.50137614 C76.4635676,4.04516477 76.4635676,4.5087 76.7839558,4.89228409 C77.1031338,5.27647273 77.8396637,5.56423636 78.9921839,5.75527273 C80.2082372,5.88373864 81.3120487,6.28304091 82.3043749,6.95499318 C83.2970035,7.62618977 83.7927128,8.69774659 83.7927128,10.1686057 C83.7927128,11.3201136 83.2631192,12.3115682 82.2036296,13.1422136 C81.1445937,13.9734636 79.9106906,14.389542 78.5026767,14.389542 C77.1647004,14.389542 76.0475772,14.19775 75.1516096,13.8141659 C74.2553394,13.4305818 73.4871943,12.9185318 72.8467204,12.2790739 L74.7673858,10.3605489 C75.4071033,11.1284727 76.4954854,11.575383 78.0317756,11.7030932 C79.3119671,11.7030932 80.1105173,11.4319545 80.4277289,10.888317 C80.7446379,10.3445284 80.7446379,9.80104205 80.4277289,9.25725341 C80.1105173,8.71361591 79.3119671,8.37763977 78.0317756,8.25008068 C76.8800117,8.12161477 75.8235475,7.770525 74.8634417,7.19454432 C73.9036385,6.61916818 73.4232074,5.62771364 73.4232074,4.2210875 C73.4232074,2.94836818 73.9688355,1.92668636 75.060243,1.15604205 C76.1514992,0.385095455 77.2736143,0.000302165285 78.4253781,0.000302165285 C79.7632032,0.000151136364 80.8000024,0.159448864 81.536381,0.479555682 Z" id="Path" fill="url(#linearGradient-6)"></path>
        <path d="M85.6071871,14.389542 L91.3682755,0.000151136363 L94.2487441,0.000151136363 L100,14.3801716 L96.9377058,14.389542 L96.0730509,12.1831023 L89.5439687,12.1831023 L88.6797676,14.389542 L85.6071871,14.389542 Z M92.885052,3.83750341 L90.6958838,9.3050125 L95.0167379,9.3050125 L92.885052,3.83750341 Z" id="Shape" fill="url(#linearGradient-7)"></path>
      </g>
      <g transform="translate(18.7353, 0)">
        <g transform="translate(15.4593, 6.8652)" id="Path">
          <polygon fill="url(#linearGradient-8)" points="11.8139752 82.0325864 21.6039681 82.0325864 21.6039681 55.683775 11.8139752 72.6284284"></polygon>
          <polygon fill="url(#linearGradient-9)" points="32.8953081 18.0053284 23.1053151 8.97372159 23.1053151 29.5063523 0 69.4832807 0 82.0325864 9.7901442 82.0325864 9.7901442 72.1287716 32.8953081 32.1247898 32.9043842 18.0183261"></polygon>
          <polygon fill="url(#linearGradient-10)" points="21.2437961 29.3130489 21.2437961 0 11.4318691 10.2024602 11.4538031 46.2575511"></polygon>
        </g>
        <path d="M63.3647116,96.0606102 L0,96.0606102 L0,0 L63.3647116,0 L63.3647116,96.0606102 Z M2.19506772,93.8671682 L61.1694926,93.8671682 L61.1694926,2.19329091 L2.19506772,2.19329091 L2.19506772,93.8671682 Z" id="Shape" fill="url(#linearGradient-11)"></path>
      </g>
      <g transform="translate(4.6946, 125.8005)">
        <g transform="translate(19.5871, 0)">
          <path d="M2.24665052,0 C3.20539487,0 3.92664653,0.164436364 4.4119182,0.491797727 C4.89643353,0.819914773 5.13906936,1.30793409 5.13906936,1.95691364 C5.13906936,2.44432841 5.00368341,2.84438636 4.73427292,3.15738977 C4.46425735,3.47024205 4.06157868,3.69528409 3.52623689,3.83145795 L5.47246673,7.19938068 L4.62520781,7.19938068 L2.74402373,3.92878977 L0.749085199,3.92878977 L0.749085199,7.19953182 L0,7.19953182 L0,0 L2.24665052,0 Z M2.35072375,0.579759091 L0.749387738,0.579759091 L0.749387738,3.36369091 L2.57505601,3.36369091 C3.14655114,3.36369091 3.58704712,3.24323523 3.89503126,3.00156818 C4.20316667,2.75929659 4.35731001,2.41470568 4.35731001,1.96688864 C4.35731001,1.49685455 4.19227529,1.147125 3.86250838,0.919967045 C3.53228766,0.692960227 3.0282586,0.579759091 2.35072375,0.579759091 Z" id="Shape" fill="url(#linearGradient-12)"></path>
          <polygon id="Path" fill="url(#linearGradient-13)" points="15.1834971 6.62052841 15.1834971 7.19953182 10.3779764 7.19953182 10.3779764 0 15.0142269 0 15.0142269 0.579759091 11.1273641 0.579759091 11.1273641 3.10116705 13.9408205 3.10116705 13.9408205 3.68092614 11.1273641 3.68092614 11.1273641 6.62052841 15.1834971 6.62052841"></polygon>
          <path d="M19.0945629,7.19953182 L21.6252971,0 L22.6312374,0 L25.1622741,7.19953182 L24.3920112,7.19953182 L23.5825695,4.83893295 L20.6302481,4.83893295 L19.8208065,7.19953182 L19.0945629,7.19953182 Z M20.8273519,4.25992955 L23.3913653,4.25992955 L22.1176784,0.463081818 L20.8273519,4.25992955 Z" id="Shape" fill="url(#linearGradient-14)"></path>
          <polygon id="Path" fill="url(#linearGradient-15)" points="29.9431379 7.19953182 29.9431379 0 30.6917693 0 30.6917693 6.62052841 34.3113393 6.62052841 34.3113393 7.19953182"></polygon>
          <polygon id="Path" fill="url(#linearGradient-16)" points="39.6487226 7.19953182 39.6487226 0.579759091 37.2539795 0.579759091 37.2539795 0 42.7969377 0 42.7969377 0.579759091 40.4032535 0.579759091 40.4032535 7.19953182"></polygon>
          <polygon id="Path" fill="url(#linearGradient-17)" points="49.1143943 7.19953182 49.1143943 4.25040795 46.6376633 0 47.4307679 0 49.4695745 3.45165227 51.5418116 0 52.3344623 0 49.863177 4.25040795 49.863177 7.19953182"></polygon>
        </g>
        <path d="M14.2649904,3.1537625 L17.0185441,3.13925341 L17.0185441,4.06163864 L14.2649904,4.04637386 C12.6805965,4.02264545 11.0966565,4.01236818 9.51029614,3.9683875 C6.34044954,3.89916705 3.17030041,3.79684773 0,3.59991705 C3.17030041,3.40525341 6.34044954,3.30353864 9.51029614,3.2335625 C11.0966565,3.19063977 12.6807478,3.18126932 14.2649904,3.1537625 Z" id="Path" fill="url(#linearGradient-18)"></path>
        <path d="M76.90603,3.04706023 L74.1518713,3.03179545 L74.1518713,3.95463409 L76.90603,3.93952045 C78.489365,3.91503636 80.0736076,3.90551477 81.6595142,3.86228977 C84.8298146,3.79155795 88.000115,3.68999432 91.1702641,3.49321477 C88.000115,3.29855114 84.8298146,3.19608068 81.6595142,3.12610455 C80.0736076,3.08318182 78.489365,3.07381136 76.90603,3.04706023 Z" id="Path" fill="url(#linearGradient-19)"></path>
      </g>
    </g>
  </g>
</svg>
