<svg width="100" height="35" viewBox="0 0 100 35" fill="none" xmlns="http://www.w3.org/2000/svg">
<mask id="mask0_1_2154" style="mask-type:luminance" maskUnits="userSpaceOnUse" x="4" y="0" width="96" height="19">
<path d="M25.8508 2.59648H27.9208C28.9163 2.59648 29.8711 2.99199 30.5751 3.69598C31.2791 4.39996 31.6746 5.35478 31.6746 6.35036C31.6746 7.34594 31.2791 8.30076 30.5751 9.00474C29.8711 9.70873 28.9163 10.1042 27.9208 10.1042H25.7983L25.8508 2.59648ZM23.553 0.263506V18.1382H25.8508V12.4372H27.9208L31.429 18.1382H34.2356L30.2712 12.0162C30.998 11.718 31.642 11.2486 32.1483 10.648C33.2923 9.50332 33.935 7.95116 33.935 6.3328C33.935 4.71445 33.2923 3.16233 32.1483 2.01764C31.17 1.04077 29.8904 0.422706 28.5171 0.263506H23.553ZM47.4092 0.263506L42.7431 8.35005L38.0597 0.263506H35.411L41.5855 10.9637V18.1382H43.9009V10.9637L50.0755 0.263506H47.4092ZM63.5122 0.263506V2.56142H67.6871V18.1382H70.02V2.56142H74.1598V0.316128L63.5122 0.263506ZM81.6148 5.29787L83.1234 9.50778H80.0888L81.6148 5.29787ZM80.9834 0.263506L74.4756 18.1382H77.0366L79.2995 11.8057H84.0531L86.3511 18.1382H88.8068L82.299 0.316128L80.9834 0.263506ZM90.9819 0.263506V18.1382H99.7525V15.8051H93.3501V0.316128L90.9819 0.263506ZM7.57282 2.7544C5.86324 4.46773 4.90308 6.78924 4.90308 9.20961C4.90308 11.63 5.86324 13.9515 7.57282 15.6648C8.41251 16.5288 9.41956 17.2125 10.5325 17.6739C11.6454 18.1354 12.8408 18.365 14.0455 18.3486C16.5782 18.2719 18.9842 17.2228 20.764 15.4192L19.0098 13.8756C17.6813 15.1828 15.9084 15.9408 14.0455 15.9981C13.1528 16.0149 12.2662 15.8493 11.4398 15.5115C10.6133 15.1737 9.86446 14.6708 9.23917 14.0335C8.59352 13.4081 8.0817 12.658 7.73492 11.8288C7.38814 10.9995 7.21359 10.1084 7.22187 9.20961C7.20872 8.31271 7.38114 7.42275 7.72828 6.59564C8.07542 5.76854 8.58984 5.0221 9.23917 4.40324C9.8621 3.76044 10.6097 3.25156 11.4361 2.90772C12.2626 2.56387 13.1504 2.39232 14.0455 2.40355C15.9084 2.46087 17.6813 3.21882 19.0098 4.52604L20.764 2.94733C18.9765 1.15964 16.5725 0.124012 14.0455 0.0530182C12.8388 0.0337325 11.6411 0.263665 10.5274 0.728485C9.4136 1.19331 8.40782 1.88303 7.57282 2.7544ZM53.8469 1.29844C53.4495 1.67149 53.1337 2.12284 52.9193 2.624C52.705 3.12516 52.5966 3.66526 52.6014 4.21031C52.5922 4.75643 52.6932 5.29879 52.8981 5.80508C53.1031 6.31138 53.4079 6.77122 53.7943 7.15725C54.6732 7.96458 55.7223 8.56407 56.864 8.91138C57.7036 9.23905 58.4676 9.73448 59.1093 10.3673C59.4215 10.6656 59.6683 11.0254 59.8344 11.4239C60.0004 11.8225 60.082 12.2511 60.074 12.6828C60.0823 13.1171 60.001 13.5485 59.835 13.9499C59.669 14.3514 59.422 14.7142 59.1093 15.0158C58.8142 15.326 58.4571 15.5707 58.0612 15.7339C57.6653 15.8971 57.2394 15.9752 56.8113 15.963C56.3811 15.9723 55.9536 15.8929 55.5553 15.73C55.1569 15.567 54.7964 15.3239 54.496 15.0158C53.8441 14.2307 53.4791 13.247 53.4611 12.2267L51.2157 13.0161C51.355 14.3738 51.9339 15.6488 52.8645 16.6471C53.3787 17.1695 53.9918 17.5844 54.6679 17.8676C55.344 18.1508 56.0695 18.2967 56.8026 18.2967C57.5356 18.2967 58.2613 18.1508 58.9374 17.8676C59.6135 17.5844 60.2264 17.1695 60.7406 16.6471C61.2635 16.1314 61.6788 15.517 61.9622 14.8394C62.2456 14.1619 62.3917 13.4348 62.3917 12.7003C62.3917 11.9659 62.2456 11.2388 61.9622 10.5612C61.6788 9.88369 61.2635 9.26921 60.7406 8.75352C59.7597 7.76919 58.5564 7.0352 57.2323 6.61347C56.5874 6.35066 55.9937 5.9766 55.4782 5.50836C55.2961 5.33528 55.1534 5.12512 55.0595 4.8921C54.9657 4.65907 54.9231 4.40864 54.9345 4.15769C54.9282 3.91257 54.9732 3.66884 55.0668 3.44224C55.1605 3.21563 55.3006 3.01119 55.4782 2.84209C55.8299 2.49181 56.3061 2.29515 56.8026 2.29515C57.299 2.29515 57.7752 2.49181 58.1269 2.84209C58.443 3.24464 58.681 3.70272 58.8286 4.19275L60.9162 3.36831C60.7165 2.56373 60.3184 1.822 59.7584 1.21075C59.3714 0.824379 58.9118 0.518465 58.4059 0.310721C57.9001 0.102978 57.3581 -0.00248236 56.8113 0.000396303C56.2581 -0.00737576 55.7093 0.0992439 55.1992 0.313558C54.689 0.527873 54.2287 0.845245 53.8469 1.24582" fill="white"/>
</mask>
<g mask="url(#mask0_1_2154)">
<path d="M19.5086 -32.03L2.02954 14.9138L91.5641 48.2512L109.043 1.30738L19.5086 -32.03Z" fill="#8F8183"/>
</g>
<mask id="mask1_1_2154" style="mask-type:luminance" maskUnits="userSpaceOnUse" x="4" y="22" width="96" height="13">
<path d="M99.9628 22.8044H4.60803V34.6097H99.9628V22.8044Z" fill="white"/>
</mask>
<g mask="url(#mask1_1_2154)">
<path d="M15.9218 -8.2025L0.69104 33.1267L88.4684 65.4747L103.699 24.1455L15.9218 -8.2025Z" fill="#8F8183"/>
</g>
<path d="M10.9758 29.6824V31.4015H9.60754V26.4373H13.4491V27.6301H10.9758V28.6299H13.1158V29.6824H10.9758Z" fill="#ECEAEA"/>
<path d="M19.2902 28.891C19.336 29.4466 19.2133 30.0031 18.9379 30.4879C18.6626 30.9726 18.2476 31.3631 17.7469 31.6082C17.2463 31.8534 16.6833 31.9418 16.1316 31.8621C15.5798 31.7823 15.0648 31.5379 14.6541 31.161C14.2433 30.7841 13.9558 30.292 13.829 29.7491C13.7023 29.2063 13.7422 28.6378 13.9436 28.1179C14.145 27.5981 14.4985 27.151 14.9579 26.8352C15.4173 26.5193 15.9612 26.3494 16.5187 26.3475C16.8697 26.3237 17.2218 26.3715 17.5538 26.4879C17.8858 26.6044 18.1907 26.7871 18.4499 27.025C18.7091 27.2628 18.9172 27.5509 19.0617 27.8717C19.2061 28.1925 19.2838 28.5393 19.2902 28.891ZM15.2207 28.891C15.2207 29.1478 15.2969 29.3987 15.4395 29.6122C15.5821 29.8256 15.7847 29.992 16.0219 30.0903C16.2591 30.1885 16.5202 30.2142 16.772 30.1641C17.0238 30.114 17.2551 29.9904 17.4367 29.8089C17.6182 29.6274 17.7418 29.396 17.7919 29.1442C17.842 28.8924 17.8163 28.6314 17.718 28.3943C17.6198 28.1571 17.4534 27.9544 17.2399 27.8117C17.0264 27.6691 16.7754 27.5929 16.5187 27.5929C16.3463 27.5855 16.1742 27.614 16.0134 27.6766C15.8525 27.7391 15.7063 27.8345 15.5842 27.9566C15.4622 28.0786 15.3668 28.2247 15.3042 28.3856C15.2416 28.5464 15.2132 28.7186 15.2207 28.891Z" fill="#ECEAEA"/>
<path d="M19.957 26.4373H22.0446C23.5005 26.4373 24.1494 27.1389 24.1494 28.1914C24.1656 28.4677 24.1055 28.7432 23.9756 28.9876C23.8456 29.232 23.651 29.436 23.4128 29.5771L24.4828 31.4365H22.9567L22.0094 29.8227H21.3253V31.4365H19.957V26.4373ZM21.9743 28.8053C22.5532 28.8053 22.7987 28.6124 22.7987 28.1738C22.7987 27.7353 22.6234 27.5774 22.0094 27.5774H21.3253V28.8053H21.9743Z" fill="#ECEAEA"/>
<path d="M24.4121 26.4373H25.9558L26.6575 28.4019C26.6575 28.6124 26.9031 29.4894 26.9031 29.4894C26.9031 29.4894 27.0959 28.6825 27.1836 28.472L27.9204 26.6302H28.9553L29.657 28.5071C29.657 28.7176 29.9377 29.5245 29.9377 29.5245C29.9377 29.5245 30.1307 28.6474 30.2008 28.4369L30.9023 26.4723H32.446L30.6918 31.4365H29.3938L28.6748 29.4719C28.6748 29.2438 28.4467 28.5773 28.4467 28.5773C28.4467 28.5773 28.2888 29.2614 28.2187 29.4719L27.4818 31.4365H26.1662L24.4121 26.4373Z" fill="#ECEAEA"/>
<path d="M35.7614 26.4373L37.7963 31.4014H36.2702L35.8668 30.4191H33.9897L33.6214 31.4014H32.0778L34.1126 26.4373H35.7614ZM34.3231 29.4193H35.5509L35.3053 28.8053C35.1825 28.5071 34.9546 27.7353 34.9546 27.7353C34.9546 27.7353 34.7091 28.5071 34.6038 28.8053L34.3231 29.4193Z" fill="#ECEAEA"/>
<path d="M38.3223 26.4373H40.4096C41.8655 26.4373 42.5145 27.1389 42.5145 28.1914C42.5309 28.4698 42.469 28.7472 42.3357 28.9922C42.2023 29.2371 42.0031 29.4398 41.7603 29.5771L42.8479 31.4365H41.3218L40.3569 29.8227H39.6903V31.4365H38.3223V26.4373ZM40.3394 28.8053C40.9182 28.8053 41.164 28.6124 41.164 28.1738C41.164 27.7353 40.9884 27.5774 40.3745 27.5774H39.6903V28.8053H40.3394Z" fill="#ECEAEA"/>
<path d="M45.0589 26.4373C47.2516 26.4373 48.0759 27.5248 48.0759 28.9105C48.0759 30.577 47.0762 31.4014 45.3396 31.4014H43.3574V26.4373H45.0589ZM44.7255 30.1911H45.3745C46.2691 30.1911 46.6901 29.8052 46.6901 28.9105C46.6901 28.0159 46.3219 27.6476 45.2694 27.6476H44.7255V30.1911Z" fill="#ECEAEA"/>
<path d="M49.3562 30.2419C49.4506 30.2417 49.5441 30.261 49.6307 30.2986C49.7173 30.3362 49.7953 30.3914 49.8596 30.4606C49.9239 30.5298 49.973 30.6115 50.0041 30.7007C50.0353 30.7899 50.0476 30.8845 50.0403 30.9787C50.0309 31.3281 49.9174 31.6667 49.7142 31.9511C49.5111 32.2355 49.2276 32.4528 48.9001 32.575L48.5845 32.1715C48.8372 31.9794 49.0364 31.7257 49.1633 31.4347L48.8301 31.3295C48.725 31.2079 48.6686 31.0517 48.6721 30.891C48.6717 30.8034 48.6898 30.7168 48.7247 30.6365C48.7597 30.5563 48.8109 30.4841 48.8753 30.4248C48.9396 30.3654 49.0156 30.32 49.0984 30.2916C49.1812 30.2631 49.2689 30.2522 49.3562 30.2595" fill="#ECEAEA"/>
<path d="M53.9345 27.6301H52.2505V26.4373H57.0042V27.6301H55.3202V31.4015H53.9345V27.6301Z" fill="#ECEAEA"/>
<path d="M62.7932 28.8924C62.7932 29.6228 62.503 30.3233 61.9865 30.8398C61.4701 31.3562 60.7697 31.6464 60.0393 31.6464C59.3089 31.6464 58.6083 31.3562 58.0918 30.8398C57.5753 30.3233 57.2852 29.6228 57.2852 28.8924C57.2852 28.162 57.5753 27.4615 58.0918 26.945C58.6083 26.4286 59.3089 26.1384 60.0393 26.1384C60.7697 26.1384 61.4701 26.4286 61.9865 26.945C62.503 27.4615 62.7932 28.162 62.7932 28.8924ZM58.741 28.8924C58.741 29.1492 58.8172 29.4001 58.9599 29.6136C59.1025 29.827 59.3053 29.9934 59.5425 30.0917C59.7797 30.1899 60.0406 30.2156 60.2924 30.1655C60.5442 30.1154 60.7755 29.9918 60.957 29.8103C61.1386 29.6288 61.2622 29.3974 61.3123 29.1456C61.3623 28.8938 61.3366 28.6328 61.2384 28.3957C61.1401 28.1585 60.9737 27.9558 60.7602 27.8131C60.5468 27.6705 60.296 27.5943 60.0393 27.5943C59.8668 27.5869 59.6946 27.6154 59.5337 27.678C59.3729 27.7406 59.2269 27.8359 59.1048 27.958C58.9828 28.08 58.8873 28.2261 58.8247 28.387C58.7621 28.5478 58.7336 28.72 58.741 28.8924Z" fill="#ECEAEA"/>
<path d="M64.5999 28.9788C64.5801 29.1453 64.5958 29.3142 64.6457 29.4743C64.6956 29.6344 64.7787 29.7821 64.8896 29.9079C65.0005 30.0337 65.1366 30.1348 65.2891 30.2044C65.4417 30.274 65.6073 30.3106 65.775 30.3119C66.1157 30.3251 66.4506 30.2197 66.7223 30.0137V29.6629H65.8979V28.6806H68.0906V31.3995H67.196L66.9679 30.9259C66.8112 31.1198 66.6093 31.2724 66.3799 31.3702C66.1506 31.4681 65.9008 31.5082 65.6523 31.4872C65.324 31.4977 64.9971 31.4394 64.6928 31.3159C64.3885 31.1924 64.1134 31.0065 63.8853 30.7701C63.6572 30.5338 63.4812 30.2523 63.3686 29.9437C63.256 29.6352 63.2094 29.3065 63.2316 28.9788C63.2234 28.6205 63.2901 28.2644 63.4273 27.9333C63.5645 27.6022 63.769 27.3033 64.0281 27.0557C64.2873 26.8081 64.5952 26.6173 64.9322 26.4954C65.2692 26.3734 65.6279 26.3231 65.9855 26.3476C66.6873 26.313 67.3817 26.5036 67.9677 26.8913L67.6345 27.9965C67.1774 27.7091 66.6483 27.5571 66.1084 27.5579C65.9149 27.54 65.7198 27.564 65.5365 27.6283C65.3531 27.6926 65.1858 27.7957 65.0459 27.9306C64.906 28.0654 64.7969 28.2289 64.726 28.4098C64.6551 28.5907 64.6241 28.7848 64.635 28.9788" fill="#ECEAEA"/>
<path d="M70.3708 29.3842V30.2086H72.9669V31.4015H69.0026V26.4373H72.8441V27.6125H70.3708V28.3668H72.5108V29.3842H70.3708Z" fill="#ECEAEA"/>
<path d="M74.914 27.6301H73.23V26.4373H77.9837V27.6301H76.2822V31.4015H74.914V27.6301Z" fill="#ECEAEA"/>
<path d="M79.9131 26.4373V28.244H81.8251V26.4373H83.2109V31.4015H81.8251V29.4544H79.9131V31.4015H78.5449V26.4373H79.9131Z" fill="#ECEAEA"/>
<path d="M85.544 29.3842V30.2086H88.1401V31.4015H84.1582V26.4373H88.0173V27.6125H85.544V28.3668H87.684V29.3842H85.544Z" fill="#ECEAEA"/>
<path d="M88.8066 26.4373H90.8942C92.3501 26.4373 92.9991 27.1389 92.9991 28.1914C93.0152 28.4677 92.9551 28.7432 92.8252 28.9876C92.6952 29.232 92.5006 29.436 92.2625 29.5771L93.3324 31.4365H91.8064L90.8591 29.8227H90.1749V31.4365H88.8066V26.4373ZM90.8239 28.8053C91.4028 28.8053 91.6483 28.6124 91.6483 28.1738C91.6483 27.7353 91.473 27.5774 90.8591 27.5774H90.1749V28.8053H90.8239Z" fill="#ECEAEA"/>
<path d="M94.4199 30.2421C94.5374 30.2556 94.6485 30.3027 94.7398 30.3779C94.8311 30.453 94.8987 30.5529 94.9346 30.6656C94.9705 30.7783 94.9732 30.899 94.9421 31.0131C94.9111 31.1272 94.8477 31.2299 94.7597 31.3089C94.6717 31.3879 94.5628 31.4398 94.446 31.4584C94.3292 31.4769 94.2094 31.4613 94.1012 31.4134C93.9931 31.3656 93.901 31.2876 93.8362 31.1887C93.7713 31.0898 93.7365 30.9743 93.7357 30.856C93.7352 30.7691 93.753 30.6831 93.7882 30.6037C93.8233 30.5242 93.8749 30.4531 93.9396 30.3951C94.0042 30.337 94.0806 30.2934 94.1633 30.267C94.2461 30.2406 94.3336 30.2321 94.4199 30.2421Z" fill="#8F8183"/>
</svg>
