<svg width="95" height="73" viewBox="0 0 95 73" fill="none" xmlns="http://www.w3.org/2000/svg">
<path fill-rule="evenodd" clip-rule="evenodd" d="M60.518 19.4709L60.5355 13.349L47.1865 0V6.12192L60.518 19.4709Z" fill="#8F8183"/>
<path fill-rule="evenodd" clip-rule="evenodd" d="M47.1864 26.6986L33.8374 13.3496V19.4715L47.1864 32.8205V26.6986Z" fill="#8F8183"/>
<path fill-rule="evenodd" clip-rule="evenodd" d="M47.1864 0L33.8374 13.349L36.8896 16.4187L47.1864 6.12192V0Z" fill="#8F8183"/>
<path fill-rule="evenodd" clip-rule="evenodd" d="M47.1865 19.4715L60.5355 32.8205V26.6986L47.1865 13.3496V19.4715Z" fill="#8F8183"/>
<path fill-rule="evenodd" clip-rule="evenodd" d="M33.8374 26.6973V32.8192L47.1864 46.1682V40.0462L33.8374 26.6973Z" fill="#8F8183"/>
<path fill-rule="evenodd" clip-rule="evenodd" d="M47.1865 46.1682L60.5355 32.8192V26.6973L47.1865 40.0462V46.1682Z" fill="#8F8183"/>
<path fill-rule="evenodd" clip-rule="evenodd" d="M13.0859 65.6562H15.6996V66.2H13.6823V67.6209H15.6996V68.1471H13.6823V70.0416H15.6996V70.5854H13.0859V65.6562Z" fill="#8F8183"/>
<path fill-rule="evenodd" clip-rule="evenodd" d="M16.6289 67.5151H17.1377V67.9887C17.2612 67.8058 17.4286 67.6569 17.6248 67.5557C17.821 67.4546 18.0395 67.4044 18.2601 67.4099C18.4105 67.3916 18.5633 67.4066 18.7072 67.4538C18.8512 67.501 18.9829 67.5792 19.0933 67.6829C19.2037 67.7867 19.2901 67.9134 19.3462 68.0541C19.4023 68.1949 19.4267 68.3462 19.4179 68.4974V70.6024H18.8918V68.8482C18.8918 68.2343 18.6285 67.9361 18.0848 67.9361C17.942 67.9312 17.8002 67.9586 17.6696 68.0163C17.539 68.074 17.4231 68.1606 17.3306 68.2694C17.1765 68.5083 17.114 68.7949 17.155 69.0763V70.6725H16.6289V67.5151Z" fill="#8F8183"/>
<path fill-rule="evenodd" clip-rule="evenodd" d="M19.9619 67.5156H20.5583L21.4705 69.6557L22.4002 67.5156H22.9966L21.488 70.7783L19.9619 67.5156Z" fill="#8F8183"/>
<path fill-rule="evenodd" clip-rule="evenodd" d="M23.8394 65.6567C23.8901 65.6567 23.9404 65.6666 23.9872 65.686C24.034 65.7054 24.0764 65.7339 24.1122 65.7697C24.1481 65.8055 24.1766 65.8481 24.1959 65.8949C24.2153 65.9417 24.2253 65.9919 24.2253 66.0426C24.2253 66.0925 24.2153 66.1419 24.1957 66.1877C24.1761 66.2336 24.1475 66.275 24.1114 66.3095C24.0753 66.3439 24.0326 66.3707 23.9859 66.3881C23.9392 66.4055 23.8893 66.4133 23.8394 66.411C23.7896 66.4133 23.7397 66.4055 23.693 66.3881C23.6462 66.3707 23.6036 66.3439 23.5675 66.3095C23.5314 66.275 23.5027 66.2336 23.4831 66.1877C23.4635 66.1419 23.4535 66.0925 23.4536 66.0426C23.4511 65.9913 23.4593 65.9399 23.4778 65.892C23.4963 65.844 23.5247 65.8005 23.5611 65.7641C23.5974 65.7278 23.6409 65.6994 23.6889 65.6809C23.7369 65.6624 23.7881 65.6542 23.8394 65.6567ZM23.5763 67.5161H24.1026V70.6033H23.5763V67.5161Z" fill="#8F8183"/>
<path fill-rule="evenodd" clip-rule="evenodd" d="M25.3477 69.7783C25.4165 69.9287 25.5281 70.0554 25.6685 70.1427C25.8089 70.2301 25.9719 70.2742 26.1372 70.2695C26.488 70.2695 26.716 70.0765 26.716 69.8134C26.716 69.5503 26.5581 69.445 26.2423 69.3398C25.4705 69.0767 25.0321 68.9363 25.0321 68.3399C25.0359 68.2052 25.0677 68.0727 25.1259 67.9511C25.184 67.8294 25.2671 67.7213 25.3696 67.6337C25.472 67.5461 25.5917 67.481 25.7209 67.4425C25.8501 67.404 25.9859 67.393 26.1196 67.4102C26.3424 67.3858 26.5671 67.4319 26.7622 67.5421C26.9574 67.6522 27.113 67.8209 27.2072 68.0242L26.7862 68.2873C26.7308 68.1493 26.6329 68.0324 26.5068 67.9536C26.3807 67.8748 26.2329 67.8381 26.0845 67.8488C26.0195 67.8415 25.9537 67.8477 25.8912 67.8671C25.8287 67.8865 25.7708 67.9187 25.7214 67.9615C25.6719 68.0044 25.6319 68.057 25.6038 68.1161C25.5757 68.1752 25.5602 68.2394 25.5582 68.3048C25.5582 68.6381 25.839 68.6732 26.3477 68.8311C26.8564 68.989 27.2421 69.2521 27.2421 69.7432C27.2407 69.884 27.2097 70.023 27.1509 70.151C27.0921 70.2789 27.0068 70.393 26.9008 70.4857C26.7948 70.5784 26.6705 70.6477 26.5359 70.6891C26.4013 70.7304 26.2594 70.7428 26.1196 70.7255C25.8768 70.7456 25.6331 70.6951 25.4184 70.5799C25.2036 70.4648 25.0268 70.2899 24.9092 70.0765L25.3477 69.7783Z" fill="#8F8183"/>
<path fill-rule="evenodd" clip-rule="evenodd" d="M28.3294 65.6562C28.3801 65.6562 28.4301 65.6662 28.4769 65.6856C28.5237 65.705 28.5663 65.7334 28.6022 65.7693C28.638 65.8051 28.6665 65.8476 28.6859 65.8945C28.7053 65.9413 28.7152 65.9915 28.7152 66.0422C28.7152 66.1185 28.6926 66.1931 28.6501 66.2566C28.6077 66.32 28.5474 66.3695 28.4769 66.3987C28.4064 66.4279 28.3289 66.4355 28.254 66.4206C28.1792 66.4057 28.1103 66.369 28.0564 66.315C28.0024 66.261 27.9657 66.1923 27.9508 66.1174C27.9359 66.0426 27.9434 65.965 27.9726 65.8945C28.0019 65.824 28.0514 65.7637 28.1148 65.7213C28.1783 65.6789 28.2531 65.6562 28.3294 65.6562ZM28.0662 67.5156H28.5923V70.6029H28.0662V67.5156Z" fill="#8F8183"/>
<path fill-rule="evenodd" clip-rule="evenodd" d="M29.9434 67.8841C30.1004 67.7295 30.2869 67.6079 30.4918 67.5266C30.6966 67.4452 30.9159 67.4057 31.1363 67.4105C31.5818 67.4168 32.0082 67.5924 32.329 67.9017C32.4826 68.0522 32.6041 68.2326 32.6855 68.4317C32.7669 68.6308 32.8067 68.8444 32.8026 69.0594C32.8071 69.2772 32.7673 69.4935 32.6859 69.6955C32.6045 69.8975 32.4831 70.0809 32.329 70.2347C32.0082 70.544 31.5818 70.7196 31.1363 70.7258C30.6907 70.7196 30.2642 70.544 29.9434 70.2347C29.7869 70.0817 29.6627 69.8989 29.5783 69.697C29.4939 69.495 29.451 69.2783 29.4522 69.0594C29.4628 68.62 29.6382 68.2005 29.9434 67.8841ZM31.1363 70.2347C31.3707 70.2452 31.6028 70.1853 31.8029 70.0627C32.0029 69.9401 32.1617 69.7605 32.2587 69.5468C32.3558 69.3332 32.3868 69.0954 32.3476 68.8641C32.3084 68.6328 32.2007 68.4185 32.0386 68.2488C31.8765 68.0791 31.6675 67.9619 31.4382 67.9121C31.2089 67.8623 30.97 67.8823 30.7521 67.9695C30.5343 68.0567 30.3476 68.2071 30.216 68.4013C30.0843 68.5956 30.0138 68.8248 30.0136 69.0594C30.0089 69.2106 30.0345 69.3612 30.0886 69.5025C30.1427 69.6437 30.2243 69.7728 30.3288 69.8822C30.4333 69.9916 30.5585 70.0791 30.6971 70.1396C30.8357 70.2001 30.985 70.2324 31.1363 70.2347Z" fill="#8F8183"/>
<path fill-rule="evenodd" clip-rule="evenodd" d="M33.6265 67.5151H34.1528V67.9887C34.2739 67.8034 34.441 67.6527 34.6378 67.5512C34.8346 67.4498 35.0543 67.4011 35.2755 67.4099C35.4259 67.3916 35.5784 67.4066 35.7223 67.4538C35.8663 67.501 35.9982 67.5792 36.1086 67.6829C36.2191 67.7867 36.3052 67.9134 36.3613 68.0541C36.4174 68.1949 36.4421 68.3462 36.4333 68.4974V70.6024H35.8894V68.8482C35.8894 68.2343 35.6263 67.9361 35.0825 67.9361C34.9398 67.9312 34.7977 67.9586 34.6671 68.0163C34.5365 68.074 34.4206 68.1606 34.3282 68.2694C34.174 68.5083 34.1117 68.7949 34.1528 69.0763V70.6725H33.6265V67.5151Z" fill="#8F8183"/>
<path fill-rule="evenodd" clip-rule="evenodd" d="M37.7662 65.6567C37.8169 65.6567 37.8671 65.6666 37.9139 65.686C37.9607 65.7054 38.0034 65.7339 38.0392 65.7697C38.075 65.8055 38.1035 65.8481 38.1229 65.8949C38.1423 65.9417 38.1522 65.9919 38.1522 66.0426C38.1523 66.0925 38.1421 66.1419 38.1225 66.1877C38.1029 66.2336 38.0742 66.275 38.0381 66.3095C38.002 66.3439 37.9594 66.3707 37.9126 66.3881C37.8659 66.4055 37.816 66.4133 37.7662 66.411C37.7163 66.4133 37.6667 66.4055 37.6199 66.3881C37.5732 66.3707 37.5305 66.3439 37.4944 66.3095C37.4584 66.275 37.4297 66.2336 37.4101 66.1877C37.3905 66.1419 37.3803 66.0925 37.3803 66.0426C37.3778 65.9913 37.3862 65.9399 37.4047 65.892C37.4232 65.844 37.4515 65.8005 37.4878 65.7641C37.5242 65.7278 37.5677 65.6994 37.6156 65.6809C37.6636 65.6624 37.7148 65.6542 37.7662 65.6567ZM37.5032 67.5161H38.0293V70.6033H37.5032V67.5161Z" fill="#8F8183"/>
<path fill-rule="evenodd" clip-rule="evenodd" d="M39.1347 67.5151H39.6611V67.9887C39.7822 67.8034 39.9493 67.6527 40.1461 67.5512C40.3428 67.4498 40.5625 67.4011 40.7837 67.4099C40.9341 67.3916 41.0867 67.4066 41.2306 67.4538C41.3746 67.501 41.5065 67.5792 41.6169 67.6829C41.7273 67.7867 41.8135 67.9134 41.8696 68.0541C41.9257 68.1949 41.9501 68.3462 41.9413 68.4974V70.6024H41.3801V68.8482C41.3801 68.2343 41.117 67.9361 40.5733 67.9361C40.4305 67.9312 40.2885 67.9586 40.1578 68.0163C40.0272 68.074 39.9114 68.1606 39.8189 68.2694C39.6647 68.5083 39.6025 68.7949 39.6435 69.0763V70.6725H39.1172L39.1347 67.5151Z" fill="#8F8183"/>
<path fill-rule="evenodd" clip-rule="evenodd" d="M45.8532 70.5513C45.8825 70.7433 45.871 70.9394 45.8196 71.1268C45.7682 71.3142 45.6781 71.4886 45.555 71.6389C45.3917 71.8001 45.1966 71.9255 44.9822 72.0071C44.7677 72.0886 44.5387 72.1245 44.3096 72.1125C43.3624 72.1125 42.8359 71.6388 42.8184 70.8846H43.3974C43.3974 71.3406 43.7307 71.6038 44.3096 71.6038C44.4812 71.6227 44.6546 71.5953 44.8119 71.5243C44.9693 71.4534 45.1048 71.3415 45.2042 71.2004C45.3116 70.9831 45.3542 70.7395 45.3269 70.4987V69.9724C45.2268 70.1798 45.0698 70.3542 44.874 70.4754C44.6783 70.5966 44.452 70.6594 44.2218 70.6566C44.0126 70.6581 43.8056 70.615 43.6143 70.5302C43.4231 70.4454 43.252 70.3209 43.1126 70.1649C42.9732 70.009 42.8686 69.8251 42.8058 69.6255C42.743 69.426 42.7235 69.2154 42.7484 69.0077C42.7207 68.8033 42.7372 68.5952 42.797 68.3978C42.8568 68.2004 42.9584 68.0181 43.0948 67.8634C43.2313 67.7086 43.3994 67.5851 43.5878 67.501C43.7762 67.417 43.9804 67.3744 44.1867 67.3763C44.4232 67.3643 44.6579 67.4229 44.861 67.5448C45.064 67.6666 45.2262 67.8461 45.3269 68.0604V67.4815H45.8532V70.5513ZM44.3096 67.9201C43.6781 67.9201 43.3096 68.3235 43.3096 69.0252C43.3096 69.7268 43.6781 70.1829 44.3272 70.1829C44.4695 70.1896 44.6114 70.1648 44.743 70.1101C44.8746 70.0554 44.9924 69.9722 45.0879 69.8665C45.1835 69.7608 45.2546 69.6353 45.2959 69.4989C45.3372 69.3626 45.3478 69.2188 45.3269 69.0778C45.3442 68.9334 45.3308 68.787 45.2877 68.6482C45.2446 68.5093 45.1726 68.3811 45.0766 68.2718C44.9806 68.1626 44.8628 68.0748 44.7306 68.0142C44.5984 67.9536 44.455 67.9215 44.3096 67.9201Z" fill="#8F8183"/>
<path fill-rule="evenodd" clip-rule="evenodd" d="M49.0107 65.6562H49.5896V70.0416H51.449V70.5854H49.0107V65.6562Z" fill="#8F8183"/>
<path fill-rule="evenodd" clip-rule="evenodd" d="M54.8346 70.6039H54.3258V70.0426C54.2228 70.2513 54.0625 70.4265 53.8637 70.5476C53.665 70.6687 53.4359 70.7308 53.2032 70.7267C52.9932 70.7257 52.7859 70.6804 52.5946 70.5936C52.4033 70.5069 52.2324 70.3807 52.0933 70.2234C51.9542 70.0661 51.85 69.8811 51.7873 69.6807C51.7247 69.4803 51.705 69.2689 51.7297 69.0603C51.705 68.8541 51.7241 68.6449 51.7858 68.4466C51.8476 68.2483 51.9507 68.0653 52.0882 67.9096C52.2257 67.7539 52.3945 67.629 52.5837 67.5432C52.7728 67.4573 52.9779 67.4124 53.1856 67.4114C53.4196 67.4006 53.6515 67.4599 53.8515 67.5818C54.0516 67.7037 54.2106 67.8826 54.3083 68.0955V67.5167H54.8346V70.6039ZM53.2909 67.9376C52.6595 67.9376 52.291 68.3411 52.291 69.0427C52.291 69.7444 52.6595 70.2005 53.3261 70.2005C53.4684 70.2072 53.6103 70.1823 53.7419 70.1276C53.8735 70.0729 53.9913 69.9897 54.0869 69.8841C54.1825 69.7784 54.2535 69.6529 54.2948 69.5165C54.3361 69.3801 54.3467 69.2363 54.3258 69.0954C54.3433 68.9495 54.3295 68.8016 54.2854 68.6615C54.2412 68.5214 54.1676 68.3923 54.0697 68.2828C53.9718 68.1733 53.8518 68.0858 53.7175 68.0263C53.5832 67.9668 53.4378 67.9366 53.2909 67.9376Z" fill="#8F8183"/>
<path fill-rule="evenodd" clip-rule="evenodd" d="M55.8872 67.5151H56.4133V67.9887C56.5344 67.8034 56.7016 67.6527 56.8983 67.5512C57.0951 67.4498 57.3148 67.4011 57.536 67.4099C57.6864 67.3916 57.8389 67.4066 57.9829 67.4538C58.1268 67.501 58.2587 67.5792 58.3692 67.6829C58.4796 67.7867 58.566 67.9134 58.622 68.0541C58.6781 68.1949 58.7026 68.3462 58.6938 68.4974V70.6024H58.1501V68.8482C58.1501 68.2343 57.8868 67.9361 57.3431 67.9361C57.2003 67.9312 57.0585 67.9586 56.9279 68.0163C56.7973 68.074 56.6814 68.1606 56.5889 68.2694C56.4348 68.5083 56.3723 68.7949 56.4133 69.0763V70.6725H55.8872V67.5151Z" fill="#8F8183"/>
<path fill-rule="evenodd" clip-rule="evenodd" d="M62.6051 70.604H62.0965V70.0427C61.9902 70.2488 61.8292 70.4217 61.6312 70.5423C61.4332 70.663 61.2057 70.7268 60.9738 70.7268C60.7638 70.7258 60.5563 70.6805 60.3651 70.5937C60.1738 70.507 60.0031 70.3808 59.864 70.2235C59.7249 70.0662 59.6205 69.8812 59.5578 69.6808C59.4951 69.4804 59.4755 69.269 59.5002 69.0604C59.4755 68.8542 59.4947 68.645 59.5565 68.4467C59.6183 68.2484 59.7212 68.0654 59.8587 67.9097C59.9961 67.754 60.165 67.6291 60.3541 67.5433C60.5433 67.4574 60.7486 67.4125 60.9563 67.4115C61.1898 67.403 61.4207 67.4633 61.6203 67.585C61.8199 67.7066 61.9794 67.8841 62.0789 68.0956V65.3767H62.6051V70.604ZM61.0439 67.9377C60.9055 67.9314 60.7676 67.9555 60.6396 68.0083C60.5116 68.0612 60.3966 68.1414 60.303 68.2434C60.2093 68.3454 60.1391 68.4667 60.0974 68.5988C60.0557 68.7309 60.0436 68.8705 60.0616 69.0078C60.0616 69.7796 60.4475 70.2181 61.0614 70.2181C61.2083 70.2248 61.355 70.1989 61.4907 70.1424C61.6265 70.0859 61.748 70.0002 61.8468 69.8913C61.9457 69.7824 62.0193 69.6531 62.0625 69.5125C62.1056 69.3719 62.1173 69.2235 62.0965 69.0779C62.1115 68.9319 62.0951 68.7845 62.0488 68.6453C62.0024 68.506 61.9269 68.3783 61.8273 68.2704C61.7278 68.1626 61.6065 68.0772 61.4715 68.0199C61.3364 67.9625 61.1906 67.9345 61.0439 67.9377Z" fill="#8F8183"/>
<path fill-rule="evenodd" clip-rule="evenodd" d="M67.955 68.781C67.955 68.1671 67.7093 67.8688 67.2006 67.8688C67.0677 67.8672 66.9362 67.8946 66.815 67.9491C66.6938 68.0037 66.5858 68.0841 66.4989 68.1846C66.354 68.4337 66.2926 68.7226 66.3236 69.0091V70.6053H65.815V68.8511C65.815 68.2372 65.5693 67.939 65.0606 67.939C64.9255 67.9393 64.7919 67.9676 64.6681 68.0219C64.5444 68.0762 64.4331 68.1555 64.3414 68.2547C64.2025 68.5058 64.1473 68.7946 64.1836 69.0792V70.6755H63.6748V67.5882H64.1836V68.0618C64.2963 67.8807 64.4542 67.7321 64.6418 67.6306C64.8294 67.5291 65.0403 67.4781 65.2536 67.4829C65.471 67.4632 65.689 67.514 65.8754 67.6277C66.0618 67.7414 66.2065 67.9121 66.2885 68.1144C66.3974 67.9183 66.5581 67.7557 66.7529 67.6443C66.9477 67.533 67.1692 67.4772 67.3936 67.4829C67.5405 67.4661 67.6893 67.4827 67.8289 67.5314C67.9685 67.5801 68.0952 67.6597 68.1998 67.7643C68.3043 67.8688 68.384 67.9956 68.4327 68.1352C68.4814 68.2748 68.4979 68.4236 68.4811 68.5705V70.6755H67.955V68.781Z" fill="#8F8183"/>
<path fill-rule="evenodd" clip-rule="evenodd" d="M72.3933 70.6044H71.867V70.0431C71.7669 70.2505 71.6099 70.425 71.4141 70.5461C71.2184 70.6673 70.9921 70.7301 70.7619 70.7272C70.5519 70.7262 70.3444 70.6809 70.1531 70.5941C69.9619 70.5074 69.7912 70.3812 69.6521 70.2239C69.513 70.0666 69.4088 69.8816 69.3461 69.6812C69.2834 69.4808 69.2638 69.2694 69.2885 69.0608C69.261 68.8556 69.2777 68.6468 69.3373 68.4485C69.397 68.2502 69.4982 68.0668 69.6343 67.9108C69.7704 67.7547 69.9384 67.6295 70.1268 67.5435C70.3152 67.4574 70.5197 67.4126 70.7268 67.4119C70.9633 67.3999 71.198 67.4585 71.4011 67.5804C71.6041 67.7022 71.7663 67.8817 71.867 68.096V67.5172H72.3933V70.6044ZM70.8497 67.9382C70.2182 67.9382 69.8497 68.3416 69.8497 69.0433C69.8497 69.7449 70.2182 70.201 70.8673 70.201C71.5163 70.201 71.867 69.7976 71.867 69.0959C71.8843 68.9515 71.8709 68.8051 71.8278 68.6662C71.7847 68.5274 71.7127 68.3991 71.6167 68.2899C71.5207 68.1806 71.4029 68.0929 71.2707 68.0323C71.1385 67.9717 70.9951 67.9396 70.8497 67.9382Z" fill="#8F8183"/>
<path fill-rule="evenodd" clip-rule="evenodd" d="M73.4458 67.5154H73.9195V68.1644C74.2001 67.6382 74.4807 67.4102 74.9543 67.4102H75.3051L75.1297 67.8838H74.8141C74.2528 67.8838 73.9719 68.2872 73.9719 69.0941V70.6026H73.4458V67.5154Z" fill="#8F8183"/>
<path fill-rule="evenodd" clip-rule="evenodd" d="M75.8665 65.3767H76.4102V68.9025L77.8837 67.5168H78.5854L77.0417 68.92L78.7257 70.5865H77.989L76.4102 68.9727V70.5865H75.8665V65.3767Z" fill="#8F8183"/>
<path fill-rule="evenodd" clip-rule="evenodd" d="M79.3926 69.7783C79.4584 69.9273 79.5668 70.0533 79.7042 70.1407C79.8415 70.2282 80.0016 70.273 80.1643 70.2695C80.5327 70.2695 80.7431 70.0765 80.7431 69.8134C80.7431 69.5503 80.5854 69.445 80.2697 69.3398C79.5154 69.0767 79.0592 68.9363 79.0592 68.3399C79.063 68.2052 79.0951 68.0727 79.1532 67.9511C79.2114 67.8294 79.2942 67.7213 79.3967 67.6337C79.4992 67.5461 79.6189 67.481 79.7481 67.4425C79.8773 67.404 80.0131 67.393 80.1468 67.4102C80.3695 67.3858 80.5942 67.4319 80.7894 67.5421C80.9845 67.6522 81.1402 67.8209 81.2343 68.0242L80.8134 68.2873C80.758 68.1493 80.6602 68.0324 80.5341 67.9536C80.408 67.8748 80.26 67.8381 80.1117 67.8488C80.0466 67.8415 79.981 67.8477 79.9185 67.8671C79.856 67.8865 79.7982 67.9187 79.7487 67.9615C79.6993 68.0044 79.6592 68.057 79.6312 68.1161C79.6031 68.1752 79.5876 68.2394 79.5855 68.3048C79.5855 68.6381 79.8661 68.6732 80.3748 68.8311C80.8835 68.989 81.2694 69.2521 81.2694 69.7432C81.268 69.884 81.2368 70.023 81.178 70.151C81.1192 70.2789 81.0341 70.393 80.9281 70.4857C80.8221 70.5784 80.6977 70.6477 80.563 70.6891C80.4284 70.7304 80.2865 70.7428 80.1468 70.7255C79.9042 70.7435 79.6616 70.692 79.4472 70.577C79.2329 70.4621 79.0558 70.2885 78.9365 70.0765L79.3926 69.7783Z" fill="#8F8183"/>
<path fill-rule="evenodd" clip-rule="evenodd" d="M1.03488 59.203C1.1194 59.5872 1.34914 59.924 1.67598 60.1429C2.00282 60.3619 2.40151 60.4462 2.78902 60.3783C2.96386 60.3989 3.14121 60.3812 3.30849 60.3262C3.47577 60.2713 3.62892 60.1806 3.75752 60.0603C3.88612 59.9401 3.98701 59.7932 4.05301 59.63C4.11902 59.4668 4.1486 59.2911 4.13974 59.1153C4.13974 58.2733 3.50825 58.0628 2.61365 57.6243C1.08755 56.87 0.245605 56.2911 0.245605 54.9931C0.241579 54.6628 0.307077 54.3353 0.438106 54.0321C0.569135 53.7288 0.762671 53.4566 1.00597 53.2332C1.24927 53.0098 1.53701 52.8401 1.85028 52.7353C2.16355 52.6305 2.49536 52.5929 2.82413 52.625C3.33688 52.5627 3.85595 52.6673 4.30461 52.9232C4.75327 53.1791 5.10751 53.5728 5.31487 54.0459L4.22731 54.6247C4.10305 54.3876 3.91662 54.1889 3.68793 54.0498C3.45923 53.9108 3.19693 53.8366 2.92927 53.8353C2.77595 53.815 2.62007 53.8282 2.47232 53.8739C2.32457 53.9196 2.18866 53.9968 2.07361 54.1001C1.95857 54.2035 1.86716 54.3306 1.80595 54.4727C1.74475 54.6147 1.71514 54.7683 1.71902 54.9229C1.71902 55.7474 2.38547 56.0105 3.35025 56.449C4.87634 57.1507 5.57803 57.7646 5.57803 59.01C5.5929 59.3809 5.52755 59.7507 5.38639 60.094C5.24523 60.4373 5.03153 60.746 4.76006 60.9991C4.4886 61.2523 4.16571 61.4439 3.8134 61.5607C3.4611 61.6776 3.08773 61.717 2.71878 61.6763C2.10479 61.7469 1.48661 61.5868 0.984132 61.2269C0.48165 60.8671 0.130879 60.3333 0 59.7293L1.03488 59.203Z" fill="#8F8183"/>
<path fill-rule="evenodd" clip-rule="evenodd" d="M7.10449 52.8164H8.49026V56.0089H12.7528V52.8164H14.1386V61.4467H12.7528V57.2544H8.49026V61.4467H7.10449V52.8164Z" fill="#8F8183"/>
<path fill-rule="evenodd" clip-rule="evenodd" d="M16.1206 52.8164H20.9445V54.0092H17.5239V56.1668H20.9445V57.3947H17.5239V60.1837H20.9445V61.4467H16.1206V52.8164Z" fill="#8F8183"/>
<path fill-rule="evenodd" clip-rule="evenodd" d="M25.3302 61.4467H23.9269V54.0092H21.6465V52.8164H27.6105V54.0092H25.3302V61.4467Z" fill="#8F8183"/>
<path fill-rule="evenodd" clip-rule="evenodd" d="M28.6807 52.8164H30.084V56.0089H34.329V52.8164H35.7323V61.4467H34.329V57.2544H30.084V61.4467H28.6807V52.8164Z" fill="#8F8183"/>
<path fill-rule="evenodd" clip-rule="evenodd" d="M44.3444 53.3084C43.8391 53.2904 43.3357 53.3781 42.8663 53.566C42.3968 53.7539 41.9719 54.0378 41.6185 54.3994C41.2652 54.761 40.991 55.1925 40.8141 55.6661C40.6371 56.1398 40.5611 56.6452 40.5907 57.1499C40.5478 57.6471 40.6114 58.1478 40.7774 58.6184C40.9434 59.0891 41.2079 59.5189 41.5532 59.8792C41.8986 60.2394 42.3168 60.5218 42.78 60.7076C43.2432 60.8934 43.7407 60.9782 44.2392 60.9564C45.2568 60.9568 46.2427 60.6033 47.0283 59.9566V60.8687C46.2078 61.3845 45.261 61.6637 44.2919 61.6756C43.0916 61.6756 41.9405 61.1988 41.0918 60.3501C40.2431 59.5013 39.7661 58.3502 39.7661 57.1499C39.7661 55.9496 40.2431 54.7985 41.0918 53.9498C41.9405 53.1011 43.0916 52.6242 44.2919 52.6242C45.3089 52.6036 46.3033 52.9248 47.1161 53.5364V54.3959C46.3779 53.7057 45.4076 53.3176 44.3971 53.3084" fill="#8F8183"/>
<path fill-rule="evenodd" clip-rule="evenodd" d="M53.0629 61.4468L50.0283 57.3421H49.5546V61.4468H48.7827V52.8164H50.3615C52.2209 52.8164 53.1681 53.5882 53.1681 55.1845C53.1876 55.4805 53.1423 55.7772 53.0351 56.0539C52.9279 56.3305 52.7614 56.5803 52.5475 56.7859C52.3336 56.9914 52.0775 57.1477 51.7968 57.2438C51.5161 57.3399 51.2177 57.3734 50.9227 57.3421L54.01 61.4468H53.0629ZM49.5546 56.693H50.3439C51.6946 56.693 52.3085 56.3773 52.3085 55.1494C52.3085 53.9215 51.7297 53.518 50.3439 53.518H49.5546V56.693Z" fill="#8F8183"/>
<path fill-rule="evenodd" clip-rule="evenodd" d="M55.168 52.8164H59.4305V53.5531H55.9398V56.2545H59.4305V56.9913H55.9398V60.71H59.4305V61.4467H55.168V52.8164Z" fill="#8F8183"/>
<path fill-rule="evenodd" clip-rule="evenodd" d="M63.956 52.4844L67.587 61.448H66.7275L65.6223 58.5362H62.1141L60.9741 61.448H60.1846L63.956 52.4844ZM65.377 57.852L63.9033 54.0982L62.3597 57.852H65.377Z" fill="#8F8183"/>
<path fill-rule="evenodd" clip-rule="evenodd" d="M69.411 53.5531H67.0254V52.8164H72.5685V53.5531H70.2004V61.4467H69.411V53.5531Z" fill="#8F8183"/>
<path fill-rule="evenodd" clip-rule="evenodd" d="M80.6731 60.3613C79.7904 61.2066 78.6151 61.678 77.3929 61.6769C76.1799 61.6838 75.0135 61.2109 74.1478 60.3613C73.7163 59.9452 73.3728 59.4466 73.1377 58.8952C72.9027 58.3437 72.7808 57.7507 72.7795 57.1512C72.7736 56.5507 72.8922 55.9554 73.1277 55.403C73.3632 54.8505 73.7105 54.3528 74.1478 53.9411C74.573 53.5157 75.0794 53.18 75.6368 52.954C76.1943 52.728 76.7914 52.6163 77.3929 52.6255C77.9994 52.6175 78.6014 52.7296 79.1644 52.9554C79.7274 53.1812 80.2402 53.5162 80.6731 53.9411C81.1039 54.3569 81.4456 54.8558 81.6778 55.4076C81.91 55.9594 82.0278 56.5526 82.0238 57.1512C82.0238 57.7493 81.9042 58.3413 81.6722 58.8925C81.4403 59.4438 81.1007 59.9431 80.6731 60.3613ZM81.1817 57.1512C81.1747 56.4034 80.9467 55.6743 80.5262 55.0558C80.1057 54.4374 79.5115 53.9572 78.8186 53.6758C78.1256 53.3944 77.365 53.3244 76.6323 53.4745C75.8997 53.6246 75.2279 53.9882 74.7015 54.5195C74.1751 55.0508 73.8177 55.7259 73.6743 56.4599C73.531 57.1939 73.608 57.9539 73.8958 58.6442C74.1835 59.3345 74.6691 59.9243 75.2914 60.3391C75.9137 60.7539 76.645 60.9752 77.3929 60.9752C77.8928 60.9729 78.3872 60.8722 78.8481 60.6788C79.309 60.4854 79.7275 60.2031 80.0793 59.848C80.4312 59.4929 80.7096 59.0719 80.8988 58.6092C81.088 58.1465 81.184 57.6511 81.1817 57.1512Z" fill="#8F8183"/>
<path fill-rule="evenodd" clip-rule="evenodd" d="M88.0398 61.4468L85.0051 57.3421H84.549V61.4468H83.7598V52.8164H85.3385C87.2155 52.8164 88.1275 53.5882 88.1275 55.1845C88.1467 55.4789 88.1016 55.7739 87.9954 56.0491C87.8893 56.3244 87.7245 56.5733 87.5126 56.7785C87.3007 56.9838 87.0468 57.1405 86.7683 57.2378C86.4898 57.3351 86.1934 57.3707 85.8998 57.3421L88.9871 61.4468H88.0398ZM84.5315 56.693H85.3034C86.6541 56.693 87.268 56.3773 87.268 55.1494C87.268 53.9215 86.6892 53.518 85.3034 53.518H84.5315V56.693Z" fill="#8F8183"/>
<path fill-rule="evenodd" clip-rule="evenodd" d="M90.1274 59.6413C90.2235 60.0305 90.4498 60.3751 90.7689 60.6176C91.0881 60.8602 91.4809 60.9861 91.8816 60.9744C92.1166 60.9929 92.3528 60.9602 92.574 60.8786C92.7952 60.797 92.9962 60.6683 93.1629 60.5016C93.3296 60.3349 93.4581 60.134 93.5398 59.9128C93.6214 59.6916 93.6542 59.4553 93.6357 59.2203C93.6357 58.1678 93.0041 57.7643 92.0043 57.2381C90.636 56.5189 89.8291 55.9751 89.8291 54.7648C89.8257 54.4761 89.8826 54.1898 89.9964 53.9245C90.1101 53.6591 90.2781 53.4204 90.4895 53.2238C90.701 53.0272 90.9512 52.8771 91.2242 52.7829C91.4971 52.6888 91.7868 52.6529 92.0745 52.6774C92.4632 52.6592 92.8488 52.7539 93.185 52.95C93.5211 53.146 93.7933 53.4351 93.9689 53.7824L93.3725 54.1509C93.2468 53.9048 93.0521 53.7007 92.8122 53.5637C92.5723 53.4266 92.2976 53.3624 92.0218 53.379C91.8349 53.3657 91.6473 53.393 91.4719 53.4591C91.2966 53.5251 91.1377 53.6284 91.006 53.7617C90.8743 53.8951 90.7731 54.0553 90.7092 54.2315C90.6454 54.4076 90.6203 54.5956 90.636 54.7823C90.636 55.8173 91.4255 56.0629 92.5481 56.6768C93.6708 57.2908 94.3023 57.9222 94.3023 59.2203C94.3286 59.5587 94.2814 59.8988 94.1637 60.2173C94.0461 60.5357 93.8609 60.8249 93.6209 61.0649C93.3809 61.3049 93.0916 61.4901 92.7732 61.6077C92.4548 61.7253 92.1146 61.7726 91.7762 61.7462C91.2493 61.7656 90.7303 61.6138 90.297 61.3133C89.8637 61.0129 89.5396 60.58 89.373 60.0798L90.1274 59.6413Z" fill="#8F8183"/>
</svg>
