<svg width="97" height="63" viewBox="0 0 97 63" fill="none" xmlns="http://www.w3.org/2000/svg">
<path d="M87.1644 38.4862V45.6781C87.1568 45.7958 87.1876 45.9128 87.2522 46.0114C87.3555 46.1042 87.4834 46.1651 87.6205 46.1868V46.4149H84.5684V46.2219C84.7055 46.2002 84.8334 46.1394 84.9367 46.0466C85.0013 45.9479 85.0321 45.8309 85.0245 45.7133V38.5212H82.0074C81.9 38.4809 81.7814 38.4809 81.674 38.5212C81.5807 38.6173 81.5195 38.7399 81.4986 38.8721H81.253V36.4163H81.4986C81.5243 36.5469 81.5849 36.6682 81.674 36.7671C81.7715 36.8342 81.8895 36.8652 82.0074 36.8548H90.1815C90.2997 36.8684 90.4188 36.8372 90.5149 36.7671C90.6039 36.6656 90.6698 36.5458 90.7078 36.4163H90.9359V38.8721H90.7078C90.674 38.7408 90.6077 38.6201 90.5149 38.5212C90.4075 38.4809 90.2889 38.4809 90.1815 38.5212L87.1644 38.4862ZM71.6931 39.9071V45.6781C71.6868 45.738 71.6929 45.7984 71.711 45.8558C71.7291 45.9131 71.7587 45.9661 71.7982 46.0114C71.9015 46.1042 72.0296 46.1651 72.1667 46.1868V46.4149H69.2899V46.2219C69.427 46.2002 69.5549 46.1394 69.6582 46.0466C69.6931 45.9382 69.6931 45.8216 69.6582 45.7133V37.6793C69.688 37.5702 69.688 37.4551 69.6582 37.346C69.5506 37.2599 69.4246 37.1999 69.2899 37.1706V36.9426H72.6052V37.1706C72.3947 37.1706 72.307 37.3285 72.307 37.4864C72.309 37.5584 72.3275 37.6289 72.3609 37.6928C72.3944 37.7566 72.4418 37.812 72.4999 37.8547L77.885 43.3101V37.6793C77.8904 37.5593 77.8532 37.4412 77.7799 37.346C77.6722 37.2599 77.5462 37.1999 77.4116 37.1706V36.9426H80.2882V37.1706C80.1535 37.1999 80.0275 37.2599 79.9199 37.346C79.89 37.4551 79.89 37.5702 79.9199 37.6793V45.7133C79.885 45.8216 79.885 45.9382 79.9199 46.0466C80.0231 46.1394 80.151 46.2002 80.2882 46.2219V46.45H77.2184V46.2219C77.4114 46.2219 77.5167 46.0816 77.5167 45.9238C77.5167 45.7659 77.394 45.6781 77.166 45.4325L71.6931 39.9071ZM60.7648 42.24V44.8537H67.027C67.0868 44.8599 67.1472 44.8538 67.2045 44.8357C67.2618 44.8176 67.3148 44.7879 67.3602 44.7484C67.4529 44.6495 67.5195 44.529 67.5533 44.3977H67.7814V46.8534H67.5533C67.5205 46.7268 67.4536 46.6116 67.3602 46.5201C67.3148 46.4806 67.2618 46.4509 67.2045 46.4328C67.1472 46.4147 67.0868 46.4086 67.027 46.4149H58.2563V46.2219C58.387 46.1962 58.5081 46.1357 58.6071 46.0466C58.6465 46.0012 58.6763 45.9481 58.6944 45.8908C58.7125 45.8334 58.7187 45.7731 58.7124 45.7133V37.6793C58.7178 37.5593 58.6804 37.4412 58.6071 37.346C58.5039 37.2632 58.3844 37.2035 58.2563 37.1706V36.9426H67.027C67.0828 36.9498 67.1396 36.9458 67.1938 36.9307C67.248 36.9156 67.2987 36.8898 67.3428 36.8548C67.4383 36.7579 67.5051 36.6366 67.5358 36.5041H67.7638V38.9598H67.5358C67.5089 38.8258 67.4416 38.7033 67.3428 38.6089C67.2401 38.5766 67.1298 38.5766 67.027 38.6089H60.9226V40.8543H64.887C64.9898 40.8866 65.0999 40.8866 65.2026 40.8543C65.2981 40.7574 65.3649 40.6359 65.3956 40.5034H65.6236V42.7137H65.3956C65.3687 42.5797 65.3014 42.4572 65.2026 42.3628C65.1599 42.3247 65.11 42.2958 65.0557 42.2777C65.0014 42.2596 64.944 42.2527 64.887 42.2576L60.7648 42.24ZM55.3619 43.1522L56.7127 45.1344L56.5373 45.2572C56.4497 45.1621 56.3319 45.1 56.2039 45.0817C55.9465 45.15 55.7033 45.2628 55.4849 45.415C54.8311 45.7999 54.1369 46.1118 53.4149 46.3447C52.7616 46.5106 52.0889 46.5873 51.4151 46.5728C50.0733 46.6257 48.7484 46.2577 47.6261 45.5202C47.0594 45.1155 46.5918 44.5878 46.2581 43.9766C45.8699 43.2671 45.6704 42.4699 45.6791 41.6612C45.6585 40.5704 46.0254 39.5076 46.7142 38.6616C47.3004 38.0012 48.0312 37.485 48.8497 37.1534C49.6681 36.8218 50.5521 36.6835 51.4327 36.7495C52.1007 36.7349 52.7676 36.8116 53.4149 36.9776C54.1386 37.2137 54.8331 37.5315 55.4849 37.9249C55.7065 38.0673 55.9491 38.1738 56.2039 38.2406C56.3319 38.2223 56.4497 38.1603 56.5373 38.0652L56.7127 38.188L55.3619 40.1701L55.169 40.0473C55.169 40.0473 55.169 39.907 55.169 39.8544C55.1588 39.714 55.0963 39.5824 54.9936 39.486C54.7968 39.3129 54.5787 39.1655 54.3446 39.0475C53.5275 38.5989 52.6105 38.3637 51.6783 38.3634C50.7223 38.3104 49.7781 38.596 49.012 39.1703C48.6445 39.4731 48.3486 39.8535 48.1454 40.2842C47.9423 40.7148 47.8371 41.1851 47.8371 41.6612C47.8371 42.1374 47.9423 42.6076 48.1454 43.0383C48.3486 43.4689 48.6445 43.8493 49.012 44.1521C49.7781 44.7263 50.7223 45.0121 51.6783 44.959C52.6105 44.9588 53.5275 44.7235 54.3446 44.2749C54.5787 44.1568 54.7968 44.0095 54.9936 43.8363C55.0963 43.7399 55.1588 43.6084 55.169 43.4679C55.169 43.4679 55.169 43.3452 55.169 43.275L55.3619 43.1522ZM44.4513 37.7144L43.2935 39.9421L43.083 39.8368C43.08 39.8018 43.08 39.7666 43.083 39.7316C43.083 39.5737 42.9427 39.3984 42.662 39.2229C41.7803 38.636 40.7389 38.3358 39.6801 38.3634C39.2293 38.353 38.7796 38.4121 38.3469 38.5388C38.085 38.6147 37.8486 38.7602 37.6628 38.9598C37.5815 39.0367 37.5163 39.1291 37.4711 39.2315C37.4259 39.3339 37.4016 39.4443 37.3996 39.5562C37.3996 39.9246 37.6277 40.1526 38.0662 40.2929C38.5525 40.3934 39.0446 40.4637 39.5396 40.5034L40.6623 40.6087C41.2071 40.6568 41.747 40.7508 42.2762 40.8894C42.6615 41.0052 43.0278 41.1765 43.3637 41.3981C43.6964 41.6293 43.9624 41.9439 44.1354 42.3102C44.3247 42.6728 44.4212 43.0765 44.4162 43.4855C44.4077 44.1305 44.1716 44.7517 43.7496 45.2396C43.2543 45.7752 42.6045 46.1431 41.8903 46.2921C41.2322 46.4652 40.5535 46.5478 39.873 46.5377C38.5471 46.5323 37.2396 46.2265 36.0489 45.643C35.9003 45.562 35.7407 45.503 35.5752 45.4677C35.4634 45.4813 35.359 45.5305 35.2772 45.608L35.0667 45.5028L36.1191 43.1697L36.3296 43.275C36.335 43.3891 36.3661 43.5005 36.4208 43.6008C36.4755 43.7011 36.5524 43.7876 36.6455 43.8539C37.0714 44.1844 37.5611 44.4232 38.0837 44.5555C38.6521 44.7321 39.2428 44.8267 39.8379 44.8362C40.3983 44.8524 40.9554 44.7446 41.4693 44.5205C41.7026 44.4198 41.9074 44.2632 42.0657 44.0644C42.1997 43.8942 42.2737 43.6845 42.2762 43.4679C42.2754 43.3146 42.2255 43.1654 42.134 43.0423C42.0425 42.9193 41.914 42.8287 41.7674 42.7838C41.2861 42.6507 40.7924 42.5685 40.294 42.5383L39.1889 42.4155C38.6648 42.3757 38.1435 42.3054 37.6277 42.205C37.3128 42.134 37.0068 42.0282 36.7155 41.8893C36.2873 41.6852 35.9323 41.3545 35.6982 40.942C35.4671 40.5493 35.3515 40.0993 35.3647 39.6439C35.3562 39.2727 35.4271 38.9038 35.5722 38.562C35.7174 38.2202 35.9338 37.9134 36.2069 37.6617C37.1527 36.9056 38.3497 36.5358 39.5572 36.6269C40.1466 36.6195 40.735 36.6783 41.3113 36.8022C42.0005 36.9775 42.675 37.2063 43.3286 37.4864C43.4904 37.5614 43.6615 37.6145 43.8374 37.6442C43.9631 37.6306 44.0804 37.575 44.1705 37.4864L44.4513 37.7144ZM26.9099 42.24V44.8537H33.1721C33.2921 44.859 33.4103 44.8218 33.5055 44.7484C33.5987 44.6524 33.66 44.5299 33.6809 44.3977H33.9089V46.8534H33.6809C33.6599 46.7263 33.5984 46.6093 33.5055 46.5201C33.4103 46.4468 33.2921 46.4095 33.1721 46.4149H24.4014V46.2219C24.5386 46.2002 24.6666 46.1394 24.7699 46.0466C24.8048 45.9382 24.8048 45.8216 24.7699 45.7133V37.6793C24.7998 37.5702 24.7998 37.4551 24.7699 37.346C24.6623 37.2599 24.5361 37.1999 24.4014 37.1706V36.9426H33.1721C33.2904 36.9581 33.4101 36.9265 33.5055 36.8548C33.5945 36.7533 33.6603 36.6336 33.6984 36.5041H33.9265V38.9598H33.4704C33.4365 38.8285 33.3702 38.7078 33.2774 38.6089C33.1691 38.574 33.0524 38.574 32.944 38.6089H26.8572V40.8543H30.804C30.9127 40.8869 31.0287 40.8869 31.1374 40.8543C31.2265 40.7553 31.2871 40.6341 31.3128 40.5034H31.5584V42.7137H31.3128C31.2919 42.5814 31.2307 42.4589 31.1374 42.3628C31.0438 42.2865 30.9245 42.2489 30.804 42.2576L26.9099 42.24ZM15.0695 40.9771H18.3673C18.7059 41.0029 19.046 41.0029 19.3846 40.9771C19.5814 40.956 19.7723 40.8963 19.946 40.8016C20.1259 40.7034 20.273 40.5548 20.3696 40.3741C20.4662 40.1934 20.508 39.9884 20.4897 39.7843C20.5092 39.5776 20.4683 39.3697 20.3717 39.1859C20.2752 39.0021 20.1273 38.8505 19.946 38.7493C19.7713 38.6569 19.5809 38.5975 19.3846 38.5739C19.0459 38.5501 18.706 38.5501 18.3673 38.5739H15.0695V40.9771ZM15.0695 42.5383V45.6957C15.0647 45.7527 15.0715 45.8102 15.0896 45.8644C15.1077 45.9187 15.1365 45.9687 15.1746 46.0114C15.2738 46.1102 15.4039 46.172 15.5431 46.1868V46.4149H12.4207V46.2219C12.553 46.201 12.6754 46.1398 12.7715 46.0466C12.8096 46.0038 12.8386 45.9537 12.8567 45.8995C12.8748 45.8452 12.8817 45.7877 12.8768 45.7307V37.6793C12.8822 37.5593 12.8448 37.4412 12.7715 37.346C12.6707 37.2596 12.5503 37.1994 12.4207 37.1706V36.9426H18.5251C19.113 36.9322 19.7005 36.9791 20.2792 37.0828C20.6831 37.1476 21.0704 37.2907 21.4195 37.5039C21.7933 37.7384 22.0869 38.081 22.2614 38.4862C22.436 38.8905 22.5256 39.3264 22.5246 39.7667C22.5246 41.3279 21.6475 42.24 19.8758 42.5032L21.7702 45.1168C21.9887 45.4363 22.2353 45.7357 22.507 46.0114C22.6698 46.1345 22.8647 46.2077 23.0682 46.2219V46.45H19.56V46.2219C19.8055 46.2219 19.9285 46.0991 19.9285 45.9763C19.8597 45.7514 19.7462 45.5427 19.5951 45.3624L17.6831 42.5383H15.0695ZM9.66683 43.1522L11.0349 45.1344L10.842 45.2572C10.7544 45.1621 10.6368 45.1 10.5088 45.0817C10.2527 45.1534 10.0098 45.2659 9.78953 45.415C9.13579 45.7999 8.44155 46.1118 7.71955 46.3447C7.06651 46.5116 6.39388 46.5884 5.72002 46.5728C4.38341 46.628 3.06347 46.2596 1.94859 45.5202C1.38185 45.1155 0.914035 44.5878 0.580311 43.9766C0.192123 43.2671 -0.00713141 42.4699 0.00152354 41.6612C-0.0268048 40.5692 0.340726 39.5038 1.0364 38.6616C1.6174 37.9994 2.34491 37.4818 3.16098 37.1499C3.97705 36.818 4.85907 36.6808 5.73737 36.7495C6.40545 36.7338 7.07251 36.8105 7.71955 36.9776C8.44459 37.2102 9.13952 37.5283 9.78953 37.9249C10.0128 38.0642 10.2551 38.1705 10.5088 38.2406C10.6368 38.2223 10.7544 38.1603 10.842 38.0652L11.0349 38.188L9.66683 40.1701L9.47369 40.0473C9.48158 39.9833 9.48158 39.9185 9.47369 39.8544C9.47255 39.784 9.45642 39.7148 9.42615 39.6512C9.39589 39.5876 9.35224 39.5312 9.29832 39.486C9.10515 39.3163 8.89332 39.1692 8.66685 39.0475C7.84426 38.5967 6.92096 38.3615 5.98297 38.3634C5.02732 38.3134 4.0844 38.5987 3.31687 39.1703C2.9494 39.4731 2.65344 39.8535 2.45029 40.2842C2.24714 40.7148 2.14173 41.1851 2.14173 41.6612C2.14173 42.1374 2.24714 42.6076 2.45029 43.0383C2.65344 43.4689 2.9494 43.8493 3.31687 44.1521C4.0844 44.7236 5.02732 45.0091 5.98297 44.959C6.92096 44.961 7.84426 44.7256 8.66685 44.2749C8.89332 44.1531 9.10515 44.006 9.29832 43.8363C9.35224 43.7911 9.39589 43.7348 9.42615 43.6712C9.45642 43.6077 9.47255 43.5383 9.47369 43.4679C9.48158 43.4038 9.48158 43.3391 9.47369 43.275L9.66683 43.1522Z" fill="#8F8183"/>
<path d="M86.2524 57.7637C86.2537 57.4408 86.1491 57.1265 85.9544 56.869C85.8666 56.7707 85.7581 56.693 85.6368 56.6414C85.5155 56.5899 85.3844 56.5658 85.2527 56.5709C85.1194 56.5667 84.9869 56.5929 84.8653 56.6476C84.7437 56.7023 84.6362 56.7841 84.551 56.8866C84.3504 57.1332 84.2501 57.4464 84.2703 57.7637H86.2524ZM86.2524 59.1318L87.5856 59.3423C87.4415 59.7969 87.1595 60.1954 86.7788 60.4826C86.3662 60.7476 85.8831 60.8821 85.3929 60.8684C85.0239 60.8924 84.6548 60.825 84.3182 60.672C83.9816 60.5189 83.688 60.2851 83.4634 59.9913C83.1163 59.4742 82.9441 58.8594 82.9722 58.2372C82.9259 57.5176 83.1583 56.8079 83.6212 56.255C83.8394 56.0224 84.1031 55.8371 84.3957 55.7104C84.6884 55.5837 85.004 55.5182 85.3229 55.5182C85.6418 55.5182 85.9572 55.5837 86.2499 55.7104C86.5425 55.8371 86.8062 56.0224 87.0244 56.255C87.5139 56.9155 87.7391 57.7351 87.6558 58.5531H84.3229C84.3161 58.8934 84.4348 59.2242 84.6563 59.4827C84.7488 59.5915 84.8647 59.678 84.9953 59.7357C85.1259 59.7934 85.2678 59.8209 85.4105 59.816C85.6016 59.8247 85.7892 59.7623 85.9368 59.6406C86.0968 59.4972 86.2073 59.3069 86.2524 59.0968M80.8673 60.7106H79.5517V55.606H80.7795V56.3428C80.9186 56.0793 81.1097 55.8465 81.341 55.6587C81.5157 55.5537 81.716 55.499 81.9198 55.5008C82.2227 55.507 82.5188 55.5917 82.7793 55.7464L82.3759 56.9216C82.195 56.7952 81.9823 56.7223 81.762 56.7111C81.5901 56.7039 81.4215 56.7601 81.2883 56.869C81.127 57.0186 81.0165 57.2149 80.9725 57.4304C80.8767 58.0099 80.8415 58.5977 80.8673 59.1845V60.7106ZM76.9908 60.7106V59.9388C76.8167 60.2183 76.5674 60.4433 76.2715 60.5878C75.9865 60.7447 75.6671 60.8291 75.3418 60.8334C75.0234 60.8352 74.7096 60.7568 74.4296 60.6054C74.177 60.4585 73.9751 60.2383 73.8508 59.9739C73.7159 59.6096 73.6563 59.2217 73.6754 58.8337V55.606H74.991V57.9566C74.9704 58.397 74.9997 58.8384 75.0786 59.2722C75.0942 59.3509 75.1257 59.4257 75.1709 59.492C75.2161 59.5583 75.2742 59.6147 75.3418 59.6581C75.4865 59.7557 75.6585 59.8048 75.833 59.7984C76.0471 59.7985 76.2558 59.731 76.4293 59.6055C76.6084 59.5008 76.7403 59.3312 76.7976 59.1318C76.8946 58.6826 76.9301 58.2224 76.903 57.7637V55.606H78.2361V60.7106H76.9908ZM72.7808 55.606V56.7462H71.8686V58.7985C71.8487 59.0379 71.8487 59.2785 71.8686 59.5178C71.8864 59.5895 71.9301 59.6519 71.9913 59.6932C72.0588 59.7205 72.1343 59.7205 72.2018 59.6932C72.3891 59.6739 72.5725 59.6266 72.7457 59.5528L72.8508 60.6054C72.5198 60.7523 72.1604 60.8241 71.7984 60.8158C71.5821 60.8142 71.368 60.7726 71.1669 60.693C71.0013 60.6265 70.8561 60.5177 70.7459 60.3773C70.6401 60.22 70.5739 60.0395 70.553 59.8511C70.5278 59.53 70.5278 59.2073 70.553 58.8862V56.7462H69.9391V55.6587H70.553V54.6588L71.8686 53.8694V55.6236L72.7808 55.606ZM67.8867 60.7106V59.9388C67.7049 60.2118 67.4576 60.4349 67.1674 60.5878C66.8821 60.7429 66.5627 60.8241 66.2379 60.8241C65.9131 60.8241 65.5935 60.7429 65.3082 60.5878C65.0555 60.441 64.8535 60.2207 64.7292 59.9563C64.6031 59.5898 64.5437 59.2036 64.5538 58.8161V55.5886H65.8869V57.939C65.8413 58.3764 65.8413 58.8173 65.8869 59.2546C65.9327 59.4074 66.0246 59.5422 66.1501 59.6406C66.2958 59.7361 66.4672 59.7849 66.6413 59.7809C66.8606 59.7789 67.0742 59.7117 67.2552 59.5879C67.4244 59.4723 67.5531 59.3067 67.6235 59.1143C67.672 58.6595 67.672 58.2009 67.6235 57.7461V55.5886H68.9567V60.693L67.8867 60.7106ZM60.8701 55.606H61.607V55.2377C61.5924 54.9101 61.6399 54.5828 61.7472 54.273C61.8464 54.0469 62.0197 53.8612 62.2384 53.7466C62.523 53.6113 62.8356 53.5452 63.1506 53.5537C63.5262 53.5491 63.8999 53.6085 64.2557 53.7292L64.0801 54.6764C63.88 54.6215 63.6737 54.592 63.4662 54.5887C63.3929 54.5826 63.3192 54.5918 63.2497 54.616C63.1802 54.6402 63.1165 54.6786 63.0628 54.7289C62.9598 54.8838 62.9163 55.0708 62.9401 55.2553V55.606H63.9223V56.7462H62.9401V60.7807H61.607V56.7462H60.8701V55.606ZM56.3797 57.7286C56.3894 57.4044 56.2836 57.0874 56.0814 56.8339C55.9963 56.737 55.8909 56.66 55.7726 56.6084C55.6544 56.5569 55.5262 56.5321 55.3972 56.5358C55.2614 56.5315 55.1264 56.5576 55.002 56.6122C54.8775 56.6668 54.7668 56.7486 54.678 56.8515C54.4774 57.0981 54.3773 57.4113 54.3975 57.7286H56.3797ZM56.3797 59.0968L57.7126 59.3073C57.5685 59.7619 57.2865 60.1603 56.9058 60.4474C56.4986 60.7101 56.0219 60.8446 55.5375 60.8334C55.1656 60.8604 54.7931 60.7942 54.4532 60.6411C54.1132 60.488 53.8166 60.2527 53.5904 59.9563C53.252 59.4353 53.0806 58.8233 53.0992 58.2022C53.0529 57.4826 53.2855 56.7728 53.7485 56.22C53.9554 55.9886 54.2097 55.8044 54.4943 55.6803C54.7788 55.5562 55.0868 55.495 55.3972 55.5008C55.7276 55.4861 56.057 55.5464 56.3608 55.677C56.6646 55.8076 56.9348 56.0052 57.1514 56.255C57.6258 56.9222 57.8437 57.7382 57.7653 58.5531H54.4499C54.4294 58.8923 54.5429 59.2261 54.7658 59.4827C54.8582 59.5915 54.9741 59.678 55.1047 59.7357C55.2354 59.7934 55.3772 59.8209 55.5199 59.816C55.711 59.8247 55.8986 59.7623 56.0463 59.6406C56.2063 59.4972 56.3169 59.3069 56.3621 59.0968M48.8895 53.6765V56.255C49.071 56.0229 49.3024 55.8346 49.5665 55.7041C49.8307 55.5735 50.1209 55.504 50.4156 55.5008C50.7061 55.4926 50.9944 55.5528 51.2575 55.6762C51.4764 55.7684 51.6648 55.9204 51.8012 56.1148C51.9254 56.2954 52.0147 56.4976 52.0643 56.7111C52.091 57.0497 52.091 57.3899 52.0643 57.7286V60.7106H50.7312V58.0092C50.7728 57.6713 50.7728 57.3297 50.7312 56.9918C50.6788 56.8517 50.5798 56.734 50.4507 56.6586C50.3098 56.5685 50.1439 56.5255 49.977 56.5358C49.7728 56.5311 49.5716 56.5859 49.398 56.6936C49.2202 56.8119 49.085 56.984 49.0122 57.1848C48.9154 57.4968 48.8739 57.8232 48.8895 58.1495V60.7106H47.5739V53.6941L48.8895 53.6765ZM46.6441 55.606V56.7462H45.7495V58.7985C45.7344 59.038 45.7344 59.2783 45.7495 59.5178C45.7673 59.5895 45.811 59.6519 45.8722 59.6932C45.9455 59.7216 46.0269 59.7216 46.1002 59.6932C46.2819 59.6741 46.4595 59.6267 46.6266 59.5528L46.7493 60.6054C46.4172 60.7491 46.0586 60.8208 45.6968 60.8158C45.4749 60.814 45.2551 60.7724 45.0478 60.693C44.8822 60.6265 44.737 60.5177 44.6268 60.3773C44.5286 60.2162 44.4631 60.0375 44.4339 59.8511C44.4339 59.6932 44.4339 59.3774 44.4339 58.8862V56.7462H43.82V55.6587H44.4339V54.6588L45.7671 53.8694V55.6236L46.6441 55.606ZM36.8386 58.0618C36.8065 58.4757 36.9112 58.8886 37.1366 59.2371C37.2245 59.359 37.3407 59.4579 37.4752 59.5251C37.6096 59.5923 37.7583 59.6259 37.9086 59.623C38.0661 59.6245 38.222 59.5906 38.3646 59.5238C38.5073 59.457 38.6332 59.359 38.7329 59.2371C38.951 58.8903 39.0666 58.489 39.0666 58.0794C39.0666 57.6698 38.951 57.2684 38.7329 56.9216C38.6396 56.7969 38.5174 56.6967 38.3769 56.6295C38.2363 56.5623 38.0818 56.5302 37.9261 56.5358C37.7753 56.5336 37.6258 56.5656 37.4891 56.6294C37.3524 56.6932 37.2319 56.7872 37.1366 56.9042C36.916 57.2483 36.8117 57.654 36.8386 58.0618ZM35.6456 61.0439L37.1717 61.2368C37.1717 61.3057 37.1857 61.3739 37.2129 61.4372C37.24 61.5006 37.2797 61.5577 37.3296 61.6052C37.5112 61.7073 37.7181 61.7559 37.9261 61.7455C38.1985 61.7628 38.4706 61.7084 38.7154 61.5877C38.8339 61.5048 38.9255 61.3889 38.9786 61.2544C39.0052 61.0447 39.0052 60.8326 38.9786 60.6229V59.8861C38.8206 60.1389 38.6007 60.3473 38.3398 60.4916C38.0789 60.6358 37.7857 60.7112 37.4876 60.7106C37.17 60.7172 36.856 60.6414 36.5763 60.4908C36.2965 60.3402 36.0606 60.1199 35.8913 59.8511C35.5558 59.3294 35.3903 58.7166 35.4176 58.097C35.3713 57.3886 35.5901 56.6883 36.0315 56.1323C36.2204 55.9194 36.453 55.7497 36.7133 55.6347C36.9736 55.5197 37.2555 55.4621 37.54 55.4658C37.8441 55.4591 38.1446 55.5316 38.4122 55.6761C38.6797 55.8207 38.905 56.0322 39.0661 56.2901V55.571H40.3117V60.2545C40.3302 60.7102 40.277 61.1661 40.1539 61.6052C40.0812 61.8696 39.9422 62.111 39.7503 62.3068C39.551 62.4942 39.3109 62.6324 39.0488 62.7103C38.6832 62.8103 38.3051 62.8575 37.9261 62.8506C37.3102 62.8883 36.6977 62.7352 36.172 62.4121C36.0051 62.2769 35.8711 62.1057 35.7799 61.9112C35.6888 61.7168 35.6428 61.5042 35.6456 61.2895V61.114M34.4354 60.7807H33.1022V58.1495C33.1192 57.7906 33.0896 57.4309 33.0144 57.0795C32.9688 56.9221 32.8695 56.7855 32.7337 56.6936C32.5983 56.606 32.4388 56.5631 32.2776 56.5709C32.0567 56.5616 31.8396 56.6298 31.6637 56.7638C31.4886 56.8885 31.3592 57.0671 31.2954 57.2725C31.2072 57.6517 31.1717 58.0413 31.1901 58.4302V60.7457H29.8569V55.6411H31.0849V56.3954C31.2794 56.1141 31.5427 55.8873 31.8498 55.7368C32.1569 55.5864 32.4976 55.5172 32.8391 55.5359C33.1104 55.5324 33.3793 55.5863 33.6284 55.6938C33.8397 55.7683 34.0266 55.8992 34.1688 56.0724C34.311 56.2455 34.4033 56.4543 34.4354 56.6761C34.4999 56.9698 34.5292 57.27 34.523 57.5706L34.4354 60.7807ZM27.1908 55.6762H28.5064V60.7807H27.1908V55.6762ZM27.1908 53.7466H28.5064V54.9921H27.1908V53.7466ZM22.5599 58.1495C22.5222 58.5963 22.6398 59.0425 22.893 59.4126C22.9862 59.5361 23.1068 59.6363 23.2453 59.7053C23.3838 59.7743 23.5366 59.8101 23.6913 59.8101C23.846 59.8101 23.9986 59.7743 24.1371 59.7053C24.2756 59.6363 24.3962 59.5361 24.4894 59.4126C24.7166 59.0453 24.8211 58.6152 24.7877 58.1846C24.8212 57.7627 24.7098 57.3419 24.4718 56.9918C24.3802 56.8696 24.2609 56.7708 24.1236 56.7037C23.9864 56.6366 23.8353 56.6031 23.6825 56.6059C23.5293 56.6048 23.3776 56.6373 23.2382 56.701C23.0989 56.7646 22.9751 56.8579 22.8755 56.9743C22.6414 57.3063 22.5299 57.7094 22.5599 58.1145M21.2443 55.6411H22.4896V56.3954C22.6494 56.1382 22.8729 55.9267 23.1387 55.7815C23.4145 55.6178 23.7301 55.5328 24.0508 55.5359C24.3336 55.5331 24.6133 55.5948 24.8686 55.7164C25.1239 55.838 25.3482 56.0163 25.5243 56.2376C25.9604 56.7828 26.179 57.4701 26.1382 58.1671C26.1806 58.8804 25.9624 59.5848 25.5243 60.1493C25.3455 60.3732 25.1187 60.5541 24.8607 60.6786C24.6026 60.8031 24.3198 60.8679 24.0333 60.8684C23.7719 60.8669 23.5141 60.807 23.2789 60.693C23.0108 60.5458 22.7729 60.3494 22.5774 60.1142V62.6928H21.2443V55.6411ZM18.6831 58.2899C18.421 58.3842 18.151 58.4546 17.8762 58.5004C17.6238 58.5387 17.3801 58.6219 17.157 58.746C17.0767 58.7963 17.0105 58.8661 16.9645 58.9489C16.9185 59.0317 16.8944 59.1248 16.894 59.2195C16.8933 59.3115 16.9116 59.4027 16.9478 59.4872C16.984 59.5717 17.0375 59.6478 17.1045 59.7107C17.2496 59.8387 17.4372 59.9076 17.6306 59.9037C17.8778 59.9063 18.1187 59.826 18.3148 59.6756C18.4657 59.5609 18.5763 59.4012 18.6306 59.2195C18.658 59.004 18.658 58.786 18.6306 58.5705L18.6831 58.2899ZM16.9289 57.2023L15.7187 56.9918C15.8167 56.553 16.0649 56.1621 16.4204 55.8867C16.8662 55.6269 17.3788 55.5048 17.8938 55.5359C18.3424 55.5095 18.7914 55.5813 19.2094 55.7464C19.4688 55.8543 19.6848 56.0456 19.8233 56.2901C19.9712 56.6755 20.0311 57.089 19.9987 57.5005V59.0793C19.9634 59.4058 19.9634 59.7351 19.9987 60.0616C20.0466 60.3004 20.1294 60.5309 20.2443 60.7457H18.9287C18.9287 60.7457 18.9288 60.5176 18.7884 60.3422C18.7838 60.2897 18.7838 60.2369 18.7884 60.1844C18.5798 60.4021 18.3291 60.5751 18.0516 60.693C17.7914 60.8065 17.5111 60.8661 17.2272 60.8684C16.7828 60.8809 16.3503 60.7242 16.017 60.4299C15.8706 60.2931 15.7544 60.1273 15.6759 59.9431C15.5973 59.7588 15.5582 59.5602 15.5609 59.3599C15.5557 59.0878 15.6287 58.8199 15.7714 58.5881C15.9086 58.366 16.1022 58.1844 16.3326 58.0618C16.6735 57.909 17.0334 57.8028 17.4026 57.7461C17.8403 57.6822 18.2697 57.5704 18.6831 57.4128V57.29C18.6927 57.1881 18.6806 57.0853 18.6473 56.9885C18.614 56.8917 18.5604 56.8031 18.4901 56.7287C18.2794 56.6017 18.0335 56.5464 17.7887 56.5709C17.5912 56.5542 17.3936 56.6035 17.2272 56.7111C17.0738 56.8383 16.9636 57.0099 16.9116 57.2023M11.3333 53.6941V56.2726C11.5167 56.0381 11.7509 55.8484 12.0183 55.7178C12.2858 55.5871 12.5794 55.5189 12.877 55.5183C13.162 55.5089 13.4449 55.5692 13.7014 55.6938C13.9203 55.7859 14.1089 55.9379 14.2453 56.1323C14.3695 56.3129 14.4586 56.5152 14.5082 56.7287C14.5349 57.0673 14.5349 57.4075 14.5082 57.7461V60.7282H13.1753V58.0267C13.2169 57.6889 13.2169 57.3473 13.1753 57.0094C13.1241 56.8738 13.0321 56.7574 12.9121 56.6761C12.7636 56.5887 12.593 56.5461 12.4209 56.5533C12.2171 56.5515 12.0168 56.6061 11.8421 56.7111C11.6643 56.8294 11.5289 57.0016 11.456 57.2023C11.3679 57.5161 11.3266 57.8412 11.3333 58.1671V60.7282H10.0177V53.7116L11.3333 53.6941ZM3.22925 58.4477L4.59753 58.3074C4.63633 58.6938 4.8101 59.0541 5.08852 59.3248C5.3755 59.5565 5.73758 59.6751 6.10606 59.6581C6.46456 59.6839 6.82006 59.5779 7.10582 59.3599C7.21548 59.2829 7.30486 59.1805 7.36599 59.0613C7.42711 58.9421 7.45828 58.8097 7.45678 58.6757C7.45555 58.5241 7.40629 58.3768 7.31631 58.2548C7.17113 58.1186 6.99745 58.0168 6.80775 57.9566L5.68508 57.6409C5.11893 57.5362 4.58461 57.302 4.12387 56.9567C3.91328 56.7861 3.74506 56.5691 3.63245 56.3226C3.51984 56.0761 3.46592 55.8068 3.47485 55.5359C3.47679 55.181 3.58013 54.834 3.77292 54.536C3.98411 54.2116 4.29046 53.9604 4.64999 53.8169C5.07965 53.6469 5.5387 53.5634 6.00071 53.5713C6.70425 53.5183 7.40289 53.7242 7.96533 54.1502C8.18366 54.3469 8.35764 54.5878 8.4756 54.857C8.59355 55.1262 8.65281 55.4174 8.64947 55.7113H7.26385C7.22699 55.4175 7.09066 55.1452 6.87777 54.9394C6.61603 54.7585 6.30057 54.672 5.98315 54.6939C5.64702 54.6748 5.31414 54.7672 5.03606 54.957C4.96642 55.0031 4.90902 55.0656 4.86925 55.139C4.82948 55.2124 4.80855 55.2945 4.80801 55.378C4.80796 55.4622 4.82682 55.5454 4.86326 55.6213C4.8997 55.6972 4.95277 55.7639 5.0185 55.8165C5.41699 56.0424 5.84939 56.2024 6.29899 56.2901C6.82173 56.3937 7.3288 56.5648 7.80752 56.7989C8.12647 56.9544 8.39439 57.1978 8.57945 57.5005C8.76872 57.8441 8.86529 58.231 8.85996 58.6232C8.85499 59.0265 8.73984 59.4208 8.52677 59.7633C8.30845 60.1143 7.98221 60.3851 7.59703 60.5351C7.11719 60.7241 6.60398 60.8137 6.0885 60.7983C5.36412 60.8429 4.64789 60.625 4.0712 60.1844C3.57959 59.7266 3.27892 59.1001 3.22925 58.4302" fill="#8F8183"/>
<path fill-rule="evenodd" clip-rule="evenodd" d="M44.9598 0L61.2733 25.1368L44.9598 31.2412V0Z" fill="#8F8183"/>
<path opacity="0.7" fill-rule="evenodd" clip-rule="evenodd" d="M44.96 0L28.6465 25.1368L44.96 31.2412V0Z" fill="#8F8183"/>
<path fill-rule="evenodd" clip-rule="evenodd" d="M2.54492 50.8352L23.8226 51.0807L45.1178 51.3263L66.413 51.0807L87.7082 50.8352L66.413 50.5895L45.1178 50.344L23.8226 50.5895L2.54492 50.8352Z" fill="#8F8183"/>
<path d="M93.5145 34.0659H94.0057C94.1764 34.084 94.3485 34.0471 94.4969 33.9607C94.5383 33.9271 94.571 33.8841 94.5924 33.8353C94.6138 33.7865 94.6231 33.7331 94.6196 33.68C94.6205 33.6077 94.5992 33.5369 94.5583 33.4773C94.5175 33.4176 94.4593 33.372 94.3915 33.3467H93.9881H93.5145V34.0659ZM93.0935 35.5043V32.9608H93.9706C94.1854 32.9242 94.4048 32.9242 94.6196 32.9608C94.7539 33.0052 94.8708 33.0913 94.953 33.2064C95.0199 33.3178 95.0561 33.4448 95.0581 33.5747C95.0621 33.6655 95.047 33.7563 95.0138 33.8409C94.9806 33.9255 94.93 34.0021 94.8652 34.0659C94.7236 34.2038 94.5363 34.285 94.3389 34.294C94.4178 34.3261 94.4894 34.3738 94.5493 34.4343C94.6952 34.5901 94.8247 34.7605 94.9354 34.943L95.2335 35.4341H94.7425L94.5144 35.0307C94.4089 34.805 94.2599 34.6024 94.0759 34.4343C93.9827 34.3722 93.872 34.3414 93.7601 34.3465H93.5145V35.4341L93.0935 35.5043ZM94.1459 32.2241C93.8014 32.2265 93.4633 32.317 93.1637 32.4872C92.8517 32.6478 92.595 32.8984 92.4269 33.2064C92.2546 33.5115 92.1639 33.8559 92.1637 34.2063C92.1635 34.5456 92.2544 34.8788 92.4269 35.171C92.5973 35.4818 92.853 35.7374 93.1637 35.9077C93.4624 36.0801 93.8011 36.1709 94.1459 36.1709C94.4905 36.1685 94.8288 36.0779 95.1284 35.9077C95.4304 35.7318 95.679 35.4772 95.8476 35.171C96.0201 34.8788 96.1108 34.5456 96.1106 34.2063C96.1104 33.8559 96.0199 33.5115 95.8476 33.2064C95.6795 32.8984 95.4228 32.6478 95.1108 32.4872C94.8176 32.317 94.4849 32.2263 94.1459 32.2241ZM94.1459 31.8381C94.5499 31.8455 94.9465 31.9476 95.3037 32.1363C95.6732 32.3397 95.9774 32.6439 96.1808 33.0134C96.3873 33.377 96.4962 33.7881 96.4966 34.2063C96.4914 34.6161 96.3891 35.0188 96.1983 35.3815C95.9946 35.7463 95.6901 36.0447 95.3213 36.241C94.9628 36.4446 94.5582 36.5533 94.1459 36.5568C93.733 36.5582 93.3274 36.4492 92.9708 36.241C92.5982 36.0498 92.2924 35.7502 92.0937 35.3815C91.8876 35.021 91.7792 34.6128 91.7792 34.1975C91.7792 33.7822 91.8876 33.3739 92.0937 33.0134C92.2972 32.6439 92.6013 32.3397 92.9708 32.1363C93.3335 31.9455 93.7361 31.8434 94.1459 31.8381Z" fill="#8F8183"/>
</svg>
