<svg width="153" height="21" viewBox="0 0 153 21" fill="none" xmlns="http://www.w3.org/2000/svg">
<path d="M21.8567 5.7876L14.2262 8.96258L6.59566 5.7876L0.00012207 8.69942V11.0324L6.61322 8.69942L14.2262 11.2955L21.8391 8.69942L28.4522 11.0324V8.69942L21.8567 5.7876Z" fill="#8F8183"/>
<path d="M21.7865 11.5762L14.2262 13.5408L6.66584 11.5762L0.00012207 13.3654V15.7335L6.68338 14.4704L14.2262 15.8738L21.7689 14.4704L28.4522 15.7335V13.3654L21.7865 11.5762Z" fill="#8F8183"/>
<path d="M28.4522 17.9088L21.8917 17.1545L14.2262 17.9264L6.5606 17.1545L0.00012207 17.9088V20.0839H28.4522V17.9088Z" fill="#8F8183"/>
<path d="M21.9093 0L14.2262 4.36789L6.5606 0L0.00012207 4.01704V6.33251L6.54304 2.96449L14.2262 6.6658L21.8742 2.98205L28.4522 6.33251V4.01704L21.9093 0Z" fill="#8F8183"/>
<path d="M50.1684 20.085V11.1039L46.7478 20.085H45.2042L41.7485 11.1039V20.085H38.2578V6.49048H43.1168L45.976 13.9982L48.8001 6.49048H53.6766V20.085H50.1684Z" fill="#8F8183"/>
<path d="M62.0091 9.96376L60.255 15.0858H63.7633L62.0091 9.96376ZM65.3596 20.0851L64.6754 18.138H59.413L58.7289 20.0851H54.7645L59.8867 6.50806H64.2896L69.4115 20.0851H65.3596Z" fill="#8F8183"/>
<path d="M78.2875 10.9969C78.2833 10.7813 78.2322 10.5692 78.138 10.3751C78.0439 10.1811 77.9089 10.0099 77.7421 9.87312C77.5754 9.73638 77.381 9.6374 77.1723 9.58309C76.9636 9.52877 76.7456 9.52036 76.5334 9.55846H73.7617V12.4704H76.5334C76.7485 12.509 76.9695 12.4997 77.1807 12.4434C77.3919 12.3871 77.588 12.285 77.7554 12.1444C77.9228 12.0038 78.0572 11.8281 78.1492 11.6298C78.2411 11.4315 78.2884 11.2154 78.2875 10.9969ZM77.9014 20.0833L75.6212 15.5226H73.867V20.0833H70.3588V6.50628H77.1648C77.7806 6.45376 78.4005 6.53249 78.9836 6.73733C79.5667 6.94216 80.0997 7.26848 80.5474 7.69458C80.9951 8.12069 81.3472 8.63693 81.5806 9.20922C81.8139 9.78151 81.923 10.3968 81.9009 11.0144C81.9458 11.8972 81.7057 12.771 81.2161 13.5069C80.7266 14.2428 80.0136 14.8018 79.1821 15.1016L81.9536 20.0833H77.9014Z" fill="#8F8183"/>
<path d="M89.6899 9.96376L87.9357 15.0858H91.444L89.6899 9.96376ZM93.0226 20.0851L92.3562 18.138H87.0938L86.4097 20.0851H82.4277L87.5497 6.50806H91.9701L97.0923 20.0851H93.0226Z" fill="#8F8183"/>
<path d="M99.7751 20.085V9.54266H95.9686V6.49048H107.072V9.54266H103.283V20.085H99.7751Z" fill="#8F8183"/>
<path d="M117.895 20.085V14.6297H112.247V20.085H108.739V6.49048H112.247V11.56H117.895V6.49048H121.404V20.085H117.895Z" fill="#8F8183"/>
<path d="M134.104 13.3127C134.06 12.5913 133.805 11.8987 133.371 11.3204C132.938 10.7422 132.344 10.3035 131.664 10.0586C130.984 9.81363 130.247 9.77313 129.545 9.94209C128.842 10.111 128.204 10.482 127.71 11.0093C127.216 11.5366 126.886 12.1971 126.763 12.9093C126.64 13.6214 126.728 14.3541 127.016 15.0169C127.304 15.6797 127.78 16.2435 128.385 16.6389C128.99 17.0343 129.698 17.244 130.42 17.2419C130.926 17.2457 131.427 17.1447 131.892 16.9453C132.357 16.7459 132.776 16.4524 133.122 16.0833C133.468 15.7142 133.734 15.2776 133.903 14.8008C134.072 14.3239 134.14 13.8173 134.104 13.3127ZM123.158 13.3127C123.109 11.8669 123.493 10.4395 124.261 9.21341C125.029 7.9873 126.145 7.01832 127.467 6.43082C128.789 5.84332 130.256 5.66399 131.681 5.91584C133.105 6.1677 134.422 6.83934 135.462 7.84449C136.503 8.84965 137.219 10.1426 137.52 11.5576C137.821 12.9726 137.692 14.4452 137.15 15.7865C136.608 17.1278 135.678 18.2768 134.479 19.0862C133.28 19.8956 131.867 20.3284 130.42 20.3292C129.475 20.3774 128.529 20.2308 127.643 19.8985C126.756 19.5662 125.947 19.0552 125.266 18.3973C124.585 17.7393 124.047 16.9485 123.684 16.0739C123.322 15.1992 123.143 14.2594 123.158 13.3127Z" fill="#8F8183"/>
<path d="M148.698 20.085L142.962 12.2265V20.085H139.454V6.49048H143.068L148.558 13.9807V6.49048H152.084V20.085H148.698Z" fill="#8F8183"/>
</svg>
