<svg width="135" height="35" viewBox="0 0 135 35" fill="none" xmlns="http://www.w3.org/2000/svg">
<path fill-rule="evenodd" clip-rule="evenodd" d="M27.1211 15.9802H18.0346V6.89374L23.6655 1.26293C25.0016 1.83789 26.262 2.57426 27.4192 3.4556L24.0865 6.7885C23.6719 7.20584 23.4392 7.77024 23.4392 8.35848C23.4392 8.94672 23.6719 9.51102 24.0865 9.92836C24.292 10.1357 24.5365 10.3004 24.8059 10.4127C25.0754 10.5251 25.3643 10.5828 25.6562 10.5828C25.9482 10.5828 26.2373 10.5251 26.5068 10.4127C26.7762 10.3004 27.0207 10.1357 27.2262 9.92836L30.5767 6.59557C31.4625 7.7465 32.1938 9.00844 32.7518 10.3493L27.1035 15.9802H27.1211ZM6.96608 18.0676H16.0348V27.154L10.4041 32.7848C9.0736 32.2097 7.81875 31.4733 6.6678 30.5921L10.0183 27.2592C10.4245 26.8376 10.6514 26.2748 10.6514 25.6893C10.6514 25.1037 10.4245 24.5411 10.0183 24.1194C9.81127 23.9115 9.56522 23.7465 9.29429 23.6339C9.02337 23.5214 8.73287 23.4634 8.4395 23.4634C8.14612 23.4634 7.85562 23.5214 7.5847 23.6339C7.31377 23.7465 7.06772 23.9115 6.86073 24.1194L3.52783 27.4522C2.64197 26.3012 1.91072 25.0393 1.35272 23.6984L6.96608 18.0676ZM18.0346 27.154V18.0676H27.1035L32.7518 23.6984C32.1938 25.0393 31.4625 26.3012 30.5767 27.4522L27.2262 24.1194C27.0207 23.912 26.7762 23.7473 26.5068 23.635C26.2373 23.5227 25.9482 23.4649 25.6562 23.4649C25.3643 23.4649 25.0754 23.5227 24.8059 23.635C24.5365 23.7473 24.292 23.912 24.0865 24.1194C23.6719 24.5367 23.4392 25.101 23.4392 25.6893C23.4392 26.2775 23.6719 26.8419 24.0865 27.2592L27.4192 30.5921C26.262 31.4735 25.0016 32.2098 23.6655 32.7848L18.0346 27.154ZM16.0348 6.98143V16.0678H6.96608L1.33516 10.4371C1.89316 9.09623 2.62441 7.83418 3.51027 6.68325L6.84317 10.016C7.05016 10.224 7.29622 10.389 7.56714 10.5016C7.83806 10.6142 8.12856 10.672 8.42194 10.672C8.71531 10.672 9.00581 10.6142 9.27674 10.5016C9.54766 10.389 9.79371 10.224 10.0007 10.016C10.4069 9.59437 10.6339 9.0317 10.6339 8.44617C10.6339 7.86064 10.4069 7.29787 10.0007 6.87618L6.65024 3.54328C7.80119 2.66215 9.05604 1.92575 10.3866 1.35061L16.0173 6.98143H16.0348ZM12.5266 33.504L17.0524 28.9783L21.5955 33.504C20.116 33.9139 18.5876 34.1205 17.0524 34.118C15.5228 34.1218 13.9998 33.9151 12.5266 33.504ZM12.5266 0.613905L17.0524 5.15716L21.5955 0.613905C20.1143 0.212375 18.587 0.00602405 17.0524 0C15.5234 0.00493054 14.0016 0.211314 12.5266 0.613905ZM0.598558 12.5246L5.15927 17.0677L0.598558 21.611C-0.199519 18.6347 -0.199519 15.5008 0.598558 12.5246ZM33.4886 12.5246L28.9452 17.0677L33.4886 21.611C34.307 18.6374 34.307 15.4981 33.4886 12.5246Z" fill="#8F8183"/>
<path d="M49.9948 19.4371C50.008 19.1691 49.9595 18.9015 49.8531 18.6552C49.7466 18.4089 49.5851 18.1902 49.3809 18.0161C48.7037 17.552 47.9579 17.1969 47.1707 16.9637C45.4474 16.4703 43.8132 15.7065 42.3293 14.7009C41.7936 14.2949 41.3685 13.761 41.0927 13.1481C40.8169 12.5351 40.6993 11.8628 40.7507 11.1926C40.7394 10.5099 40.8929 9.83448 41.1982 9.22373C41.5036 8.61299 41.9519 8.08495 42.5049 7.68437C43.8737 6.74253 45.5104 6.26869 47.1707 6.33365C48.8857 6.24192 50.5808 6.73683 51.977 7.73694C52.5725 8.19484 53.0448 8.79387 53.3511 9.47983C53.6573 10.1658 53.7878 10.9171 53.7312 11.6662H49.8019C49.8263 11.3428 49.7792 11.0181 49.664 10.7149C49.5488 10.4118 49.3683 10.1376 49.1353 9.91205C48.5469 9.49964 47.8351 9.3016 47.1182 9.35082C46.4868 9.31231 45.863 9.50567 45.3641 9.8946C45.1626 10.0525 45.0005 10.2552 44.8909 10.4866C44.7813 10.718 44.727 10.9717 44.7324 11.2277C44.7313 11.4699 44.7901 11.7087 44.9033 11.9229C45.0165 12.1371 45.1807 12.32 45.3814 12.4556C46.1514 12.9258 46.9687 13.3139 47.8197 13.6134C49.4822 14.0314 51.0446 14.7769 52.4156 15.806C52.9248 16.2341 53.3301 16.7724 53.6005 17.3802C53.871 17.988 53.9997 18.6494 53.9768 19.3143C54.0088 20.0126 53.865 20.7078 53.5586 21.3361C53.2521 21.9644 52.7927 22.5057 52.2226 22.9103C50.8146 23.8335 49.1508 24.2879 47.469 24.2083C45.6862 24.2721 43.9274 23.7819 42.4346 22.805C41.7447 22.3148 41.1965 21.6511 40.8454 20.8811C40.4942 20.111 40.3526 19.262 40.4349 18.4197H44.3817C44.3408 18.8127 44.3873 19.2097 44.5177 19.5827C44.648 19.9557 44.8593 20.2953 45.1361 20.5772C45.7978 21.0655 46.6145 21.2962 47.4339 21.2262C48.0989 21.2725 48.7603 21.0934 49.3109 20.7176C49.5146 20.5616 49.6779 20.3592 49.7878 20.1273C49.8976 19.8955 49.9507 19.6408 49.9424 19.3844M73.1144 16.8585C73.1415 17.8268 72.9756 18.7908 72.6262 19.6943C72.2769 20.5978 71.7511 21.4227 71.0796 22.1209C70.3887 22.8059 69.5663 23.344 68.6619 23.7027C67.7575 24.0615 66.7898 24.2335 65.8172 24.2083C64.826 24.2696 63.8332 24.1199 62.9042 23.7689C61.9752 23.418 61.1312 22.8739 60.4282 22.1725C59.7252 21.4711 59.179 20.6284 58.8259 19.7003C58.4728 18.7721 58.3207 17.7796 58.3797 16.7883V13.6484C58.3568 12.6791 58.5265 11.7149 58.8788 10.8116C59.2311 9.90831 59.759 9.08386 60.4321 8.38596C61.8945 7.04481 63.8065 6.30078 65.7908 6.30078C67.7751 6.30078 69.6874 7.04481 71.1498 8.38596C71.8261 9.08156 72.3562 9.90562 72.7087 10.8095C73.0612 11.7133 73.229 12.6786 73.2022 13.6484L73.1144 16.8585ZM69.0798 13.701C69.1296 12.6096 68.8216 11.5317 68.2028 10.6313C67.9019 10.2579 67.5212 9.95661 67.0887 9.74963C66.6561 9.54266 66.1828 9.43529 65.7033 9.43529C65.2237 9.43529 64.7502 9.54266 64.3176 9.74963C63.8851 9.95661 63.5044 10.2579 63.2035 10.6313C62.587 11.5328 62.2793 12.6099 62.3265 13.701V16.8585C62.2792 17.9606 62.5866 19.0488 63.2035 19.9633C63.4943 20.3554 63.8764 20.6705 64.3166 20.8814C64.7568 21.0923 65.2419 21.1927 65.7296 21.1737C66.2124 21.193 66.6924 21.0926 67.127 20.8814C67.5616 20.6702 67.9372 20.3548 68.2203 19.9633C68.831 19.0467 69.1322 17.9586 69.0798 16.8585V13.701ZM92.5677 24.0329H88.5334L82.1307 13.0345V23.9978H78.0786V6.45645H82.1307L88.5334 17.4374V6.47401H92.5677V24.0329ZM107.11 20.6299H101.847L100.847 24.0329H96.5672L102.286 6.49157H106.636L112.337 24.0329H108.197L107.11 20.6299ZM102.865 17.525H106.18L104.549 12.1047L102.865 17.525ZM125.3 18.788L129.229 6.50902H134.597V24.0504H130.545V12.8064L126.703 24.0679H123.984L120.213 12.9643V24.0504H116.161V6.50902H121.423L125.3 18.788Z" fill="#8F8183"/>
<path d="M42.6448 30.3457C42.8218 30.3688 43.0017 30.353 43.172 30.2994C43.3422 30.2459 43.4987 30.1559 43.6306 30.0356C43.7626 29.9154 43.8667 29.7679 43.9358 29.6033C44.0049 29.4387 44.0372 29.2611 44.0306 29.0828C44.0404 28.9036 44.01 28.7244 43.942 28.5584C43.874 28.3923 43.7699 28.2434 43.6373 28.1225C43.5046 28.0016 43.3469 27.9117 43.1752 27.8593C43.0035 27.807 42.8223 27.7935 42.6448 27.8197H41.8555C41.8011 27.8149 41.7462 27.8212 41.6943 27.8382C41.6424 27.8553 41.5946 27.8827 41.5536 27.9188C41.5126 27.9548 41.4792 27.9989 41.4557 28.0482C41.4323 28.0975 41.4192 28.1511 41.417 28.2057V31.328C41.4169 31.3779 41.4269 31.4273 41.4465 31.4732C41.4661 31.5191 41.4948 31.5605 41.5309 31.5949C41.567 31.6294 41.6097 31.656 41.6564 31.6735C41.7031 31.6909 41.753 31.6988 41.8029 31.6964C41.9005 31.6964 41.9941 31.6576 42.0632 31.5885C42.1323 31.5194 42.1712 31.4257 42.1712 31.328V30.3457H42.6448ZM42.1712 28.4863H42.6448C43.1535 28.4863 43.2587 28.7846 43.2587 29.0828C43.2587 29.381 43.0483 29.644 42.6448 29.644H42.1712V28.4863ZM48.8721 28.96C48.8721 28.3986 48.5387 27.8197 47.5038 27.8197H46.574C46.5211 27.8174 46.4682 27.8255 46.4184 27.8436C46.3685 27.8617 46.3226 27.8896 46.2835 27.9254C46.2444 27.9612 46.2127 28.0044 46.1903 28.0525C46.1679 28.1006 46.1553 28.1527 46.1531 28.2057V31.328C46.1531 31.4257 46.1919 31.5194 46.261 31.5885C46.3301 31.6576 46.4237 31.6964 46.5214 31.6964C46.5712 31.6988 46.6211 31.6909 46.6678 31.6735C46.7146 31.656 46.7572 31.6294 46.7933 31.5949C46.8294 31.5605 46.8581 31.5191 46.8777 31.4732C46.8973 31.4273 46.9075 31.3779 46.9074 31.328V30.1001H47.2757L48.2055 31.5209C48.2395 31.5728 48.2864 31.6148 48.3419 31.6426C48.3974 31.6703 48.4592 31.6828 48.5211 31.6788C48.5857 31.6805 48.6496 31.6652 48.7063 31.6343C48.7631 31.6035 48.8109 31.5581 48.8447 31.503C48.8784 31.448 48.8971 31.385 48.8988 31.3204C48.9006 31.2558 48.8853 31.1919 48.8545 31.1351L48.1001 30.0124C48.3284 29.9494 48.5288 29.8112 48.6689 29.6202C48.8089 29.4292 48.8806 29.1966 48.8721 28.96ZM48.1001 28.96C48.1001 29.2406 47.9073 29.3985 47.5214 29.3985H46.9074V28.5916H47.5038C47.995 28.5916 48.1001 28.8372 48.1001 29.0652M52.4152 31.8017C52.6052 31.8146 52.7959 31.7867 52.9741 31.7199C53.1524 31.653 53.3142 31.5489 53.4488 31.4143C53.5835 31.2797 53.6876 31.1177 53.7544 30.9395C53.8212 30.7612 53.8492 30.5707 53.8362 30.3808V29.2932C53.8584 29.0946 53.8384 28.8934 53.7775 28.703C53.7167 28.5126 53.6164 28.3372 53.4831 28.1882C53.3498 28.0393 53.1866 27.9201 53.0041 27.8385C52.8216 27.7569 52.6239 27.7147 52.424 27.7147C52.2241 27.7147 52.0266 27.7569 51.8442 27.8385C51.6617 27.9201 51.4984 28.0393 51.3652 28.1882C51.2319 28.3372 51.1316 28.5126 51.0707 28.703C51.0099 28.8934 50.9899 29.0946 51.0121 29.2932V30.3457C50.9964 30.5347 51.0218 30.7249 51.0866 30.9032C51.1513 31.0815 51.2539 31.2437 51.3872 31.3786C51.5205 31.5136 51.6813 31.6181 51.8587 31.6851C52.0362 31.752 52.226 31.7798 52.4152 31.7665M52.4152 28.5214C52.9064 28.5214 53.0643 28.8196 53.0643 29.2581V30.3457C53.0643 30.7667 52.8713 31.0824 52.4152 31.0824C51.9592 31.0824 51.7662 30.7667 51.7662 30.3457V29.2581C51.7662 28.8196 51.9416 28.5214 52.4152 28.5214ZM59.4318 28.1881C59.4318 28.0904 59.3932 27.9967 59.3241 27.9276C59.255 27.8586 59.1612 27.8197 59.0635 27.8197C58.9842 27.8175 58.9059 27.8377 58.8376 27.8781C58.7693 27.9184 58.7139 27.9773 58.6776 28.0478L57.7128 29.9773L56.7481 28.0478C56.7155 27.9743 56.6608 27.9129 56.5916 27.872C56.5224 27.8311 56.4421 27.8128 56.3621 27.8197C56.3114 27.8174 56.2607 27.8251 56.213 27.8423C56.1653 27.8596 56.1216 27.886 56.0841 27.9203C56.0466 27.9545 56.0161 27.9957 55.9946 28.0417C55.9731 28.0876 55.9609 28.1374 55.9586 28.1881V31.4332C55.9674 31.5247 56.0102 31.6097 56.0783 31.6714C56.1465 31.733 56.2352 31.767 56.3271 31.7665C56.424 31.7718 56.5192 31.7405 56.594 31.6787C56.6687 31.617 56.7175 31.5293 56.7306 31.4332V29.5563L57.362 30.7667C57.3932 30.8325 57.4431 30.8877 57.5055 30.9251C57.5679 30.9626 57.64 30.9807 57.7128 30.9772C57.7851 30.9785 57.8563 30.9594 57.9183 30.9222C57.9804 30.885 58.0309 30.8311 58.0637 30.7667L58.6952 29.5563V31.4332C58.6973 31.4809 58.709 31.5277 58.7299 31.5706C58.7507 31.6136 58.7803 31.6518 58.8164 31.683C58.8525 31.7142 58.8946 31.7377 58.9402 31.7521C58.9857 31.7664 59.0336 31.7714 59.081 31.7665C59.1711 31.7666 59.2577 31.7321 59.323 31.6701C59.3883 31.608 59.4273 31.5232 59.4318 31.4332V28.1881ZM61.7474 31.4157C61.7474 31.5134 61.7862 31.6071 61.8553 31.6762C61.9244 31.7453 62.018 31.7841 62.1157 31.7841C62.2134 31.7841 62.3072 31.7453 62.3763 31.6762C62.4453 31.6071 62.484 31.5134 62.484 31.4157V28.1881C62.484 28.0904 62.4453 27.9967 62.3763 27.9276C62.3072 27.8586 62.2134 27.8197 62.1157 27.8197C62.018 27.8197 61.9244 27.8586 61.8553 27.9276C61.7862 27.9967 61.7474 28.0904 61.7474 28.1881V31.4157ZM66.3783 30.6089C66.3783 30.9071 66.1852 31.0824 65.8169 31.0824C65.6294 31.0764 65.445 31.0348 65.2732 30.9596H65.01C64.9181 30.9592 64.8294 30.9932 64.7612 31.0549C64.6931 31.1165 64.6505 31.2014 64.6417 31.2929C64.6417 31.6788 65.4134 31.8192 65.8169 31.8192C65.9857 31.8389 66.157 31.8228 66.3192 31.772C66.4814 31.7212 66.631 31.6368 66.7584 31.5242C66.8858 31.4117 66.9881 31.2736 67.0586 31.1189C67.1291 30.9642 67.1663 30.7963 67.1676 30.6263C67.1676 29.8545 66.5887 29.6616 66.0625 29.5037C65.9228 29.4736 65.7873 29.4264 65.6591 29.3634C65.59 29.33 65.5318 29.2777 65.4914 29.2124C65.451 29.1472 65.4301 29.0717 65.431 28.995C65.431 28.6792 65.6767 28.574 65.9573 28.574C66.0897 28.5398 66.2284 28.5398 66.3608 28.574C66.4534 28.5924 66.5488 28.5924 66.6415 28.574C66.6876 28.5764 66.7335 28.5697 66.777 28.5542C66.8205 28.5387 66.8606 28.5148 66.8948 28.4838C66.929 28.4529 66.9566 28.4154 66.9764 28.3737C66.9961 28.332 67.0075 28.2868 67.0098 28.2407C67.0098 27.8197 66.2379 27.732 65.9047 27.732C65.7449 27.7147 65.5834 27.7314 65.4306 27.7809C65.2777 27.8304 65.137 27.9116 65.0177 28.0193C64.8985 28.1269 64.8033 28.2586 64.7385 28.4056C64.6737 28.5526 64.6408 28.7115 64.6417 28.8722C64.6417 29.6615 65.2382 29.837 65.7644 30.0124L66.1678 30.1528C66.2731 30.1528 66.3783 30.2755 66.3783 30.5211M71.6407 31.2754C71.6386 31.2277 71.6267 31.1809 71.6058 31.138C71.585 31.095 71.5557 31.0569 71.5195 31.0257C71.4834 30.9945 71.4413 30.971 71.3958 30.9566C71.3502 30.9422 71.3021 30.9373 71.2546 30.9421H70.0795V30.0475H71.0968C71.1452 30.0499 71.1936 30.0427 71.2392 30.0263C71.2848 30.01 71.3267 29.9847 71.3626 29.9521C71.3984 29.9195 71.4276 29.8802 71.4482 29.8364C71.4688 29.7925 71.4804 29.7451 71.4827 29.6967C71.4738 29.6021 71.4287 29.5146 71.3568 29.4525C71.2849 29.3903 71.1917 29.3584 71.0968 29.3634H70.0795V28.5916H71.2197C71.31 28.5965 71.3986 28.5664 71.4673 28.5076C71.5359 28.4488 71.5791 28.3658 71.588 28.2758C71.5835 28.1812 71.5427 28.0919 71.4741 28.0266C71.4055 27.9612 71.3145 27.9249 71.2197 27.925H69.7461C69.6931 27.9226 69.6403 27.9307 69.5904 27.9488C69.5406 27.967 69.4949 27.9948 69.4558 28.0306C69.4167 28.0665 69.385 28.1096 69.3626 28.1577C69.3402 28.2058 69.3274 28.2579 69.3251 28.3109V31.3631C69.3251 31.6613 69.5532 31.749 69.8339 31.749H71.2546C71.303 31.7513 71.3514 31.7441 71.397 31.7278C71.4426 31.7114 71.4845 31.6863 71.5204 31.6537C71.5562 31.6211 71.5854 31.5817 71.606 31.5378C71.6267 31.494 71.6385 31.4465 71.6407 31.3981M78.3239 31.8017C78.5138 31.8146 78.7043 31.7867 78.8825 31.7199C79.0608 31.653 79.2228 31.5489 79.3575 31.4143C79.4921 31.2797 79.5962 31.1177 79.663 30.9395C79.7298 30.7612 79.7578 30.5707 79.7448 30.3808V29.2932C79.767 29.0946 79.747 28.8934 79.6861 28.703C79.6253 28.5126 79.525 28.3372 79.3917 28.1882C79.2584 28.0393 79.0952 27.9201 78.9127 27.8385C78.7302 27.7569 78.5325 27.7147 78.3326 27.7147C78.1328 27.7147 77.9353 27.7569 77.7528 27.8385C77.5703 27.9201 77.4071 28.0393 77.2738 28.1882C77.1405 28.3372 77.0402 28.5126 76.9794 28.703C76.9185 28.8934 76.8985 29.0946 76.9207 29.2932V30.3457C76.905 30.5347 76.9305 30.7249 76.9952 30.9032C77.0599 31.0815 77.1623 31.2437 77.2956 31.3786C77.4289 31.5136 77.5899 31.6181 77.7673 31.6851C77.9448 31.752 78.1346 31.7798 78.3239 31.7665M78.3239 28.5214C78.815 28.5214 78.9904 28.8196 78.9904 29.2581V30.3457C79.0033 30.4395 78.9955 30.5349 78.9675 30.6253C78.9396 30.7158 78.8923 30.799 78.8288 30.8692C78.7653 30.9394 78.6871 30.9949 78.5999 31.0318C78.5127 31.0686 78.4185 31.0858 78.3239 31.0824C77.8853 31.0824 77.6748 30.7667 77.6748 30.3457V29.2581C77.6748 28.8196 77.8503 28.5214 78.3239 28.5214ZM82.7268 30.1352H83.7616C83.8092 30.1376 83.8569 30.1302 83.9015 30.1137C83.9461 30.0971 83.9867 30.0717 84.0212 30.0388C84.0556 30.006 84.0832 29.9665 84.1019 29.9228C84.1206 29.879 84.1302 29.8319 84.1302 29.7844C84.1178 29.6943 84.074 29.6115 84.0066 29.5505C83.9392 29.4896 83.8525 29.4544 83.7616 29.4511H82.7268V28.5916H83.867C83.9131 28.5939 83.9591 28.5871 84.0025 28.5716C84.046 28.5562 84.0861 28.5323 84.1203 28.5013C84.1545 28.4703 84.1824 28.4329 84.2021 28.3912C84.2218 28.3495 84.2331 28.3044 84.2353 28.2583C84.2308 28.1636 84.19 28.0743 84.1214 28.009C84.0528 27.9437 83.9617 27.9073 83.867 27.9074H82.376C82.269 27.9074 82.1663 27.9499 82.0906 28.0256C82.0149 28.1013 81.9726 28.2039 81.9726 28.3109V31.4508C81.9749 31.4992 81.9865 31.5467 82.0071 31.5905C82.0277 31.6344 82.0569 31.6737 82.0927 31.7063C82.1286 31.7388 82.1705 31.7641 82.2161 31.7805C82.2617 31.7968 82.3101 31.804 82.3585 31.8017C82.4532 31.8018 82.5443 31.7654 82.6129 31.7C82.6814 31.6347 82.7223 31.5454 82.7268 31.4508V30.1352ZM90.3223 30.9596H91.4974L91.6904 31.5209C91.7212 31.5933 91.7725 31.6551 91.8379 31.6988C91.9034 31.7424 91.9802 31.766 92.0589 31.7665C92.1073 31.7689 92.1555 31.7617 92.2011 31.7453C92.2467 31.729 92.2888 31.7037 92.3246 31.6711C92.3605 31.6386 92.3894 31.5992 92.4101 31.5554C92.4307 31.5116 92.4425 31.4641 92.4447 31.4157C92.4447 31.4157 92.4447 31.328 92.4447 31.3104L91.3748 28.1881C91.3748 27.9776 91.1993 27.8197 90.9362 27.8197C90.6731 27.8197 90.5678 27.9776 90.4977 28.1881L89.4452 31.3104C89.4452 31.3104 89.4452 31.3104 89.4452 31.4157C89.4475 31.4641 89.4591 31.5116 89.4797 31.5554C89.5003 31.5992 89.5295 31.6386 89.5654 31.6711C89.6012 31.7037 89.6431 31.729 89.6887 31.7453C89.7343 31.7617 89.7827 31.7689 89.8311 31.7665C89.9093 31.7638 89.9851 31.7395 90.0502 31.6961C90.1152 31.6527 90.1669 31.592 90.1994 31.5209L90.3223 30.9596ZM91.287 30.3457H90.6555L90.9538 29.4159C90.9538 29.2405 90.9538 29.0476 90.9538 28.8722C90.9719 29.0563 91.007 29.2383 91.0589 29.4159L91.287 30.3457ZM98.3035 29.2581C98.3035 28.7845 98.4614 28.4863 98.9525 28.4863C99.1087 28.4923 99.2604 28.5409 99.3911 28.6267C99.4702 28.6563 99.5575 28.6563 99.6367 28.6267C99.6804 28.629 99.7242 28.6227 99.7656 28.6081C99.8069 28.5935 99.845 28.5709 99.8776 28.5416C99.9101 28.5122 99.9366 28.4767 99.9555 28.4372C99.9744 28.3976 99.9852 28.3547 99.9874 28.3109C99.9874 27.9952 99.4438 27.7145 98.8649 27.7145C98.674 27.6972 98.4816 27.7229 98.302 27.7899C98.1224 27.8568 97.9601 27.9633 97.8271 28.1013C97.6941 28.2394 97.5937 28.4056 97.5335 28.5876C97.4733 28.7696 97.4547 28.9627 97.4791 29.1529V30.3457C97.457 30.5338 97.4775 30.7244 97.5391 30.9035C97.6006 31.0826 97.7017 31.2455 97.8348 31.3802C97.9678 31.515 98.1295 31.6181 98.3078 31.682C98.4861 31.7458 98.6766 31.7687 98.8649 31.749C99.4263 31.749 100.11 31.5385 100.11 31.0298V29.8195C100.11 29.5739 99.8998 29.4511 99.6542 29.4511H99.0754C99.0241 29.4394 98.9707 29.4394 98.9193 29.4512C98.868 29.4629 98.8198 29.486 98.7787 29.5188C98.7375 29.5517 98.7041 29.5935 98.6812 29.641C98.6584 29.6885 98.6465 29.7404 98.6465 29.7931C98.6465 29.8458 98.6584 29.8979 98.6812 29.9454C98.7041 29.9929 98.7375 30.0346 98.7787 30.0674C98.8198 30.1003 98.868 30.1235 98.9193 30.1352C98.9707 30.1469 99.0241 30.1469 99.0754 30.1352H99.3384V30.9772C99.2079 31.0613 99.055 31.1041 98.8998 31.1C98.4087 31.1 98.2508 30.8018 98.2508 30.3457L98.3035 29.2581ZM103.671 31.7665C103.861 31.7795 104.052 31.7517 104.23 31.6848C104.408 31.618 104.57 31.5138 104.705 31.3792C104.839 31.2446 104.944 31.0826 105.01 30.9043C105.077 30.7261 105.105 30.5356 105.092 30.3457V29.2581C105.114 29.0595 105.094 28.8584 105.033 28.668C104.972 28.4776 104.872 28.3021 104.739 28.1531C104.606 28.0041 104.442 27.885 104.26 27.8035C104.077 27.7219 103.88 27.6797 103.68 27.6797C103.48 27.6797 103.282 27.7219 103.1 27.8035C102.917 27.885 102.754 28.0041 102.621 28.1531C102.488 28.3021 102.387 28.4776 102.327 28.668C102.266 28.8584 102.246 29.0595 102.268 29.2581V30.3457C102.252 30.5347 102.278 30.7249 102.342 30.9032C102.407 31.0815 102.51 31.2437 102.643 31.3786C102.776 31.5136 102.937 31.6181 103.115 31.6851C103.292 31.752 103.482 31.7798 103.671 31.7665ZM103.671 28.5214C104.162 28.5214 104.338 28.8196 104.338 29.2581V30.3457C104.351 30.4395 104.343 30.5349 104.315 30.6253C104.287 30.7158 104.239 30.799 104.176 30.8692C104.112 30.9394 104.034 30.9949 103.947 31.0318C103.86 31.0686 103.766 31.0858 103.671 31.0824C103.233 31.0824 103.022 30.7667 103.022 30.3457V29.2581C103.022 28.8196 103.215 28.5214 103.671 28.5214ZM108.635 31.7665C108.825 31.7795 109.016 31.7517 109.194 31.6848C109.372 31.618 109.534 31.5138 109.669 31.3792C109.803 31.2446 109.908 31.0826 109.975 30.9043C110.041 30.7261 110.069 30.5356 110.056 30.3457V29.2581C110.075 29.0661 110.051 28.8723 109.987 28.6905C109.922 28.5087 109.818 28.3433 109.683 28.206C109.547 28.0688 109.383 27.963 109.202 27.8963C109.021 27.8295 108.828 27.8034 108.635 27.8197C108.444 27.8029 108.251 27.8289 108.071 27.8957C107.89 27.9626 107.727 28.0687 107.593 28.2063C107.459 28.344 107.356 28.5098 107.294 28.6917C107.232 28.8735 107.21 29.067 107.232 29.2581V30.3457C107.216 30.5347 107.242 30.7249 107.307 30.9032C107.371 31.0815 107.474 31.2437 107.607 31.3786C107.74 31.5136 107.901 31.6181 108.079 31.6851C108.256 31.752 108.446 31.7798 108.635 31.7665ZM108.635 28.5214C109.109 28.5214 109.302 28.8196 109.302 29.2581V30.3457C109.302 30.5225 109.232 30.692 109.107 30.817C108.982 30.942 108.812 31.0123 108.635 31.0123C108.459 31.0123 108.289 30.942 108.164 30.817C108.039 30.692 107.969 30.5225 107.969 30.3457V29.2581C107.969 28.8196 108.162 28.5214 108.635 28.5214ZM114.968 30.2756V29.3458C114.968 28.5915 114.547 27.9074 113.319 27.9074H112.705C112.65 27.905 112.596 27.9138 112.545 27.933C112.494 27.9522 112.448 27.9815 112.408 28.0192C112.369 28.0569 112.338 28.1022 112.316 28.1524C112.295 28.2025 112.284 28.2564 112.284 28.3109V31.3631C112.286 31.4161 112.299 31.4681 112.321 31.5162C112.344 31.5643 112.375 31.6075 112.415 31.6433C112.454 31.6791 112.499 31.707 112.549 31.7251C112.599 31.7432 112.652 31.7513 112.705 31.749H113.319C114.547 31.749 114.968 31.0474 114.968 30.2756ZM114.214 30.2756C114.225 30.3836 114.212 30.4927 114.175 30.5949C114.138 30.6971 114.079 30.7897 114.001 30.8657C113.924 30.9417 113.83 30.999 113.727 31.0335C113.624 31.068 113.514 31.0787 113.407 31.0648H113.021V28.5916H113.407C113.512 28.5752 113.619 28.5829 113.721 28.6142C113.823 28.6456 113.916 28.6996 113.994 28.7723C114.071 28.8449 114.132 28.9344 114.17 29.0337C114.208 29.1331 114.223 29.2398 114.214 29.3458V30.2756ZM122.721 31.4157C122.721 31.3681 122.712 31.321 122.693 31.2773C122.674 31.2335 122.647 31.194 122.612 31.1612C122.578 31.1284 122.537 31.1029 122.492 31.0864C122.448 31.0698 122.4 31.0625 122.353 31.0648H121.178V28.2231C121.169 28.1253 121.125 28.0339 121.054 27.9661C120.983 27.8983 120.89 27.8587 120.792 27.8548C120.692 27.8547 120.597 27.893 120.525 27.9616C120.453 28.0302 120.41 28.1239 120.406 28.2231V31.3807C120.408 31.4314 120.42 31.4811 120.442 31.527C120.463 31.573 120.494 31.6142 120.531 31.6484C120.569 31.6827 120.612 31.7092 120.66 31.7265C120.708 31.7437 120.758 31.7513 120.809 31.749H122.353C122.399 31.7513 122.445 31.7446 122.488 31.7292C122.532 31.7137 122.572 31.6898 122.606 31.6588C122.64 31.6279 122.668 31.5904 122.688 31.5487C122.707 31.5069 122.719 31.4618 122.721 31.4157ZM124.773 31.4157C124.776 31.4641 124.787 31.5116 124.808 31.5554C124.829 31.5992 124.858 31.6386 124.894 31.6711C124.93 31.7037 124.971 31.729 125.017 31.7453C125.063 31.7617 125.111 31.7689 125.159 31.7665C125.256 31.7669 125.349 31.7312 125.42 31.6662C125.492 31.6013 125.537 31.5118 125.545 31.4157V28.1881C125.537 28.0903 125.493 27.9989 125.422 27.9311C125.351 27.8633 125.258 27.8236 125.159 27.8197C125.06 27.8196 124.964 27.8578 124.892 27.9265C124.821 27.9951 124.778 28.0889 124.773 28.1881V31.4157ZM128.615 30.1352H129.65C129.697 30.1376 129.745 30.1302 129.79 30.1137C129.834 30.0971 129.875 30.0717 129.909 30.0388C129.944 30.006 129.971 29.9665 129.99 29.9228C130.009 29.879 130.018 29.8319 130.018 29.7844C130.009 29.6929 129.967 29.6079 129.899 29.5462C129.831 29.4846 129.742 29.4506 129.65 29.4511H128.615V28.5916H129.755C129.803 28.5964 129.851 28.5915 129.896 28.5771C129.942 28.5627 129.984 28.5392 130.02 28.508C130.056 28.4768 130.085 28.4386 130.106 28.3956C130.127 28.3527 130.139 28.3059 130.141 28.2583C130.132 28.1621 130.088 28.0728 130.016 28.0078C129.945 27.9429 129.852 27.907 129.755 27.9074H128.282C128.227 27.905 128.173 27.9138 128.122 27.933C128.071 27.9522 128.024 27.9815 127.985 28.0192C127.946 28.0569 127.914 28.1022 127.893 28.1524C127.872 28.2025 127.861 28.2564 127.861 28.3109V31.4508C127.863 31.4992 127.875 31.5467 127.895 31.5905C127.916 31.6344 127.945 31.6737 127.981 31.7063C128.017 31.7388 128.059 31.7641 128.104 31.7805C128.15 31.7968 128.198 31.804 128.247 31.8017C128.294 31.804 128.342 31.7967 128.386 31.7801C128.431 31.7636 128.472 31.7381 128.506 31.7053C128.54 31.6725 128.568 31.633 128.587 31.5892C128.605 31.5455 128.615 31.4984 128.615 31.4508V30.1352ZM134.614 31.3631C134.612 31.3154 134.6 31.2687 134.579 31.2258C134.559 31.1828 134.529 31.1445 134.493 31.1133C134.457 31.0821 134.415 31.0586 134.369 31.0443C134.324 31.0299 134.276 31.025 134.228 31.0298H133.053V30.1352H134.088C134.135 30.1376 134.183 30.1302 134.228 30.1137C134.272 30.0971 134.313 30.0717 134.347 30.0388C134.382 30.006 134.409 29.9665 134.428 29.9228C134.447 29.879 134.456 29.8319 134.456 29.7844C134.444 29.6943 134.4 29.6115 134.333 29.5505C134.265 29.4896 134.179 29.4544 134.088 29.4511H133.053V28.5916H134.176C134.222 28.5964 134.268 28.5921 134.313 28.5788C134.357 28.5655 134.398 28.5435 134.434 28.5141C134.47 28.4848 134.5 28.4486 134.522 28.4077C134.544 28.3668 134.557 28.322 134.562 28.2758C134.559 28.2274 134.548 28.1799 134.527 28.1361C134.506 28.0923 134.477 28.053 134.441 28.0204C134.406 27.9878 134.363 27.9625 134.318 27.9462C134.272 27.9298 134.224 27.9226 134.176 27.925H132.702C132.598 27.9249 132.498 27.9649 132.423 28.0369C132.348 28.1088 132.303 28.207 132.299 28.3109V31.3631C132.299 31.6613 132.527 31.749 132.79 31.749H134.228C134.277 31.7513 134.325 31.7441 134.371 31.7278C134.416 31.7114 134.458 31.6863 134.494 31.6537C134.53 31.6211 134.559 31.5817 134.58 31.5378C134.6 31.494 134.612 31.4465 134.614 31.3981" fill="#8F8183"/>
<path d="M131.65 4.98057V3.54217H131.124V3.20898H132.545V3.54217H132.019V4.98057H131.65ZM132.948 4.98057V3.22644H133.492L133.843 4.59471L134.176 3.22644H134.72V4.98057H134.387V3.55973L134.036 4.98057H133.668L133.282 3.55973V4.98057H132.948Z" fill="#8F8183"/>
</svg>
