<svg width="109" height="40" viewBox="0 0 109 40" fill="none" xmlns="http://www.w3.org/2000/svg">
<path fill-rule="evenodd" clip-rule="evenodd" d="M0 13.5076C0.700343 13.7002 1.43965 13.7002 2.13999 13.5076V30.9086C1.43965 30.7159 0.700343 30.7159 0 30.9086V13.5076ZM5.61315 30.9086V19.6646C6.31349 19.8572 7.0528 19.8572 7.75315 19.6646V21.6642C8.13395 21.1343 8.58885 20.6617 9.10386 20.2609C9.75819 19.7531 10.5509 19.4552 11.3777 19.4062C12.2045 19.3571 13.0268 19.5595 13.7365 19.9864C14.4463 20.4134 15.0102 21.0451 15.3543 21.7985C15.6983 22.5519 15.8064 23.3918 15.6643 24.2078V30.9086C14.9667 30.7416 14.2395 30.7416 13.5419 30.9086V24.2253C13.5905 23.8257 13.5566 23.4203 13.4425 23.0342C13.3284 22.6481 13.1364 22.2895 12.8783 21.9805C12.6202 21.6715 12.3017 21.4187 11.9421 21.2376C11.5826 21.0565 11.1897 20.9509 10.7878 20.9275C10.3461 20.9602 9.91563 21.0815 9.52184 21.2843C9.12806 21.487 8.77917 21.767 8.49595 22.1075C8.21273 22.448 8.00087 22.8421 7.87327 23.2662C7.74567 23.6904 7.70482 24.1359 7.75315 24.5762V30.9261C7.05056 30.7508 6.31573 30.7508 5.61315 30.9261M18.7341 28.2072V20.5942H17.1904C17.2865 20.462 17.336 20.3015 17.3309 20.1381C17.3203 19.9773 17.2721 19.8211 17.1904 19.6821H18.7341V17.6824L20.8741 16.9632V19.6821H23.3826C23.2905 19.8163 23.2412 19.9754 23.2412 20.1381C23.2412 20.3009 23.2905 20.4599 23.3826 20.5942H20.8741V26.7513C20.8614 27.3373 20.8908 27.9235 20.9618 28.5054C21.0045 28.9718 21.1678 29.4191 21.4355 29.8035C21.5674 29.9937 21.747 30.1458 21.9565 30.2443C22.1659 30.3429 22.3976 30.3844 22.6282 30.3648C23.0895 30.352 23.5433 30.2445 23.9613 30.0491V30.7858C23.1598 31.093 22.3113 31.2592 21.4531 31.277C21.078 31.301 20.7021 31.2411 20.3531 31.1015C20.0041 30.9619 19.6908 30.7461 19.4358 30.47C18.9394 29.8371 18.69 29.0454 18.7341 28.2422M26.8908 24.6112H33.2232C33.2232 22.4536 32.048 20.8047 30.2413 20.8047C29.2949 20.8723 28.413 21.3094 27.7861 22.0216C27.1592 22.7338 26.8378 23.6639 26.8908 24.6112ZM30.2762 19.8575C30.9959 19.8307 31.7127 19.9653 32.3736 20.2515C33.0345 20.5378 33.6229 20.9685 34.0956 21.5119C34.5683 22.0553 34.9134 22.6976 35.1054 23.3917C35.2975 24.0859 35.3316 24.8143 35.2054 25.5234H26.8382C26.7931 26.4397 27.0355 27.3473 27.5313 28.1192C28.0271 28.8912 28.7517 29.489 29.6038 29.829C30.4559 30.1691 31.393 30.2345 32.2841 30.0161C33.1752 29.7976 33.9757 29.3063 34.574 28.6107V29.9964C33.3556 30.931 31.8451 31.4034 30.3113 31.3295C29.0676 31.3403 27.848 30.9866 26.803 30.3121C25.8064 29.5836 25.0671 28.5572 24.6917 27.3811C24.3164 26.2051 24.3247 24.9402 24.7151 23.769C25.1055 22.5978 25.858 21.581 26.8639 20.8653C27.8697 20.1497 29.0769 19.7721 30.3113 19.7873M42.5903 20.4364C43.2739 20.3727 43.9609 20.5173 44.5609 20.8512C45.1609 21.1851 45.6459 21.6928 45.9521 22.3074C46.2582 22.922 46.3713 23.6147 46.2765 24.2948C46.1816 24.9749 45.8833 25.6104 45.4206 26.1178C44.9579 26.6251 44.3525 26.9807 43.684 27.1377C43.0156 27.2947 42.3152 27.2457 41.6751 26.9973C41.0349 26.7489 40.4851 26.3128 40.0974 25.7461C39.7097 25.1793 39.5024 24.5085 39.503 23.8219C39.4649 22.9639 39.7684 22.1258 40.3471 21.4912C40.9257 20.8566 41.7324 20.4774 42.5903 20.4364ZM44.169 38.276C43.1573 38.5412 42.0854 38.4548 41.1293 38.0309C40.1731 37.607 39.3894 36.8707 38.9066 35.9429C38.2576 34.3467 39.5557 32.6452 41.801 32.154C44.0463 31.6629 46.5722 32.5048 47.2388 34.1011C47.9053 35.6974 46.6248 37.7848 44.169 38.276ZM49.2034 19.8575V20.875C48.0632 20.875 47.3264 20.7696 46.081 20.6819C46.6053 21.0246 47.0388 21.4893 47.3443 22.0362C47.6498 22.583 47.8181 23.1957 47.8351 23.8219C47.8351 26.1374 46.081 28.1371 42.5727 27.9967C39.0644 27.8564 38.9067 30.5226 40.5381 30.7858C41.7484 30.9963 43.7831 30.891 45.6951 31.1892C47.1686 31.4348 48.7473 31.9085 49.2034 33.3468C49.87 35.5746 48.4667 37.7673 45.0461 38.7496C41.6255 39.7319 38.0297 38.7495 37.0649 36.4516C36.882 35.975 36.8109 35.4629 36.8572 34.9545C36.9035 34.4462 37.066 33.9553 37.3321 33.5196C37.5982 33.084 37.9609 32.7154 38.3921 32.4422C38.8232 32.1689 39.3113 31.9983 39.8188 31.9436C39.3171 31.7981 38.8837 31.4783 38.5968 31.0418C38.3099 30.6052 38.1884 30.0805 38.254 29.5622C38.3195 29.044 38.568 28.5662 38.9546 28.2148C39.3412 27.8635 39.8403 27.6618 40.3625 27.6459C39.5125 27.4198 38.7583 26.9256 38.2116 26.2367C37.6649 25.5478 37.3549 24.701 37.3279 23.8219C37.3279 21.1381 39.6959 19.4365 42.5903 19.647C44.7894 19.8342 46.9969 19.9044 49.2034 19.8575ZM51.6065 30.891V19.6646C52.3069 19.8572 53.0462 19.8572 53.7465 19.6646V22.0151C54.1477 21.1324 54.8334 20.4098 55.6938 19.9628C56.3742 19.6979 57.107 19.5958 57.8338 19.6646V21.8397C57.3819 21.5339 56.8447 21.3794 56.2994 21.3983C55.7541 21.4172 55.2288 21.6086 54.7992 21.945C54.46 22.2528 54.1904 22.6295 54.0089 23.0501C53.8273 23.4706 53.7379 23.9253 53.7465 24.3832V30.9086C53.0462 30.7159 52.3069 30.7159 51.6065 30.9086M59.1319 28.365C59.1319 25.3304 63.0786 25.155 65.4292 24.734C65.5823 24.7231 65.7317 24.6815 65.8683 24.6115C66.005 24.5415 66.1261 24.4445 66.2244 24.3266C66.3227 24.2087 66.396 24.0721 66.4403 23.9251C66.4845 23.7781 66.4985 23.6236 66.4816 23.471C66.441 23.0036 66.2913 22.5522 66.0446 22.1531C65.7978 21.754 65.4609 21.4183 65.0609 21.1731C64.5897 20.9272 64.0662 20.7987 63.5348 20.7987C63.0033 20.7987 62.4798 20.9272 62.0087 21.1731C61.3113 21.6332 60.7146 22.2299 60.2545 22.9273V21.1731C61.4586 20.3303 62.8895 19.8717 64.3592 19.8575C65.5031 19.7748 66.6379 20.1115 67.5516 20.8047C67.9225 21.187 68.2058 21.6456 68.3815 22.1485C68.5573 22.6514 68.6213 23.1865 68.5691 23.7167V29.4877C68.5691 29.9263 68.7972 30.242 69.2357 30.242C69.4798 30.2424 69.7182 30.169 69.9198 30.0315V30.5753C69.5168 30.8811 69.0222 31.0418 68.5164 31.0314C68.0407 31.0364 67.573 30.9088 67.1657 30.663C66.9813 30.5618 66.8215 30.4213 66.6972 30.2516C66.573 30.0819 66.4874 29.887 66.4467 29.6807C65.4216 30.6716 64.0651 31.2468 62.6401 31.2945C60.886 31.2945 59.1319 30.5402 59.1319 28.4002M66.394 28.5931V25.5058C64.6399 25.6637 61.307 25.8742 61.307 28.1546C61.3198 28.4384 61.3906 28.7165 61.5147 28.9721C61.6388 29.2277 61.8137 29.4553 62.0288 29.6408C62.2439 29.8264 62.4946 29.966 62.7656 30.0513C63.0366 30.1366 63.3222 30.1657 63.6048 30.1367C64.1585 30.118 64.7001 29.9683 65.1848 29.7C65.6696 29.4317 66.084 29.0524 66.394 28.5931ZM71.9545 28.2248V20.6118H70.3935C70.5028 20.4857 70.5593 20.3224 70.5513 20.1557C70.5415 19.9921 70.4869 19.8343 70.3935 19.6996H71.9545V17.7L74.0771 16.9807V19.6996H76.5854C76.4934 19.8339 76.4443 19.9929 76.4443 20.1557C76.4443 20.3185 76.4934 20.4775 76.5854 20.6118H74.0771V26.7688C74.0446 27.3531 74.0446 27.9387 74.0771 28.523C74.1355 28.9857 74.2974 29.4294 74.5508 29.821C74.6867 30.0114 74.8697 30.1632 75.0818 30.2616C75.294 30.36 75.528 30.4016 75.761 30.3823C76.2165 30.3677 76.6641 30.2602 77.0766 30.0666V30.8033C76.2806 31.1086 75.438 31.2748 74.5857 31.2945C74.2102 31.3225 73.8334 31.2642 73.4838 31.1244C73.1342 30.9846 72.8213 30.7668 72.5686 30.4876C72.0648 29.8586 71.8145 29.0639 71.8669 28.2598M80.0061 24.6287H86.3561C86.3561 22.4711 85.1631 20.8223 83.3739 20.8223C82.4244 20.8855 81.5382 21.3206 80.9076 22.0333C80.277 22.746 79.9532 23.6786 80.0061 24.6287ZM83.3915 19.8751C84.1117 19.8488 84.8289 19.9837 85.4904 20.2698C86.1519 20.556 86.7412 20.9862 87.2152 21.5291C87.6892 22.0721 88.0358 22.714 88.2301 23.4081C88.4244 24.1021 88.4615 24.8308 88.3383 25.5409H79.9535C79.9084 26.4573 80.1505 27.3648 80.6464 28.1368C81.1422 28.9087 81.8668 29.5065 82.7189 29.8466C83.571 30.1867 84.5083 30.2521 85.3994 30.0336C86.2905 29.8152 87.091 29.3238 87.6893 28.6282V30.0139C86.4708 30.9486 84.9604 31.421 83.4266 31.3471C82.1829 31.3579 80.9633 31.0042 79.9183 30.3297C78.9329 29.5952 78.2044 28.5688 77.8362 27.3962C77.4679 26.2237 77.4788 24.9649 77.8674 23.799C78.2561 22.6331 79.0027 21.6194 80.0008 20.9023C80.9989 20.1852 82.1976 19.8011 83.4266 19.8049M96.3019 20.875C98.442 20.875 99.8102 22.629 99.8102 25.5234C99.8102 28.4177 98.4595 30.1719 96.3019 30.1719C94.1443 30.1719 92.7936 28.4177 92.7936 25.5234C92.7936 22.629 94.1443 20.875 96.3019 20.875ZM99.8102 13.5076C100.511 13.7002 101.25 13.7002 101.95 13.5076V30.9086C101.25 30.7159 100.511 30.7159 99.8102 30.9086V29.2772C99.3869 29.9475 98.7852 30.4864 98.0725 30.8334C97.3598 31.1805 96.5645 31.3219 95.7758 31.2419C95.0446 31.2446 94.3209 31.095 93.6508 30.8025C92.9807 30.51 92.3787 30.081 91.8836 29.543C91.3885 29.0049 91.011 28.3696 90.775 27.6775C90.5391 26.9854 90.45 26.2518 90.5134 25.5234C90.433 24.7915 90.5103 24.0509 90.7399 23.3515C90.9696 22.652 91.3463 22.0098 91.8448 21.4681C92.3434 20.9263 92.9522 20.4976 93.6302 20.2107C94.3083 19.9239 95.0398 19.7854 95.7758 19.8049C96.5611 19.7002 97.3598 19.8251 98.0757 20.1644C98.7916 20.5036 99.3939 21.0429 99.8102 21.7169V13.5076Z" fill="#8F8183"/>
<path fill-rule="evenodd" clip-rule="evenodd" d="M48.9756 0C48.8353 2.68383 46.8882 4.47306 43.0817 8.12166C39.2753 11.7703 36.9774 15.7697 38.0474 19.6639C38.2129 17.8807 38.8617 16.1764 39.9242 14.7348C40.9819 13.2749 42.2264 11.9597 43.6256 10.823C47.6251 7.45505 51.2737 3.61352 48.888 0" fill="#8F8183"/>
<path fill-rule="evenodd" clip-rule="evenodd" d="M51.2561 2.77124C50.7124 5.24457 48.6074 6.66543 44.5028 9.5773C40.3981 12.4892 37.644 15.9097 38.0474 19.6636C38.481 18.0159 39.3471 16.5139 40.556 15.3132C41.7653 14.0983 43.1204 13.0378 44.5903 12.1558C48.8529 9.54216 52.8349 6.43738 51.2561 2.77124Z" fill="#8F8183"/>
<path fill-rule="evenodd" clip-rule="evenodd" d="M52.2031 6.14032C51.3085 8.31545 49.2738 9.31531 45.292 11.4027C41.3101 13.4902 38.3806 16.209 38.0474 19.6822C38.708 18.292 39.7024 17.0868 40.9417 16.1739C42.1388 15.1916 43.4526 14.3609 44.8534 13.7006C48.9055 11.9465 52.8172 9.631 52.1331 6.08765" fill="#8F8183"/>
<path fill-rule="evenodd" clip-rule="evenodd" d="M52.5014 9.57812C51.2735 11.42 49.4317 11.9988 45.7656 13.2618C42.0995 14.5247 39.0998 16.542 38.0474 19.6644C38.8759 18.4991 39.9548 17.5341 41.2049 16.8402C42.3608 16.233 43.5858 15.7677 44.8534 15.4544C48.5196 14.4546 52.1856 12.9987 52.4312 9.66581" fill="#8F8183"/>
<path fill-rule="evenodd" clip-rule="evenodd" d="M50.3614 13.5427C49.1335 14.8583 47.6951 15.0864 44.8183 15.5951C43.4558 15.7188 42.1389 16.1491 40.9664 16.8539C39.7938 17.5587 38.7959 18.5196 38.0474 19.6647C38.8471 18.8866 39.804 18.2885 40.8539 17.9106C41.8085 17.5559 42.805 17.3259 43.8185 17.2265C46.6427 16.9458 49.537 16.2968 50.3614 13.613" fill="#8F8183"/>
<path fill-rule="evenodd" clip-rule="evenodd" d="M48.8705 16.3318C47.6426 17.279 46.4847 17.244 44.1517 17.2264C43.0163 17.1471 41.8777 17.3252 40.8207 17.7474C39.7638 18.1696 38.8157 18.825 38.0474 19.6647C38.7857 19.0937 39.6353 18.6833 40.5415 18.4598C41.4477 18.2363 42.3906 18.2045 43.3098 18.3665C44.2504 18.5242 45.2108 18.5242 46.1515 18.3665C46.7286 18.2606 47.275 18.0279 47.7512 17.6851C48.2275 17.3423 48.6218 16.8981 48.9056 16.3845" fill="#8F8183"/>
<path fill-rule="evenodd" clip-rule="evenodd" d="M106.248 13.488C106.517 13.4889 106.784 13.5364 107.037 13.6284C107.293 13.7262 107.526 13.8755 107.721 14.0669C107.91 14.2414 108.06 14.4531 108.163 14.6885C108.266 14.924 108.319 15.1782 108.318 15.4351C108.319 15.6892 108.265 15.9406 108.16 16.1718C108.062 16.4121 107.913 16.6279 107.721 16.8034C107.52 16.9822 107.288 17.1246 107.037 17.2244C106.787 17.3273 106.519 17.3808 106.248 17.3822C105.977 17.3841 105.708 17.3304 105.459 17.2244C105.205 17.1313 104.972 16.9882 104.775 16.8034C104.586 16.6254 104.437 16.4103 104.336 16.1718C104.229 15.9409 104.174 15.6895 104.174 15.4351C104.174 15.1807 104.229 14.9293 104.336 14.6984C104.437 14.4501 104.593 14.2281 104.792 14.0494C104.983 13.8734 105.203 13.731 105.441 13.6284C105.7 13.5365 105.973 13.489 106.248 13.488ZM108.108 15.4351C108.114 15.205 108.065 14.9767 107.967 14.7685C107.876 14.558 107.745 14.3673 107.581 14.2072C107.403 14.0402 107.195 13.9092 106.967 13.8213C106.738 13.731 106.494 13.6834 106.248 13.681C106.002 13.6818 105.758 13.7295 105.529 13.8213C105.309 13.9059 105.107 14.0309 104.932 14.1897C104.762 14.3587 104.62 14.5541 104.512 14.7685C104.419 14.9785 104.371 15.2055 104.371 15.4351C104.371 15.6647 104.419 15.8917 104.512 16.1017C104.616 16.3134 104.758 16.5038 104.932 16.663C105.103 16.831 105.306 16.9623 105.529 17.0489C105.758 17.1392 106.002 17.1868 106.248 17.1892C106.489 17.1866 106.727 17.139 106.95 17.0489C107.179 16.9544 107.392 16.8242 107.581 16.663C107.745 16.5029 107.876 16.3122 107.967 16.1017C108.065 15.8935 108.114 15.6652 108.108 15.4351ZM106.353 14.2774C106.615 14.2577 106.876 14.3124 107.108 14.4352C107.187 14.4808 107.252 14.5477 107.295 14.6283C107.339 14.7089 107.359 14.8 107.353 14.8913C107.355 14.9657 107.342 15.0396 107.315 15.1089C107.288 15.1781 107.247 15.2413 107.195 15.2947C107.083 15.4073 106.933 15.4758 106.774 15.4878L107.318 16.5227H106.932L106.423 15.5228H105.81V16.5227H105.494V14.2774H106.353ZM106.353 14.4879H105.862V15.3123H106.353C106.539 15.3511 106.73 15.3511 106.915 15.3123C106.965 15.2748 107.007 15.2259 107.035 15.1696C107.064 15.1132 107.078 15.0509 107.078 14.9878C107.078 14.9247 107.064 14.8625 107.035 14.8061C107.007 14.7497 106.965 14.7008 106.915 14.6633C106.735 14.6278 106.55 14.6278 106.371 14.6633" fill="#8F8183"/>
</svg>
