<svg width="110" height="73" viewBox="0 0 110 73" fill="none" xmlns="http://www.w3.org/2000/svg">
<path fill-rule="evenodd" clip-rule="evenodd" d="M7.20947 68.5682L6.01678 66.0248L4.78876 68.5682H7.20947ZM5.99922 60.2537L12.016 72.5326H9.15675L8.26213 70.7785H3.75388L2.85925 72.5326H0L5.99922 60.2537Z" fill="#8F8183"/>
<path fill-rule="evenodd" clip-rule="evenodd" d="M21.2071 70.1651C21.9438 70.1651 22.7507 69.6038 22.7507 68.9372C22.7507 67.8497 21.1368 67.6918 20.2247 67.3936C19.431 67.2312 18.7095 66.8208 18.1641 66.2218C17.6187 65.6228 17.2776 64.8661 17.1901 64.0607C17.24 63.04 17.6928 62.0807 18.4491 61.3934C19.2055 60.7061 20.2038 60.3469 21.2247 60.3946C22.1527 60.3648 23.0608 60.666 23.7871 61.2445C24.5134 61.8229 25.0102 62.6409 25.1888 63.5521L22.5576 64.0607C22.5394 63.7273 22.3918 63.4141 22.146 63.188C21.9003 62.9619 21.5758 62.8407 21.242 62.8504C20.9034 62.8359 20.5728 62.9544 20.3204 63.1806C20.068 63.4067 19.9141 63.7226 19.8915 64.0607C19.8915 65.1483 21.4001 65.4465 22.3122 65.6921C23.1209 65.8123 23.8666 66.1982 24.4319 66.7889C24.9972 67.3796 25.3499 68.1415 25.4344 68.9548C25.3448 69.9924 24.8558 70.9547 24.0704 71.6387C23.285 72.3226 22.2647 72.6748 21.2247 72.6209C20.2723 72.6528 19.3378 72.3565 18.5778 71.7817C17.8178 71.207 17.2784 70.3885 17.0498 69.4635L19.681 68.9548C19.681 69.6214 20.4704 70.1651 21.2247 70.1651H21.2071Z" fill="#8F8183"/>
<path fill-rule="evenodd" clip-rule="evenodd" d="M34.2411 60.4998V65.3061H38.644V60.4998H41.2927V72.5156H38.644V67.7093H34.2411V72.5156H31.6099V60.4998H34.2411Z" fill="#8F8183"/>
<path fill-rule="evenodd" clip-rule="evenodd" d="M55.8867 60.4646V62.8853H50.5892V65.306H54.5711V67.7092H50.5892V72.533H47.958V60.4646H55.8867Z" fill="#8F8183"/>
<path fill-rule="evenodd" clip-rule="evenodd" d="M86.058 64.5333C86.0576 64.314 86.0104 64.0973 85.9197 63.8977C85.829 63.6981 85.6966 63.5201 85.5317 63.3755C85.0535 63.0452 84.4812 62.879 83.9005 62.9019H82.4093V66.2172H84.3039C84.7691 66.2172 85.2152 66.0324 85.5441 65.7034C85.8731 65.3745 86.058 64.9283 86.058 64.4631M79.7607 60.4286H84.0583C85.3402 60.3842 86.5921 60.8223 87.5666 61.6565C87.9794 61.9794 88.3092 62.3961 88.5289 62.872C88.7485 63.3479 88.8516 63.8693 88.8295 64.3929V64.7087C88.8255 65.5411 88.5344 66.3466 88.0051 66.9891C87.6147 67.5248 87.0605 67.9188 86.4263 68.1117L89.4961 72.462H86.251L82.462 67.1996V72.462H79.8132L79.7607 60.4286Z" fill="#8F8183"/>
<path fill-rule="evenodd" clip-rule="evenodd" d="M99.091 62.9029H98.2315V70.1651H99.1086C99.6109 70.2261 100.121 70.1777 100.602 70.0233C101.084 69.8689 101.527 69.612 101.9 69.2705C102.273 68.9289 102.568 68.5106 102.765 68.0443C102.961 67.578 103.054 67.0748 103.038 66.5691C103.057 66.0603 102.966 65.5534 102.769 65.0836C102.573 64.6137 102.277 64.1923 101.901 63.8485C101.526 63.5046 101.08 63.2467 100.595 63.0925C100.109 62.9383 99.5962 62.8916 99.091 62.9556M99.091 60.5524C100.857 60.5113 102.573 61.1377 103.897 62.3065C104.478 62.8496 104.936 63.5114 105.239 64.2469C105.541 64.9823 105.682 65.7744 105.651 66.5691C105.685 67.3591 105.546 68.1468 105.243 68.8771C104.94 69.6073 104.48 70.2625 103.897 70.7965C102.58 71.9762 100.859 72.6042 99.091 72.5507H95.5828V60.5173H99.091V60.5524Z" fill="#8F8183"/>
<path fill-rule="evenodd" clip-rule="evenodd" d="M67.1832 69.7439C66.5225 69.7474 65.8757 69.5544 65.325 69.1895C64.7742 68.8246 64.3443 68.3043 64.0899 67.6946C63.8354 67.0849 63.768 66.4133 63.8961 65.7651C64.0241 65.117 64.3417 64.5215 64.8089 64.0543C65.2761 63.5872 65.8716 63.2695 66.5198 63.1414C67.1679 63.0134 67.8394 63.0808 68.4491 63.3353C69.0588 63.5897 69.5792 64.0196 69.9441 64.5703C70.309 65.1211 70.502 65.7679 70.4985 66.4285C70.4939 67.3064 70.143 68.147 69.5223 68.7677C68.9015 69.3885 68.061 69.7393 67.1832 69.7439ZM67.1832 60.3943C65.989 60.3908 64.8205 60.7418 63.8258 61.4027C62.8312 62.0637 62.0551 63.0049 61.5957 64.1072C61.1363 65.2095 61.0143 66.4233 61.2452 67.595C61.476 68.7667 62.0493 69.8435 62.8925 70.6892C63.7357 71.5348 64.8109 72.1113 65.9819 72.3455C67.1529 72.5798 68.3671 72.4613 69.4707 72.0051C70.5743 71.5489 71.5177 70.7755 72.1815 69.7828C72.8454 68.7901 73.1997 67.6227 73.1997 66.4285C73.1997 64.8312 72.5666 63.299 71.4387 62.1679C70.3109 61.0367 68.7805 60.399 67.1832 60.3943Z" fill="#8F8183"/>
<mask id="mask0_1_2206" style="mask-type:luminance" maskUnits="userSpaceOnUse" x="45" y="0" width="15" height="38">
<path d="M50.0982 0L45.8882 1.89444V3.57845L50.0982 1.68396V37.2754L59.623 31.8376V0H50.0982Z" fill="white"/>
</mask>
<g mask="url(#mask0_1_2206)">
<path d="M52.7412 -6.8708L27.2393 18.6311L52.7411 44.1329L78.243 18.631L52.7412 -6.8708Z" fill="#8F8183"/>
</g>
<mask id="mask1_1_2206" style="mask-type:luminance" maskUnits="userSpaceOnUse" x="33" y="12" width="13" height="33">
<path d="M37.6616 12.2087L33.9077 13.8927V15.3837L37.6616 13.6998V44.3796L45.8884 39.6785V12.2087H37.6616Z" fill="white"/>
</mask>
<g mask="url(#mask1_1_2206)">
<path d="M39.8884 6.21633L17.8101 28.2947L39.8885 50.3731L61.9668 28.2948L39.8884 6.21633Z" fill="#8F8183"/>
</g>
<mask id="mask2_1_2206" style="mask-type:luminance" maskUnits="userSpaceOnUse" x="59" y="12" width="13" height="33">
<path d="M63.3769 12.2087L59.623 13.8927V15.3837L63.3769 13.6998V44.3796L71.6039 39.6785V12.4894L71.3232 12.2087H63.3769Z" fill="white"/>
</mask>
<g mask="url(#mask2_1_2206)">
<path d="M43.9062 28.2774L65.6225 50.5023L87.3211 28.2774L65.6225 6.07007L43.9062 28.2774Z" fill="#8F8183"/>
</g>
<mask id="mask3_1_2206" style="mask-type:luminance" maskUnits="userSpaceOnUse" x="24" y="25" width="11" height="26">
<path d="M27.6982 25.3298L24.9268 26.5928V27.6979L27.6982 26.4349V50.0807L34.0657 46.4321V25.3298H27.6982Z" fill="white"/>
</mask>
<g mask="url(#mask3_1_2206)">
<path d="M29.4817 20.7615L12.5383 37.7048L29.4817 54.6482L46.4251 37.7048L29.4817 20.7615Z" fill="#8F8183"/>
</g>
<mask id="mask4_1_2206" style="mask-type:luminance" maskUnits="userSpaceOnUse" x="71" y="25" width="10" height="26">
<path d="M74.393 25.3298L71.604 26.5928V27.6979L74.393 26.4349V50.0807L80.7605 46.4321V25.3298H74.393Z" fill="white"/>
</mask>
<g mask="url(#mask4_1_2206)">
<path d="M76.1815 20.7557L59.2383 37.699L76.1816 54.6423L93.1249 37.6991L76.1815 20.7557Z" fill="#8F8183"/>
</g>
<path fill-rule="evenodd" clip-rule="evenodd" d="M106.757 58.7278H106.16V58.5173H107.616V58.7278H107.02V60.4995H106.757V58.7278Z" fill="#8F8183"/>
<path fill-rule="evenodd" clip-rule="evenodd" d="M109.511 59.6402C109.494 59.3539 109.494 59.0669 109.511 58.7806L109.265 59.5349L108.915 60.4997H108.721L108.388 59.6402L108.16 58.8683C108.16 59.1139 108.16 59.4472 108.16 59.7454V60.5874H107.915L108.055 58.6052H108.371L108.721 59.57C108.721 59.8156 108.862 60.0261 108.915 60.2366C108.968 60.0095 109.038 59.7867 109.125 59.57L109.476 58.6052H109.792L109.914 60.5874H109.669L109.511 59.6402Z" fill="#8F8183"/>
</svg>
