<svg width="133" height="52" viewBox="0 0 133 52" fill="none" xmlns="http://www.w3.org/2000/svg">
<path d="M15.5592 35.3452H13.4543C13.1912 34.4856 12.9455 33.591 12.6648 32.7666C12.3332 31.5124 11.6662 30.3723 10.7353 29.4688C10.1847 28.9453 9.49795 28.5871 8.75355 28.4351C8.00915 28.2831 7.23707 28.3435 6.52534 28.6093C5.83279 28.863 5.25405 29.3562 4.89368 29.9997C4.53331 30.6432 4.41513 31.3945 4.56071 32.1176C4.65575 32.7908 4.92633 33.4272 5.34506 33.963C5.76379 34.4987 6.31592 34.9149 6.94631 35.1697C8.297 35.8012 9.68292 36.3275 11.0511 36.9239C12.4157 37.4558 13.6704 38.2348 14.7523 39.2218C15.704 40.1331 16.3218 41.3378 16.5065 42.6424C16.7024 43.688 16.6704 44.7635 16.4131 45.7957C16.1558 46.828 15.679 47.7926 15.0153 48.624C14.2885 49.5274 13.374 50.262 12.3351 50.7769C11.2961 51.2918 10.1578 51.5747 8.99873 51.606C6.94296 51.7065 4.90046 51.2262 3.10486 50.2202L2.87681 50.115C2.74574 50.3841 2.5932 50.6422 2.42072 50.8868C2.32258 51.0205 2.17923 51.114 2.0173 51.1499H0.263163C0.263163 48.1328 0.0877068 45.1508 0 42.1161H1.96462C1.96462 42.1161 2.10489 42.274 2.12244 42.3617C2.48123 43.7994 3.07383 45.1683 3.87657 46.4138C4.50657 47.4793 5.44997 48.3247 6.57801 48.8345C7.82259 49.3588 9.21872 49.3964 10.4897 48.9397C11.0312 48.7402 11.504 48.3896 11.8522 47.9294C12.2004 47.4693 12.4094 46.9189 12.4543 46.3436C12.6144 45.3369 12.4272 44.3056 11.9235 43.4194C11.4198 42.5332 10.6297 41.8447 9.68287 41.4671C8.15677 40.8531 6.61314 40.2217 5.08704 39.5726C3.71086 39.0106 2.5282 38.0597 1.6839 36.8362C1.10667 35.9724 0.756813 34.9768 0.66658 33.9418C0.536459 33.0522 0.58916 32.1454 0.821395 31.2767C1.05363 30.4081 1.46055 29.596 2.0173 28.89C2.62367 28.0985 3.38692 27.4407 4.25922 26.9577C5.13152 26.4748 6.09413 26.1771 7.08678 26.0833C9.06281 25.8535 11.0576 26.3119 12.735 27.3814H12.8929C13.0507 27.1358 13.1735 26.8902 13.349 26.6622C13.3879 26.6085 13.4378 26.5636 13.4952 26.5303C13.5526 26.4971 13.6164 26.4763 13.6823 26.4692H15.4365L15.5943 35.2399" fill="#8F8183"/>
<path d="M109.054 36.292C108.402 35.9841 107.702 35.7884 106.984 35.7131V33.8011H114.843C114.843 34.3624 114.843 34.9062 114.843 35.4676C114.843 35.5553 114.685 35.678 114.58 35.7131C113.442 36.0349 112.377 36.5707 111.44 37.2918C110.528 38.0461 109.686 38.9057 108.861 39.7301L108.037 40.5194C108.651 41.379 109.247 42.1859 109.791 43.0103C110.861 44.5189 111.914 46.045 113.001 47.5535C113.208 47.8459 113.431 48.127 113.668 48.3955C113.925 48.6586 114.239 48.8599 114.585 48.9844C114.931 49.109 115.301 49.1536 115.667 49.1147C116.018 49.1147 116.106 49.22 116.089 49.5533C116.071 49.8866 116.089 50.6057 116.089 51.1846H110.984C110.859 51.1896 110.735 51.1593 110.627 51.0973C110.518 51.0353 110.429 50.9439 110.37 50.8338L106.546 45.0977C106.125 44.4663 105.634 43.8347 105.108 43.098L104.441 43.8874C104.424 43.9506 104.424 44.0171 104.441 44.0803C104.441 45.3784 104.441 46.6589 104.441 47.9394C104.426 48.1611 104.495 48.3804 104.635 48.553C104.775 48.7255 104.975 48.8386 105.195 48.8691C105.616 48.9744 106.055 49.027 106.493 49.1147H106.844C106.844 49.7287 106.844 50.3251 106.844 50.8689C106.844 50.8689 106.704 51.0267 106.634 51.0794H98.1611C98.1611 50.4479 98.1611 49.8339 98.1611 49.2375C98.1611 49.2375 98.3015 49.0796 98.3892 49.0796L99.5996 48.9218C100.143 48.9218 100.407 48.5885 100.477 47.9921C100.477 47.7465 100.477 47.4834 100.477 47.2378C100.477 41.0983 100.477 34.953 100.477 28.8018C100.472 28.4441 100.413 28.0891 100.301 27.7493C100.219 27.5023 100.064 27.2855 99.8583 27.1263C99.6522 26.967 99.4034 26.8725 99.1435 26.8547L97.705 26.6969C97.477 26.6969 97.3894 26.6092 97.407 26.3636C97.4245 26.118 97.407 25.4514 97.407 24.9954C97.407 24.5393 97.4068 24.6796 97.705 24.6796L101.02 24.4866L103.476 24.3463C103.6 24.3223 103.728 24.3286 103.85 24.3645C103.971 24.4004 104.082 24.4649 104.173 24.5526C104.264 24.6403 104.333 24.7486 104.373 24.8684C104.414 24.9882 104.425 25.1159 104.406 25.2409V41.2912C106.002 39.5371 107.704 38.0285 109.089 36.1867" fill="#8F8183"/>
<path d="M45.5723 49.1497V51.167H36.907C36.907 50.553 36.907 49.9216 36.907 49.3076C36.907 49.3076 37.0649 49.1848 37.1526 49.1848L38.398 49.0269C38.6198 49.0179 38.8295 48.9234 38.9832 48.7631C39.1369 48.6029 39.2225 48.3894 39.2224 48.1674C39.2224 47.9219 39.2224 47.6587 39.2224 47.4132V38.011C39.2578 37.7314 39.2578 37.4486 39.2224 37.169C39.1287 36.8342 38.926 36.5402 38.6463 36.3337C38.3667 36.1272 38.0262 36.0198 37.6787 36.0288H36.8016V34.0642L38.6611 33.9239L42.4323 33.6958C42.6336 33.699 42.8267 33.7756 42.9754 33.9113C43.124 34.047 43.218 34.2324 43.2394 34.4325V35.485C43.8007 35.0816 44.3094 34.6255 44.9935 34.2571C46.33 33.4518 47.9218 33.1822 49.4489 33.5028C50.2532 33.6545 50.9969 34.0346 51.591 34.5976C52.1852 35.1606 52.6047 35.8828 52.7993 36.6778C53.0626 37.5174 53.1869 38.3943 53.1676 39.274C53.1676 42.0279 53.1676 44.7819 53.1676 47.5359C53.1676 48.7112 53.5361 48.9744 54.5886 49.1673H54.764C55.4656 49.1673 55.4657 49.1673 55.4657 49.9391C55.4657 50.2549 55.4657 50.5706 55.4657 50.8863C55.4657 51.2021 55.4657 51.2547 55.0974 51.2547H47.1511C46.8003 51.2547 46.7301 51.1319 46.7477 50.8162C46.7652 50.5005 46.7477 49.9742 46.7477 49.5532C46.7477 49.1322 46.7475 49.2375 47.0457 49.2199L48.3264 49.0796C48.9579 48.9743 49.1859 48.7112 49.1859 48.0797C49.1859 45.0801 49.1859 42.063 49.1859 39.0459C49.1652 38.548 49.0458 38.0591 48.835 37.6076C48.6452 37.1149 48.2745 36.7133 47.7984 36.485C47.3223 36.2568 46.777 36.2191 46.274 36.3796C45.7119 36.4593 45.1729 36.6567 44.6923 36.959C44.2116 37.2613 43.8003 37.6616 43.485 38.1338C43.3958 38.2887 43.3473 38.4638 43.3445 38.6425C43.3445 41.6771 43.3445 44.7293 43.3445 47.7815C43.3271 47.9987 43.3811 48.2155 43.4983 48.3992C43.6154 48.5828 43.7893 48.7232 43.9936 48.7989C44.3208 48.9351 44.6621 49.0351 45.0111 49.0971C45.2622 49.1152 45.5141 49.1152 45.7652 49.0971" fill="#8F8183"/>
<path d="M17.4184 35.9251C17.4184 35.3638 17.4184 34.7849 17.4184 34.1709C17.4184 34.1709 17.6112 33.978 17.734 33.9605L21.0318 33.7149L23.0491 33.5745C23.1551 33.5722 23.2604 33.5908 23.3591 33.6292C23.4579 33.6676 23.5483 33.7251 23.6249 33.7984C23.7014 33.8717 23.7627 33.9594 23.8054 34.0564C23.8481 34.1535 23.8712 34.258 23.8735 34.3639V45.7132C23.8353 46.4974 24.0372 47.2745 24.4523 47.9409C24.6992 48.293 25.0505 48.5586 25.4565 48.7002C25.8625 48.8419 26.3028 48.8524 26.7152 48.7303C27.2549 48.6327 27.7694 48.4269 28.2276 48.1255C28.6857 47.8241 29.0782 47.4331 29.3815 46.9762C29.4783 46.8108 29.5325 46.6239 29.5393 46.4324C29.5393 43.5381 29.5393 40.6262 29.5393 37.6617C29.5358 37.2706 29.4398 36.8858 29.2588 36.539C29.1552 36.3667 29.0084 36.2243 28.8331 36.1259C28.6578 36.0275 28.4599 35.9764 28.2588 35.9777C27.6975 35.9777 27.1362 35.9777 26.5047 35.855V33.8903L28.4342 33.75L32.609 33.5219C32.715 33.5196 32.8205 33.5382 32.9193 33.5766C33.0181 33.615 33.1083 33.6725 33.1848 33.7458C33.2614 33.8191 33.3229 33.9068 33.3656 34.0038C33.4082 34.1008 33.4312 34.2053 33.4334 34.3113V47.3095C33.4118 47.5192 33.4498 47.7309 33.5429 47.9201C33.6359 48.1093 33.7804 48.2685 33.9598 48.3795C34.3399 48.5491 34.7412 48.6671 35.1527 48.7303C35.3916 48.7572 35.6327 48.7572 35.8717 48.7303C35.8717 49.3793 35.8717 49.9933 35.8717 50.5897C35.8717 50.5897 35.714 50.7476 35.6088 50.7651L32.9949 50.9405L30.3288 51.1335C30.1367 51.119 29.9543 51.0429 29.8089 50.9164C29.6635 50.79 29.5628 50.6201 29.5217 50.4318V49.4846C28.9955 49.8529 28.5044 50.2388 27.9957 50.5721C27.2678 51.0482 26.4426 51.3552 25.5805 51.4705C24.7184 51.5858 23.8414 51.5067 23.014 51.2387C22.3546 51.0299 21.7584 50.6586 21.2802 50.159C20.802 49.6593 20.4571 49.0473 20.2774 48.3795C19.9652 47.3929 19.8171 46.3618 19.8389 45.3273V37.5214C19.8644 37.1655 19.7537 36.8133 19.5288 36.5364C19.304 36.2594 18.9821 36.0785 18.6286 36.0303L17.3481 35.8023" fill="#8F8183"/>
<path d="M118.737 51.5365C119 51.0278 119.228 50.5366 119.509 50.063C120.495 48.232 121.333 46.3257 122.017 44.3621C122.592 42.7669 123.02 41.123 123.298 39.4505C123.652 37.2877 123.717 35.0875 123.491 32.9076C123.202 30.2932 122.552 27.7313 121.562 25.2946C120.912 23.6633 120.176 22.0845 119.474 20.4707C118.772 18.8569 117.878 16.9625 117.159 15.2083C116.603 13.8308 116.18 12.4035 115.895 10.9458C115.607 9.59159 115.483 8.20746 115.527 6.82356C115.569 4.92142 116.081 3.05927 117.018 1.40329C117.281 0.964753 117.544 0.543778 117.79 0.105244C117.813 0.0748274 117.842 0.0496432 117.875 0.0314768C117.908 0.0133104 117.945 0.00259564 117.983 0C117.808 0.350827 117.615 0.701612 117.422 1.05244C116.822 2.14029 116.43 3.3298 116.264 4.56071C115.953 7.12614 116.347 9.72792 117.404 12.086C118.034 13.6457 118.796 15.1482 119.684 16.5766C120.632 18.1027 121.614 19.6112 122.509 21.1724C123.614 23.0668 124.701 24.9789 125.666 26.9611C126.656 29.0586 127.369 31.2756 127.789 33.5566C128.182 35.6251 128.306 37.736 128.157 39.8364C128.054 41.3359 127.837 42.8254 127.508 44.2919C127.192 45.7654 126.754 47.2388 126.298 48.6948C125.999 49.642 125.578 50.5717 125.192 51.5014C125.168 51.5512 125.131 51.5936 125.085 51.6244C125.038 51.6552 124.985 51.6733 124.929 51.6768H118.86H118.737" fill="#8F8183"/>
<path d="M82.2859 42.4316H71.7611C71.9189 43.3437 72.0067 44.1857 72.1996 45.0628C72.3173 45.7093 72.5642 46.3254 72.9259 46.874C73.2877 47.4226 73.7566 47.8924 74.3045 48.2553C75.184 48.7822 76.2245 48.973 77.2338 48.7924C78.243 48.6119 79.1527 48.0721 79.7949 47.273C80.1809 46.6941 80.5493 46.0802 80.9527 45.5188L82.7069 46.6415C82.7288 46.6882 82.7401 46.7391 82.7401 46.7906C82.7401 46.8421 82.7288 46.893 82.7069 46.9397C82.2376 48.0758 81.5042 49.0837 80.5677 49.8799C79.6312 50.6761 78.5184 51.2376 77.3216 51.518C75.3939 51.9862 73.3594 51.6761 71.6587 50.6551C69.958 49.634 68.7282 47.9841 68.2352 46.0626C67.386 43.4162 67.5421 40.5496 68.6738 38.0111C69.1419 36.8072 69.9241 35.7508 70.939 34.9517C71.954 34.1527 73.1646 33.6403 74.4447 33.4679C75.3317 33.2809 76.2483 33.2839 77.134 33.4766C78.0197 33.6692 78.8545 34.0473 79.5836 34.5858C80.3127 35.1244 80.9195 35.8112 81.3641 36.6012C81.8086 37.3911 82.0809 38.2662 82.163 39.1689C82.3033 40.2564 82.3033 41.344 82.3735 42.5017M71.8487 40.1161H78.1811C78.1584 39.0647 77.9506 38.0256 77.5672 37.0464C77.4436 36.7123 77.2425 36.4124 76.9802 36.1714C76.7179 35.9304 76.402 35.7554 76.0586 35.6606C75.5516 35.532 75.0191 35.544 74.5184 35.6955C74.0177 35.8469 73.5677 36.132 73.2169 36.5201C72.3814 37.5037 71.8996 38.7389 71.8487 40.0284" fill="#8F8183"/>
<path d="M96.46 45.5019L98.2141 46.7122C97.7633 47.7548 97.0933 48.6882 96.2495 49.4487C95.1873 50.4992 93.8389 51.213 92.3729 51.501C90.898 51.8093 89.363 51.6346 87.9951 51.0028C86.6272 50.3709 85.4989 49.3155 84.7774 47.9927C83.7546 46.0982 83.3095 43.9454 83.4969 41.8006C83.5753 40.0519 84.1205 38.356 85.0757 36.8891C86.0331 35.3659 87.5012 34.233 89.2173 33.693C90.9335 33.1531 92.7857 33.2414 94.4427 33.9421C95.4317 34.339 96.2408 35.0853 96.7161 36.0391C97.1914 36.993 97.2999 38.0881 97.0212 39.1168C96.9432 39.6048 96.6777 40.043 96.2812 40.3379C95.8847 40.6329 95.3886 40.7612 94.8988 40.6955C93.5306 40.5727 92.601 39.8185 92.5834 38.6783C92.6303 37.9379 92.7477 37.2036 92.9342 36.4856C93.0219 35.9944 92.9342 35.8541 92.4956 35.6787C91.9376 35.4829 91.3339 35.4584 90.7618 35.6084C90.1898 35.7585 89.6757 36.0761 89.2856 36.5207C88.3854 37.6666 87.8643 39.0645 87.7947 40.5201C87.6282 41.7247 87.6282 42.9465 87.7947 44.1512C87.9611 45.4319 88.4701 46.644 89.2681 47.6594C89.9206 48.394 90.8297 48.8506 91.8085 48.9354C92.7873 49.0203 93.7614 48.7269 94.5305 48.1155C95.3281 47.4078 95.9779 46.5494 96.4424 45.5896" fill="#8F8183"/>
<path d="M66.6568 33.837V36.3629H62.2012C62.2012 36.5033 62.2012 36.591 62.2012 36.6787C62.2012 39.9063 62.2012 43.1339 62.2012 46.3615C62.2006 46.6397 62.2361 46.9169 62.3066 47.186C62.3257 47.3936 62.3869 47.595 62.4869 47.7779C62.5868 47.9609 62.7234 48.1214 62.8877 48.2496C63.0521 48.3778 63.2408 48.4709 63.4425 48.5233C63.6443 48.5757 63.8547 48.5862 64.0607 48.5542C64.5512 48.5892 65.0436 48.5892 65.5341 48.5542C66.0077 48.5542 66.4813 48.3612 67.0075 48.256V50.2557C67.0075 50.2557 66.9023 50.4136 66.8322 50.4487C65.5132 51.1232 64.0668 51.5118 62.5873 51.5888C61.657 51.6683 60.7238 51.4732 59.9034 51.0275C59.4422 50.7071 59.059 50.2867 58.7827 49.7978C58.5063 49.3088 58.3438 48.7638 58.3071 48.2034C58.2721 47.6894 58.2721 47.1737 58.3071 46.6597C58.3071 43.4146 58.3071 40.1519 58.3071 36.9067V36.4857H55.5181V33.8545H58.3773V28.75H62.2363V33.837H66.6568Z" fill="#8F8183"/>
<path d="M124.368 21.2424C124.771 21.8213 125.21 22.4002 125.596 22.9966C126.298 24.1192 126.999 25.2418 127.683 26.382C129.018 28.5883 130.089 30.9431 130.876 33.3986C131.378 34.9609 131.777 36.5548 132.069 38.1698C132.535 41.0748 132.535 44.0355 132.069 46.9405C131.858 48.3263 131.56 49.7121 131.314 51.1154C131.314 51.186 131.297 51.2556 131.266 51.319C131.235 51.3824 131.189 51.438 131.134 51.4817C131.078 51.5254 131.014 51.5562 130.945 51.5717C130.876 51.5873 130.804 51.5872 130.736 51.5715H127.368H127.017C127.175 51.168 127.315 50.7821 127.455 50.3962C127.911 48.9929 128.42 47.5895 128.789 46.1687C129.336 44.1217 129.665 42.0227 129.771 39.9065C129.882 37.8416 129.764 35.7708 129.42 33.7319C128.969 31.1495 128.135 28.6487 126.947 26.3119C126.087 24.5578 125.192 22.9615 124.263 21.2775" fill="#8F8183"/>
</svg>
