<svg width="105" height="63" viewBox="0 0 105 63" fill="none" xmlns="http://www.w3.org/2000/svg">
<path d="M64.4816 0H80.2688V46.9407H66.9023V28.9608C66.8978 28.7017 66.7928 28.4545 66.6096 28.2712C66.4263 28.088 66.1792 27.983 65.9201 27.9785C65.6596 27.9785 65.4097 28.082 65.2254 28.2662C65.0412 28.4504 64.9377 28.7003 64.9377 28.9608V46.9407H24.5925L35.8015 33.8022H55.0094C55.2699 33.8022 55.5198 33.6988 55.704 33.5146C55.8883 33.3303 55.9916 33.0805 55.9916 32.8199C55.9916 32.5594 55.8883 32.3095 55.704 32.1253C55.5198 31.9411 55.2699 31.8376 55.0094 31.8376H37.468L48.2385 19.2078H57.167C57.4275 19.2078 57.6774 19.1044 57.8616 18.9201C58.0458 18.7359 58.1492 18.486 58.1492 18.2255C58.1492 17.965 58.0458 17.7151 57.8616 17.5309C57.6774 17.3466 57.4275 17.2432 57.167 17.2432H49.9048L64.4816 0Z" fill="#8F8183"/>
<path d="M6.77094 57.2028L5.19217 52.9052L3.59585 57.2028H6.77094ZM3.01706 58.8167L1.75414 62.1144H0L4.36778 50.7651H5.94633L10.3141 62.1144H8.55998L7.33217 58.8167H3.01706ZM10.5597 58.8167H11.9982C12.0003 59.3323 12.1869 59.8301 12.5243 60.22C12.6773 60.3931 12.8668 60.53 13.0791 60.621C13.2915 60.712 13.5215 60.7548 13.7524 60.7462C14.002 60.7598 14.2515 60.7199 14.4845 60.6292C14.7174 60.5384 14.9285 60.3989 15.1031 60.22C15.2737 60.0301 15.4049 59.8084 15.4892 59.5675C15.5735 59.3266 15.6091 59.0714 15.5941 58.8167C15.6217 58.3873 15.4907 57.9628 15.2258 57.6239C14.7854 57.2357 14.2546 56.9643 13.6821 56.8345H13.4716C12.6751 56.666 11.9619 56.2257 11.4543 55.589C11.2611 55.3419 11.1127 55.0629 11.0158 54.7646C10.9239 54.4693 10.8766 54.1618 10.8756 53.8524C10.8537 53.4203 10.9185 52.9883 11.0661 52.5816C11.2137 52.1749 11.4412 51.8019 11.7351 51.4844C12.0215 51.1855 12.3682 50.9511 12.7524 50.7968C13.1365 50.6426 13.5493 50.572 13.9629 50.5898C14.3451 50.5721 14.7269 50.6347 15.0834 50.7737C15.4399 50.9127 15.7632 51.1248 16.0326 51.3966C16.5897 51.9986 16.9024 52.7867 16.9097 53.6068H15.3836C15.3705 53.1986 15.2154 52.8078 14.9451 52.5017C14.6604 52.2263 14.2799 52.0724 13.8838 52.0724C13.4878 52.0724 13.1072 52.2263 12.8226 52.5017C12.5388 52.8331 12.3887 53.2584 12.4016 53.6945C12.3834 53.8577 12.3834 54.0225 12.4016 54.1857C12.4702 54.3334 12.5525 54.4743 12.6473 54.6067C13.0474 54.9634 13.5396 55.2005 14.068 55.2908L14.8224 55.5189C15.5207 55.7354 16.134 56.1647 16.5765 56.7468C16.9702 57.3052 17.1731 57.9757 17.1553 58.6587C17.1996 59.6287 16.8665 60.5781 16.2258 61.3075C15.9129 61.6215 15.5409 61.8706 15.1316 62.0406C14.7222 62.2106 14.2832 62.2981 13.8399 62.2981C13.3967 62.2981 12.9579 62.2106 12.5485 62.0406C12.1392 61.8706 11.7672 61.6215 11.4543 61.3075C10.8454 60.6032 10.5258 59.6944 10.5597 58.764M20.418 62.0442H18.7867V50.695H20.418V55.5189H24.9789V50.695H26.5925V62.0793H24.9789V57.1678H20.418V62.0442ZM30.3289 62.0442H28.7152V50.695H30.3289V62.0442ZM31.8725 58.764H33.3286C33.3177 59.2787 33.4989 59.7791 33.8371 60.1673C33.9936 60.3408 34.1862 60.4778 34.4014 60.5688C34.6166 60.6597 34.8493 60.7024 35.0827 60.6936C35.3295 60.7047 35.5757 60.6635 35.8054 60.5728C36.0351 60.4822 36.243 60.3439 36.4157 60.1673C36.5886 59.9783 36.7226 59.7571 36.8099 59.5163C36.8972 59.2755 36.9361 59.0199 36.9244 58.764C36.9521 58.3347 36.821 57.9102 36.5561 57.5712C36.1133 57.1867 35.5835 56.9158 35.0125 56.7818H34.802C33.9991 56.6171 33.2791 56.1765 32.7671 55.5364C32.3997 55.0245 32.1978 54.4124 32.1884 53.7823C32.154 52.9109 32.4626 52.0607 33.0479 51.4142C33.3349 51.1162 33.6818 50.8824 34.0658 50.7282C34.4498 50.574 34.8622 50.5028 35.2757 50.5195C35.6581 50.4996 36.0404 50.5612 36.3973 50.7004C36.7541 50.8395 37.0773 51.0529 37.3454 51.3265C37.9025 51.9285 38.2152 52.7165 38.2225 53.5367H36.7139C36.696 53.1263 36.5346 52.7352 36.2579 52.4316C36.1213 52.2983 35.9592 52.1938 35.7814 52.1245C35.6036 52.0552 35.4137 52.0225 35.223 52.0282C35.0198 52.023 34.8177 52.061 34.6303 52.1396C34.4428 52.2182 34.2742 52.3357 34.1354 52.4843C33.8516 52.8157 33.7015 53.2409 33.7144 53.6771C33.6879 53.8397 33.6879 54.0055 33.7144 54.1682C33.7694 54.3226 33.8527 54.4653 33.96 54.5891C34.3526 54.9469 34.8396 55.1844 35.3632 55.2733C35.6244 55.3356 35.8821 55.4117 36.1352 55.5013C36.8335 55.7178 37.4468 56.1471 37.8893 56.7292C38.2701 57.2929 38.4662 57.9611 38.4505 58.6412C38.5015 59.609 38.1744 60.5587 37.5383 61.2899C37.2283 61.6288 36.8479 61.8956 36.4236 62.0714C35.9993 62.2472 35.5416 62.3277 35.0827 62.3074C34.6505 62.3198 34.2205 62.2402 33.8213 62.0739C33.4221 61.9075 33.0627 61.6583 32.7671 61.3426C32.1519 60.6409 31.8258 59.7319 31.855 58.7991M41.7132 62.0793H40.0995V50.7301H41.7132V55.554H46.2739V50.7301H47.9053V62.0793H46.2739V57.1678H41.7132V62.0793ZM58.4828 56.3433H65.4116C65.381 57.9492 64.756 59.4867 63.6575 60.6585C63.139 61.1971 62.5142 61.6219 61.8226 61.9058C61.131 62.1897 60.388 62.3264 59.6406 62.3074C58.8426 62.3112 58.0528 62.1436 57.325 61.8162C56.5937 61.4686 55.9426 60.9729 55.4131 60.3603C54.9478 59.8459 54.5794 59.2517 54.3255 58.6062C54.074 57.9028 53.9492 57.1604 53.957 56.4135C53.9663 54.8446 54.5971 53.3434 55.7112 52.2387C56.2074 51.7112 56.8037 51.2878 57.4653 50.9932C58.176 50.7202 58.9318 50.5833 59.6931 50.5898C60.7443 50.5638 61.7806 50.8441 62.6752 51.3966C63.5393 51.9461 64.213 52.7484 64.6048 53.6945H62.605C62.2627 53.2292 61.8108 52.8556 61.2894 52.607C60.7828 52.3873 60.2365 52.274 59.6843 52.274C59.1321 52.274 58.586 52.3873 58.0794 52.607C57.5966 52.8078 57.1605 53.1064 56.7987 53.484C56.0282 54.3004 55.5958 55.3786 55.5885 56.5012C55.573 57.0982 55.6682 57.6929 55.8692 58.2553C56.1049 58.7385 56.4338 59.1702 56.8373 59.5254C57.2407 59.8807 57.7106 60.1525 58.2197 60.3252C58.8289 60.594 59.4966 60.703 60.1597 60.6416C60.8227 60.5802 61.4592 60.3505 62.0087 59.9743C62.7096 59.4401 63.2595 58.7329 63.6048 57.922H58.5355L58.4828 56.3433ZM68.6918 56.624H69.5338C70.4008 56.6808 71.2659 56.4859 72.0247 56.0627C72.2699 55.8674 72.4699 55.6215 72.6112 55.3418C72.7525 55.0621 72.8319 54.7551 72.8435 54.4419C72.8552 54.1287 72.799 53.8167 72.6789 53.5273C72.5588 53.2378 72.3774 52.9778 72.1474 52.7649C71.4666 52.3749 70.6847 52.1978 69.9023 52.2562H68.7445L68.6918 56.624ZM68.6918 62.0793H67.0781V50.7301H70.3057C71.4109 50.6548 72.5048 50.9923 73.3754 51.6773C73.7355 52.0286 74.0159 52.4531 74.1975 52.9223C74.3791 53.3914 74.4576 53.894 74.4279 54.3962C74.453 55.2536 74.1377 56.0861 73.5508 56.7117C73.2583 57.0242 72.9054 57.274 72.5134 57.4459C72.1213 57.6178 71.6984 57.7082 71.2703 57.7116L74.4279 62.0793H72.4106L68.6918 56.8169V62.0793ZM77.3222 56.3433C77.3032 56.9421 77.4047 57.5386 77.6205 58.0974C77.8039 58.6027 78.0839 59.0675 78.4449 59.4657C78.8231 59.8655 79.276 60.1873 79.7781 60.4129C80.2649 60.6268 80.79 60.7402 81.3217 60.7462C81.8648 60.755 82.4035 60.6485 82.9024 60.4339C83.4013 60.2192 83.8489 59.9012 84.2159 59.5008C84.9898 58.6551 85.4049 57.5419 85.3737 56.3959C85.3788 55.8797 85.2834 55.3673 85.0929 54.8874C84.9056 54.4038 84.6323 53.9581 84.2861 53.5718C83.9066 53.1403 83.4404 52.7936 82.9178 52.5544C82.4175 52.3249 81.8721 52.2109 81.3217 52.2211C80.8041 52.2202 80.2915 52.3215 79.8132 52.5193C79.3325 52.7146 78.901 53.0142 78.55 53.3963C78.1648 53.806 77.8559 54.2812 77.6379 54.7996C77.4306 55.3125 77.3235 55.8603 77.3222 56.4135M75.5681 56.4135C75.5611 55.6431 75.7103 54.8793 76.0066 54.1682C76.3081 53.4458 76.7492 52.7901 77.3047 52.2387C77.808 51.7238 78.4028 51.3074 79.0588 51.0107C80.0923 50.5808 81.2308 50.4697 82.3279 50.6916C83.425 50.9135 84.4307 51.4584 85.2159 52.2562C85.767 52.7941 86.2027 53.4386 86.4963 54.1506C87.0216 55.6014 87.0216 57.1904 86.4963 58.6412C86.248 59.2894 85.8789 59.8846 85.4088 60.3953C84.8684 61.0067 84.2049 61.4968 83.4617 61.8337C82.7295 62.1571 81.9378 62.3241 81.1374 62.3241C80.3369 62.3241 79.5454 62.1571 78.8132 61.8337C78.0847 61.4815 77.4345 60.9865 76.9013 60.3779C76.4413 59.8628 76.0788 59.2684 75.8313 58.6237C75.5798 57.9204 75.4549 57.178 75.4628 56.4311M88.4083 50.8354H90.0222V58.0448C89.9569 58.7933 90.1157 59.5443 90.4783 60.2024C90.6721 60.4142 90.9121 60.5784 91.18 60.6818C91.4478 60.7853 91.736 60.8254 92.0219 60.7988C92.2986 60.8204 92.5765 60.7759 92.8326 60.6692C93.0887 60.5625 93.3158 60.3964 93.4953 60.1848C93.833 59.5249 93.9788 58.7835 93.9163 58.0448V50.8354H95.5477V58.0448C95.5599 58.6328 95.5127 59.2204 95.4073 59.799C95.3486 60.1798 95.2113 60.5442 95.0039 60.869C94.699 61.3587 94.2692 61.7583 93.7585 62.0267C93.2172 62.3053 92.6126 62.4384 92.0043 62.4126C91.3993 62.4241 90.7995 62.2981 90.2502 62.0442C89.7291 61.7775 89.2875 61.3782 88.9697 60.8865C88.7628 60.579 88.6196 60.233 88.5488 59.8691C88.4433 59.2906 88.3961 58.7029 88.4083 58.115V50.8354ZM99.1787 56.0978H100.354C100.97 56.1378 101.583 55.9845 102.108 55.6592C102.475 55.2771 102.679 54.768 102.679 54.2384C102.679 53.7088 102.475 53.1996 102.108 52.8174C101.595 52.4631 100.976 52.2959 100.354 52.3439H99.126L99.1787 56.0978ZM99.1787 62.1846H97.5824V50.8354H100.319C100.906 50.8189 101.493 50.8541 102.073 50.9406C102.427 50.9988 102.766 51.1238 103.073 51.3089C103.546 51.5865 103.93 51.9945 104.178 52.4843C104.469 53.0223 104.614 53.627 104.599 54.2384C104.619 54.7108 104.536 55.1819 104.354 55.6183C104.172 56.0548 103.896 56.446 103.546 56.7642C102.753 57.4282 101.738 57.7668 100.705 57.7116H99.4068L99.1787 62.1846Z" fill="#8F8183"/>
</svg>
