<svg width="134" height="50" viewBox="0 0 134 50" fill="none" xmlns="http://www.w3.org/2000/svg">
<path fill-rule="evenodd" clip-rule="evenodd" d="M105.354 48.6071C105.354 48.6071 113.633 31.9252 105.635 24.3123C105.635 24.3123 97.2675 31.0306 105.354 48.6071Z" fill="#8F8183"/>
<path fill-rule="evenodd" clip-rule="evenodd" d="M113.353 0C113.353 0 105.108 16.6994 113.142 24.2948C113.142 24.2948 121.492 17.5414 113.353 0Z" fill="#8F8183"/>
<path fill-rule="evenodd" clip-rule="evenodd" d="M133.666 27.9436C133.666 27.9436 116.826 20.0149 109.371 28.1716C109.371 28.1716 116.265 36.3985 133.666 27.9436Z" fill="#8F8183"/>
<path fill-rule="evenodd" clip-rule="evenodd" d="M84.4268 20.5062C84.4268 20.5062 101.179 28.6454 108.722 20.5062C108.722 20.5062 101.933 12.2091 84.4268 20.5062Z" fill="#8F8183"/>
<path d="M0.0175781 44.291H99.5648" stroke="#8F8183" stroke-width="0.02" stroke-miterlimit="10"/>
<path d="M0.474017 46.9228C0.590416 46.7991 0.732173 46.7022 0.889639 46.6386C1.04711 46.575 1.21658 46.5463 1.3862 46.5544C1.59162 46.5385 1.79765 46.5752 1.9849 46.6611C2.17215 46.7471 2.33439 46.8794 2.4562 47.0456C2.57686 47.2083 2.64423 47.4044 2.64913 47.6069H2.05278C2.01802 47.4882 1.96481 47.3757 1.89497 47.2736C1.83055 47.2097 1.75373 47.1596 1.66928 47.1265C1.58482 47.0933 1.49445 47.0777 1.40376 47.0806C1.29883 47.0753 1.19433 47.0985 1.10163 47.148C1.00892 47.1974 0.931421 47.2712 0.877434 47.3613C0.737087 47.5934 0.669877 47.8623 0.684505 48.1331C0.66638 48.4012 0.740663 48.6674 0.894992 48.8874C0.9549 48.965 1.03217 49.0276 1.12047 49.0703C1.20876 49.1129 1.30572 49.1344 1.40376 49.133C1.49381 49.1386 1.58384 49.1223 1.66628 49.0857C1.74873 49.049 1.82119 48.9931 1.87741 48.9225C1.95755 48.82 2.01165 48.6996 2.03522 48.5717H2.64913C2.60227 48.8711 2.46094 49.1477 2.24571 49.3611C2.01244 49.5626 1.71191 49.6691 1.40376 49.6592C1.22055 49.6673 1.03765 49.6354 0.868012 49.5658C0.698375 49.4961 0.545968 49.3903 0.421341 49.2558C0.168528 48.9307 0.0381939 48.5271 0.0530414 48.1156C0.0392672 47.8987 0.0695615 47.6812 0.141905 47.4762C0.214248 47.2712 0.327131 47.083 0.474017 46.9228Z" fill="#8F8183"/>
<path d="M8.24483 49.3086C7.97108 49.5354 7.62666 49.6595 7.27119 49.6595C6.91572 49.6595 6.57151 49.5354 6.29776 49.3086C6.14374 49.149 6.02494 48.9587 5.94938 48.7502C5.87382 48.5416 5.8432 48.3195 5.85923 48.0983C5.83831 47.874 5.86655 47.6479 5.94231 47.4357C6.01807 47.2236 6.13951 47.0307 6.29776 46.8704C6.57151 46.6436 6.91572 46.5195 7.27119 46.5195C7.62666 46.5195 7.97108 46.6436 8.24483 46.8704C8.40623 47.0291 8.53067 47.2213 8.60949 47.4335C8.6883 47.6457 8.71958 47.8727 8.70092 48.0983C8.71467 48.3208 8.68103 48.5437 8.60242 48.7523C8.52381 48.9609 8.402 49.1505 8.24483 49.3086ZM7.85876 48.8526C8.02795 48.6393 8.10951 48.3696 8.0868 48.0983C8.1105 47.8215 8.02908 47.5459 7.85876 47.3265C7.79103 47.2332 7.70093 47.1586 7.59666 47.1096C7.4924 47.0605 7.37741 47.0386 7.26241 47.0458C7.15258 47.0449 7.04399 47.0679 6.944 47.1134C6.84402 47.1588 6.75513 47.2256 6.68362 47.3089C6.52915 47.542 6.45523 47.8193 6.47313 48.0983C6.45501 48.3664 6.52929 48.6326 6.68362 48.8526C6.7517 48.9411 6.83946 49.0125 6.93993 49.0612C7.04041 49.1099 7.15076 49.1346 7.26241 49.1332C7.37741 49.1405 7.4924 49.1185 7.59666 49.0695C7.70093 49.0204 7.79103 48.9458 7.85876 48.8526Z" fill="#8F8183"/>
<path d="M11.9636 46.5898H12.5951L13.7879 48.6773V46.5898H14.3492V49.5719H13.7353L12.5249 47.4494V49.5719H11.9636V46.5898Z" fill="#8F8183"/>
<path d="M18.1734 48.6596C18.1893 48.7676 18.2316 48.87 18.2963 48.9578C18.3649 49.0252 18.448 49.076 18.5391 49.1064C18.6303 49.1368 18.7272 49.146 18.8224 49.1333H19.1734C19.2506 49.1134 19.3187 49.0677 19.3665 49.004C19.4144 48.9402 19.4391 48.8621 19.4366 48.7824C19.4394 48.7367 19.4293 48.6912 19.4077 48.6509C19.386 48.6106 19.3533 48.5772 19.3137 48.5544C19.1792 48.4915 19.0379 48.4445 18.8927 48.4141H18.5771C18.3486 48.3783 18.1284 48.301 17.9278 48.186C17.8298 48.1136 17.7514 48.0181 17.6993 47.9079C17.6473 47.7976 17.6233 47.6762 17.6297 47.5545C17.6287 47.4285 17.6547 47.3037 17.7062 47.1887C17.7577 47.0737 17.8331 46.9711 17.9278 46.888C18.1708 46.6948 18.4781 46.6007 18.7875 46.6248C19.0757 46.6196 19.358 46.7056 19.5944 46.8704C19.7027 46.9566 19.7904 47.0659 19.8511 47.1903C19.9118 47.3147 19.9439 47.4512 19.9451 47.5896H19.3488C19.3454 47.5094 19.321 47.4314 19.2779 47.3636C19.2348 47.2959 19.1745 47.2407 19.1032 47.2037C18.9815 47.1805 18.8566 47.1805 18.7349 47.2037C18.5985 47.1984 18.4638 47.2352 18.349 47.3089C18.3033 47.3352 18.2657 47.3738 18.2409 47.4203C18.216 47.4669 18.2048 47.5194 18.2085 47.572C18.2081 47.6217 18.2209 47.6707 18.2456 47.7138C18.2702 47.7569 18.306 47.7928 18.349 47.8177L18.7349 47.9229L19.261 48.0632C19.444 48.0951 19.6177 48.167 19.7697 48.2737C19.8564 48.3463 19.9252 48.4378 19.9708 48.5412C20.0164 48.6447 20.0377 48.7572 20.0329 48.8701C20.037 49.0008 20.0106 49.1307 19.9558 49.2495C19.901 49.3682 19.8192 49.4726 19.7171 49.5542C19.4649 49.7427 19.1543 49.8359 18.84 49.8173C18.5145 49.8398 18.1914 49.7466 17.9278 49.5542C17.8186 49.4699 17.7314 49.3605 17.6734 49.2353C17.6154 49.1102 17.5884 48.9729 17.5946 48.835L18.1734 48.6596Z" fill="#8F8183"/>
<path d="M25.453 46.5898V47.1336H24.5584V49.5719H23.9444V47.1336H23.0498V46.5898H25.453Z" fill="#8F8183"/>
<path d="M30.5047 46.6764C30.6069 46.7264 30.6968 46.7983 30.7679 46.887C30.8364 46.9575 30.89 47.041 30.9257 47.1325C30.9456 47.2368 30.9456 47.344 30.9257 47.4483C30.9243 47.5949 30.8884 47.7392 30.8206 47.8693C30.742 48.0027 30.617 48.1026 30.4696 48.15C30.5918 48.1917 30.6927 48.2799 30.7503 48.3955C30.7963 48.5441 30.7963 48.7031 30.7503 48.8516V49.1147C30.739 49.2021 30.739 49.2905 30.7503 49.3778C30.7549 49.4149 30.7686 49.4503 30.79 49.4809C30.8114 49.5115 30.8398 49.5363 30.873 49.5533H30.1891C30.1928 49.5007 30.1928 49.448 30.1891 49.3954C30.1804 49.3079 30.1804 49.2198 30.1891 49.1323V48.8691C30.2282 48.7435 30.2282 48.6089 30.1891 48.4833C30.0762 48.4401 29.9511 48.4401 29.8382 48.4833H29.2243V49.6409H28.6104V46.6764H30.0311C30.1873 46.6443 30.3485 46.6443 30.5047 46.6764ZM29.2243 47.115V47.9044H29.8908C29.989 47.9263 30.0909 47.9263 30.1891 47.9044C30.2486 47.873 30.297 47.8243 30.3283 47.7649C30.3596 47.7054 30.3723 47.6378 30.3645 47.5711C30.3645 47.3781 30.3645 47.2553 30.1891 47.2027C30.0973 47.1773 30.0002 47.1773 29.9084 47.2027L29.2243 47.115Z" fill="#8F8183"/>
<path d="M34.364 46.6074H34.9955V48.3616C34.9612 48.5057 34.9612 48.6559 34.9955 48.8001C34.9955 48.9755 35.2409 49.0456 35.4865 49.0456C35.732 49.0456 35.9075 49.0457 35.9777 48.8001C36.012 48.6559 36.012 48.5057 35.9777 48.3616V46.6074H36.6091V48.3616C36.616 48.6144 36.5682 48.8657 36.4689 49.0983C36.3514 49.2637 36.192 49.3948 36.007 49.4781C35.822 49.5613 35.6181 49.5937 35.4164 49.5719C35.217 49.5963 35.0148 49.5649 34.8321 49.4813C34.6494 49.3977 34.4933 49.2651 34.3813 49.0983C34.2642 48.8711 34.2098 48.6168 34.2235 48.3616L34.364 46.6074Z" fill="#8F8183"/>
<path d="M40.4333 46.922C40.5692 46.7953 40.7295 46.6976 40.9044 46.6349C41.0793 46.5722 41.2654 46.5458 41.4508 46.5573C41.6363 46.5688 41.8175 46.6179 41.9834 46.7017C42.1492 46.7856 42.2962 46.9023 42.4155 47.0448C42.5337 47.2102 42.6063 47.4038 42.626 47.6062H42.0121C41.9928 47.4821 41.9378 47.3664 41.854 47.2729C41.7917 47.2062 41.7152 47.1543 41.6303 47.1209C41.5453 47.0875 41.4541 47.0735 41.363 47.0799C41.2587 47.0781 41.1556 47.1029 41.0635 47.152C40.9714 47.2012 40.8934 47.2729 40.8367 47.3606C40.6964 47.5926 40.6292 47.8616 40.6438 48.1324C40.6257 48.4005 40.7 48.6667 40.8543 48.8866C40.9151 48.9633 40.9923 49.0252 41.0804 49.0677C41.1685 49.1102 41.2652 49.1323 41.363 49.1322C41.4555 49.1364 41.5476 49.1197 41.6326 49.0832C41.7177 49.0468 41.7933 48.9916 41.854 48.9218C41.9203 48.8136 41.9679 48.6949 41.9945 48.5709H42.6084C42.5693 48.8728 42.4268 49.1518 42.205 49.3603C41.978 49.5607 41.6833 49.6673 41.3806 49.6585C41.1949 49.6657 41.0097 49.6334 40.8374 49.5639C40.665 49.4943 40.5093 49.3891 40.3806 49.255C40.1341 48.9276 40.01 48.5242 40.0299 48.1148C40.0138 47.8991 40.0411 47.6824 40.1104 47.4775C40.1797 47.2726 40.2895 47.0837 40.4333 46.922Z" fill="#8F8183"/>
<path d="M48.0811 46.5898V47.1336H47.1865V49.5719H46.5726V47.1336H45.678V46.5898H48.0811Z" fill="#8F8183"/>
<path d="M51.7997 46.5898H51.1858V49.5719H51.7997V46.5898Z" fill="#8F8183"/>
<path d="M55.1853 46.5898H55.8168L57.0096 48.6773V46.5898H57.5709V49.5719H56.957L55.7466 47.4494V49.5719H55.1853V46.5898Z" fill="#8F8183"/>
<path d="M62.9563 47.5378C62.9371 47.4441 62.895 47.3566 62.8338 47.2832C62.7726 47.2097 62.6942 47.1525 62.6055 47.1168C62.496 47.0907 62.3817 47.0907 62.2721 47.1168C62.1594 47.1132 62.0473 47.135 61.9441 47.1806C61.8409 47.2261 61.7492 47.2943 61.6758 47.3799C61.5046 47.6124 61.4236 47.8991 61.4477 48.1868C61.4336 48.3254 61.4481 48.4655 61.4903 48.5982C61.5326 48.731 61.6017 48.8537 61.6933 48.9587C61.7673 49.0318 61.8548 49.0895 61.9511 49.1287C62.0475 49.1678 62.1506 49.1875 62.2546 49.1867C62.4399 49.2016 62.6239 49.1442 62.7678 49.0264C62.9117 48.9087 63.0044 48.7398 63.0265 48.5552H62.3424V48.0465H63.5702V49.6427H63.1667V49.2744C63.0712 49.3835 62.9656 49.4834 62.8511 49.5726C62.6616 49.6705 62.4502 49.7187 62.237 49.7129C62.0572 49.7152 61.8788 49.6805 61.7128 49.6112C61.5469 49.5418 61.3971 49.4391 61.2724 49.3094C61.0009 49.0006 60.8623 48.5973 60.8865 48.1868C60.8635 47.7629 61.0084 47.3469 61.2899 47.0291C61.4217 46.8882 61.5823 46.7776 61.761 46.705C61.9397 46.6323 62.1321 46.5992 62.3248 46.6081C62.6529 46.5876 62.9772 46.6874 63.237 46.8888C63.4592 47.0675 63.6037 47.3252 63.6404 47.608L62.9563 47.5378Z" fill="#8F8183"/>
<path d="M71.3414 48.6596C71.3489 48.7697 71.3919 48.8744 71.4641 48.9578C71.5319 49.0263 71.6148 49.0779 71.7063 49.1084C71.7977 49.1388 71.8951 49.1474 71.9904 49.1333H72.3412C72.4183 49.1134 72.4865 49.0677 72.5343 49.004C72.5821 48.9402 72.6068 48.8621 72.6043 48.7824C72.6037 48.7373 72.5923 48.6931 72.5709 48.6534C72.5495 48.6137 72.5189 48.5797 72.4816 48.5544C72.3472 48.4915 72.2059 48.4445 72.0606 48.4141H71.7448C71.5164 48.3783 71.2964 48.301 71.0958 48.186C70.9977 48.1136 70.9191 48.0181 70.8671 47.9079C70.8151 47.7976 70.7911 47.6762 70.7975 47.5545C70.7964 47.4285 70.8225 47.3037 70.874 47.1887C70.9254 47.0737 71.0011 46.9711 71.0958 46.888C71.3387 46.6948 71.6458 46.6007 71.9553 46.6248C72.2434 46.6196 72.5257 46.7056 72.7621 46.8704C72.8705 46.9566 72.9582 47.0659 73.0189 47.1903C73.0796 47.3147 73.1118 47.4512 73.1131 47.5896H72.5167C72.5134 47.5094 72.4888 47.4314 72.4457 47.3636C72.4025 47.2959 72.3424 47.2407 72.2711 47.2037C72.1494 47.1805 72.0243 47.1805 71.9026 47.2037C71.7662 47.1984 71.6316 47.2352 71.5168 47.3089C71.471 47.3352 71.4337 47.3738 71.4088 47.4203C71.384 47.4669 71.3728 47.5194 71.3765 47.572C71.3761 47.6217 71.3887 47.6707 71.4133 47.7138C71.438 47.7569 71.4737 47.7928 71.5168 47.8177L71.9026 47.9229L72.4289 48.0632C72.6109 48.0986 72.7839 48.1702 72.9377 48.2737C73.0244 48.3463 73.0932 48.4378 73.1388 48.5412C73.1844 48.6447 73.2055 48.7572 73.2007 48.8701C73.2048 49.0008 73.1784 49.1307 73.1236 49.2495C73.0688 49.3682 72.9872 49.4726 72.885 49.5542C72.6336 49.7441 72.3224 49.8375 72.008 49.8173C71.6827 49.8368 71.3607 49.7439 71.0958 49.5542C70.9866 49.4699 70.8992 49.3605 70.8412 49.2353C70.7832 49.1102 70.7564 48.9729 70.7626 48.835L71.3414 48.6596Z" fill="#8F8183"/>
<path d="M78.4282 46.6074H79.3053V49.5719H78.7439V47.081L78.1826 49.5719H77.5685L77.0073 47.081V49.5719H76.446V46.6074H77.3407L77.8843 48.9404L78.4282 46.6074Z" fill="#8F8183"/>
<path d="M83.2516 46.5898H82.6377V49.5719H83.2516V46.5898Z" fill="#8F8183"/>
<path d="M86.6375 46.5898H87.2514V49.0456H88.7249V49.5719H86.6375V46.5898Z" fill="#8F8183"/>
<path d="M94.1095 47.1161H92.5834V47.7476H93.9692V48.2563H92.5834V49.0456H94.1797V49.5719H91.9695V46.5898H94.1095V47.1161Z" fill="#8F8183"/>
<path d="M97.9336 48.6589C97.9365 48.7344 97.9563 48.8084 97.9914 48.8753C98.0265 48.9423 98.0761 49.0005 98.1366 49.0459C98.1971 49.0913 98.267 49.1226 98.3411 49.1376C98.4152 49.1525 98.4917 49.1508 98.565 49.1325H98.9333C99.0105 49.1126 99.0787 49.067 99.1265 49.0032C99.1743 48.9395 99.199 48.8613 99.1965 48.7817C99.1977 48.7342 99.185 48.6873 99.1601 48.6468C99.1352 48.6064 99.099 48.574 99.056 48.5536C98.9278 48.4906 98.7923 48.4435 98.6526 48.4133H98.337C98.1086 48.3776 97.8886 48.3003 97.688 48.1853C97.5899 48.1129 97.5113 48.0173 97.4593 47.9071C97.4072 47.7969 97.3833 47.6755 97.3897 47.5538C97.3849 47.4272 97.4093 47.3013 97.461 47.1857C97.5127 47.0701 97.5904 46.968 97.688 46.8872C97.9255 46.6967 98.2262 46.6027 98.5299 46.6241C98.8184 46.6164 99.1015 46.7026 99.3368 46.8697C99.4481 46.9531 99.5381 47.0619 99.5991 47.1869C99.6601 47.312 99.6905 47.4498 99.6877 47.5889H99.0912C99.0914 47.51 99.0705 47.4325 99.0303 47.3646C98.9902 47.2967 98.9323 47.2408 98.8631 47.203C98.7411 47.183 98.6168 47.183 98.4948 47.203C98.3582 47.1953 98.2228 47.2322 98.109 47.3082C98.0599 47.332 98.0188 47.3696 97.9908 47.4163C97.9627 47.463 97.9491 47.5169 97.9511 47.5713C97.9503 47.6233 97.9648 47.6743 97.9929 47.718C98.021 47.7617 98.0613 47.7961 98.109 47.8169C98.2317 47.871 98.3617 47.9064 98.4948 47.9222L99.0211 48.0625C99.2021 48.1012 99.3743 48.1725 99.5297 48.273C99.6164 48.3455 99.6853 48.4371 99.731 48.5405C99.7766 48.6439 99.7977 48.7564 99.7929 48.8694C99.792 48.9993 99.7634 49.1276 99.7089 49.2456C99.6545 49.3636 99.5756 49.4685 99.4772 49.5535C99.219 49.7433 98.9024 49.8364 98.5826 49.8166C98.2575 49.8347 97.9359 49.7419 97.6704 49.5535C97.5643 49.4664 97.4793 49.3565 97.4216 49.232C97.3639 49.1075 97.3349 48.9715 97.337 48.8343L97.9336 48.6589Z" fill="#8F8183"/>
<path d="M4.877 33.4866V31.8553H9.10453V35.7144C8.58992 36.175 7.99544 36.5376 7.3504 36.7844C6.59623 37.0823 5.7932 37.2369 4.98236 37.2405C4.0572 37.2658 3.14228 37.0415 2.33359 36.5914C1.58127 36.2026 0.968315 35.5896 0.579457 34.8373C0.192374 34.0269 -0.00569832 33.1393 0.00045519 32.2412C-0.0114836 31.3008 0.2116 30.3722 0.649477 29.5398C1.07432 28.778 1.72366 28.1655 2.50896 27.7857C3.23227 27.4463 4.02586 27.284 4.82433 27.3121C5.82285 27.2482 6.81479 27.5131 7.64846 28.0664C8.32886 28.5842 8.79671 29.3328 8.96406 30.1713L6.99944 30.5397C6.88524 30.0803 6.61185 29.6762 6.22772 29.3995C5.81413 29.1206 5.32292 28.9794 4.82433 28.996C4.44712 28.9766 4.07011 29.0386 3.719 29.1778C3.36789 29.3171 3.05106 29.5303 2.78969 29.8029C2.24527 30.4876 1.97617 31.3509 2.03531 32.2237C1.95895 33.1523 2.22758 34.0766 2.78969 34.8198C3.04122 35.1047 3.35223 35.331 3.7008 35.4825C4.04937 35.6341 4.42682 35.7073 4.80677 35.6969C5.2334 35.6914 5.65559 35.6082 6.05235 35.4513C6.4326 35.3096 6.78783 35.1082 7.10479 34.8549V33.627L4.877 33.4866Z" fill="#8F8183"/>
<path d="M10.8407 27.3477H12.8053V32.6101C12.7597 33.1529 12.7597 33.6986 12.8053 34.2414C12.8772 34.6168 13.0828 34.9534 13.3841 35.1886C13.7635 35.453 14.2204 35.5826 14.6821 35.557C15.1251 35.5854 15.5647 35.4617 15.9277 35.2062C16.1932 34.9988 16.3688 34.6974 16.4187 34.3642C16.4678 33.8157 16.4678 33.2638 16.4187 32.7153V27.3477H18.3833V32.4522C18.4031 33.2791 18.3562 34.1062 18.2431 34.9255C18.1384 35.3742 17.9346 35.7937 17.6467 36.1534C17.3367 36.5056 16.9452 36.7766 16.5065 36.9428C15.9114 37.1599 15.2801 37.2612 14.647 37.241C13.9313 37.2764 13.2159 37.169 12.5421 36.9252C12.1092 36.7329 11.7253 36.445 11.4194 36.0833C11.1516 35.7685 10.9596 35.3964 10.8582 34.9957C10.7096 34.1859 10.6449 33.3629 10.6653 32.5399L10.8407 27.3477Z" fill="#8F8183"/>
<path d="M20.6641 37.0663V27.3484H24.7862C25.5499 27.3104 26.3146 27.3993 27.0491 27.6115C27.5279 27.7756 27.9323 28.1053 28.1894 28.5412C28.4751 28.9982 28.6214 29.5285 28.6104 30.0674C28.6226 30.7098 28.3979 31.3343 27.9789 31.8215C27.4647 32.3326 26.7886 32.6489 26.0667 32.7161C26.4532 32.9344 26.8027 33.2126 27.1018 33.5405C27.5193 34.0306 27.8893 34.5592 28.2069 35.1192L29.3996 37.0137H27.0491L25.6457 34.8912C25.3403 34.39 24.9942 33.9148 24.6109 33.4703C24.4418 33.292 24.2392 33.1489 24.0145 33.0494C23.694 32.9664 23.3629 32.931 23.0321 32.9441H22.6287V37.0137L20.6641 37.0663ZM22.6287 31.4531H24.0845C24.6721 31.4859 25.2614 31.4446 25.8387 31.3303C26.0642 31.2689 26.2585 31.1249 26.3826 30.9269C26.5295 30.71 26.6033 30.4519 26.5931 30.1901C26.6029 29.9039 26.5095 29.6238 26.3299 29.4008C26.1358 29.1915 25.8758 29.0553 25.5933 29.0149C25.4354 29.0149 24.9617 29.0149 24.1548 29.0149H22.6287V31.4531Z" fill="#8F8183"/>
<path d="M30.4346 27.3477H32.4168V32.6101C32.3745 33.153 32.3745 33.6984 32.4168 34.2414C32.4962 34.6182 32.7079 34.9542 33.0133 35.1886C33.3849 35.4555 33.8372 35.5857 34.2938 35.557C34.7368 35.5854 35.1762 35.4617 35.5392 35.2062C35.8036 34.9951 35.984 34.6965 36.0479 34.3642C36.0854 33.8152 36.0854 33.2643 36.0479 32.7153V27.3477H38.2055V32.4522C38.2403 33.2799 38.1875 34.109 38.0477 34.9255C37.9639 35.3779 37.7643 35.8009 37.4687 36.1534C37.1587 36.5056 36.7674 36.7766 36.3287 36.9428C35.7336 37.1599 35.1023 37.2612 34.4692 37.241C33.7536 37.2745 33.0385 37.1672 32.3643 36.9252C31.9309 36.7251 31.5429 36.4386 31.2241 36.0833C30.9678 35.7633 30.7824 35.3927 30.6802 34.9957C30.5315 34.1859 30.4669 33.3629 30.4872 32.5399L30.4346 27.3477Z" fill="#8F8183"/>
<path d="M44.0117 37.0648V27.3469H47.1515C47.9318 27.3201 48.7131 27.3671 49.4846 27.4872C50.0445 27.6385 50.5381 27.9717 50.8878 28.4344C51.2121 28.9354 51.4033 29.5109 51.4432 30.1064C51.4831 30.7019 51.3704 31.2977 51.1158 31.8375C50.9423 32.1861 50.6958 32.4934 50.3932 32.7386C50.0905 32.9837 49.7388 33.1609 49.3617 33.2583C48.6948 33.3647 48.0197 33.4116 47.3444 33.3987H46.0639V37.0648H44.0117ZM45.9763 28.9782V31.7498H47.0463C47.566 31.7799 48.0872 31.7266 48.59 31.5919C48.8392 31.5023 49.054 31.3366 49.2039 31.1183C49.347 30.8931 49.4202 30.6307 49.4144 30.364C49.423 30.0454 49.3171 29.7342 49.1161 29.4869C48.9102 29.2556 48.632 29.101 48.3268 29.0484C47.8599 29.0078 47.3903 29.0078 46.9234 29.0484L45.9763 28.9782Z" fill="#8F8183"/>
<path d="M53.063 37.0656V27.3477H57.1852C57.9487 27.3115 58.7132 27.4004 59.4481 27.6108C59.9239 27.7801 60.3266 28.1085 60.5883 28.5405C60.874 28.9974 61.0203 29.5278 61.0093 30.0666C61.0236 30.7126 60.7915 31.3397 60.3603 31.8208C59.8514 32.3395 59.1726 32.6571 58.4483 32.7153C58.8369 32.9382 59.1913 33.2159 59.5007 33.5398C59.9182 34.0299 60.2883 34.5585 60.6059 35.1185L61.7986 37.013H59.4481L58.0449 34.8905C57.7269 34.3978 57.3812 33.9234 57.0098 33.4696C56.8408 33.2912 56.6381 33.1482 56.4134 33.0486C56.0869 32.9657 55.7503 32.9303 55.4137 32.9434H55.0276V37.013L53.063 37.0656ZM55.0276 31.4524H56.4837C57.0712 31.4852 57.6606 31.4439 58.2378 31.3296C58.4612 31.2638 58.6538 31.1208 58.7815 30.9261C58.9284 30.7093 59.0022 30.4511 58.992 30.1894C59.0019 29.9032 58.9084 29.6231 58.7288 29.4001C58.5347 29.1908 58.2748 29.0546 57.9922 29.0141C57.8343 29.0141 57.3431 29.0141 56.5537 29.0141H55.0276V31.4524Z" fill="#8F8183"/>
<path d="M62.8516 37.048V27.3301H70.0435V28.979H64.8337V31.1366H69.6752V32.7855H64.8337V35.4167H70.2365V37.048H62.8516Z" fill="#8F8183"/>
<path d="M71.9023 37.0656V27.3477H76.0421C76.8057 27.3115 77.5701 27.4004 78.305 27.6108C78.7757 27.7811 79.1726 28.1097 79.4277 28.5405C79.7134 28.9974 79.8597 29.5278 79.8486 30.0666C79.8609 30.7091 79.6361 31.3336 79.2172 31.8208C78.703 32.3319 78.0271 32.6482 77.3052 32.7153C77.6917 32.9336 78.0409 33.2119 78.3401 33.5398C78.7588 34.0329 79.1345 34.5611 79.4628 35.1185L80.6379 37.013H78.305L76.8842 34.8905C76.5788 34.3893 76.2325 33.914 75.8491 33.4696C75.6872 33.291 75.4902 33.1477 75.2704 33.0486C74.9439 32.9657 74.6072 32.9303 74.2706 32.9434H73.867V37.013L71.9023 37.0656ZM73.867 31.4524H75.323C75.9106 31.4873 76.5002 31.446 77.0772 31.3296C77.3056 31.2647 77.5041 31.122 77.6384 30.9261C77.7721 30.7042 77.839 30.4484 77.8313 30.1894C77.8412 29.9032 77.7478 29.6231 77.5682 29.4001C77.3741 29.1908 77.1141 29.0546 76.8316 29.0141C76.6737 29.0141 76.2 29.0141 75.4106 29.0141H73.867V31.4524Z" fill="#8F8183"/>
<path d="M81.708 37.048V27.3301H83.6025L87.6019 33.8555V27.3301H89.4262V37.048H87.4616L83.5148 30.663V37.048H81.708Z" fill="#8F8183"/>
<path d="M100.249 37.0656H98.1268L97.2848 34.8378H93.3905L92.5836 37.0656H90.5137L94.2851 27.3477H96.3551L100.249 37.0656ZM96.7409 33.2065L95.3902 29.6105L94.0746 33.2065H96.7409Z" fill="#8F8183"/>
<path d="M53.361 41.4848L53.8347 41.6076C53.7554 41.957 53.5644 42.271 53.2908 42.5023C53.016 42.7171 52.6748 42.8288 52.3261 42.818C51.9925 42.8373 51.6611 42.7514 51.3788 42.5724C51.1253 42.4081 50.929 42.1691 50.8174 41.8883C50.6895 41.5766 50.624 41.2429 50.6245 40.906C50.6177 40.5667 50.6897 40.2304 50.835 39.9237C50.969 39.6443 51.191 39.4163 51.4666 39.2747C51.7334 39.1235 52.0374 39.0505 52.3437 39.0641C52.6681 39.0514 52.9879 39.1437 53.2557 39.3273C53.5079 39.5302 53.6917 39.8058 53.782 40.1166L53.3083 40.2219C53.2459 39.9966 53.1177 39.795 52.94 39.643C52.7606 39.5178 52.5446 39.4561 52.3261 39.4676C52.0784 39.4617 51.8343 39.5288 51.6244 39.6605C51.4429 39.7977 51.3082 39.9877 51.2386 40.2043C51.1552 40.4288 51.1135 40.6666 51.1157 40.906C51.1118 41.1814 51.1593 41.455 51.2559 41.7129C51.3298 41.9324 51.4791 42.1188 51.6771 42.2391C51.863 42.3499 52.0746 42.4104 52.291 42.4145C52.541 42.4165 52.7835 42.3295 52.9752 42.169C53.1773 41.991 53.3133 41.7499 53.361 41.4848Z" fill="#8F8183"/>
<path d="M55.5713 40.9938C55.5529 40.7361 55.5868 40.4774 55.6713 40.2331C55.7557 39.9889 55.8888 39.7643 56.0625 39.573C56.2205 39.4027 56.4137 39.2689 56.6288 39.181C56.844 39.0932 57.0757 39.0533 57.3078 39.0643C57.627 39.0559 57.9424 39.1347 58.22 39.2923C58.4887 39.4536 58.7026 39.692 58.8339 39.9765C58.9796 40.2768 59.0517 40.6075 59.0444 40.9412C59.0496 41.286 58.9777 41.6276 58.8339 41.9411C58.6863 42.2154 58.4684 42.4455 58.2025 42.6077C57.9249 42.7469 57.6184 42.819 57.3078 42.8182C56.9871 42.8212 56.6715 42.7363 56.3957 42.5726C56.1225 42.4168 55.9072 42.1768 55.7817 41.8885C55.6425 41.6109 55.5704 41.3044 55.5713 40.9938ZM56.0625 40.9938C56.0424 41.371 56.1679 41.7415 56.4132 42.0288C56.5261 42.1533 56.6642 42.2522 56.8186 42.3188C56.9729 42.3854 57.1398 42.4181 57.3078 42.4147C57.4762 42.4204 57.6437 42.3889 57.7984 42.3221C57.9531 42.2554 58.0911 42.1552 58.2025 42.0288C58.4496 41.722 58.5745 41.3346 58.5532 40.9412C58.5598 40.6753 58.5059 40.4114 58.3954 40.1694C58.3098 39.9558 58.1555 39.7768 57.9569 39.6607C57.7641 39.5341 57.5384 39.467 57.3078 39.4677C56.9811 39.4668 56.6667 39.5926 56.4308 39.8186C56.2946 39.9803 56.1919 40.1675 56.1286 40.3692C56.0654 40.571 56.043 40.7833 56.0625 40.9938Z" fill="#8F8183"/>
<path d="M61.0098 42.7645V39.1159H62.6236C62.8737 39.1028 63.1238 39.1386 63.3602 39.2212C63.5352 39.2796 63.6842 39.3976 63.7812 39.5544C63.8727 39.7275 63.921 39.9201 63.9217 40.1158C63.9232 40.3551 63.8356 40.5864 63.6761 40.7648C63.4669 40.9645 63.193 41.0828 62.9042 41.0981C63.0058 41.1498 63.1002 41.2147 63.1849 41.2911C63.3412 41.429 63.477 41.5884 63.5883 41.7647L64.2198 42.7645H63.6234L63.1322 41.9927C63.0248 41.8224 62.9077 41.6584 62.7815 41.5016C62.7135 41.4069 62.6305 41.3239 62.5359 41.256C62.4664 41.2422 62.3949 41.2422 62.3254 41.256H61.501V42.8698L61.0098 42.7645ZM61.501 40.7297H62.5359C62.7046 40.753 62.8759 40.753 63.0446 40.7297C63.1622 40.6893 63.2615 40.6085 63.3251 40.5017C63.3913 40.4095 63.4281 40.2994 63.4305 40.186C63.4304 40.1035 63.4132 40.0219 63.3799 39.9465C63.3467 39.871 63.2983 39.8032 63.2376 39.7474C63.0692 39.6284 62.8641 39.5725 62.6586 39.5896H61.501V40.7297Z" fill="#8F8183"/>
<path d="M65.9036 42.7661V39.1175H67.2892C67.4698 39.0963 67.6524 39.0963 67.8331 39.1175C67.9957 39.1433 68.1511 39.2031 68.2892 39.2929C68.4135 39.374 68.5112 39.4899 68.5699 39.6262C68.6553 39.7818 68.6975 39.9574 68.6926 40.1349C68.6927 40.4256 68.5866 40.7062 68.3943 40.9242C68.246 41.0455 68.0751 41.1358 67.8913 41.1901C67.7076 41.2443 67.5147 41.2613 67.3243 41.24H66.3946V42.731L65.9036 42.7661ZM66.3946 40.8541H67.3243C67.5599 40.8721 67.7947 40.8103 67.9909 40.6787C68.0586 40.6171 68.1112 40.5408 68.1446 40.4556C68.1781 40.3704 68.1915 40.2787 68.1838 40.1875C68.1864 40.0459 68.1501 39.9063 68.0787 39.784C68.0011 39.6793 67.8893 39.6049 67.7628 39.5736H67.3243H66.3946V40.8541Z" fill="#8F8183"/>
<path d="M70.4287 40.9947C70.4103 40.737 70.4443 40.4782 70.5287 40.234C70.6131 39.9898 70.7463 39.7652 70.9199 39.5739C71.0799 39.4012 71.276 39.2661 71.4944 39.1781C71.7127 39.0902 71.9478 39.0516 72.1828 39.0652C72.502 39.0567 72.8174 39.1356 73.095 39.2932C73.3637 39.4545 73.5775 39.6929 73.7089 39.9773C73.8529 40.2848 73.9275 40.6201 73.9275 40.9597C73.9275 41.2992 73.8529 41.6345 73.7089 41.942C73.5709 42.2231 73.3507 42.4556 73.0774 42.6085C72.7998 42.7478 72.4934 42.8199 72.1828 42.819C71.862 42.8221 71.5465 42.7372 71.2706 42.5734C71.002 42.4122 70.7881 42.1738 70.6567 41.8893C70.5174 41.6117 70.4454 41.3053 70.4462 40.9947M70.9374 40.9947C70.9261 41.1831 70.9527 41.3719 71.016 41.5497C71.0793 41.7276 71.1779 41.8908 71.3057 42.0297C71.4136 42.1557 71.5486 42.2558 71.7004 42.3226C71.8522 42.3894 72.017 42.4212 72.1828 42.4156C72.3538 42.4215 72.524 42.39 72.6815 42.3234C72.8391 42.2567 72.9802 42.1565 73.095 42.0297C73.3374 41.7211 73.4561 41.3334 73.4282 40.9421C73.4403 40.6775 73.3924 40.4137 73.2879 40.1703C73.1961 39.9605 73.0433 39.7832 72.8494 39.6616C72.6149 39.5107 72.336 39.4441 72.0586 39.4728C71.7813 39.5015 71.522 39.6238 71.3233 39.8195C71.184 39.9798 71.0782 40.1664 71.012 40.3682C70.9457 40.57 70.9203 40.783 70.9374 40.9947Z" fill="#8F8183"/>
<path d="M75.8315 42.7675V39.1189H77.4454C77.6954 39.1088 77.9451 39.1444 78.1822 39.2241C78.3522 39.2835 78.4953 39.4017 78.5857 39.5574C78.691 39.7255 78.7457 39.9204 78.7435 40.1187C78.7455 40.2391 78.7234 40.3585 78.6782 40.4701C78.6329 40.5816 78.5656 40.6828 78.4803 40.7678C78.2729 40.9702 77.9982 41.0889 77.7086 41.101C77.8155 41.153 77.9155 41.2178 78.0067 41.294C78.1571 41.4328 78.2872 41.5922 78.3927 41.7676L79.0242 42.7675H78.4278L77.9542 41.9957L77.6032 41.5045C77.5353 41.4098 77.4523 41.3269 77.3576 41.2589C77.2826 41.2417 77.2046 41.2417 77.1296 41.2589H76.3052V42.8727L75.8315 42.7675ZM76.3052 40.7327H77.3403C77.509 40.7574 77.6802 40.7574 77.8488 40.7327C77.9708 40.6919 78.0758 40.6117 78.1471 40.5046C78.1705 40.4007 78.1705 40.2929 78.1471 40.1889C78.1506 40.1059 78.135 40.0233 78.1015 39.9473C78.0681 39.8713 78.0177 39.8039 77.9542 39.7504C77.7858 39.6313 77.5807 39.5754 77.3752 39.5925H76.2176L76.3052 40.7327Z" fill="#8F8183"/>
<path d="M80.3047 42.7658L81.6905 39.1172H82.2342L83.7076 42.7658H83.1639L82.743 41.6607H81.2169L80.8135 42.7658H80.3047ZM81.3571 41.2572H82.5852L82.2166 40.2574C82.0938 39.9417 82.0061 39.6961 81.9535 39.5031C81.8994 39.7358 81.8291 39.9644 81.743 40.1872L81.3571 41.2572Z" fill="#8F8183"/>
<path d="M85.9887 42.7483V39.5382H84.7959V39.1172H87.6727V39.5382H86.4799V42.7483H85.9887Z" fill="#8F8183"/>
<path d="M90.0229 39.1172H89.5317V42.7658H90.0229V39.1172Z" fill="#8F8183"/>
<path d="M92.0049 40.9938C91.9865 40.7361 92.0204 40.4774 92.1049 40.2331C92.1893 39.9889 92.3222 39.7643 92.4958 39.573C92.6539 39.4027 92.8473 39.2689 93.0624 39.181C93.2775 39.0932 93.5093 39.0533 93.7414 39.0643C94.0606 39.0559 94.376 39.1347 94.6536 39.2923C94.9223 39.4536 95.1362 39.692 95.2675 39.9765C95.4186 40.2755 95.4968 40.6061 95.4956 40.9412C95.4947 41.2873 95.4168 41.6288 95.2675 41.9411C95.1199 42.2154 94.902 42.4455 94.6361 42.6077C94.3585 42.7469 94.052 42.819 93.7414 42.8182C93.4206 42.8212 93.1051 42.7363 92.8292 42.5726C92.5561 42.4168 92.3407 42.1768 92.2153 41.8885C92.0761 41.6109 92.004 41.3044 92.0049 40.9938ZM92.4958 40.9938C92.4758 41.371 92.6015 41.7415 92.8468 42.0288C92.9597 42.1533 93.0978 42.2522 93.2521 42.3188C93.4065 42.3854 93.5734 42.4181 93.7414 42.4147C93.91 42.4217 94.0778 42.3907 94.2326 42.3238C94.3875 42.257 94.5255 42.1562 94.6361 42.0288C94.8832 41.722 95.0081 41.3346 94.9868 40.9412C94.991 40.6772 94.9434 40.415 94.8465 40.1694C94.7456 39.9614 94.5886 39.7856 94.3935 39.6617C94.1983 39.5378 93.9726 39.4706 93.7414 39.4677C93.4147 39.4668 93.1003 39.5926 92.8644 39.8186C92.7282 39.9803 92.6255 40.1675 92.5622 40.3692C92.499 40.571 92.4764 40.7833 92.4958 40.9938Z" fill="#8F8183"/>
<path d="M97.3896 42.7483V39.1172H97.8808L99.7928 41.9764V39.1172H100.249V42.7483H99.7577L97.8457 39.889V42.7483H97.3896Z" fill="#8F8183"/>
</svg>
