<svg width="120" height="59" viewBox="0 0 120 59" fill="none" xmlns="http://www.w3.org/2000/svg">
<path d="M20.5411 53.852C25.3474 49.4667 32.1534 36.4334 32.2937 26.5576C31.2006 26.9631 30.2389 27.6593 29.5124 28.5713C28.7859 29.4832 28.3224 30.5762 28.1715 31.7323C27.7155 33.8198 26.4174 38.7489 21.5584 38.3454C14.8401 37.7666 15.8223 25.0666 26.3296 26.2244C31.2938 26.7681 32.1008 23.1897 32.1008 22.7161C30.7087 23.0908 29.247 23.1269 27.8381 22.8213C18.3658 21.6811 13.805 27.1014 13.805 33.3461C13.8861 35.087 14.3981 36.7804 15.2952 38.2745C16.1922 39.7686 17.4463 41.0165 18.9448 41.9063C20.4007 42.836 19.3482 43.6605 18.2782 42.9588C15.4189 40.8889 12.0685 38.17 12.0685 32.3463C12.0685 22.6284 21.9793 18.4009 24.3474 16.6643C27.8557 14.1033 29.4696 11.9632 28.6276 8.17428C26.7885 10.7881 24.2968 12.8747 21.4006 14.226C14.6296 17.7343 9.31457 22.9967 9.31457 30.7676C9.22655 33.088 9.71577 35.394 10.7383 37.4789C11.7608 39.5637 13.2846 41.3623 15.1733 42.7132C15.8925 43.3096 15.1734 44.1165 14.2087 43.3798C11.9759 41.7115 10.1896 39.5177 9.00836 36.9931C7.82717 34.4685 7.28746 31.6914 7.43752 28.9082C7.43752 17.8922 21.3305 7.85853 15.0857 0C15.0857 8.08657 4.70118 15.1733 4.70118 28.5749C4.6864 31.9068 5.51694 35.1881 7.11526 38.1117C8.71357 41.0353 11.0274 43.5057 13.8402 45.2918C17.822 48.0633 18.3834 51.2559 17.787 54.0625C17.5414 55.6237 19.4185 54.8869 20.5762 53.8344M3.03484 18.9096C2.50859 25.014 2.47333 28.61 3.50827 32.5042C3.50827 32.8901 3.05224 33.1707 2.89437 32.8024C0.970902 29.0045 0.0528988 24.777 0.228046 20.5234C0.859535 12.4719 0 9.34955 0 9.34955C0 9.34955 3.66632 11.5949 3.03484 18.9798" fill="#8F8183"/>
<path d="M71.8674 54.554C72.3835 54.8918 72.9796 55.0875 73.5956 55.1214C74.2115 55.1552 74.8255 55.0261 75.3756 54.747C75.7615 54.5716 75.9193 54.3786 75.9193 54.098C75.9222 54.0273 75.9099 53.9569 75.8831 53.8915C75.8563 53.8261 75.8157 53.7672 75.7641 53.7189C75.7124 53.6706 75.651 53.634 75.584 53.6116C75.5169 53.5893 75.4459 53.5816 75.3756 53.5893C74.9546 53.5893 73.4987 54.2734 72.9198 53.5893C72.7385 53.3151 72.6579 52.9865 72.6918 52.6596V48.3795H74.9371C75.0077 48.3818 75.0778 48.37 75.1437 48.3446C75.2096 48.3192 75.2699 48.2808 75.3206 48.2317C75.3713 48.1826 75.4117 48.1238 75.4392 48.0588C75.4668 47.9938 75.4808 47.9239 75.4808 47.8533C75.4831 47.7804 75.4709 47.7078 75.4446 47.6397C75.4183 47.5717 75.3786 47.5097 75.3279 47.4573C75.2772 47.405 75.2164 47.3634 75.1493 47.3349C75.0822 47.3065 75.01 47.2919 74.9371 47.2919H72.6918V45.5378C72.6654 45.373 72.5813 45.2229 72.4543 45.1146C72.3273 45.0062 72.1658 44.9467 71.9988 44.9467C71.8319 44.9467 71.6704 45.0062 71.5434 45.1146C71.4164 45.2229 71.3322 45.373 71.3059 45.5378V47.2919H70.3413C70.2684 47.2919 70.196 47.3065 70.1289 47.3349C70.0617 47.3634 70.001 47.405 69.9503 47.4573C69.8995 47.5097 69.8598 47.5717 69.8336 47.6397C69.8073 47.7078 69.795 47.7804 69.7974 47.8533C69.7973 47.9239 69.8116 47.9938 69.8391 48.0588C69.8667 48.1238 69.907 48.1826 69.9578 48.2317C70.0085 48.2808 70.0685 48.3192 70.1344 48.3446C70.2003 48.37 70.2707 48.3818 70.3413 48.3795H71.3059V52.6771C71.2695 53.017 71.3072 53.3608 71.4162 53.6848C71.5252 54.0088 71.7029 54.3053 71.9374 54.554M64.114 53.2911C63.475 53.6291 62.7666 53.8151 62.044 53.8348C60.6758 53.8348 59.8165 53.063 59.8165 51.151C59.8165 49.239 60.6759 48.4497 62.1143 48.4497C62.8053 48.4644 63.4837 48.6385 64.0964 48.9583C64.1628 48.9821 64.2187 49.0287 64.254 49.0897C64.2894 49.1507 64.3018 49.2222 64.2894 49.2916V52.9929C64.2894 53.1683 64.2894 53.2384 64.114 53.3086M58.3253 51.2387C58.2637 51.7261 58.3054 52.221 58.4473 52.6913C58.5892 53.1617 58.8282 53.597 59.149 53.969C59.4698 54.3411 59.8653 54.6416 60.3096 54.8512C60.7539 55.0608 61.2373 55.1747 61.7284 55.1855C62.6183 55.1426 63.4796 54.8575 64.2194 54.3611C64.2457 54.5259 64.3298 54.676 64.4568 54.7843C64.5838 54.8926 64.7451 54.9522 64.9121 54.9522C65.079 54.9522 65.2405 54.8926 65.3675 54.7843C65.4945 54.676 65.5787 54.5259 65.605 54.3611V47.9585C65.621 47.8583 65.6151 47.7558 65.5876 47.6581C65.5602 47.5603 65.5117 47.4698 65.4459 47.3925C65.38 47.3153 65.2982 47.2533 65.2061 47.2108C65.1139 47.1683 65.0136 47.1462 64.9121 47.1462C64.8106 47.1462 64.7104 47.1683 64.6183 47.2108C64.5261 47.2533 64.4441 47.3153 64.3782 47.3925C64.3124 47.4698 64.2642 47.5603 64.2367 47.6581C64.2092 47.7558 64.2034 47.8583 64.2194 47.9585C63.4962 47.4864 62.6611 47.2141 61.7986 47.1691C61.3012 47.1885 60.8129 47.3089 60.3636 47.5231C59.9142 47.7373 59.5132 48.0407 59.185 48.4149C58.8567 48.7891 58.608 49.2263 58.4542 49.6997C58.3004 50.1731 58.2447 50.6729 58.2904 51.1686M51.4492 50.4318C51.4648 50.1491 51.5363 49.8722 51.6597 49.6173C51.7831 49.3624 51.9559 49.1346 52.168 48.9469C52.3801 48.7593 52.6274 48.6156 52.8954 48.5242C53.1635 48.4329 53.4469 48.3956 53.7294 48.4146C54.0065 48.4004 54.2837 48.4417 54.5446 48.5358C54.8055 48.63 55.045 48.7753 55.2491 48.9631C55.4533 49.1509 55.6179 49.3775 55.7335 49.6297C55.849 49.8819 55.9131 50.1546 55.9221 50.4318H51.4492ZM51.1509 54.0804C51.5177 54.4383 51.9553 54.7153 52.4357 54.8935C52.9161 55.0718 53.4285 55.1474 53.9399 55.1154C54.8629 55.1051 55.7638 54.8312 56.5362 54.326C56.9748 54.0103 57.0623 53.8173 57.0623 53.5717C57.0676 53.5013 57.0576 53.4305 57.033 53.3643C57.0084 53.2981 56.9699 53.2379 56.9199 53.188C56.87 53.138 56.8097 53.0994 56.7435 53.0749C56.6773 53.0503 56.6067 53.0402 56.5362 53.0455C56.3236 53.0675 56.119 53.1396 55.9397 53.256C55.3264 53.6319 54.6242 53.8377 53.905 53.8524C53.5884 53.8667 53.2722 53.8164 52.9757 53.7044C52.6792 53.5925 52.4086 53.4213 52.1804 53.2014C51.9523 52.9814 51.7713 52.7173 51.6485 52.4251C51.5258 52.1329 51.464 51.8187 51.4668 51.5018H56.7292C57.1677 51.5018 57.3782 51.2913 57.3782 50.8177C57.3971 50.3453 57.3203 49.874 57.1525 49.4321C56.9847 48.9901 56.7292 48.5866 56.4015 48.2458C56.0739 47.905 55.6807 47.634 55.2457 47.449C54.8106 47.2639 54.3427 47.1687 53.8699 47.1691C50.1161 47.1691 49.1336 51.9053 51.3087 54.0804M78.2349 58.0097C78.2279 58.1713 78.2813 58.3296 78.385 58.4538C78.4886 58.5779 78.6348 58.6589 78.795 58.6809C78.9553 58.7028 79.1179 58.6642 79.2511 58.5725C79.3843 58.4808 79.4787 58.3426 79.5154 58.1851L83.7078 48.3093C83.7679 48.1765 83.8035 48.0339 83.8129 47.8883C83.813 47.8024 83.7956 47.7173 83.7617 47.6383C83.7278 47.5593 83.6781 47.488 83.6157 47.4289C83.5533 47.3698 83.4795 47.3241 83.3988 47.2945C83.3181 47.2649 83.2322 47.2521 83.1463 47.2568C83.0127 47.2551 82.8822 47.297 82.7746 47.3761C82.667 47.4552 82.5882 47.5673 82.55 47.6954L80.9361 51.5194C80.5853 52.3438 80.3398 53.0455 80.1644 53.5717C79.9367 52.8721 79.6671 52.1868 79.3573 51.5194L77.6032 47.6954C77.5561 47.566 77.4702 47.4544 77.3572 47.3759C77.2441 47.2974 77.1094 47.2558 76.9717 47.2568C76.8867 47.2519 76.8017 47.2648 76.7219 47.2945C76.6421 47.3243 76.5694 47.3704 76.5084 47.4297C76.4473 47.4891 76.3992 47.5606 76.3673 47.6395C76.3353 47.7185 76.3201 47.8032 76.3227 47.8883C76.3213 48.0409 76.3575 48.1915 76.4281 48.3269L79.4451 55.0277L78.3225 57.5887C78.2485 57.7172 78.2065 57.8616 78.1998 58.0097M67.675 54.3436C67.7013 54.5084 67.7854 54.6585 67.9124 54.7668C68.0394 54.8751 68.2009 54.9346 68.3679 54.9346C68.5348 54.9346 68.6961 54.8751 68.8231 54.7668C68.9501 54.6585 69.0343 54.5084 69.0606 54.3436V44.4678C69.0766 44.3675 69.0707 44.265 69.0432 44.1673C69.0158 44.0696 68.9676 43.979 68.9017 43.9018C68.8358 43.8246 68.7538 43.7626 68.6617 43.7201C68.5695 43.6775 68.4694 43.6555 68.3679 43.6555C68.2664 43.6555 68.166 43.6775 68.0739 43.7201C67.9817 43.7626 67.8999 43.8246 67.834 43.9018C67.7682 43.979 67.7198 44.0696 67.6923 44.1673C67.6648 44.265 67.659 44.3675 67.675 44.4678V54.3436ZM46.7656 49.4846C46.1233 49.9076 45.3562 50.0994 44.5905 50.0284H42.5031V45.6781H44.5905C45.3587 45.6064 46.1279 45.8049 46.7656 46.2394C46.979 46.4477 47.1445 46.6999 47.2506 46.9786C47.3566 47.2573 47.4005 47.5558 47.3795 47.8533C47.4007 48.1534 47.357 48.4545 47.251 48.7361C47.145 49.0177 46.9794 49.273 46.7656 49.4846ZM46.9234 50.8703C47.5298 50.641 48.0455 50.2213 48.3934 49.6743C48.7412 49.1272 48.9026 48.4821 48.8531 47.8357C48.8718 47.3828 48.7938 46.9312 48.6244 46.5108C48.455 46.0904 48.1981 45.7109 47.8707 45.3975C46.9814 44.7107 45.8684 44.3793 44.7483 44.4678H41.7488C41.5564 44.4723 41.3735 44.552 41.2391 44.6897C41.1047 44.8273 41.0295 45.0121 41.0295 45.2045V54.2208C41.0295 54.4131 41.1047 54.5979 41.2391 54.7356C41.3735 54.8733 41.5564 54.9529 41.7488 54.9575C41.9458 54.9575 42.135 54.8805 42.276 54.7428C42.4169 54.6051 42.4986 54.4177 42.5031 54.2208V51.2387H45.5553L47.4497 54.5365C47.6427 54.8523 47.8181 54.9926 48.0987 54.9926C48.1909 54.9949 48.2825 54.9791 48.3685 54.946C48.4546 54.9128 48.5332 54.8631 48.6 54.7995C48.6668 54.736 48.7204 54.6599 48.7578 54.5757C48.7952 54.4914 48.8157 54.4006 48.818 54.3085C48.8128 54.1331 48.7579 53.9629 48.66 53.8173L46.9234 50.8703ZM119.51 22.8042C119.118 22.7734 118.726 22.7734 118.334 22.8042C116.808 22.8042 116.054 23.3655 116.054 24.7162V40.1526C116.494 40.2325 116.94 40.2678 117.387 40.2579C118.808 40.2579 119.51 39.6439 119.51 38.3458V22.8042ZM60.7811 40.0649C61.2267 40.1448 61.6792 40.1801 62.1318 40.1701C63.5527 40.1701 64.2543 39.5562 64.2543 38.2581V32.1011C64.2543 30.768 66.2715 29.8207 68.0081 31.2942C68.4669 30.5352 68.7542 29.6851 68.8501 28.8033C68.8501 27.4 65.8506 26.7685 64.0964 29.1015C63.7807 27.7684 62.1493 27.6807 60.7811 27.9087V40.0649ZM97.3372 40.0649C97.777 40.1441 98.2236 40.1794 98.6704 40.1701C100.109 40.1701 100.811 39.5562 100.811 38.2581V33.2413C100.811 30.2593 100.495 27.821 97.4953 27.5754C96.6339 27.4447 95.753 27.5714 94.9634 27.9397C94.1738 28.308 93.5107 28.9014 93.0572 29.6453C92.1626 26.7159 87.444 27.1544 86.0407 29.1191C85.76 27.7333 84.1813 27.6982 82.7605 27.9087V40.0649C83.2003 40.1441 83.6469 40.1794 84.0936 40.1701C85.532 40.1701 86.2336 39.5562 86.2336 38.2581V31.6801C86.2336 30.1716 89.3384 29.733 89.8822 31.2065C90.0545 31.9655 90.1079 32.7466 90.0402 33.5219V40.0649C90.48 40.1441 90.9266 40.1794 91.3733 40.1701C92.8117 40.1701 93.5133 39.5562 93.5133 38.2581V31.6801C93.5133 30.1716 96.6181 29.733 97.1619 31.2065C97.3342 31.9655 97.3876 32.7466 97.3199 33.5219L97.3372 40.0649ZM58.1148 27.9087C57.6751 27.8288 57.2284 27.7935 56.7816 27.8035C55.3608 27.8035 54.6592 28.4174 54.6592 29.7155V40.0649C55.0989 40.1448 55.5456 40.1801 55.9923 40.1701C57.4132 40.1701 58.1148 39.5562 58.1148 38.2581V27.9087ZM44.4853 31.417C46.8534 31.417 49.0985 31.417 49.0985 28.1017C49.0985 25.5056 46.9236 25.067 44.4853 25.2951V31.417ZM45.6078 22.734C49.2915 22.734 52.6243 23.9268 52.6243 27.9964C52.6243 32.066 49.695 33.9605 45.7307 33.9605H44.4326V38.3458C44.4326 39.6439 43.7308 40.2228 42.31 40.2579C41.8632 40.2678 41.4167 40.2325 40.9771 40.1526V22.8042L45.6078 22.734ZM76.8139 34.0658C75.667 34.0125 74.5256 34.2541 73.4986 34.7674C73.1712 34.9701 72.9196 35.2749 72.7825 35.6348C72.6455 35.9947 72.6308 36.3897 72.7406 36.7588C72.8503 37.1279 73.0784 37.4507 73.3898 37.6773C73.7012 37.9038 74.0785 38.0217 74.4634 38.0126C74.9035 38.0093 75.3382 37.9175 75.742 37.7428C76.1458 37.568 76.5104 37.3137 76.8139 36.9952V34.0658ZM80.1293 36.925C80.01 37.9245 80.187 38.937 80.638 39.8368C79.568 40.3105 77.5157 40.521 77.1298 39.065C76.0649 39.9083 74.7516 40.3769 73.3935 40.3982C72.8706 40.4615 72.3402 40.4063 71.8417 40.2367C71.3431 40.0671 70.8892 39.7874 70.5134 39.4184C70.1377 39.0494 69.8499 38.6006 69.6713 38.1052C69.4927 37.6098 69.4279 37.0805 69.4818 36.5566C69.4818 33.0484 73.3057 32.259 76.8842 32.259C76.8842 31.0135 76.8841 30.0137 74.6564 30.0137C73.3652 30.0573 72.1125 30.4647 71.0428 31.189C70.6213 30.6892 70.348 30.0817 70.2535 29.4348C70.2535 28.4876 72.639 27.5404 75.2001 27.5404C78.7083 27.5404 80.1995 28.8209 80.1995 32.2063L80.1293 36.925ZM110.125 34.0658C108.978 34.0125 107.837 34.2541 106.81 34.7674C106.482 34.9701 106.231 35.2749 106.094 35.6348C105.957 35.9947 105.942 36.3897 106.052 36.7588C106.161 37.1279 106.389 37.4507 106.701 37.6773C107.012 37.9038 107.389 38.0217 107.774 38.0126C108.214 38.0093 108.649 37.9175 109.053 37.7428C109.457 37.568 109.821 37.3137 110.125 36.9952V34.0658ZM113.44 36.925C113.321 37.9245 113.498 38.937 113.949 39.8368C112.879 40.3105 110.827 40.521 110.441 39.065C109.376 39.9083 108.063 40.3769 106.704 40.3982C106.182 40.4615 105.651 40.4063 105.153 40.2367C104.654 40.0671 104.2 39.7874 103.824 39.4184C103.449 39.0494 103.161 38.6006 102.982 38.1052C102.804 37.6098 102.739 37.0805 102.793 36.5566C102.793 33.0484 106.617 32.259 110.195 32.259C110.195 31.0135 110.195 30.0137 107.967 30.0137C106.676 30.0573 105.424 30.4647 104.354 31.189C103.932 30.6892 103.659 30.0817 103.565 29.4348C103.565 28.4876 105.95 27.5404 108.511 27.5404C112.02 27.5404 113.511 28.8209 113.511 32.2063L113.44 36.925ZM56.3958 22.734C56.7849 22.7174 57.1687 22.8308 57.4863 23.0563C57.8039 23.2818 58.0373 23.6066 58.1499 23.9795C58.2556 24.3295 58.2494 24.7039 58.1319 25.0502C58.0144 25.3964 57.7916 25.6973 57.4947 25.9108C57.1978 26.1243 56.8415 26.2396 56.4758 26.2407C56.1102 26.2418 55.7533 26.1285 55.4551 25.9168C55.1569 25.7052 54.9325 25.4056 54.8129 25.06C54.6934 24.7144 54.6849 24.3401 54.7885 23.9894C54.8922 23.6387 55.1027 23.3292 55.3909 23.1041C55.679 22.879 56.0304 22.7496 56.3958 22.734Z" fill="#8F8183"/>
</svg>
