<svg width="120" height="41" viewBox="0 0 120 41" fill="none" xmlns="http://www.w3.org/2000/svg">
<mask id="mask0_1_1854" style="mask-type:luminance" maskUnits="userSpaceOnUse" x="0" y="0" width="6" height="41">
<path d="M5.33264 0.0700684H0V40.2398H5.33264V0.0700684Z" fill="white"/>
</mask>
<g mask="url(#mask0_1_1854)">
<path d="M5.34982 0.0541992H4.75342V40.224H5.34982V0.0541992Z" fill="#8F8183"/>
<path d="M4.75354 0.0541992H3.99927V40.224H4.75354V0.0541992Z" fill="#8F8183"/>
<path d="M4.01697 0.0541992H3.2627V40.224H4.01697V0.0541992Z" fill="#8F8183"/>
<path d="M3.26258 0.0541992H2.5083V40.224H3.26258V0.0541992Z" fill="#8F8183"/>
<path d="M2.50818 0.0541992H1.75391V40.224H2.50818V0.0541992Z" fill="#8F8183"/>
<path d="M1.77137 0.0541992H1.01709V40.224H1.77137V0.0541992Z" fill="#8F8183"/>
<path d="M1.01697 0.0541992H0.262695V40.224H1.01697V0.0541992Z" fill="#8F8183"/>
<path d="M0.26312 0.0541992H0V40.224H0.26312V0.0541992Z" fill="#8F8183"/>
</g>
<mask id="mask1_1_1854" style="mask-type:luminance" maskUnits="userSpaceOnUse" x="11" y="0" width="36" height="41">
<path d="M16.7519 1.38573H24.7858C33.2933 1.38573 41.1518 8.40226 41.1518 19.6814C41.1518 30.9605 35.5736 38.9769 27.1187 38.9769H16.7868L16.7519 1.38573ZM11.4895 0.0701269V40.2223H27.1538C39.4328 40.2223 46.5547 32.7146 46.5547 20.3831C46.5547 8.05148 37.1349 0 24.7858 0L11.4895 0.0701269Z" fill="white"/>
</mask>
<g mask="url(#mask1_1_1854)">
<path d="M41.1515 1.3689H40.6428V38.8899H41.1515V1.3689Z" fill="#8F8183"/>
<path d="M40.6432 1.3689H39.8889V38.8899H40.6432V1.3689Z" fill="#8F8183"/>
<path d="M39.9064 1.3689H39.1521V38.8899H39.9064V1.3689Z" fill="#8F8183"/>
<path d="M39.152 1.3689H38.3977V38.8899H39.152V1.3689Z" fill="#8F8183"/>
<path d="M38.4152 1.3689H37.6609V38.8899H38.4152V1.3689Z" fill="#8F8183"/>
<path d="M37.6608 1.3689H36.9065V38.8899H37.6608V1.3689Z" fill="#8F8183"/>
<path d="M36.9069 1.3689H36.1526V38.8899H36.9069V1.3689Z" fill="#8F8183"/>
<path d="M36.1701 1.3689H35.4158V38.8899H36.1701V1.3689Z" fill="#8F8183"/>
<path d="M35.4157 1.3689H34.6614V38.8899H35.4157V1.3689Z" fill="#8F8183"/>
<path d="M34.6617 1.3689H33.9075V38.8899H34.6617V1.3689Z" fill="#8F8183"/>
<path d="M33.9244 1.3689H33.1702V38.8899H33.9244V1.3689Z" fill="#8F8183"/>
<path d="M33.1705 1.3689H32.4163V38.8899H33.1705V1.3689Z" fill="#8F8183"/>
<path d="M32.4337 1.3689H31.6794V38.8899H32.4337V1.3689Z" fill="#8F8183"/>
<path d="M31.6798 1.3689H30.9255V38.8899H31.6798V1.3689Z" fill="#8F8183"/>
<path d="M30.9249 1.3689H30.1707V38.8899H30.9249V1.3689Z" fill="#8F8183"/>
<path d="M30.1881 1.3689H29.4338V38.8899H30.1881V1.3689Z" fill="#8F8183"/>
<path d="M29.4342 1.3689H28.6799V38.8899H29.4342V1.3689Z" fill="#8F8183"/>
<path d="M28.6798 1.3689H27.9255V38.8899H28.6798V1.3689Z" fill="#8F8183"/>
<path d="M27.943 1.3689H27.1887V38.8899H27.943V1.3689Z" fill="#8F8183"/>
<path d="M27.1891 1.3689H26.4348V38.8899H27.1891V1.3689Z" fill="#8F8183"/>
<path d="M26.4342 1.3689H25.6799V38.8899H26.4342V1.3689Z" fill="#8F8183"/>
<path d="M25.6979 1.3689H24.9436V38.8899H25.6979V1.3689Z" fill="#8F8183"/>
<path d="M24.944 1.3689H24.1897V38.8899H24.944V1.3689Z" fill="#8F8183"/>
<path d="M24.2072 1.3689H23.4529V38.8899H24.2072V1.3689Z" fill="#8F8183"/>
<path d="M23.4528 1.3689H22.6985V38.8899H23.4528V1.3689Z" fill="#8F8183"/>
<path d="M22.6989 1.3689H21.9446V38.8899H22.6989V1.3689Z" fill="#8F8183"/>
<path d="M21.9616 1.3689H21.2073V38.8899H21.9616V1.3689Z" fill="#8F8183"/>
<path d="M21.2067 1.3689H20.4524V38.8899H21.2067V1.3689Z" fill="#8F8183"/>
<path d="M20.4533 1.3689H19.699V38.8899H20.4533V1.3689Z" fill="#8F8183"/>
<path d="M19.7164 1.3689H18.9622V38.8899H19.7164V1.3689Z" fill="#8F8183"/>
<path d="M18.9625 1.3689H18.2083V38.8899H18.9625V1.3689Z" fill="#8F8183"/>
<path d="M18.2252 1.3689H17.4709V38.8899H18.2252V1.3689Z" fill="#8F8183"/>
<path d="M17.4714 1.3689H16.7698V38.8899H17.4714V1.3689Z" fill="#8F8183"/>
<path d="M46.4843 0.0522461H45.8704V40.222H46.4843V0.0522461Z" fill="#8F8183"/>
<path d="M45.8881 0.0522461H45.1338V40.222H45.8881V0.0522461Z" fill="#8F8183"/>
<path d="M45.1337 0.0522461H44.3794V40.222H45.1337V0.0522461Z" fill="#8F8183"/>
<path d="M44.3973 0.0522461H43.6431V40.222H44.3973V0.0522461Z" fill="#8F8183"/>
<path d="M43.6427 0.0522461H42.8884V40.222H43.6427V0.0522461Z" fill="#8F8183"/>
<path d="M42.8886 0.0522461H42.1343V40.222H42.8886V0.0522461Z" fill="#8F8183"/>
<path d="M42.1517 0.0522461H41.3975V40.222H42.1517V0.0522461Z" fill="#8F8183"/>
<path d="M41.3971 0.0522461H40.6428V40.222H41.3971V0.0522461Z" fill="#8F8183"/>
<path d="M40.643 0.0522461H39.8887V40.222H40.643V0.0522461Z" fill="#8F8183"/>
<path d="M39.9064 0.0522461H39.1521V40.222H39.9064V0.0522461Z" fill="#8F8183"/>
<path d="M39.152 0.0522461H38.3977V40.222H39.152V0.0522461Z" fill="#8F8183"/>
<path d="M38.4152 0.0522461H37.6609V40.222H38.4152V0.0522461Z" fill="#8F8183"/>
<path d="M37.661 0.0522461H36.9067V40.222H37.661V0.0522461Z" fill="#8F8183"/>
<path d="M36.9071 0.0522461H36.1528V40.222H36.9071V0.0522461Z" fill="#8F8183"/>
<path d="M36.1701 0.0522461H35.4158V40.222H36.1701V0.0522461Z" fill="#8F8183"/>
<path d="M35.4157 0.0522461H34.6614V40.222H35.4157V0.0522461Z" fill="#8F8183"/>
<path d="M34.6615 0.0522461H33.9072V40.222H34.6615V0.0522461Z" fill="#8F8183"/>
<path d="M33.9247 0.0522461H33.1704V40.222H33.9247V0.0522461Z" fill="#8F8183"/>
<path d="M33.1705 0.0522461H32.4163V40.222H33.1705V0.0522461Z" fill="#8F8183"/>
<path d="M32.4337 0.0522461H31.6794V40.222H32.4337V0.0522461Z" fill="#8F8183"/>
<path d="M31.6798 0.0522461H30.9255V40.222H31.6798V0.0522461Z" fill="#8F8183"/>
<path d="M30.9249 0.0522461H30.1707V40.222H30.9249V0.0522461Z" fill="#8F8183"/>
<path d="M30.1884 0.0522461H29.4341V40.222H30.1884V0.0522461Z" fill="#8F8183"/>
<path d="M29.4345 0.0522461H28.6802V40.222H29.4345V0.0522461Z" fill="#8F8183"/>
<path d="M28.6798 0.0522461H27.9255V40.222H28.6798V0.0522461Z" fill="#8F8183"/>
<path d="M27.943 0.0522461H27.1887V40.222H27.943V0.0522461Z" fill="#8F8183"/>
<path d="M27.1893 0.0522461H26.4351V40.222H27.1893V0.0522461Z" fill="#8F8183"/>
<path d="M26.4345 0.0522461H25.6802V40.222H26.4345V0.0522461Z" fill="#8F8183"/>
<path d="M25.6976 0.0522461H24.9434V40.222H25.6976V0.0522461Z" fill="#8F8183"/>
<path d="M24.9437 0.0522461H24.1895V40.222H24.9437V0.0522461Z" fill="#8F8183"/>
<path d="M24.2072 0.0522461H23.4529V40.222H24.2072V0.0522461Z" fill="#8F8183"/>
<path d="M23.4525 0.0522461H22.6982V40.222H23.4525V0.0522461Z" fill="#8F8183"/>
<path d="M22.6986 0.0522461H21.9443V40.222H22.6986V0.0522461Z" fill="#8F8183"/>
<path d="M21.9618 0.0522461H21.2075V40.222H21.9618V0.0522461Z" fill="#8F8183"/>
<path d="M21.2069 0.0522461H20.4526V40.222H21.2069V0.0522461Z" fill="#8F8183"/>
<path d="M20.4533 0.0522461H19.699V40.222H20.4533V0.0522461Z" fill="#8F8183"/>
<path d="M19.7164 0.0522461H18.9622V40.222H19.7164V0.0522461Z" fill="#8F8183"/>
<path d="M18.9623 0.0522461H18.208V40.222H18.9623V0.0522461Z" fill="#8F8183"/>
<path d="M18.2252 0.0522461H17.4709V40.222H18.2252V0.0522461Z" fill="#8F8183"/>
<path d="M17.4713 0.0522461H16.717V40.222H17.4713V0.0522461Z" fill="#8F8183"/>
<path d="M16.7169 0.0522461H15.9626V40.222H16.7169V0.0522461Z" fill="#8F8183"/>
<path d="M15.9799 0.0522461H15.2256V40.222H15.9799V0.0522461Z" fill="#8F8183"/>
<path d="M15.2257 0.0522461H14.4714V40.222H15.2257V0.0522461Z" fill="#8F8183"/>
<path d="M14.4716 0.0522461H13.7173V40.222H14.4716V0.0522461Z" fill="#8F8183"/>
<path d="M13.7347 0.0522461H12.9805V40.222H13.7347V0.0522461Z" fill="#8F8183"/>
<path d="M12.9806 0.0522461H12.2263V40.222H12.9806V0.0522461Z" fill="#8F8183"/>
<path d="M12.2438 0.0522461H11.4895V40.222H12.2438V0.0522461Z" fill="#8F8183"/>
</g>
<mask id="mask2_1_1854" style="mask-type:luminance" maskUnits="userSpaceOnUse" x="60" y="33" width="2" height="7">
<path d="M61.4472 33.4333H60.6577V39.4325H61.4472V33.4333Z" fill="white"/>
</mask>
<g mask="url(#mask2_1_1854)">
<path d="M61.4471 33.4333H60.6577V39.4325H61.4471V33.4333Z" fill="#8F8183"/>
</g>
<mask id="mask3_1_1854" style="mask-type:luminance" maskUnits="userSpaceOnUse" x="62" y="38" width="2" height="2">
<path d="M62.8682 39.1164C62.868 39.1725 62.8796 39.228 62.902 39.2794C62.9244 39.3308 62.9573 39.377 62.9986 39.4149C63.0398 39.4529 63.0885 39.4818 63.1416 39.4998C63.1947 39.5179 63.2508 39.5248 63.3067 39.52C63.4137 39.52 63.5165 39.4774 63.5921 39.4018C63.6678 39.3261 63.7101 39.2234 63.7101 39.1164C63.7101 39.0094 63.6678 38.9069 63.5921 38.8312C63.5165 38.7556 63.4137 38.713 63.3067 38.713C63.2514 38.7107 63.1962 38.7193 63.1442 38.7383C63.0922 38.7573 63.0444 38.7864 63.0037 38.8238C62.963 38.8613 62.9302 38.9064 62.9069 38.9566C62.8837 39.0068 62.8704 39.0611 62.8682 39.1164Z" fill="white"/>
</mask>
<g mask="url(#mask3_1_1854)">
<path d="M63.7445 38.7126H62.885V39.5195H63.7445V38.7126Z" fill="#8F8183"/>
</g>
<mask id="mask4_1_1854" style="mask-type:luminance" maskUnits="userSpaceOnUse" x="65" y="33" width="6" height="7">
<path d="M65.9553 33.6443H67.1482C67.4893 33.6551 67.8246 33.735 68.134 33.879C68.4434 34.0231 68.7205 34.2285 68.9484 34.4826C69.1762 34.7367 69.3503 35.0343 69.4599 35.3575C69.5695 35.6807 69.6127 36.0228 69.5865 36.3631C69.5865 38.1173 68.7619 39.24 67.4814 39.24H65.9553V33.6443ZM65.1484 33.4513V39.4329H67.4814C67.876 39.4663 68.2732 39.4119 68.6443 39.2737C69.0154 39.1355 69.3513 38.9169 69.628 38.6335C69.9047 38.3502 70.1152 38.0091 70.2445 37.6347C70.3737 37.2604 70.4186 36.8621 70.3757 36.4684C70.382 36.0523 70.3013 35.6395 70.1385 35.2565C69.9757 34.8736 69.7344 34.529 69.4304 34.2448C69.1264 33.9606 68.7663 33.7431 68.3732 33.6065C67.9801 33.4698 67.5629 33.417 67.1482 33.4513H65.1484Z" fill="white"/>
</mask>
<g mask="url(#mask4_1_1854)">
<path d="M70.3758 33.4333H65.1484V39.4325H70.3758V33.4333Z" fill="#8F8183"/>
</g>
<mask id="mask5_1_1854" style="mask-type:luminance" maskUnits="userSpaceOnUse" x="71" y="33" width="6" height="7">
<path d="M75.7612 33.4509V37.3451C75.7612 39.0992 74.7789 39.3448 74.0071 39.3448C73.2352 39.3448 72.5161 38.994 72.5161 37.4854V33.4509H71.7268V37.3451C71.7268 39.3097 72.9722 39.5553 73.8317 39.5553C74.1329 39.5949 74.4392 39.5634 74.7261 39.4634C75.013 39.3635 75.2725 39.1978 75.4839 38.9796C75.6953 38.7614 75.8526 38.4967 75.9434 38.2068C76.0342 37.9169 76.0559 37.6098 76.0068 37.31V33.4509H75.7612Z" fill="white"/>
</mask>
<g mask="url(#mask5_1_1854)">
<path d="M75.9717 33.4333H71.6917V39.5377H75.9717V33.4333Z" fill="#8F8183"/>
</g>
<mask id="mask6_1_1854" style="mask-type:luminance" maskUnits="userSpaceOnUse" x="77" y="33" width="6" height="7">
<path d="M78.3569 33.6442H79.5495C79.8907 33.655 80.2262 33.7349 80.5356 33.879C80.845 34.023 81.1221 34.2284 81.3499 34.4825C81.5778 34.7366 81.7518 35.0342 81.8615 35.3574C81.9711 35.6806 82.0141 36.0228 81.9878 36.3631C81.9878 38.1172 81.1635 39.2399 79.9005 39.2399H78.3569V33.6442ZM77.5498 33.4512V39.4328H79.9005C80.2944 39.463 80.6899 39.4065 81.0596 39.2672C81.4292 39.1279 81.7639 38.9092 82.0399 38.6265C82.3158 38.3438 82.5265 38.0041 82.657 37.6312C82.7874 37.2584 82.8343 36.8614 82.7947 36.4683C82.7985 36.0514 82.7155 35.6383 82.5508 35.2553C82.386 34.8723 82.1431 34.5278 81.8377 34.2439C81.5324 33.96 81.1711 33.7429 80.7771 33.6064C80.3832 33.4699 79.9651 33.4171 79.5495 33.4512H77.5498Z" fill="white"/>
</mask>
<g mask="url(#mask6_1_1854)">
<path d="M82.7945 33.4333H77.5671V39.4325H82.7945V33.4333Z" fill="#8F8183"/>
</g>
<mask id="mask7_1_1854" style="mask-type:luminance" maskUnits="userSpaceOnUse" x="84" y="33" width="5" height="7">
<path d="M87.601 33.4509V36.2049H84.8998V33.4509H84.0928V39.4325H84.8998V36.3979H87.601V39.4325H88.4081V33.4509H87.601Z" fill="white"/>
</mask>
<g mask="url(#mask7_1_1854)">
<path d="M88.3904 33.4333H84.0928V39.4325H88.3904V33.4333Z" fill="#8F8183"/>
</g>
<mask id="mask8_1_1854" style="mask-type:luminance" maskUnits="userSpaceOnUse" x="89" y="33" width="9" height="7">
<path d="M96.8112 33.3826L95.1624 38.3291L93.6714 33.4176L92.1277 38.3291L90.5665 33.4527H89.707L91.6365 39.4167H92.0048L93.3556 35.1191L94.636 39.3817H95.0046L97.0216 33.3826H96.8112Z" fill="white"/>
</mask>
<g mask="url(#mask8_1_1854)">
<path d="M97.0218 33.3826H89.707V39.3993H97.0218V33.3826Z" fill="#8F8183"/>
</g>
<mask id="mask9_1_1854" style="mask-type:luminance" maskUnits="userSpaceOnUse" x="96" y="33" width="6" height="7">
<path d="M98.9683 34.3631L100.336 37.7486H97.6352L98.9683 34.3631ZM99.1437 33.4509L96.8105 39.4325H96.9861L97.5825 37.924H100.424L101.021 39.4325H101.985L99.5471 33.4509H99.1437Z" fill="white"/>
</mask>
<g mask="url(#mask9_1_1854)">
<path d="M101.985 33.4333H96.8105V39.4149H101.985V33.4333Z" fill="#8F8183"/>
</g>
<mask id="mask10_1_1854" style="mask-type:luminance" maskUnits="userSpaceOnUse" x="103" y="33" width="4" height="7">
<path d="M103.301 33.4509V39.4325H106.792V39.2396H104.091V33.4509H103.301Z" fill="white"/>
</mask>
<g mask="url(#mask10_1_1854)">
<path d="M106.81 33.4333H103.301V39.4325H106.81V33.4333Z" fill="#8F8183"/>
</g>
<mask id="mask11_1_1854" style="mask-type:luminance" maskUnits="userSpaceOnUse" x="107" y="33" width="6" height="7">
<path d="M109.809 34.3631L111.195 37.7486H108.476L109.809 34.3631ZM109.984 33.4509L107.651 39.4325H107.826L108.423 37.924H111.265L111.879 39.4325H112.826L110.387 33.4509H109.984Z" fill="white"/>
</mask>
<g mask="url(#mask11_1_1854)">
<path d="M112.826 33.4333H107.651V39.4149H112.826V33.4333Z" fill="#8F8183"/>
</g>
<mask id="mask12_1_1854" style="mask-type:luminance" maskUnits="userSpaceOnUse" x="68" y="13" width="12" height="16">
<path d="M70.8494 13.8756C74.0419 13.8756 76.7783 13.6826 76.7783 17.2786C76.7783 20.4887 74.533 21.05 70.8494 21.05V13.8756ZM68.8496 13.3494V28.435H70.8494V21.5413C71.6913 21.5413 72.6034 21.5413 73.3928 21.5413L77.6203 28.5578H79.9532L75.4979 21.1904C77.6554 20.6291 78.7781 19.4363 78.7781 17.6821C78.7781 13.7002 75.6908 13.5073 71.0598 13.5073L68.8496 13.3494Z" fill="white"/>
</mask>
<g mask="url(#mask12_1_1854)">
<path d="M76.778 13.6638H76.6377V21.0312H76.778V13.6638Z" fill="#8F8183"/>
<path d="M76.6382 13.6638H75.9541V21.0312H76.6382V13.6638Z" fill="#8F8183"/>
<path d="M75.9361 13.6638H75.252V21.0312H75.9361V13.6638Z" fill="#8F8183"/>
<path d="M75.2525 13.6638H74.5684V21.0312H75.2525V13.6638Z" fill="#8F8183"/>
<path d="M74.5684 13.6638H73.8843V21.0312H74.5684V13.6638Z" fill="#8F8183"/>
<path d="M73.8667 13.6638H73.1826V21.0312H73.8667V13.6638Z" fill="#8F8183"/>
<path d="M73.1827 13.6638H72.4985V21.0312H73.1827V13.6638Z" fill="#8F8183"/>
<path d="M72.4986 13.6638H71.8145V21.0312H72.4986V13.6638Z" fill="#8F8183"/>
<path d="M71.7964 13.6638H71.1123V21.0312H71.7964V13.6638Z" fill="#8F8183"/>
<path d="M71.1127 13.6638H70.8496V21.0312H71.1127V13.6638Z" fill="#8F8183"/>
<path d="M79.9534 13.3494H79.3921V28.435H79.9534V13.3494Z" fill="#8F8183"/>
<path d="M79.3921 13.3494H78.708V28.435H79.3921V13.3494Z" fill="#8F8183"/>
<path d="M78.7078 13.3494H78.0237V28.435H78.7078V13.3494Z" fill="#8F8183"/>
<path d="M78.0064 13.3494H77.3223V28.435H78.0064V13.3494Z" fill="#8F8183"/>
<path d="M77.3221 13.3494H76.6379V28.435H77.3221V13.3494Z" fill="#8F8183"/>
<path d="M76.6382 13.3494H75.9541V28.435H76.6382V13.3494Z" fill="#8F8183"/>
<path d="M75.9361 13.3494H75.252V28.435H75.9361V13.3494Z" fill="#8F8183"/>
<path d="M75.2525 13.3494H74.5684V28.435H75.2525V13.3494Z" fill="#8F8183"/>
<path d="M74.5684 13.3494H73.8843V28.435H74.5684V13.3494Z" fill="#8F8183"/>
<path d="M73.8665 13.3494H73.1824V28.435H73.8665V13.3494Z" fill="#8F8183"/>
<path d="M73.1827 13.3494H72.4985V28.435H73.1827V13.3494Z" fill="#8F8183"/>
<path d="M72.4983 13.3494H71.8142V28.435H72.4983V13.3494Z" fill="#8F8183"/>
<path d="M71.7967 13.3494H71.1125V28.435H71.7967V13.3494Z" fill="#8F8183"/>
<path d="M71.1123 13.3494H70.4282V28.435H71.1123V13.3494Z" fill="#8F8183"/>
<path d="M70.4283 13.3494H69.7441V28.435H70.4283V13.3494Z" fill="#8F8183"/>
<path d="M69.7271 13.3494H69.043V28.435H69.7271V13.3494Z" fill="#8F8183"/>
<path d="M69.0426 13.3494H68.8496V28.435H69.0426V13.3494Z" fill="#8F8183"/>
</g>
<mask id="mask13_1_1854" style="mask-type:luminance" maskUnits="userSpaceOnUse" x="79" y="13" width="16" height="16">
<path d="M81.6549 21.051C81.6549 16.7534 84.1982 13.8415 87.1802 13.8415C90.1623 13.8415 92.7058 16.7534 92.7058 21.051C92.7058 25.3486 90.1447 28.2605 87.1802 28.2605C84.2158 28.2605 81.6549 25.3311 81.6549 21.051ZM79.6551 21.051C79.6931 22.5347 80.1679 23.9743 81.0202 25.1894C81.8725 26.4046 83.0645 27.3412 84.4467 27.8821C85.8289 28.423 87.3398 28.544 88.7905 28.2302C90.2412 27.9163 91.567 27.1814 92.602 26.1175C93.6369 25.0536 94.335 23.708 94.6088 22.2492C94.8825 20.7905 94.7197 19.2833 94.1409 17.9166C93.5621 16.5498 92.5931 15.3843 91.3549 14.5658C90.1167 13.7473 88.6645 13.3123 87.1802 13.3153C86.162 13.2706 85.1459 13.4418 84.1985 13.8176C83.2511 14.1935 82.394 14.7654 81.6834 15.496C80.9727 16.2265 80.4246 17.0991 80.075 18.0565C79.7255 19.0139 79.5824 20.0344 79.6551 21.051Z" fill="white"/>
</mask>
<g mask="url(#mask13_1_1854)">
<path d="M92.7232 13.738H92.5127V28.1745H92.7232V13.738Z" fill="#8F8183"/>
<path d="M92.4956 13.738H91.8115V28.1745H92.4956V13.738Z" fill="#8F8183"/>
<path d="M91.8111 13.738H91.127V28.1745H91.8111V13.738Z" fill="#8F8183"/>
<path d="M91.127 13.738H90.4429V28.1745H91.127V13.738Z" fill="#8F8183"/>
<path d="M90.4253 13.738H89.7412V28.1745H90.4253V13.738Z" fill="#8F8183"/>
<path d="M89.7417 13.738H89.0576V28.1745H89.7417V13.738Z" fill="#8F8183"/>
<path d="M89.0572 13.738H88.373V28.1745H89.0572V13.738Z" fill="#8F8183"/>
<path d="M88.356 13.738H87.6719V28.1745H88.356V13.738Z" fill="#8F8183"/>
<path d="M87.6714 13.738H86.9873V28.1745H87.6714V13.738Z" fill="#8F8183"/>
<path d="M86.9878 13.738H86.3037V28.1745H86.9878V13.738Z" fill="#8F8183"/>
<path d="M86.2857 13.738H85.6016V28.1745H86.2857V13.738Z" fill="#8F8183"/>
<path d="M85.6016 13.738H84.9175V28.1745H85.6016V13.738Z" fill="#8F8183"/>
<path d="M84.9175 13.738H84.2334V28.1745H84.9175V13.738Z" fill="#8F8183"/>
<path d="M84.2159 13.738H83.5317V28.1745H84.2159V13.738Z" fill="#8F8183"/>
<path d="M83.5318 13.738H82.8477V28.1745H83.5318V13.738Z" fill="#8F8183"/>
<path d="M82.8472 13.738H82.1631V28.1745H82.8472V13.738Z" fill="#8F8183"/>
<path d="M82.164 13.738H81.6729V28.1745H82.164V13.738Z" fill="#8F8183"/>
<path d="M94.7231 13.2458H94.5828V28.6648H94.7231V13.2458Z" fill="#8F8183"/>
<path d="M94.5655 13.2458H93.8813V28.6648H94.5655V13.2458Z" fill="#8F8183"/>
<path d="M93.8811 13.2458H93.197V28.6648H93.8811V13.2458Z" fill="#8F8183"/>
<path d="M93.1971 13.2458H92.5129V28.6648H93.1971V13.2458Z" fill="#8F8183"/>
<path d="M92.4954 13.2458H91.8113V28.6648H92.4954V13.2458Z" fill="#8F8183"/>
<path d="M91.8113 13.2458H91.1272V28.6648H91.8113V13.2458Z" fill="#8F8183"/>
<path d="M91.127 13.2458H90.4429V28.6648H91.127V13.2458Z" fill="#8F8183"/>
<path d="M90.4256 13.2458H89.7415V28.6648H90.4256V13.2458Z" fill="#8F8183"/>
<path d="M89.7417 13.2458H89.0576V28.6648H89.7417V13.2458Z" fill="#8F8183"/>
<path d="M89.0574 13.2458H88.3733V28.6648H89.0574V13.2458Z" fill="#8F8183"/>
<path d="M88.356 13.2458H87.6719V28.6648H88.356V13.2458Z" fill="#8F8183"/>
<path d="M87.6717 13.2458H86.9875V28.6648H87.6717V13.2458Z" fill="#8F8183"/>
<path d="M86.9876 13.2458H86.3035V28.6648H86.9876V13.2458Z" fill="#8F8183"/>
<path d="M86.2857 13.2458H85.6016V28.6648H86.2857V13.2458Z" fill="#8F8183"/>
<path d="M85.6016 13.2458H84.9175V28.6648H85.6016V13.2458Z" fill="#8F8183"/>
<path d="M84.9178 13.2458H84.2336V28.6648H84.9178V13.2458Z" fill="#8F8183"/>
<path d="M84.2159 13.2458H83.5317V28.6648H84.2159V13.2458Z" fill="#8F8183"/>
<path d="M83.5318 13.2458H82.8477V28.6648H83.5318V13.2458Z" fill="#8F8183"/>
<path d="M82.8474 13.2458H82.1633V28.6648H82.8474V13.2458Z" fill="#8F8183"/>
<path d="M82.1463 13.2458H81.4622V28.6648H82.1463V13.2458Z" fill="#8F8183"/>
<path d="M81.4617 13.2458H80.7776V28.6648H81.4617V13.2458Z" fill="#8F8183"/>
<path d="M80.7779 13.2458H80.0938V28.6648H80.7779V13.2458Z" fill="#8F8183"/>
<path d="M80.0758 13.2461H79.6548V28.665H80.0758V13.2461Z" fill="#8F8183"/>
</g>
<mask id="mask14_1_1854" style="mask-type:luminance" maskUnits="userSpaceOnUse" x="96" y="13" width="12" height="16">
<path d="M106.756 13.3494V23.2076C106.756 27.3474 104.283 28.2245 102.248 28.2245C100.599 28.2245 98.5119 27.3298 98.5119 23.5409V13.3494H96.4946V23.155C96.4946 28.1017 99.6521 28.7332 101.757 28.7332C104.757 28.7332 107.195 27.4351 107.195 23.1199V13.3494H106.756Z" fill="white"/>
</mask>
<g mask="url(#mask14_1_1854)">
<path d="M107.265 13.3494H107.002V28.7332H107.265V13.3494Z" fill="#8F8183"/>
<path d="M106.985 13.3494H106.301V28.7332H106.985V13.3494Z" fill="#8F8183"/>
<path d="M106.3 13.3494H105.616V28.7332H106.3V13.3494Z" fill="#8F8183"/>
<path d="M105.617 13.3494H104.933V28.7332H105.617V13.3494Z" fill="#8F8183"/>
<path d="M104.915 13.3494H104.23V28.7332H104.915V13.3494Z" fill="#8F8183"/>
<path d="M104.231 13.3494H103.547V28.7332H104.231V13.3494Z" fill="#8F8183"/>
<path d="M103.547 13.3494H102.863V28.7332H103.547V13.3494Z" fill="#8F8183"/>
<path d="M102.845 13.3494H102.161V28.7332H102.845V13.3494Z" fill="#8F8183"/>
<path d="M102.161 13.3494H101.477V28.7332H102.161V13.3494Z" fill="#8F8183"/>
<path d="M101.477 13.3494H100.792V28.7332H101.477V13.3494Z" fill="#8F8183"/>
<path d="M100.775 13.3494H100.091V28.7332H100.775V13.3494Z" fill="#8F8183"/>
<path d="M100.091 13.3494H99.4065V28.7332H100.091V13.3494Z" fill="#8F8183"/>
<path d="M99.4068 13.3494H98.7227V28.7332H99.4068V13.3494Z" fill="#8F8183"/>
<path d="M98.7056 13.3494H98.0215V28.7332H98.7056V13.3494Z" fill="#8F8183"/>
<path d="M98.0205 13.3494H97.3364V28.7332H98.0205V13.3494Z" fill="#8F8183"/>
<path d="M97.3372 13.3494H96.6531V28.7332H97.3372V13.3494Z" fill="#8F8183"/>
<path d="M96.6525 13.3494H96.5122V28.7332H96.6525V13.3494Z" fill="#8F8183"/>
</g>
<mask id="mask15_1_1854" style="mask-type:luminance" maskUnits="userSpaceOnUse" x="109" y="13" width="11" height="16">
<path d="M111.528 21.243V13.8756C114.72 13.8756 117.457 13.6826 117.457 17.2786C117.443 17.8616 117.308 18.4355 117.061 18.9638C116.814 19.4921 116.46 19.9633 116.022 20.3476C115.583 20.7319 115.069 21.0208 114.513 21.1961C113.957 21.3714 113.37 21.4291 112.791 21.3658C112.367 21.3685 111.943 21.3273 111.528 21.243ZM109.528 13.3494V28.435H111.528V21.7517C112.136 21.8543 112.752 21.907 113.37 21.9096C116.79 21.9096 119.439 20.1554 119.439 17.7523C119.439 13.7704 116.158 13.3494 111.528 13.3494H109.528Z" fill="white"/>
</mask>
<g mask="url(#mask15_1_1854)">
<path d="M117.474 13.6638H117.352V21.3469H117.474V13.6638Z" fill="#8F8183"/>
<path d="M117.334 13.6638H116.65V21.3469H117.334V13.6638Z" fill="#8F8183"/>
<path d="M116.65 13.6638H115.966V21.3469H116.65V13.6638Z" fill="#8F8183"/>
<path d="M115.965 13.6638H115.281V21.3469H115.965V13.6638Z" fill="#8F8183"/>
<path d="M115.264 13.6638H114.58V21.3469H115.264V13.6638Z" fill="#8F8183"/>
<path d="M114.58 13.6638H113.896V21.3469H114.58V13.6638Z" fill="#8F8183"/>
<path d="M113.896 13.6638H113.212V21.3469H113.896V13.6638Z" fill="#8F8183"/>
<path d="M113.194 13.6638H112.51V21.3469H113.194V13.6638Z" fill="#8F8183"/>
<path d="M112.51 13.6638H111.826V21.3469H112.51V13.6638Z" fill="#8F8183"/>
<path d="M111.826 13.6638H111.545V21.3469H111.826V13.6638Z" fill="#8F8183"/>
<path d="M119.456 13.3494H119.421V28.435H119.456V13.3494Z" fill="#8F8183"/>
<path d="M119.404 13.3494H118.719V28.435H119.404V13.3494Z" fill="#8F8183"/>
<path d="M118.72 13.3494H118.036V28.435H118.72V13.3494Z" fill="#8F8183"/>
<path d="M118.035 13.3494H117.351V28.435H118.035V13.3494Z" fill="#8F8183"/>
<path d="M117.334 13.3494H116.65V28.435H117.334V13.3494Z" fill="#8F8183"/>
<path d="M116.65 13.3494H115.966V28.435H116.65V13.3494Z" fill="#8F8183"/>
<path d="M115.966 13.3494H115.281V28.435H115.966V13.3494Z" fill="#8F8183"/>
<path d="M115.264 13.3494H114.58V28.435H115.264V13.3494Z" fill="#8F8183"/>
<path d="M114.58 13.3494H113.896V28.435H114.58V13.3494Z" fill="#8F8183"/>
<path d="M113.896 13.3494H113.212V28.435H113.896V13.3494Z" fill="#8F8183"/>
<path d="M113.194 13.3494H112.51V28.435H113.194V13.3494Z" fill="#8F8183"/>
<path d="M112.51 13.3494H111.826V28.435H112.51V13.3494Z" fill="#8F8183"/>
<path d="M111.826 13.3494H111.142V28.435H111.826V13.3494Z" fill="#8F8183"/>
<path d="M111.124 13.3494H110.44V28.435H111.124V13.3494Z" fill="#8F8183"/>
<path d="M110.44 13.3494H109.756V28.435H110.44V13.3494Z" fill="#8F8183"/>
<path d="M109.756 13.3494H109.528V28.435H109.756V13.3494Z" fill="#8F8183"/>
</g>
<mask id="mask16_1_1854" style="mask-type:luminance" maskUnits="userSpaceOnUse" x="54" y="13" width="13" height="16">
<path d="M60.2192 13.2083C59.7606 13.29 59.309 13.4072 58.8685 13.559C58.4498 13.7042 58.0449 13.8862 57.6583 14.1028C57.2867 14.3239 56.9347 14.5763 56.6058 14.8571C56.277 15.136 55.9773 15.4475 55.7112 15.7868C55.445 16.1274 55.2102 16.4914 55.0095 16.8744C54.8015 17.275 54.6254 17.6914 54.4832 18.1198C54.3448 18.5676 54.2394 19.0249 54.1676 19.488C54.0832 19.9805 54.042 20.4795 54.0447 20.9791C53.9697 21.9599 54.0984 22.9456 54.4224 23.8743C54.7464 24.8031 55.2588 25.6548 55.9275 26.3762C56.5962 27.0976 57.4066 27.673 58.3082 28.0664C59.2097 28.4598 60.1829 28.6627 61.1666 28.6622C62.2836 28.7475 63.4041 28.5475 64.4228 28.0812C65.4415 27.6148 66.3248 26.8972 66.9902 25.9959V21.6982H62.2717V22.1894H64.9907V27.0659C64.0315 27.8415 62.8194 28.2351 61.5875 28.171C58.588 28.171 56.0444 25.2241 56.0444 20.944C56.0265 20.6402 56.0265 20.3356 56.0444 20.0318C56.082 19.4996 56.1642 18.9716 56.29 18.4531C56.4108 17.968 56.5692 17.4929 56.7637 17.0323C56.9572 16.6103 57.1861 16.2054 57.4478 15.8219C57.7015 15.4725 57.9894 15.1493 58.3073 14.8571C58.6222 14.5767 58.9696 14.3353 59.3422 14.1379C59.7088 13.9451 60.0976 13.7979 60.5 13.6994C61.0759 13.556 61.6782 13.556 62.2541 13.6994C62.7211 13.8305 63.1607 14.0444 63.5522 14.3308C63.955 14.6314 64.315 14.9855 64.6221 15.3834C64.9384 15.8161 65.209 16.2805 65.4292 16.7691H66.9377C66.8152 16.4742 66.6746 16.1872 66.5168 15.9096C66.2999 15.521 66.0346 15.1615 65.7273 14.8396C65.4262 14.5159 65.0842 14.2328 64.7099 13.9976C64.3139 13.7497 63.89 13.5496 63.447 13.4012C62.9743 13.2446 62.4861 13.1388 61.9909 13.0855H61.3244C60.9272 13.0594 60.5288 13.0594 60.1317 13.0855" fill="white"/>
</mask>
<g mask="url(#mask16_1_1854)">
<path d="M67.0082 13.0854H66.9731V28.6622H67.0082V13.0854Z" fill="#8F8183"/>
<path d="M66.9729 13.0854H66.2888V28.6622H66.9729V13.0854Z" fill="#8F8183"/>
<path d="M66.2889 13.0854H65.6047V28.6622H66.2889V13.0854Z" fill="#8F8183"/>
<path d="M65.6045 13.0854H64.9204V28.6622H65.6045V13.0854Z" fill="#8F8183"/>
<path d="M64.9031 13.0854H64.219V28.6622H64.9031V13.0854Z" fill="#8F8183"/>
<path d="M64.2188 13.0854H63.5347V28.6622H64.2188V13.0854Z" fill="#8F8183"/>
<path d="M63.5347 13.0854H62.8506V28.6622H63.5347V13.0854Z" fill="#8F8183"/>
<path d="M62.8335 13.0854H62.1494V28.6622H62.8335V13.0854Z" fill="#8F8183"/>
<path d="M62.149 13.0854H61.4648V28.6622H62.149V13.0854Z" fill="#8F8183"/>
<path d="M61.4651 13.0854H60.781V28.6622H61.4651V13.0854Z" fill="#8F8183"/>
<path d="M60.7635 13.0854H60.0793V28.6622H60.7635V13.0854Z" fill="#8F8183"/>
<path d="M60.0794 13.0854H59.3953V28.6622H60.0794V13.0854Z" fill="#8F8183"/>
<path d="M59.395 13.0854H58.7109V28.6622H59.395V13.0854Z" fill="#8F8183"/>
<path d="M58.6931 13.0854H58.009V28.6622H58.6931V13.0854Z" fill="#8F8183"/>
<path d="M58.0096 13.0854H57.3254V28.6622H58.0096V13.0854Z" fill="#8F8183"/>
<path d="M57.3252 13.0854H56.6411V28.6622H57.3252V13.0854Z" fill="#8F8183"/>
<path d="M56.6233 13.0854H55.9392V28.6622H56.6233V13.0854Z" fill="#8F8183"/>
<path d="M55.939 13.0854H55.2549V28.6622H55.939V13.0854Z" fill="#8F8183"/>
<path d="M55.2556 13.0854H54.5715V28.6622H55.2556V13.0854Z" fill="#8F8183"/>
<path d="M54.5712 13.0854H54.0625V28.6622H54.5712V13.0854Z" fill="#8F8183"/>
</g>
</svg>
