<svg width="91" height="75" viewBox="0 0 91 75" fill="none" xmlns="http://www.w3.org/2000/svg">
<path d="M90.3166 39.2242C90.2595 39.1771 90.1766 39.1621 90.112 39.1839C90.0332 39.2081 89.9609 39.2292 89.8927 39.2491L89.8594 39.2589C89.6913 39.308 89.5461 39.3502 89.4022 39.408C87.1292 40.3111 85.3397 41.8584 83.9313 44.138C83.5835 44.7012 83.3141 45.2867 83.0995 45.8706C83.4514 43.9066 83.5329 43.1415 83.5953 40.9439C83.5982 40.8517 83.5982 40.7579 83.5982 40.6648C83.5982 40.4106 83.5982 40.1704 83.6537 39.9513C83.7203 39.6916 83.8542 39.4327 83.9838 39.1821C84.0203 39.1112 84.0568 39.0402 84.0869 38.9779C84.0973 38.9657 84.1311 38.9451 84.1442 38.943C84.7943 38.8438 85.3691 38.5678 85.902 38.0995C86.439 37.6253 86.8806 37.0448 87.2148 36.3737C88.4143 33.9683 89.0145 31.3097 88.9993 28.4725C88.998 28.1988 88.9658 27.9323 88.9304 27.6425C88.9144 27.5127 88.898 27.3799 88.8844 27.2424C88.8767 27.167 88.8303 27.0999 88.763 27.0673C88.6966 27.0351 88.6164 27.0374 88.5493 27.0779C88.5088 27.1033 88.4741 27.1239 88.4426 27.1423C88.3817 27.1785 88.3352 27.2068 88.2913 27.2386C87.2681 27.972 86.3656 28.8851 85.6086 29.9518C84.3733 31.6953 83.6548 33.6667 83.4613 35.8355C83.4421 35.5938 83.4226 35.352 83.4031 35.1103L83.3963 35.0226C83.3204 34.0748 83.242 33.0946 83.1781 32.1308C83.162 31.8868 83.1151 31.6493 83.0698 31.4196C82.9824 30.978 82.8997 30.5608 83.032 30.1238C83.0621 30.025 83.0875 29.9255 83.1129 29.8263C83.1754 29.5804 83.4774 29.2018 83.9412 28.7879L83.9587 28.7722C84.1297 28.6272 85.0084 27.8233 85.5069 26.2332C86.0128 24.6177 85.9745 22.9298 85.9467 21.6972L85.946 21.6643C85.9088 19.97 85.7257 18.6932 85.3523 17.5239C85.3041 17.3743 85.2468 17.2268 85.186 17.0718C85.1546 16.9912 85.1224 16.9078 85.0893 16.8206C85.0621 16.7467 84.9969 16.693 84.9205 16.6803L84.8831 16.6769C84.817 16.6769 84.7551 16.7066 84.7132 16.7578L84.3504 17.1999C82.6112 19.3211 81.7568 21.8089 81.8103 24.5944C81.8196 25.0849 81.8563 25.5882 81.9213 26.1077C81.4793 24.5822 80.9609 23.0972 80.3713 21.6686C80.3591 21.6374 80.3511 21.5986 80.3502 21.5658L80.3461 21.3705C80.34 21.0886 80.3337 20.797 80.3457 20.5101C80.3475 20.4626 80.3783 20.3771 80.4424 20.2931C80.5335 20.1728 80.6346 20.0552 80.7393 19.9328C80.9176 19.7253 81.1018 19.5109 81.2477 19.2662C81.7176 18.4791 81.9383 17.5492 81.9419 16.3396C81.9483 14.9155 81.7287 13.4169 81.2502 11.6231C80.9887 10.6446 80.594 9.37324 79.859 8.22065C79.8092 8.14316 79.7534 8.0702 79.6941 7.99294C79.6673 7.95873 79.6392 7.92225 79.6107 7.88305C79.569 7.82709 79.5114 7.79446 79.4185 7.79446C79.3445 7.7999 79.2783 7.84204 79.2414 7.90752C78.3187 9.57263 77.8592 11.3515 77.8375 13.3458C77.8189 15.0086 78.0786 16.4395 78.4042 17.5703C77.5756 16.0566 76.6548 14.594 75.6567 13.2067L75.6338 13.1752C75.6112 13.1451 75.6016 13.1303 75.6032 13.1408C75.5405 12.6919 75.497 12.3328 75.4668 12.0201C75.4675 12.0153 75.4734 11.9891 75.5201 11.9111C75.586 11.7987 75.6583 11.6886 75.7351 11.5722C75.8892 11.3379 76.0482 11.0954 76.1502 10.824C76.4579 10.0047 76.527 9.07552 76.3609 7.98433C75.9963 5.56925 74.9317 3.39457 73.1068 1.33567C72.919 1.12428 72.7114 0.937353 72.4919 0.739779L72.4312 0.684721C72.3453 0.607005 72.2571 0.527477 72.1681 0.443417C72.1115 0.389492 72.0303 0.369327 71.9517 0.392438C71.8774 0.416002 71.8201 0.47763 71.8024 0.554213L71.7625 0.72913C71.7353 0.845137 71.7143 0.936674 71.6986 1.02866C71.453 2.49461 71.4709 4.06479 71.7537 5.82936C72.0342 7.57944 72.5932 9.08889 73.4508 10.4001C72.1647 8.88474 70.9138 7.61229 69.6064 6.48462C69.6005 6.47692 69.5919 6.45358 69.5913 6.44769C69.6934 5.56744 69.4764 4.73817 68.9272 3.91253C68.206 2.82745 67.2038 2.00045 65.9486 1.45485C65.1975 1.12904 64.4192 0.840605 63.6572 0.558065C63.2922 0.422572 62.9272 0.287533 62.5513 0.14275C62.1736 -0.00746966 62.012 -0.0342057 61.9244 0.0469086C61.8115 0.15204 61.8387 0.241765 61.8879 0.4049L61.9037 0.458144C62.3644 2.00974 62.9757 3.23688 63.773 4.20957C65.2367 5.99703 66.9485 6.90515 69.0035 6.98535C69.0756 6.98966 69.1327 7.0096 69.156 7.02772C69.4453 7.24433 69.6583 7.41766 69.8466 7.58941C70.442 8.13364 71.0284 8.71345 71.6021 9.32407C70.7488 8.79389 69.7059 8.55462 68.5313 8.61398C67.8885 8.64638 67.2505 8.74064 66.6335 8.83173L66.61 8.83535C66.4276 8.86209 66.2461 8.8886 66.065 8.9142C65.6685 8.9679 65.2689 9.03814 64.9158 9.09976C64.7729 9.12537 64.4314 9.20308 64.3528 9.36871C64.3256 9.42535 64.3279 9.48744 64.3587 9.54385C64.3859 9.59302 64.4158 9.63924 64.4484 9.68139C65.4673 11.0035 66.6297 11.8742 68.0018 12.343C69.6749 12.9176 71.2115 12.8702 72.5923 12.1943C72.8034 12.0781 73.0581 12.0192 73.349 12.0192C73.5686 12.0192 73.7333 12.0539 73.7879 12.0663C73.8697 12.0799 73.9807 12.1257 74.0034 12.1551C74.8621 13.2842 75.6771 14.49 76.4382 15.7568C75.7951 15.1315 74.9566 14.7098 73.8142 14.4352C72.8129 14.1966 71.7893 14.1454 70.7996 14.0955L70.4681 14.0788C70.1577 14.0629 69.8473 14.0432 69.5276 14.023L68.9915 13.99C68.9222 13.99 68.8562 14.0235 68.8159 14.0792C68.7713 14.1393 68.7606 14.2172 68.7869 14.2872C68.8084 14.3457 68.8476 14.4488 68.8678 14.4832C69.9116 16.2292 71.1374 17.4369 72.6147 18.1755C74.0589 18.8969 75.3637 19.0877 76.6799 18.773C76.8322 18.7363 77.0087 18.7168 77.1911 18.7168C77.7509 18.7168 78.1413 18.8876 78.2234 19.0458C78.9475 20.5396 79.5937 22.0919 80.1511 23.6752C79.5665 22.8693 78.749 22.2147 77.714 21.725C76.6858 21.2397 75.6152 20.7961 74.5619 20.3595C74.1092 20.1723 73.6547 19.9845 73.2022 19.7924C73.1349 19.7629 73.0554 19.769 72.9926 19.8105C72.931 19.8515 72.8943 19.9199 72.8943 19.9936C72.8943 20.1349 74.3965 24.3042 76.5782 25.9471C77.4682 26.6173 78.5643 27.3068 79.9467 27.3392C80.3604 27.3475 80.7882 27.406 81.1113 27.7733C81.1607 27.8317 81.2262 27.8773 81.2975 27.9015C81.4079 27.9378 81.4382 28.0053 81.4926 28.2355C81.9403 30.1152 82.2664 32.0526 82.4671 34.02C82.4064 33.8204 82.3359 33.6187 82.2551 33.4146C81.7668 32.1763 80.945 31.0928 79.6689 30.0046C79.0112 29.4413 78.3224 28.896 77.6562 28.3683L77.6245 28.3433C77.3211 28.1029 77.0184 27.8635 76.7166 27.621C76.6543 27.5709 76.5936 27.5193 76.5231 27.459L76.3348 27.2977C76.2689 27.242 76.1708 27.2304 76.0938 27.2689C76.0147 27.309 75.9673 27.3919 75.9735 27.4805C75.9827 27.6135 75.9902 27.7393 75.9972 27.8601L76.0009 27.9165C76.0158 28.165 76.0299 28.3995 76.055 28.6311C76.2911 30.8858 76.9616 32.7681 78.1046 34.3857C78.8122 35.3856 79.8273 36.6077 81.4102 37.1857C81.7953 37.3271 82.0747 37.5412 82.374 37.9255C82.6563 38.2853 82.7089 38.614 82.7025 39.0278C82.6756 40.7609 82.5521 42.4801 82.3344 44.1638C82.2834 43.6952 82.1755 43.2129 82.0099 42.7117C81.6671 41.674 81.1328 40.665 80.3763 39.6273C79.7233 38.7287 79.0438 37.8269 78.3867 36.9544L78.343 36.8961C78.0824 36.5506 77.8221 36.2046 77.5685 35.8661C77.521 35.7966 77.4523 35.7716 77.4127 35.7578C77.3565 35.7304 77.2894 35.7277 77.2298 35.7531C77.1714 35.778 77.1265 35.8272 77.1068 35.8874L77.0991 35.911C77.0882 35.9427 77.0796 35.9708 77.0751 35.9989C76.6219 38.701 76.8999 41.122 77.9247 43.4009C78.4252 44.5152 79.0966 45.7768 80.2802 46.6845C80.8206 47.0989 81.2472 47.6803 81.4815 48.3213C81.5311 48.4592 81.5293 48.5191 81.5237 48.5422C81.0227 50.6171 80.3684 52.6185 79.5728 54.5127C79.7777 53.5144 79.7636 52.4658 79.5298 51.3794C79.1979 49.8395 78.6273 48.3473 78.1184 47.0694L77.966 46.6867C77.7274 46.0879 77.4872 45.4843 77.2391 44.8587C77.2076 44.7787 77.1317 44.7241 77.0304 44.7191C76.9507 44.7191 76.8773 44.7647 76.8392 44.8385L76.7592 44.989C76.7241 45.0549 76.6912 45.1163 76.6632 45.1798C75.6395 47.4895 75.2937 49.8572 75.6361 52.2172C75.8808 53.9048 76.2954 55.1131 76.9806 56.1354C77.3352 56.6638 77.6721 57.2524 77.7333 57.9763C77.7478 58.1476 77.741 58.2657 77.6646 58.4C76.8005 59.9133 75.8316 61.3415 74.7706 62.6683C74.7746 62.661 74.7785 62.6538 74.7826 62.6465C75.5459 61.2515 75.569 59.7432 75.4911 58.4515C75.4238 57.3442 75.2969 56.2385 75.1748 55.1695L75.1677 55.1077C75.1186 54.6794 75.0696 54.2514 75.025 53.8225C74.9992 53.5794 74.9704 53.3363 74.9407 53.0896L74.9015 52.7556C74.8929 52.6817 74.8478 52.6178 74.783 52.5856C74.6625 52.5227 74.4674 52.6199 74.2567 52.8691C72.8086 54.5818 71.91 56.5172 71.5856 58.6219C71.2491 60.804 71.4315 62.6715 72.1439 64.3309C72.1629 64.3751 72.1624 64.4653 72.1622 64.4954L72.1239 65.4502C72.1183 65.5188 72.082 65.5963 72.0521 65.6251C70.6061 67.0176 69.0142 68.2282 67.3058 69.2358C68.1144 68.5049 68.6958 67.5512 69.0726 66.3427C69.4902 65.0032 69.7045 63.609 69.9123 62.2573L69.9304 62.137C70.0041 61.6621 70.0809 61.1881 70.1593 60.7036L70.2479 60.156C70.2606 60.0763 70.2291 59.9965 70.1672 59.9487C70.1058 59.8998 70.017 59.888 69.9463 59.9183L69.869 59.9503C69.7866 59.984 69.7147 60.0142 69.647 60.0488C66.4174 61.6618 64.2914 65.4239 64.5918 68.9939C64.639 69.553 64.5878 70.0782 64.4351 70.5985C64.4208 70.6458 64.375 70.6973 64.3564 70.7059C62.8225 71.3527 61.364 71.8247 59.8965 72.1487C59.8211 72.1661 59.7612 72.2201 59.7368 72.2928C59.7121 72.366 59.727 72.4455 59.7773 72.5053C59.9368 72.6943 60.0757 72.8975 60.1899 73.1103C60.2368 73.1973 60.3485 73.2419 60.4321 73.2202C61.6278 72.9474 62.7921 72.5941 63.894 72.1695C63.983 72.1337 64.051 72.1167 64.1147 72.1272C64.3598 72.1598 64.6188 72.2101 64.9063 72.2815C64.9657 72.296 65.0149 72.3234 65.0158 72.3209C65.6438 73.573 66.7232 74.3705 68.3168 74.7586C68.6634 74.8418 69.021 74.9032 69.3794 74.9408C69.7546 74.9804 70.1731 75.0006 70.6228 75.0006C71.2459 75.0006 71.6903 74.9621 71.6957 74.9616C73.0769 74.8071 74.2565 74.4963 75.3012 74.0112C75.7299 73.8124 76.2184 73.5449 76.5938 73.067C76.6656 72.9755 76.6536 72.8434 76.5664 72.7666C75.5051 71.8301 74.4246 71.1497 73.2625 70.6866C71.5407 70.0023 69.9724 69.817 68.435 70.1127C68.2053 70.1573 67.981 70.2135 67.763 70.2781C69.2011 69.4185 70.578 68.4081 71.8783 67.2571C71.9032 67.2345 71.9442 67.2145 71.9762 67.2089C72.1889 67.1735 72.4715 67.13 72.7606 67.1092C72.7873 67.1092 72.8213 67.1221 72.8252 67.1235C73.6087 68.0003 74.6181 68.4265 75.9111 68.4265C75.9771 68.4265 76.0432 68.4251 76.1092 68.4229C77.5151 68.3776 78.9285 67.9912 80.3108 67.2741C81.3154 66.7501 82.3627 66.1399 83.2119 65.23C83.4002 65.0276 83.5683 64.7988 83.7167 64.5969L83.7312 64.5772C83.7969 64.4882 83.8633 64.3984 83.9315 64.3098C83.9686 64.262 83.9843 64.2004 83.9745 64.1383C83.9641 64.0785 83.9295 64.0253 83.8703 63.9867C83.8554 63.9786 83.4958 63.7858 83.1675 63.6587C80.9692 62.8092 78.7499 62.7222 76.6328 63.4044C75.9397 63.6272 75.2874 63.9616 74.6523 64.4238C75.8269 63.0585 76.9144 61.5617 77.9018 59.9512C77.9125 59.9342 77.9406 59.8882 77.9496 59.8798C78.036 59.8248 78.1243 59.7726 78.2125 59.7212C78.3704 59.6285 78.534 59.5327 78.6876 59.4185C78.8172 59.3218 78.8537 59.3193 78.9846 59.4036C79.17 59.5239 79.3855 59.5864 79.5733 59.6356C80.6722 59.917 81.7799 59.7767 83.0052 59.2014C84.1245 58.6767 84.9851 57.8472 85.7486 57.0293C86.8593 55.8361 87.585 54.7596 88.0327 53.6413C88.1268 53.4065 88.1938 53.1639 88.2636 52.9101C88.2924 52.8036 88.3219 52.6971 88.3531 52.5924C88.3873 52.4801 88.3275 52.3611 88.2165 52.3219L88.1245 52.3149C87.6716 52.3149 83.6313 52.3813 81.2681 54.6742C80.754 55.1731 80.2931 55.7033 79.8724 56.2838C80.8072 54.304 81.6 52.2175 82.239 50.0516L82.2483 50.0199C82.256 49.9934 82.2675 49.9533 82.2752 49.9424L82.8933 49.0936C82.9164 49.0597 82.9191 49.0597 82.9554 49.0597C82.9715 49.0597 82.9892 49.0608 83.0093 49.0619L83.1414 49.0699C83.6014 49.0984 83.8721 49.0943 84.0949 49.0594C84.9749 48.9205 85.7693 48.4774 86.5231 47.7043C88.2861 45.8962 89.4996 43.6404 90.2328 40.8087C90.3114 40.5053 90.3334 40.1989 90.357 39.874C90.3674 39.7268 90.3789 39.575 90.3957 39.4182C90.4027 39.3429 90.3733 39.2711 90.3166 39.2242Z" fill="#8F8183"/>
<path d="M30.4999 72.1463C29.0337 71.8225 27.5755 71.3505 26.0411 70.7037C26.0227 70.695 25.9772 70.6436 25.9629 70.5974C25.81 70.076 25.7588 69.5508 25.8059 68.9916C26.1064 65.4215 23.9804 61.6596 20.7514 60.0469C20.6828 60.012 20.6112 59.9818 20.5287 59.9481L20.4521 59.9164C20.3794 59.8853 20.2908 59.8982 20.2321 59.9454C20.1687 59.9943 20.1372 60.0741 20.1501 60.154L20.2385 60.7015C20.3169 61.1859 20.3937 61.6599 20.4673 62.1343L20.4859 62.2585C20.6932 63.6068 20.9076 65.0012 21.3251 66.3407C21.7019 67.5493 22.2833 68.5029 23.092 69.2336C21.3836 68.2263 19.7917 67.0157 18.3459 65.6234C18.3155 65.5941 18.2795 65.5166 18.2743 65.4528L18.2355 64.4973C18.2353 64.4633 18.2349 64.3731 18.2541 64.3285C18.9663 62.6695 19.1486 60.802 18.8122 58.6199C18.4877 56.5152 17.5891 54.5798 16.1411 52.8671C15.9716 52.6666 15.8221 52.5651 15.6965 52.5651C15.6659 52.5651 15.6383 52.5712 15.6165 52.5825C15.5499 52.6156 15.5048 52.6797 15.496 52.7538L15.4573 53.0871C15.4274 53.3346 15.3986 53.5774 15.3728 53.8208C15.3281 54.2495 15.2792 54.6775 15.23 55.1057L15.223 55.1675C15.1006 56.2368 14.9738 57.3425 14.9067 58.4495C14.8287 59.741 14.8519 61.2493 15.6152 62.6446C15.6193 62.6516 15.6229 62.6591 15.627 62.6661C14.5659 61.3393 13.5973 59.9114 12.7331 58.3983C12.6568 58.2637 12.6502 58.1457 12.6645 57.9744C12.7259 57.25 13.0626 56.6614 13.4172 56.1334C14.1021 55.1111 14.5167 53.9028 14.7617 52.2153C15.104 49.8552 14.7583 47.4877 13.7346 45.178C13.7065 45.1144 13.6737 45.053 13.6385 44.987L13.5586 44.8361C13.5203 44.7625 13.4385 44.714 13.3521 44.7179C13.266 44.7224 13.1901 44.777 13.1589 44.8563C12.9106 45.4825 12.6704 46.0859 12.4318 46.6848L12.2793 47.0675C11.7704 48.3456 11.1997 49.8378 10.868 51.3774C10.6341 52.4638 10.6199 53.5124 10.8249 54.5107C10.0292 52.6168 9.37505 50.6154 8.87409 48.5402C8.86843 48.5171 8.86662 48.4573 8.91624 48.3193C9.15052 47.6781 9.57716 47.0967 10.1178 46.6823C11.3012 45.7746 11.9725 44.513 12.473 43.3987C13.4978 41.1198 13.7758 38.6989 13.3227 35.9969C13.3179 35.9686 13.3093 35.9405 13.2991 35.9099L13.291 35.8855C13.2713 35.825 13.2264 35.776 13.167 35.7504C13.109 35.7262 13.0361 35.7307 12.991 35.7529C12.9457 35.7694 12.877 35.7946 12.8324 35.8601C12.5759 36.2027 12.3156 36.5484 12.055 36.8939L12.0113 36.9522C11.3542 37.8247 10.6747 38.7265 10.0217 39.6249C9.26516 40.6628 8.7309 41.6718 8.38809 42.7095C8.22269 43.2107 8.11461 43.693 8.06363 44.1616C7.84589 42.4779 7.72241 40.7589 7.69544 39.0256C7.6891 38.6118 7.74166 38.2831 8.02421 37.9231C8.32329 37.5392 8.60266 37.3249 8.98783 37.1835C10.5705 36.6053 11.5858 35.3834 12.2934 34.3835C13.4364 32.766 14.1069 30.8838 14.343 28.6293C14.3681 28.3973 14.3824 28.1626 14.3971 27.9143L14.4007 27.8579C14.4078 27.7371 14.4152 27.6113 14.4248 27.4781C14.4306 27.3898 14.3833 27.3068 14.3042 27.2667C14.2276 27.2282 14.1295 27.2395 14.0629 27.2959L13.8751 27.4568C13.8044 27.5171 13.7439 27.5687 13.6811 27.619C13.3796 27.8613 13.0769 28.101 12.7735 28.3414L12.7417 28.3663C12.0758 28.8938 11.3871 29.4391 10.7293 30.0024C9.453 31.0909 8.6312 32.1744 8.14293 33.4126C8.06227 33.6167 7.99158 33.8186 7.93086 34.0185C8.1316 32.0509 8.45765 30.1132 8.90536 28.2333C8.95974 28.0033 8.9901 27.9358 9.1018 27.8991C9.17204 27.8753 9.23752 27.8295 9.28533 27.7729C9.61001 27.4038 10.0376 27.3453 10.4517 27.337C11.8339 27.3046 12.93 26.6151 13.8198 25.9449C16.0015 24.3017 17.5037 20.1327 17.5037 19.9914C17.5037 19.9177 17.467 19.8491 17.4047 19.8076C17.3433 19.767 17.2604 19.7614 17.1978 19.7893C16.7433 19.9821 16.2888 20.1699 15.8182 20.3645C14.7827 20.7939 13.7122 21.2375 12.684 21.7226C11.6492 22.2123 10.8315 22.8671 10.2469 23.6728C10.8041 22.0897 11.45 20.5376 12.1733 19.0461C12.2564 18.8852 12.647 18.7144 13.2071 18.7144C13.3893 18.7144 13.5658 18.7339 13.7183 18.7706C15.0342 19.086 16.3391 18.8947 17.7833 18.1731C19.2608 17.4344 20.4866 16.2268 21.5306 14.4801C21.5506 14.4464 21.5898 14.3433 21.6109 14.2855C21.6374 14.2148 21.6267 14.1369 21.5828 14.0777C21.542 14.0215 21.4767 13.988 21.3936 13.988C21.3929 13.988 21.3924 13.988 21.3918 13.988L20.8702 14.0208C20.5505 14.041 20.2401 14.0607 19.9297 14.0766L19.5982 14.0934C18.6085 14.1432 17.5848 14.1944 16.5834 14.433C15.4412 14.7076 14.6026 15.1293 13.9596 15.7546C14.7207 14.4878 15.5357 13.2824 16.3942 12.1534C16.4173 12.1235 16.5281 12.0777 16.6189 12.0625C16.6642 12.0519 16.8292 12.0172 17.0485 12.0172C17.3394 12.0172 17.5941 12.0764 17.81 12.1951C19.182 12.866 20.7227 12.9158 22.3955 12.3412C23.7676 11.8724 24.9297 11.0017 25.9484 9.6801C25.9815 9.6375 26.0114 9.59105 26.0386 9.54211C26.0696 9.48569 26.0717 9.42361 26.0445 9.36697C25.9656 9.20157 25.6244 9.12385 25.4808 9.09802C25.1282 9.03639 24.7288 8.96615 24.3327 8.91246C24.1512 8.88708 23.9695 8.86057 23.7873 8.83361L23.764 8.82998C23.1468 8.7389 22.5088 8.64464 21.866 8.61224C20.6914 8.5522 19.6485 8.79192 18.795 9.32256C19.3689 8.71171 19.9553 8.13213 20.5507 7.58766C20.739 7.41592 20.952 7.24282 21.2422 7.02553C21.2646 7.00831 21.3217 6.98814 21.3918 6.98407C23.4488 6.90363 25.1606 5.99551 26.6243 4.20828C27.4216 3.23536 28.0329 2.00822 28.4936 0.456629L28.5094 0.403384C28.5586 0.240249 28.5858 0.150524 28.4727 0.045393C28.3855 -0.0357214 28.2319 -0.0117036 27.8326 0.146447C27.4701 0.285791 27.1053 0.421057 26.7308 0.559949C25.9783 0.838864 25.2 1.1273 24.4489 1.45311C23.1937 1.99871 22.1913 2.82571 21.4701 3.91078C20.9209 4.73643 20.7039 5.56592 20.8061 6.44232C20.8054 6.45206 20.7968 6.4754 20.7954 6.47812C19.4851 7.60942 18.2326 8.883 16.9466 10.3988C17.8041 9.0876 18.3631 7.57792 18.6436 5.82785C18.9264 4.0635 18.9443 2.4931 18.6987 1.02715C18.683 0.935385 18.662 0.843622 18.635 0.728748L18.5949 0.551791C18.5768 0.475888 18.5197 0.414486 18.4447 0.390922C18.3697 0.368718 18.2856 0.38843 18.2297 0.441675C18.1399 0.526188 18.052 0.605943 17.9661 0.683432L17.9057 0.738037C17.6859 0.936065 17.4783 1.12299 17.2905 1.33439C15.4654 3.39328 14.401 5.56796 14.0364 7.98281C13.8703 9.07423 13.9392 10.0034 14.2471 10.8227C14.3491 11.0942 14.5081 11.3366 14.6665 11.5772C14.739 11.6871 14.8115 11.7975 14.8779 11.9107C14.9269 11.9921 14.9309 12.0132 14.9307 12.0093C14.9006 12.3322 14.8573 12.692 14.7988 13.1238C14.7963 13.1293 14.7882 13.142 14.7621 13.1764L14.7411 13.2056C13.743 14.593 12.8222 16.0555 11.9936 17.5693C12.3194 16.4386 12.5788 15.0076 12.5605 13.3447C12.5383 11.3502 12.079 9.57134 11.1559 7.90578C11.1195 7.84098 11.0533 7.79883 10.9606 7.79249C10.8933 7.79249 10.8285 7.8258 10.7862 7.88267C10.7585 7.92119 10.7304 7.95744 10.7037 7.99188C10.6441 8.06891 10.5884 8.14187 10.5385 8.21981C9.80351 9.37241 9.40927 10.6433 9.14757 11.6219C8.66927 13.4166 8.44949 14.9151 8.45583 16.3383C8.45946 17.548 8.67992 18.4778 9.14984 19.2647C9.29598 19.5097 9.47996 19.724 9.66484 19.9397C9.76295 20.0541 9.86378 20.1717 9.95509 20.2923C10.019 20.3761 10.0498 20.4615 10.0516 20.5091C10.0636 20.7959 10.0573 21.0875 10.0512 21.3694L10.0469 21.5642C10.0462 21.5978 10.0385 21.6363 10.0269 21.6658C9.43691 23.0952 8.91827 24.5809 8.476 26.1067C8.54103 25.5871 8.57773 25.0841 8.58702 24.5933C8.64049 21.8078 7.78607 19.3202 6.04687 17.1988L5.68435 16.7572C5.64244 16.7053 5.58035 16.6759 5.51419 16.6759L5.47794 16.679C5.40045 16.692 5.3352 16.7457 5.30824 16.8188C5.27516 16.907 5.24275 16.9901 5.21126 17.0706C5.15054 17.226 5.09321 17.3733 5.04473 17.523C4.67156 18.6919 4.48848 19.9689 4.45132 21.6628L4.45064 21.6959C4.42277 22.9282 4.38448 24.6165 4.89066 26.2319C5.3889 27.8223 6.26756 28.626 6.43794 28.7703L6.45607 28.7866C6.91987 29.2005 7.2219 29.5792 7.28443 29.825C7.30958 29.9242 7.33519 30.0237 7.36509 30.122C7.49742 30.5596 7.41472 30.9765 7.32544 31.4267C7.28104 31.6539 7.23481 31.8887 7.21873 32.1295C7.15483 33.0934 7.07644 34.0735 7.00053 35.0213L6.99374 35.109C6.97425 35.3507 6.95477 35.5925 6.93551 35.8343C6.74201 33.6655 6.02376 31.694 4.78802 29.9505C4.03125 28.8838 3.12902 27.9711 2.10581 27.2373C2.06162 27.2055 2.01518 27.1772 1.95309 27.1403C1.92296 27.1228 1.88807 27.102 1.8457 27.0755C1.7818 27.0372 1.69978 27.0338 1.63385 27.066C1.56633 27.0988 1.51988 27.1657 1.51218 27.2413C1.49836 27.3784 1.48227 27.5112 1.46527 27.649C1.43106 27.931 1.39866 28.1975 1.3973 28.4712C1.38212 31.3084 1.98232 33.967 3.18182 36.3724C3.51602 37.0435 3.95761 37.624 4.49483 38.0984C5.02751 38.5663 5.60233 38.8423 6.25102 38.9415C6.26529 38.944 6.29928 38.9646 6.30449 38.9687C6.33961 39.0392 6.37609 39.1099 6.41257 39.1808C6.54217 39.4311 6.67608 39.6901 6.74269 39.9498C6.7982 40.1693 6.7982 40.4093 6.7982 40.6635C6.7982 40.7566 6.7982 40.8504 6.80115 40.9424C6.86345 43.1402 6.94525 43.9056 7.2969 45.8693C7.08233 45.2854 6.81293 44.7 6.46513 44.1367C5.05674 41.8571 3.26746 40.3098 0.995129 39.4069C0.850573 39.3487 0.705565 39.3068 0.537445 39.2578L0.503912 39.2478C0.435712 39.2279 0.363434 39.2066 0.286172 39.183C0.216386 39.1602 0.136858 39.1758 0.0799875 39.2229C0.0233435 39.2698 -0.00633802 39.3417 0.001139 39.4164C0.0179056 39.5723 0.029461 39.7239 0.0401101 39.8718C0.0634475 40.1963 0.0854254 40.5026 0.164047 40.8058C0.897248 43.6378 2.11079 45.8933 3.87378 47.7016C4.6276 48.4747 5.42198 48.9179 6.30223 49.0568C6.52427 49.0915 6.79571 49.0958 7.25521 49.0672L7.38753 49.0593C7.40769 49.0582 7.42536 49.057 7.44145 49.057C7.4777 49.057 7.48065 49.057 7.5058 49.0942L8.12141 49.9395C8.12934 49.9506 8.14089 49.9907 8.14882 50.0184L8.15789 50.0487C8.79683 52.2148 9.58962 54.3011 10.5245 56.2812C10.1037 55.7005 9.64264 55.1703 9.12877 54.6716C6.76557 52.3786 2.72527 52.3122 2.27234 52.3122L2.21592 52.3127L2.18035 52.3193C2.06933 52.3587 2.00928 52.4774 2.0435 52.5891C2.07499 52.6945 2.10445 52.801 2.13821 52.926C2.20278 53.161 2.26985 53.4037 2.36388 53.6384C2.81159 54.7572 3.53731 55.8335 4.64822 57.0266C5.41155 57.8446 6.27209 58.674 7.39115 59.1986C8.6167 59.7741 9.7233 59.9146 10.8238 59.6327C11.0109 59.5835 11.2262 59.5212 11.4113 59.4011C11.5432 59.3166 11.5792 59.3193 11.7088 59.4159C11.8624 59.53 12.0258 59.6259 12.1844 59.7188C12.2721 59.7702 12.3604 59.8221 12.4429 59.8742C12.456 59.8853 12.4841 59.9313 12.4946 59.9483C13.482 61.5588 14.5698 63.0556 15.7443 64.4209C15.109 63.9587 14.4567 63.6243 13.7638 63.4016C11.6465 62.7193 9.42717 62.8061 7.22915 63.656C6.90107 63.7831 6.54149 63.9757 6.51747 63.9893C6.46717 64.0224 6.43251 64.0759 6.42163 64.1373C6.41211 64.1975 6.42775 64.2592 6.46445 64.3063C6.53311 64.3956 6.59949 64.4853 6.6652 64.5743L6.6797 64.5938C6.82811 64.7959 6.99623 65.0245 7.18474 65.2271C8.03372 66.1372 9.08073 66.7474 10.0858 67.2713C11.4679 67.9884 12.8813 68.3747 14.287 68.42C14.3532 68.4223 14.4193 68.4236 14.4853 68.4236C15.7783 68.4236 16.7877 67.9974 17.5658 67.1258C17.5753 67.119 17.6091 67.1061 17.6276 67.1059C17.9249 67.1272 18.2075 67.1704 18.4186 67.2056C18.4519 67.2114 18.4929 67.2314 18.5185 67.2545C19.8184 68.4053 21.1951 69.4153 22.6332 70.275C22.4152 70.2104 22.1907 70.1542 21.9609 70.1091C20.424 69.8137 18.8557 69.999 17.1335 70.6833C15.9716 71.1464 14.8911 71.8268 13.83 72.7632C13.7425 72.84 13.7303 72.9721 13.8024 73.0637C14.1778 73.5415 14.6663 73.8091 15.0947 74.0076C16.1397 74.4931 17.3193 74.804 18.7021 74.9585C18.7061 74.9588 19.1505 74.9973 19.7735 74.9973C20.2233 74.9973 20.6418 74.9771 21.0168 74.9375C21.3752 74.8999 21.7327 74.8385 22.0796 74.7551C23.6729 74.3672 24.7526 73.5696 25.3711 72.3314C25.3822 72.3207 25.4298 72.2931 25.4901 72.2784C25.7776 72.207 26.0363 72.1567 26.2824 72.1238C26.3404 72.1145 26.4127 72.1302 26.5038 72.1669C27.604 72.5908 28.7684 72.944 29.9622 73.2164C29.979 73.2205 29.9964 73.2225 30.0139 73.2225C30.0941 73.2225 30.168 73.1783 30.2069 73.1063C30.3209 72.8942 30.4598 72.6907 30.6195 72.5015C30.6696 72.4419 30.6846 72.3627 30.6599 72.2892C30.6363 72.2181 30.5765 72.1642 30.4999 72.1463Z" fill="#8F8183"/>
<path d="M55.9458 42.9068L65.0497 34.0327C65.3583 33.7318 65.4697 33.2814 65.3363 32.8715C65.2031 32.4612 64.8487 32.1621 64.4218 32.1003L51.8416 30.2734L46.2146 18.8737C46.0238 18.4869 45.63 18.2422 45.1989 18.2422C44.7677 18.2422 44.3737 18.4873 44.1831 18.8737L38.5581 30.2734L25.9759 32.1003C25.5493 32.1621 25.1947 32.4614 25.0614 32.8715C24.928 33.2814 25.0392 33.7318 25.3481 34.0327L34.4519 42.9068L32.304 55.4363C32.231 55.8611 32.4057 56.2907 32.7546 56.544C33.1031 56.7975 33.5653 56.8311 33.9475 56.6303L45.1993 50.7156L56.4511 56.6303C56.6167 56.7176 56.7978 56.7604 56.9779 56.7604C57.2128 56.7604 57.4464 56.6874 57.6438 56.544C57.9927 56.2909 58.1676 55.8611 58.0945 55.4363L55.9458 42.9068Z" fill="#8F8183"/>
</svg>
