<svg width="47" height="50" viewBox="0 0 47 50" fill="none" xmlns="http://www.w3.org/2000/svg">
<path d="M39.3587 50C37.7633 50 36.4653 48.6907 36.4653 47.0814C36.4653 45.472 37.7633 44.1631 39.3587 44.1631C40.9542 44.1631 42.2519 45.472 42.2519 47.0814C42.2519 48.6907 40.9542 50 39.3587 50ZM39.3587 45.5822C38.5392 45.5822 37.8725 46.2547 37.8725 47.0811C37.8725 47.9078 38.5392 48.5803 39.3587 48.5803C40.178 48.5803 40.8447 47.9078 40.8447 47.0811C40.8447 46.255 40.178 45.5822 39.3587 45.5822ZM16.9917 50C15.3962 50 14.0985 48.6907 14.0985 47.0814C14.0985 45.472 15.3962 44.1631 16.9917 44.1631C18.5871 44.1631 19.8851 45.472 19.8851 47.0814C19.8851 48.6907 18.5871 50 16.9917 50ZM16.9917 45.5822C16.1724 45.5822 15.5057 46.2547 15.5057 47.0811C15.5057 47.9078 16.1724 48.5803 16.9917 48.5803C17.8112 48.5803 18.4779 47.9078 18.4779 47.0811C18.4779 46.255 17.8112 45.5822 16.9917 45.5822ZM41.1304 43.0338H15.0776C14.7452 43.0338 14.4585 42.7993 14.3895 42.4714L12.8197 35.0066L5.76717 6.10635H0.703588C0.314926 6.10635 0 5.78869 0 5.39664C0 5.0046 0.314926 4.68693 0.703588 4.68693H6.3185C6.64215 4.68693 6.92415 4.90978 7.00183 5.22688L9.52405 15.5625H18.6693V10.8921H16.6779C16.3807 10.8921 16.1158 10.7039 16.0154 10.422C15.9149 10.1401 16.0013 9.82467 16.2307 9.63447L27.633 0.170047C27.6814 0.1286 27.734 0.0942496 27.7898 0.0678484C27.8849 0.0224269 27.9873 0 28.0898 0H28.0903C28.1919 0 28.2941 0.0218591 28.3887 0.0667128C28.4452 0.093398 28.4987 0.127748 28.5471 0.169763L39.9495 9.63419C40.1785 9.82467 40.2649 10.1398 40.1647 10.4217C40.0646 10.7036 39.7994 10.8918 39.5022 10.8918H37.5108V15.5625H46.2964C46.5052 15.5625 46.7031 15.6559 46.8367 15.8178C46.9707 15.9793 47.0261 16.1928 46.9884 16.4L46.3591 19.8713C46.3574 19.8816 46.3555 19.8915 46.3535 19.9014L43.6194 34.9757C43.5583 35.313 43.267 35.5577 42.9273 35.5577H14.374L15.6475 41.6143H41.1304C41.519 41.6143 41.8339 41.932 41.8339 42.324C41.8339 42.7161 41.519 43.0338 41.1304 43.0338ZM14.0568 34.1382H42.3405L44.82 20.4678H13.5055C13.1169 20.4678 12.8019 20.1501 12.8019 19.7581C12.8019 19.366 13.1169 19.0484 13.5055 19.0484H45.0775L45.4521 16.9823H9.87021L14.0568 34.1382ZM32.1773 15.5625H36.1034V10.1824C36.1034 9.79032 36.4183 9.47266 36.8069 9.47266H37.5398L28.09 1.62865L18.64 9.47266H19.3729C19.7615 9.47266 20.0765 9.79032 20.0765 10.1824V15.5625H24.2971V11.8649C24.2971 11.4729 24.6121 11.1552 25.0007 11.1552H31.4737C31.8624 11.1552 32.1773 11.4729 32.1773 11.8649V15.5625ZM25.7043 15.5625H30.7702V12.5747H25.7043V15.5625Z" fill="#a67c52"/>
</svg>
