<svg width="274" height="350" viewBox="0 0 274 350" fill="none" xmlns="http://www.w3.org/2000/svg">
<g opacity="0.6">
<path d="M141.681 163.003V201.349L203.457 236.835L141.681 272.389V310.667L270.09 236.835L141.681 163.003Z" fill="#BCBDC0"/>
<path d="M146.128 318.364L179.513 337.503L241.22 301.949L241.289 372.92L274.605 392.127V244.531L146.128 318.364Z" fill="#BCBDC0"/>
<path d="M241.22 100.681V171.72L179.444 136.235L146.128 155.374L274.537 229.206V81.5416L241.22 100.681Z" fill="#BCBDC0"/>
<path d="M236.773 380.616L175.066 416.17V345.13L141.681 325.991L141.749 473.587L270.158 399.755L236.773 380.616Z" fill="#BCBDC0"/>
<path d="M99.4713 19.2893V90.2607L37.6955 54.775L4.37891 73.9141L132.788 147.678V0.0820312L99.4713 19.2893Z" fill="#BCBDC0"/>
<path d="M4.44614 399.823L37.7626 418.962L99.5385 383.477V454.448L132.855 473.587V325.991L4.44614 399.823Z" fill="#BCBDC0"/>
<path d="M274.468 -81.3788L241.22 -62.2397V8.7317L179.376 -26.6859L146.128 -7.54676L274.537 66.2853L274.468 -81.3788Z" fill="#BCBDC0"/>
<path d="M0 244.531V282.81L61.7074 318.364L0 353.849V392.127L128.409 318.364L0 244.531Z" fill="#BCBDC0"/>
<path d="M0 119.888L61.7074 155.373L0 190.927V229.205L128.34 155.373L0 81.6094V119.888Z" fill="#BCBDC0"/>
<path d="M174.997 57.5675L236.773 93.0532L270.09 73.914L141.681 0.0820312V147.746L175.066 128.539L174.997 57.5675Z" fill="#BCBDC0"/>
<path d="M132.787 272.389L71.0108 236.835L132.787 201.349V163.003L4.44614 236.903L132.855 310.667L132.787 272.389Z" fill="#BCBDC0"/>
</g>
</svg>
